<?xml version="1.0" encoding="UTF-8"?>
<svg width="64px" height="48px" viewBox="0 0 64 48" version="1.1" xmlns="http://www.w3.org/2000/svg" xmlns:xlink="http://www.w3.org/1999/xlink">
    <!-- Generator: Sketch 53.2 (72643) - https://sketchapp.com -->
    <title>iconmonstr-crop-11</title>
    <desc>Created with Sketch.</desc>
    <g id="Species-Compendia" stroke="none" stroke-width="1" fill="none" fill-rule="evenodd">
        <g id="compendium-rna-seq-compendia" transform="translate(-697.000000, -556.000000)" fill="#386DB0" fill-rule="nonzero">
            <g id="icon-rna-seq-compendia" transform="translate(676.000000, 527.000000)">
                <g id="iconmonstr-crop-11" transform="translate(21.000000, 29.000000)">
                    <path d="M60,11.632 C62.324,10.804 64,8.608 64,6 C64,2.688 61.312,2.45137244e-13 58,2.45137244e-13 C55.392,2.45137244e-13 53.196,1.676 52.368,4 L11.632,4 C10.804,1.676 8.608,2.45137244e-13 6,2.45137244e-13 C2.688,2.45137244e-13 2.13162821e-14,2.688 2.13162821e-14,6 C2.13162821e-14,8.608 1.676,10.804 4,11.632 L4,36.368 C1.676,37.196 2.13162821e-14,39.392 2.13162821e-14,42 C2.13162821e-14,45.312 2.688,48 6,48 C8.608,48 10.804,46.324 11.632,44 L52.368,44 C53.196,46.324 55.392,48 58,48 C61.312,48 64,45.312 64,42 C64,39.392 62.324,37.196 60,36.368 L60,11.632 Z M52.368,8 C52.972,9.696 54.304,11.028 56,11.632 L56,16 L44,16 L44,8 L52.368,8 Z M40,8 L40,16 L24,16 L24,8 L40,8 Z M40,20 L40,28 L24,28 L24,20 L40,20 Z M8,11.632 C9.696,11.028 11.028,9.696 11.632,8 L20,8 L20,16 L8,16 L8,11.632 Z M8,20 L20,20 L20,28 L8,28 L8,20 Z M11.632,40 C11.032,38.304 9.696,36.972 8,36.368 L8,32 L20,32 L20,40 L11.632,40 L11.632,40 Z M24,40 L24,32 L40,32 L40,40 L24,40 Z M56,36.368 C54.304,36.972 52.968,38.304 52.368,40 L44,40 L44,32 L56,32 L56,36.368 Z M44,28 L44,20 L56,20 L56,28 L44,28 Z" id="Shape"></path>
                </g>
            </g>
        </g>
    </g>
</svg>