<?xml version="1.0" encoding="UTF-8"?>
<svg width="275px" height="49px" viewBox="0 0 275 49" version="1.1" xmlns="http://www.w3.org/2000/svg" xmlns:xlink="http://www.w3.org/1999/xlink">
    <!-- Generator: Sketch 53.2 (72643) - https://sketchapp.com -->
    <title>pipeline-illustration</title>
    <desc>Created with Sketch.</desc>
    <g id="Species-Compendia" stroke="none" stroke-width="1" fill="none" fill-rule="evenodd">
        <g id="compendium-rna-seq-compendia" transform="translate(-186.000000, -1275.000000)">
            <g id="quant-compendia-docs-api" transform="translate(185.000000, 1224.000000)">
                <g id="uniformly-processed">
                    <g id="pipeline-illustration" transform="translate(1.000000, 51.000000)">
                        <g id="Group-3" transform="translate(16.000000, 0.000000)">
                            <g id="badges/process" transform="translate(109.000000, 0.000000)" fill="#386DB0">
                                <g id="icon-gears">
                                    <g id="iconmonstr-gear-large" fill-rule="nonzero">
                                        <path d="M22.7218254,13.5611029 L22.7218254,9.38007353 C20.6882221,8.64786765 20.1410048,8.61345588 19.8560352,7.91852941 C19.5691722,7.22169118 19.9346149,6.80110294 20.8586358,4.83772059 L17.9303605,1.88117647 C16.0122597,2.80169118 15.5748646,3.185 14.878062,2.89345588 C14.18978,2.60477941 14.1509635,2.04367647 13.4323858,-8.8817842e-16 L9.29038638,-8.8817842e-16 C8.56707493,2.04941176 8.5329922,2.60477941 7.84281675,2.89345588 C7.13086622,3.19264706 6.70388525,2.79786765 4.79146494,1.88117647 L1.86318969,4.83772059 C2.78815733,6.80205882 3.15265328,7.22073529 2.86579023,7.91948529 C2.57987393,8.61441176 2.03170989,8.64977941 8.8817842e-16,9.38007353 L8.8817842e-16,13.5620588 C2.02508269,14.2885294 2.57987393,14.3267647 2.86579023,15.0226471 C3.15360002,15.7242647 2.78910407,16.1381618 1.86318969,18.1034559 L4.79146494,21.06 C6.68400365,20.1519118 7.12991948,19.7475735 7.84281675,20.0477206 C8.53204545,20.3363971 8.56612819,20.8888971 9.29038638,22.9411765 L13.4314391,22.9411765 C14.1490701,20.9041912 14.1878865,20.3383088 14.8865826,20.0438971 C15.591906,19.7494853 16.0094195,20.1385294 17.9303605,21.0590441 L20.8586358,18.1025 C19.9355616,16.1429412 19.5691722,15.7204412 19.8560352,15.0216912 C20.140058,14.3277206 20.6891688,14.2923529 22.7218254,13.5611029 L22.7218254,13.5611029 Z M18.1064547,14.2913971 C17.5601841,15.6238971 18.0420761,16.6409559 18.5684651,17.7115441 L17.542196,18.7477206 C16.5074062,18.2286765 15.496285,17.7191912 14.1594842,18.2793382 C12.8378314,18.8347059 12.4648147,19.8976471 12.0880111,21.0294118 L10.6357078,21.0294118 C10.2589042,19.8966912 9.8868343,18.83375 8.56896842,18.28125 C7.22554049,17.7191912 6.1954844,18.2382353 5.1805762,18.7477206 L4.15525383,17.7115441 C4.68258953,16.6428676 5.16448157,15.6277206 4.61631754,14.2894853 C4.0681535,12.9598529 3.01537558,12.5841912 1.89348545,12.20375 L1.89348545,10.7383824 C3.01537558,10.3579412 4.0681535,9.98227941 4.61537079,8.65073529 C5.16258809,7.31823529 4.6797493,6.30022059 4.15336034,5.22963235 L5.17962946,4.19345588 C6.20400509,4.70772059 7.22648723,5.22294118 8.56896842,4.65992647 C9.8868343,4.10838235 10.2589042,3.04448529 10.6357078,1.91176471 L12.0880111,1.91176471 C12.4648147,3.04448529 12.8378314,4.10742647 14.1556973,4.65992647 C15.4991252,5.22198529 16.5282345,4.70294118 17.5440895,4.19345588 L18.5703586,5.22963235 C18.0439696,6.30117647 17.5620776,7.32014706 18.1083481,8.65169118 C18.6546187,9.98132353 19.7073966,10.3569853 20.8302335,10.7383824 L20.8302335,12.2047059 C19.7055031,12.5851471 18.6508317,12.9608088 18.1064547,14.2913971 Z M11.3609127,8.60294118 C12.9268252,8.60294118 14.2011409,9.88955882 14.2011409,11.4705882 C14.2011409,13.0516176 12.9268252,14.3382353 11.3609127,14.3382353 C9.79500025,14.3382353 8.52068454,13.0516176 8.52068454,11.4705882 C8.52068454,9.88955882 9.79500025,8.60294118 11.3609127,8.60294118 Z M11.3609127,6.69117647 C8.74600931,6.69117647 6.62719909,8.83044118 6.62719909,11.4705882 C6.62719909,14.1107353 8.74600931,16.25 11.3609127,16.25 C13.9758161,16.25 16.0946264,14.1107353 16.0946264,11.4705882 C16.0946264,8.83044118 13.9758161,6.69117647 11.3609127,6.69117647 Z" id="Shape"></path>
                                    </g>
                                    <g id="iconmonstr-gear-med" transform="translate(20.100076, 14.117647)" fill-rule="nonzero">
                                        <path d="M13.9826618,8.34529412 L13.9826618,5.77235294 C12.7312136,5.32176471 12.3944645,5.30058824 12.2190986,4.87294118 C12.0425675,4.44411765 12.2674553,4.18529412 12.8360835,2.97705882 L11.034068,1.15764706 C9.8536983,1.72411765 9.58453206,1.96 9.15573043,1.78058824 C8.7321723,1.60294118 8.70828525,1.25764706 8.26608357,-8.8817842e-16 L5.71716085,-8.8817842e-16 C5.27204611,1.26117647 5.25107212,1.60294118 4.82634877,1.78058824 C4.38822537,1.96470588 4.12546785,1.72176471 2.94859381,1.15764706 L1.14657827,2.97705882 C1.71578913,4.18588235 1.94009433,4.44352941 1.76356322,4.87352941 C1.58761473,5.30117647 1.25028301,5.32294118 8.8817842e-16,5.77235294 L8.8817842e-16,8.34588235 C1.24620473,8.79294118 1.58761473,8.81647059 1.76356322,9.24470588 C1.94067694,9.67647059 1.71637174,9.93117647 1.14657827,11.1405882 L2.94859381,12.96 C4.11323302,12.4011765 4.38764275,12.1523529 4.82634877,12.3370588 C5.25048951,12.5147059 5.2714635,12.8547059 5.71716085,14.1176471 L8.26550096,14.1176471 C8.70712003,12.8641176 8.73100708,12.5158824 9.16097393,12.3347059 C9.59501906,12.1535294 9.85195047,12.3929412 11.034068,12.9594118 L12.8360835,11.14 C12.2680379,9.93411765 12.0425675,9.67411765 12.2190986,9.24411765 C12.3938819,8.81705882 12.7317962,8.79529412 13.9826618,8.34529412 L13.9826618,8.34529412 Z M11.1424336,8.79470588 C10.8062671,9.61470588 11.1028161,10.2405882 11.4267478,10.8994118 L10.7951975,11.5370588 C10.1584038,11.2176471 9.53617536,10.9041176 8.71352875,11.2488235 C7.90020392,11.5905882 7.67065523,12.2447059 7.43877608,12.9411765 L6.54505095,12.9411765 C6.31317181,12.2441176 6.08420572,11.59 5.27321134,11.25 C4.44648646,10.9041176 3.81260579,11.2235294 3.18804689,11.5370588 L2.55707928,10.8994118 C2.88159355,10.2417647 3.17814251,9.61705882 2.84081079,8.79352941 C2.50347908,7.97529412 1.85561574,7.74411765 1.16522182,7.51 L1.16522182,6.60823529 C1.85561574,6.37411765 2.50347908,6.14294118 2.84022818,5.32352941 C3.17697729,4.50352941 2.87984572,3.87705882 2.55591406,3.21823529 L3.18746428,2.58058824 C3.81784929,2.89705882 4.44706907,3.21411765 5.27321134,2.86764706 C6.08420572,2.52823529 6.31317181,1.87352941 6.54505095,1.17647059 L7.43877608,1.17647059 C7.67065523,1.87352941 7.90020392,2.52764706 8.71119831,2.86764706 C9.53792319,3.21352941 10.1712212,2.89411765 10.7963628,2.58058824 L11.427913,3.21823529 C11.1039813,3.87764706 10.8074324,4.50470588 11.1435989,5.32411765 C11.4797653,6.14235294 12.1276287,6.37352941 12.8186052,6.60823529 L12.8186052,7.51058824 C12.1264635,7.74470588 11.4774349,7.97588235 11.1424336,8.79470588 Z M6.99133091,5.29411765 C7.95496935,5.29411765 8.73916363,6.08588235 8.73916363,7.05882353 C8.73916363,8.03176471 7.95496935,8.82352941 6.99133091,8.82352941 C6.02769246,8.82352941 5.24349818,8.03176471 5.24349818,7.05882353 C5.24349818,6.08588235 6.02769246,5.29411765 6.99133091,5.29411765 Z M6.99133091,4.11764706 C5.38215958,4.11764706 4.07827636,5.43411765 4.07827636,7.05882353 C4.07827636,8.68352941 5.38215958,10 6.99133091,10 C8.60050224,10 9.90438545,8.68352941 9.90438545,7.05882353 C9.90438545,5.43411765 8.60050224,4.11764706 6.99133091,4.11764706 Z" id="Shape"></path>
                                    </g>
                                    <g id="iconmonstr-gear-small" transform="translate(13.108745, 22.941176)" fill-rule="nonzero">
                                        <path d="M6.99133091,4.17264706 L6.99133091,2.88617647 C6.36560679,2.66088235 6.19723224,2.65029412 6.1095493,2.43647059 C6.02128374,2.22205882 6.13372765,2.09264706 6.41804177,1.48852941 L5.517034,0.578823529 C4.92684915,0.862058824 4.79226603,0.98 4.57786522,0.890294118 C4.36608615,0.801470588 4.35414263,0.628823529 4.13304179,-8.8817842e-16 L2.85858042,-8.8817842e-16 C2.63602306,0.630588235 2.62553606,0.801470588 2.41317438,0.890294118 C2.19411268,0.982352941 2.06273392,0.860882353 1.4742969,0.578823529 L0.573289134,1.48852941 C0.857894563,2.09294118 0.970047163,2.22176471 0.88178161,2.43676471 C0.793807363,2.65058824 0.625141505,2.66147059 8.8817842e-16,2.88617647 L8.8817842e-16,4.17294118 C0.623102367,4.39647059 0.793807363,4.40823529 0.88178161,4.62235294 C0.970338469,4.83823529 0.858185869,4.96558824 0.573289134,5.57029412 L1.4742969,6.48 C2.05661651,6.20058824 2.19382138,6.07617647 2.41317438,6.16852941 C2.62524476,6.25735294 2.63573175,6.42735294 2.85858042,7.05882353 L4.13275048,7.05882353 C4.35356002,6.43205882 4.36550354,6.25794118 4.58048696,6.16735294 C4.79750953,6.07676471 4.92597523,6.19647059 5.517034,6.47970588 L6.41804177,5.57 C6.13401895,4.96705882 6.02128374,4.83705882 6.1095493,4.62205882 C6.19694093,4.40852941 6.36589809,4.39764706 6.99133091,4.17264706 L6.99133091,4.17264706 Z M5.57121682,4.39735294 C5.40313357,4.80735294 5.55140804,5.12029412 5.71337388,5.44970588 L5.39759876,5.76852941 C5.0792019,5.60882353 4.76808768,5.45205882 4.35676438,5.62441176 C3.95010196,5.79529412 3.83532761,6.12235294 3.71938804,6.47058824 L3.27252547,6.47058824 C3.1565859,6.12205882 3.04210286,5.795 2.63660567,5.625 C2.22324323,5.45205882 1.90630289,5.61176471 1.59402345,5.76852941 L1.27853964,5.44970588 C1.44079678,5.12088235 1.58907125,4.80852941 1.4204054,4.39676471 C1.25173954,3.98764706 0.927807872,3.87205882 0.582610909,3.755 L0.582610909,3.30411765 C0.927807872,3.18705882 1.25173954,3.07147059 1.42011409,2.66176471 C1.58848864,2.25176471 1.43992286,1.93852941 1.27795703,1.60911765 L1.59373214,1.29029412 C1.90892464,1.44852941 2.22353453,1.60705882 2.63660567,1.43382353 C3.04210286,1.26411765 3.1565859,0.936764706 3.27252547,0.588235294 L3.71938804,0.588235294 C3.83532761,0.936764706 3.95010196,1.26382353 4.35559915,1.43382353 C4.76896159,1.60676471 5.08561062,1.44705882 5.39818138,1.29029412 L5.71395649,1.60911765 C5.55199066,1.93882353 5.40371618,2.25235294 5.57179943,2.66205882 C5.73988267,3.07117647 6.06381434,3.18676471 6.40930261,3.30411765 L6.40930261,3.75529412 C6.06323173,3.87235294 5.73871745,3.98794118 5.57121682,4.39735294 Z M3.49566545,2.64705882 C3.97748467,2.64705882 4.36958182,3.04294118 4.36958182,3.52941176 C4.36958182,4.01588235 3.97748467,4.41176471 3.49566545,4.41176471 C3.01384623,4.41176471 2.62174909,4.01588235 2.62174909,3.52941176 C2.62174909,3.04294118 3.01384623,2.64705882 3.49566545,2.64705882 Z M3.49566545,2.05882353 C2.69107979,2.05882353 2.03913818,2.71705882 2.03913818,3.52941176 C2.03913818,4.34176471 2.69107979,5 3.49566545,5 C4.30025112,5 4.95219272,4.34176471 4.95219272,3.52941176 C4.95219272,2.71705882 4.30025112,2.05882353 3.49566545,2.05882353 Z" id="Shape"></path>
                                    </g>
                                </g>
                            </g>
                            <path id="Line" d="M85.5912467,14 L79.2548694,10.4357878 L78.8190816,10.1906571 L79.3093429,9.31908161 L79.7451306,9.56421223 L87.7451306,14.0642122 L87.7451306,14.9357878 L79.7451306,19.4357878 L79.3093429,19.6809184 L78.8190816,18.8093429 L79.2548694,18.5642122 L85.5912467,15 L79.5,15 L39,15 L38.5,15 L38.5,14 L39,14 L79.5,14 L85.5912467,14 Z" fill="#979797" fill-rule="nonzero"></path>
                            <path id="Line" d="M206.591247,14 L200.254869,10.4357878 L199.819082,10.1906571 L200.309343,9.31908161 L200.745131,9.56421223 L208.745131,14.0642122 L208.745131,14.9357878 L200.745131,19.4357878 L200.309343,19.6809184 L199.819082,18.8093429 L200.254869,18.5642122 L206.591247,15 L200.5,15 L160,15 L159.5,15 L159.5,14 L160,14 L200.5,14 L206.591247,14 Z" fill="#979797" fill-rule="nonzero"></path>
                            <g id="badges/file" transform="translate(0.000000, 2.000000)" fill="#386DB0">
                                <g id="iconmonstr-file-2">
                                    <path d="M14.3,2.16666667 L14.3,7.58333333 L19.8,7.58333333 L19.8,23.8333333 L2.2,23.8333333 L2.2,2.16666667 L14.3,2.16666667 Z M15.4,0 L0,0 L0,26 L22,26 L22,6.5 L15.4,0 Z" id="Shape" fill-rule="nonzero"></path>
                                </g>
                            </g>
                            <g id="badges/file" transform="translate(224.000000, 0.000000)" fill="#386DB0">
                                <g id="iconmonstr-file-2">
                                    <path d="M14.3,2.16666667 L14.3,7.58333333 L19.8,7.58333333 L19.8,23.8333333 L2.2,23.8333333 L2.2,2.16666667 L14.3,2.16666667 Z M15.4,0 L0,0 L0,26 L22,26 L22,6.5 L15.4,0 Z" id="Shape" fill-rule="nonzero"></path>
                                </g>
                            </g>
                        </g>
                        <path d="M1.828,46.2999992 L0.47,46.2999992 L0.47,36.2689992 L1.828,36.2689992 L1.828,46.2999992 Z M4.32,46.2999992 L4.32,39.2089992 L5.062,39.2089992 C5.23933422,39.2089992 5.3513331,39.2953317 5.398,39.4679992 L5.496,40.2379992 C5.80400154,39.8973309 6.14816477,39.6220003 6.5285,39.4119992 C6.90883524,39.2019982 7.34866417,39.0969992 7.848,39.0969992 C8.23533527,39.0969992 8.57716519,39.1611653 8.8735,39.2894992 C9.16983482,39.4178332 9.41716568,39.5998314 9.6155,39.8354992 C9.81383433,40.0711671 9.96433282,40.3546642 10.067,40.6859992 C10.1696672,41.0173342 10.221,41.3836639 10.221,41.7849992 L10.221,46.2999992 L8.975,46.2999992 L8.975,41.7849992 C8.975,41.2483299 8.85250123,40.8318341 8.6075,40.5354992 C8.36249878,40.2391644 7.98800252,40.0909992 7.484,40.0909992 C7.11533149,40.0909992 6.77116827,40.179665 6.4515,40.3569992 C6.13183174,40.5343335 5.83666802,40.7746644 5.566,41.0779992 L5.566,46.2999992 L4.32,46.2999992 Z M12.104,48.7009992 L12.104,39.2089992 L12.846,39.2089992 C13.0233342,39.2089992 13.1353331,39.2953317 13.182,39.4679992 L13.287,40.3079992 C13.5903349,39.9393307 13.9368314,39.6430004 14.3265,39.4189992 C14.7161686,39.1949981 15.1653308,39.0829992 15.674,39.0829992 C16.080002,39.0829992 16.448665,39.1611651 16.78,39.3174992 C17.111335,39.4738334 17.3936655,39.704831 17.627,40.0104992 C17.8603345,40.3161674 18.0399994,40.6953303 18.166,41.1479992 C18.2920006,41.6006682 18.355,42.1209963 18.355,42.7089992 C18.355,43.2316685 18.2850007,43.7181637 18.145,44.1684992 C18.0049993,44.6188348 17.8043346,45.0084976 17.543,45.3374992 C17.2816654,45.6665009 16.9608352,45.9254983 16.5805,46.1144992 C16.2001648,46.3035002 15.7720024,46.3979992 15.296,46.3979992 C14.8573311,46.3979992 14.4828349,46.3256666 14.1725,46.1809992 C13.8621651,46.0363318 13.5880012,45.8310006 13.35,45.5649992 L13.35,48.7009992 L12.104,48.7009992 Z M15.261,40.0909992 C14.854998,40.0909992 14.4991682,40.1843316 14.1935,40.3709992 C13.8878318,40.5576668 13.606668,40.8213309 13.35,41.1619992 L13.35,44.5919992 C13.5786678,44.9000008 13.8294986,45.1169986 14.1025,45.2429992 C14.3755014,45.3689999 14.6799983,45.4319992 15.016,45.4319992 C15.6740033,45.4319992 16.1803316,45.1963349 16.535,44.7249992 C16.8896684,44.2536635 17.067,43.5816703 17.067,42.7089992 C17.067,42.2469969 17.0261671,41.8503342 16.9445,41.5189992 C16.8628329,41.1876642 16.7450008,40.9158336 16.591,40.7034992 C16.4369992,40.4911648 16.2480011,40.3359997 16.024,40.2379992 C15.7999989,40.1399987 15.5456681,40.0909992 15.261,40.0909992 Z M20.91,39.2089992 L20.91,43.7309992 C20.91,44.2676686 21.0336654,44.6829978 21.281,44.9769992 C21.5283346,45.2710007 21.9016642,45.4179992 22.401,45.4179992 C22.7650018,45.4179992 23.1079984,45.3316668 23.43,45.1589992 C23.7520016,44.9863317 24.048332,44.7460008 24.319,44.4379992 L24.319,39.2089992 L25.565,39.2089992 L25.565,46.2999992 L24.823,46.2999992 C24.6456658,46.2999992 24.5336669,46.2136668 24.487,46.0409992 L24.389,45.2779992 C24.0809985,45.6186676 23.7356686,45.8928315 23.353,46.1004992 C22.9703314,46.3081669 22.5316691,46.4119992 22.037,46.4119992 C21.6496647,46.4119992 21.3078348,46.3478332 21.0115,46.2194992 C20.7151652,46.0911653 20.4666677,45.9103337 20.266,45.6769992 C20.0653323,45.4436647 19.9148338,45.1613342 19.8145,44.8299992 C19.7141662,44.4986642 19.664,44.1323346 19.664,43.7309992 L19.664,39.2089992 L20.91,39.2089992 Z M29.765,46.4119992 C29.2049972,46.4119992 28.7745015,46.2556675 28.4735,45.9429992 C28.1724985,45.630331 28.022,45.1800022 28.022,44.5919992 L28.022,40.2519992 L27.168,40.2519992 C27.093333,40.2519992 27.0303336,40.2298328 26.979,40.1854992 C26.9276664,40.1411657 26.902,40.072333 26.902,39.9789992 L26.902,39.4819992 L28.064,39.3349992 L28.351,37.1439992 C28.3603334,37.0739989 28.3906664,37.0168328 28.442,36.9724992 C28.4933336,36.9281657 28.5586663,36.9059992 28.638,36.9059992 L29.268,36.9059992 L29.268,39.3489992 L31.298,39.3489992 L31.298,40.2519992 L29.268,40.2519992 L29.268,44.5079992 C29.268,44.8066674 29.3403326,45.0283318 29.485,45.1729992 C29.6296674,45.3176666 29.8163322,45.3899992 30.045,45.3899992 C30.1756673,45.3899992 30.2888329,45.3724994 30.3845,45.3374992 C30.4801671,45.3024991 30.5629997,45.2639994 30.633,45.2219992 C30.7030004,45.179999 30.7624998,45.1414994 30.8115,45.1064992 C30.8605002,45.0714991 30.9036665,45.0539992 30.941,45.0539992 C31.0063337,45.0539992 31.0646664,45.0936655 31.116,45.1729992 L31.48,45.7679992 C31.2653323,45.9686669 31.0063349,46.1261653 30.703,46.2404992 C30.3996652,46.3548331 30.0870016,46.4119992 29.765,46.4119992 Z M35.82,46.2999992 L35.82,40.2729992 L35.036,40.1819992 C34.9379995,40.1586658 34.8575003,40.1224995 34.7945,40.0734992 C34.7314997,40.024499 34.7,39.953333 34.7,39.8599992 L34.7,39.3489992 L35.82,39.3489992 L35.82,38.9569992 C35.82,38.5229971 35.887666,38.1251677 36.023,37.7634992 C36.158334,37.4018308 36.361332,37.0903339 36.632,36.8289992 C36.902668,36.5676646 37.2398313,36.3646666 37.6435,36.2199992 C38.0471687,36.0753318 38.5173307,36.0029992 39.054,36.0029992 C39.2313342,36.0029992 39.4121657,36.0146658 39.5965,36.0379992 C39.7808343,36.0613327 39.940666,36.0963323 40.076,36.1429992 L40.034,36.7939992 C40.0246666,36.8546662 39.9966669,36.8931658 39.95,36.9094992 C39.9033331,36.9258327 39.8356671,36.9339992 39.747,36.9339992 C39.6956664,36.9339992 39.6420003,36.9328326 39.586,36.9304992 C39.5299997,36.9281659 39.4670004,36.9269992 39.397,36.9269992 C38.5709959,36.9269992 37.9701685,37.0984975 37.5945,37.4414992 C37.2188315,37.784501 37.031,38.3013291 37.031,38.9919992 L37.031,39.3489992 L41.315,39.3489992 L41.315,46.2999992 L40.069,46.2999992 L40.069,40.2519992 L37.073,40.2519992 L37.073,46.2999992 L35.82,46.2999992 Z M44.906,35.9889992 L44.906,46.2999992 L43.66,46.2999992 L43.66,35.9889992 L44.906,35.9889992 Z M49.911,39.0969992 C50.3356688,39.0969992 50.7276649,39.1681652 51.087,39.3104992 C51.4463351,39.4528333 51.7566654,39.6581646 52.018,39.9264992 C52.2793346,40.1948339 52.4834993,40.5261639 52.6305,40.9204992 C52.7775007,41.3148345 52.851,41.7639967 52.851,42.2679992 C52.851,42.4640002 52.8300002,42.5946656 52.788,42.6599992 C52.7459998,42.7253329 52.6666673,42.7579992 52.55,42.7579992 L47.832,42.7579992 C47.8413334,43.2060015 47.9019994,43.5956642 48.014,43.9269992 C48.1260006,44.2583342 48.279999,44.5348315 48.476,44.7564992 C48.672001,44.978167 48.905332,45.143832 49.176,45.2534992 C49.446668,45.3631665 49.7499983,45.4179992 50.086,45.4179992 C50.3986682,45.4179992 50.6681655,45.3818329 50.8945,45.3094992 C51.1208345,45.2371655 51.3156659,45.1589997 51.479,45.0749992 C51.6423342,44.9909988 51.7788328,44.9128329 51.8885,44.8404992 C51.9981672,44.7681655 52.0926663,44.7319992 52.172,44.7319992 C52.2746672,44.7319992 52.3539997,44.7716655 52.41,44.8509992 L52.76,45.3059992 C52.6059992,45.4926668 52.4216677,45.6548319 52.207,45.7924992 C51.9923323,45.9301666 51.7625012,46.0433321 51.5175,46.1319992 C51.2724988,46.2206663 51.0193346,46.2871657 50.758,46.3314992 C50.4966654,46.3758328 50.237668,46.3979992 49.981,46.3979992 C49.4909976,46.3979992 49.0395021,46.3151667 48.6265,46.1494992 C48.2134979,45.9838317 47.8565015,45.7411675 47.5555,45.4214992 C47.2544985,45.101831 47.0200008,44.7063349 46.852,44.2349992 C46.6839992,43.7636635 46.6,43.2223356 46.6,42.6109992 C46.6,42.1163301 46.6758326,41.6543347 46.8275,41.2249992 C46.9791674,40.7956638 47.1973319,40.4235008 47.482,40.1084992 C47.7666681,39.7934977 48.1143313,39.5461668 48.525,39.3664992 C48.9356687,39.1868317 49.3976641,39.0969992 49.911,39.0969992 Z M49.939,40.0139992 C49.336997,40.0139992 48.8633351,40.1878308 48.518,40.5354992 C48.1726649,40.8831676 47.9580004,41.3649962 47.874,41.9809992 L51.731,41.9809992 C51.731,41.6916645 51.6913337,41.4268338 51.612,41.1864992 C51.5326663,40.9461647 51.4160008,40.7385001 51.262,40.5634992 C51.1079992,40.3884984 50.9201678,40.2531664 50.6985,40.1574992 C50.4768322,40.0618321 50.2236681,40.0139992 49.939,40.0139992 Z" id="Inputfle" fill="#000000" fill-rule="nonzero"></path>
                        <path d="M126.356,37.8369992 C126.314,37.9069996 126.269667,37.9594991 126.223,37.9944992 C126.176333,38.0294994 126.115667,38.0469992 126.041,38.0469992 C125.961666,38.0469992 125.869501,38.007333 125.7645,37.9279992 C125.659499,37.8486655 125.526501,37.7611664 125.3655,37.6654992 C125.204499,37.5698321 125.010834,37.482333 124.7845,37.4029992 C124.558166,37.3236655 124.284002,37.2839992 123.962,37.2839992 C123.658665,37.2839992 123.390334,37.3248322 123.157,37.4064992 C122.923665,37.4881663 122.728834,37.5989985 122.5725,37.7389992 C122.416166,37.8789999 122.298334,38.0434983 122.219,38.2324992 C122.139666,38.4215002 122.1,38.6256648 122.1,38.8449992 C122.1,39.1250006 122.168833,39.357165 122.3065,39.5414992 C122.444167,39.7258335 122.626166,39.8833319 122.8525,40.0139992 C123.078834,40.1446666 123.335499,40.2578321 123.6225,40.3534992 C123.909501,40.4491664 124.203498,40.5483321 124.5045,40.6509992 C124.805502,40.7536664 125.099499,40.8691653 125.3865,40.9974992 C125.673501,41.1258332 125.930166,41.2879983 126.1565,41.4839992 C126.382834,41.6800002 126.564833,41.9203311 126.7025,42.2049992 C126.840167,42.4896673 126.909,42.8396638 126.909,43.2549992 C126.909,43.6936681 126.834334,44.1054973 126.685,44.4904992 C126.535666,44.8755012 126.317501,45.2103311 126.0305,45.4949992 C125.743499,45.7796673 125.391169,46.0036651 124.9735,46.1669992 C124.555831,46.3303334 124.081003,46.4119992 123.549,46.4119992 C122.90033,46.4119992 122.308836,46.2941671 121.7745,46.0584992 C121.240164,45.8228314 120.784002,45.5043346 120.406,45.1029992 L120.798,44.4589992 C120.835334,44.4076656 120.880833,44.3644994 120.9345,44.3294992 C120.988167,44.2944991 121.047666,44.2769992 121.113,44.2769992 C121.211,44.2769992 121.322999,44.3294987 121.449,44.4344992 C121.575001,44.5394998 121.732499,44.6549986 121.9215,44.7809992 C122.110501,44.9069999 122.339165,45.0224987 122.6075,45.1274992 C122.875835,45.2324998 123.203665,45.2849992 123.591,45.2849992 C123.913002,45.2849992 124.199999,45.2406663 124.452,45.1519992 C124.704001,45.0633321 124.917499,44.9385 125.0925,44.7774992 C125.267501,44.6164984 125.401666,44.4240004 125.495,44.1999992 C125.588334,43.9759981 125.635,43.7263339 125.635,43.4509992 C125.635,43.1476644 125.566167,42.8991669 125.4285,42.7054992 C125.290833,42.5118316 125.110001,42.3496666 124.886,42.2189992 C124.661999,42.0883319 124.406501,41.9774997 124.1195,41.8864992 C123.832499,41.7954988 123.538502,41.7021664 123.2375,41.6064992 C122.936498,41.5108321 122.642501,41.3999999 122.3555,41.2739992 C122.068499,41.1479986 121.813001,40.9846669 121.589,40.7839992 C121.364999,40.5833316 121.184167,40.3325007 121.0465,40.0314992 C120.908833,39.7304977 120.84,39.3583348 120.84,38.9149992 C120.84,38.5603308 120.908833,38.2173342 121.0465,37.8859992 C121.184167,37.5546642 121.383665,37.2606672 121.645,37.0039992 C121.906335,36.7473313 122.229498,36.542 122.6145,36.3879992 C122.999502,36.2339985 123.441664,36.1569992 123.941,36.1569992 C124.501003,36.1569992 125.011998,36.245665 125.474,36.4229992 C125.936002,36.6003335 126.339665,36.8569976 126.685,37.1929992 L126.356,37.8369992 Z M133.65,46.2999992 L133.097,46.2999992 C132.975666,46.2999992 132.877667,46.2813328 132.803,46.2439992 C132.728333,46.2066657 132.679333,46.1273332 132.656,46.0059992 L132.516,45.3479992 C132.329332,45.5160001 132.147334,45.6664986 131.97,45.7994992 C131.792666,45.9324999 131.606001,46.0444988 131.41,46.1354992 C131.213999,46.2264997 131.005168,46.2953323 130.7835,46.3419992 C130.561832,46.3886661 130.315668,46.4119992 130.045,46.4119992 C129.769665,46.4119992 129.511835,46.3734996 129.2715,46.2964992 C129.031165,46.2194989 128.822334,46.104 128.645,45.9499992 C128.467666,45.7959985 128.326501,45.6011671 128.2215,45.3654992 C128.116499,45.1298314 128.064,44.8510008 128.064,44.5289992 C128.064,44.2489978 128.140999,43.9795005 128.295,43.7204992 C128.449001,43.4614979 128.697498,43.2316669 129.0405,43.0309992 C129.383502,42.8303316 129.832664,42.6658332 130.388,42.5374992 C130.943336,42.4091653 131.622329,42.335666 132.425,42.3169992 L132.425,41.7639992 C132.425,41.2133298 132.307168,40.796834 132.0715,40.5144992 C131.835832,40.2321645 131.487002,40.0909992 131.025,40.0909992 C130.721665,40.0909992 130.466168,40.1294989 130.2585,40.2064992 C130.050832,40.2834996 129.871167,40.3698321 129.7195,40.4654992 C129.567833,40.5611664 129.437167,40.6474989 129.3275,40.7244992 C129.217833,40.8014996 129.109334,40.8399992 129.002,40.8399992 C128.918,40.8399992 128.8445,40.8178328 128.7815,40.7734992 C128.7185,40.7291657 128.668334,40.6743329 128.631,40.6089992 L128.407,40.2099992 C128.799002,39.8319973 129.221331,39.5496668 129.674,39.3629992 C130.126669,39.1763316 130.628331,39.0829992 131.179,39.0829992 C131.575669,39.0829992 131.927998,39.1483319 132.236,39.2789992 C132.544002,39.4096666 132.802999,39.5916647 133.013,39.8249992 C133.223001,40.0583337 133.381666,40.3406642 133.489,40.6719992 C133.596334,41.0033342 133.65,41.3673306 133.65,41.7639992 L133.65,46.2999992 Z M130.416,45.5369992 C130.635334,45.5369992 130.835999,45.5148328 131.018,45.4704992 C131.200001,45.4261657 131.371499,45.3631663 131.5325,45.2814992 C131.693501,45.1998322 131.847499,45.1006665 131.9945,44.9839992 C132.141501,44.867332 132.284999,44.7343333 132.425,44.5849992 L132.425,43.1079992 C131.850997,43.126666 131.363335,43.1721655 130.962,43.2444992 C130.560665,43.3168329 130.234001,43.411332 129.982,43.5279992 C129.729999,43.6446665 129.546834,43.7823318 129.4325,43.9409992 C129.318166,44.0996667 129.261,44.2769983 129.261,44.4729992 C129.261,44.6596668 129.291333,44.8206652 129.352,44.9559992 C129.412667,45.0913332 129.494333,45.2021655 129.597,45.2884992 C129.699667,45.374833 129.820999,45.4378324 129.961,45.4774992 C130.101001,45.5171661 130.252666,45.5369992 130.416,45.5369992 Z M136.926,35.9889992 L136.926,46.2999992 L135.68,46.2999992 L135.68,35.9889992 L136.926,35.9889992 Z M139.124,46.2999992 L139.124,39.2089992 L139.866,39.2089992 C140.043334,39.2089992 140.155333,39.2953317 140.202,39.4679992 L140.293,40.1959992 C140.554335,39.8739976 140.847165,39.6103336 141.1715,39.4049992 C141.495835,39.1996649 141.872665,39.0969992 142.302,39.0969992 C142.782669,39.0969992 143.171165,39.2299979 143.4675,39.4959992 C143.763835,39.7620006 143.977333,40.1213303 144.108,40.5739992 C144.206,40.3173313 144.335499,40.0956668 144.4965,39.9089992 C144.657501,39.7223316 144.838332,39.5683332 145.039,39.4469992 C145.239668,39.3256653 145.453166,39.2369995 145.6795,39.1809992 C145.905834,39.124999 146.135666,39.0969992 146.369,39.0969992 C146.742335,39.0969992 147.074832,39.1564986 147.3665,39.2754992 C147.658168,39.3944998 147.905499,39.5683314 148.1085,39.7969992 C148.311501,40.025667 148.466666,40.3068309 148.574,40.6404992 C148.681334,40.9741676 148.735,41.3556638 148.735,41.7849992 L148.735,46.2999992 L147.489,46.2999992 L147.489,41.7849992 C147.489,41.2296631 147.367668,40.8085007 147.125,40.5214992 C146.882332,40.2344978 146.530002,40.0909992 146.068,40.0909992 C145.862666,40.0909992 145.667834,40.1271655 145.4835,40.1994992 C145.299166,40.2718329 145.137001,40.3779985 144.997,40.5179992 C144.856999,40.6579999 144.746167,40.8341648 144.6645,41.0464992 C144.582833,41.2588336 144.542,41.5049978 144.542,41.7849992 L144.542,46.2999992 L143.296,46.2999992 L143.296,41.7849992 C143.296,41.2156631 143.181668,40.7910006 142.953,40.5109992 C142.724332,40.2309978 142.390669,40.0909992 141.952,40.0909992 C141.643998,40.0909992 141.358168,40.1738317 141.0945,40.3394992 C140.830832,40.5051667 140.589334,40.7303311 140.37,41.0149992 L140.37,46.2999992 L139.124,46.2999992 Z M153.488,39.0969992 C154.006003,39.0969992 154.473831,39.1833317 154.8915,39.3559992 C155.309169,39.5286668 155.663832,39.7736643 155.9555,40.0909992 C156.247168,40.4083342 156.471166,40.7921637 156.6275,41.2424992 C156.783834,41.6928348 156.862,42.1956631 156.862,42.7509992 C156.862,43.311002 156.783834,43.814997 156.6275,44.2629992 C156.471166,44.7110015 156.247168,45.0936643 155.9555,45.4109992 C155.663832,45.7283342 155.309169,45.9721651 154.8915,46.1424992 C154.473831,46.3128334 154.006003,46.3979992 153.488,46.3979992 C152.969997,46.3979992 152.502169,46.3128334 152.0845,46.1424992 C151.666831,45.9721651 151.311001,45.7283342 151.017,45.4109992 C150.722999,45.0936643 150.496667,44.7110015 150.338,44.2629992 C150.179333,43.814997 150.1,43.311002 150.1,42.7509992 C150.1,42.1956631 150.179333,41.6928348 150.338,41.2424992 C150.496667,40.7921637 150.722999,40.4083342 151.017,40.0909992 C151.311001,39.7736643 151.666831,39.5286668 152.0845,39.3559992 C152.502169,39.1833317 152.969997,39.0969992 153.488,39.0969992 Z M153.488,45.4249992 C154.188003,45.4249992 154.710665,45.1905016 155.056,44.7214992 C155.401335,44.2524969 155.574,43.5980034 155.574,42.7579992 C155.574,41.9133283 155.401335,41.2553349 155.056,40.7839992 C154.710665,40.3126635 154.188003,40.0769992 153.488,40.0769992 C153.133332,40.0769992 152.825335,40.1376653 152.564,40.2589992 C152.302665,40.3803332 152.084501,40.5553314 151.9095,40.7839992 C151.734499,41.012667 151.603834,41.2938309 151.5175,41.6274992 C151.431166,41.9611676 151.388,42.3379971 151.388,42.7579992 C151.388,43.1780013 151.431166,43.5536642 151.5175,43.8849992 C151.603834,44.2163342 151.734499,44.4951648 151.9095,44.7214992 C152.084501,44.9478337 152.302665,45.1216653 152.564,45.2429992 C152.825335,45.3643332 153.133332,45.4249992 153.488,45.4249992 Z M158.402,46.2999992 L158.402,39.2089992 L159.144,39.2089992 C159.321334,39.2089992 159.433333,39.2953317 159.48,39.4679992 L159.578,40.2379992 C159.886002,39.8973309 160.230165,39.6220003 160.6105,39.4119992 C160.990835,39.2019982 161.430664,39.0969992 161.93,39.0969992 C162.317335,39.0969992 162.659165,39.1611653 162.9555,39.2894992 C163.251835,39.4178332 163.499166,39.5998314 163.6975,39.8354992 C163.895834,40.0711671 164.046333,40.3546642 164.149,40.6859992 C164.251667,41.0173342 164.303,41.3836639 164.303,41.7849992 L164.303,46.2999992 L163.057,46.2999992 L163.057,41.7849992 C163.057,41.2483299 162.934501,40.8318341 162.6895,40.5354992 C162.444499,40.2391644 162.070003,40.0909992 161.566,40.0909992 C161.197331,40.0909992 160.853168,40.179665 160.5335,40.3569992 C160.213832,40.5343335 159.918668,40.7746644 159.648,41.0779992 L159.648,46.2999992 L158.402,46.2999992 Z" id="Salmon" fill="#000000" fill-rule="nonzero"></path>
                        <path d="M231.755,39.2089992 L231.755,48.7009992 L230.509,48.7009992 L230.509,45.2499992 C230.210332,45.5953343 229.870835,45.8729982 229.4905,46.0829992 C229.110165,46.2930003 228.675002,46.3979992 228.185,46.3979992 C227.778998,46.3979992 227.410335,46.3198334 227.079,46.1634992 C226.747665,46.0071651 226.465335,45.7773341 226.232,45.4739992 C225.998665,45.1706644 225.819001,44.7926682 225.693,44.3399992 C225.566999,43.8873303 225.504,43.3670022 225.504,42.7789992 C225.504,42.25633 225.573999,41.7698348 225.714,41.3194992 C225.854001,40.8691637 226.055832,40.4783342 226.3195,40.1469992 C226.583168,39.8156642 226.903998,39.5555002 227.282,39.3664992 C227.660002,39.1774983 228.089331,39.0829992 228.57,39.0829992 C229.027336,39.0829992 229.415832,39.1646651 229.7355,39.3279992 C230.055168,39.4913334 230.340999,39.7223311 230.593,40.0209992 L230.677,39.4679992 C230.723667,39.2953317 230.835666,39.2089992 231.013,39.2089992 L231.755,39.2089992 Z M228.598,45.3899992 C229.004002,45.3899992 229.359832,45.2966668 229.6655,45.1099992 C229.971168,44.9233316 230.252332,44.6596676 230.509,44.3189992 L230.509,40.8889992 C230.284999,40.5903311 230.035335,40.3768332 229.76,40.2484992 C229.484665,40.1201653 229.181335,40.0559992 228.85,40.0559992 C228.18733,40.0559992 227.678668,40.2916635 227.324,40.7629992 C226.969332,41.2343349 226.792,41.9063282 226.792,42.7789992 C226.792,43.2410015 226.831666,43.6364976 226.911,43.9654992 C226.990334,44.2945009 227.106999,44.5651648 227.261,44.7774992 C227.415001,44.9898336 227.603999,45.1449987 227.828,45.2429992 C228.052001,45.3409997 228.308665,45.3899992 228.598,45.3899992 Z M234.926,39.2089992 L234.926,43.7309992 C234.926,44.2676686 235.049665,44.6829978 235.297,44.9769992 C235.544335,45.2710007 235.917664,45.4179992 236.417,45.4179992 C236.781002,45.4179992 237.123998,45.3316668 237.446,45.1589992 C237.768002,44.9863317 238.064332,44.7460008 238.335,44.4379992 L238.335,39.2089992 L239.581,39.2089992 L239.581,46.2999992 L238.839,46.2999992 C238.661666,46.2999992 238.549667,46.2136668 238.503,46.0409992 L238.405,45.2779992 C238.096998,45.6186676 237.751669,45.8928315 237.369,46.1004992 C236.986331,46.3081669 236.547669,46.4119992 236.053,46.4119992 C235.665665,46.4119992 235.323835,46.3478332 235.0275,46.2194992 C234.731165,46.0911653 234.482668,45.9103337 234.282,45.6769992 C234.081332,45.4436647 233.930834,45.1613342 233.8305,44.8299992 C233.730166,44.4986642 233.68,44.1323346 233.68,43.7309992 L233.68,39.2089992 L234.926,39.2089992 Z M246.84,46.2999992 L246.287,46.2999992 C246.165666,46.2999992 246.067667,46.2813328 245.993,46.2439992 C245.918333,46.2066657 245.869333,46.1273332 245.846,46.0059992 L245.706,45.3479992 C245.519332,45.5160001 245.337334,45.6664986 245.16,45.7994992 C244.982666,45.9324999 244.796001,46.0444988 244.6,46.1354992 C244.403999,46.2264997 244.195168,46.2953323 243.9735,46.3419992 C243.751832,46.3886661 243.505668,46.4119992 243.235,46.4119992 C242.959665,46.4119992 242.701835,46.3734996 242.4615,46.2964992 C242.221165,46.2194989 242.012334,46.104 241.835,45.9499992 C241.657666,45.7959985 241.516501,45.6011671 241.4115,45.3654992 C241.306499,45.1298314 241.254,44.8510008 241.254,44.5289992 C241.254,44.2489978 241.330999,43.9795005 241.485,43.7204992 C241.639001,43.4614979 241.887498,43.2316669 242.2305,43.0309992 C242.573502,42.8303316 243.022664,42.6658332 243.578,42.5374992 C244.133336,42.4091653 244.812329,42.335666 245.615,42.3169992 L245.615,41.7639992 C245.615,41.2133298 245.497168,40.796834 245.2615,40.5144992 C245.025832,40.2321645 244.677002,40.0909992 244.215,40.0909992 C243.911665,40.0909992 243.656168,40.1294989 243.4485,40.2064992 C243.240832,40.2834996 243.061167,40.3698321 242.9095,40.4654992 C242.757833,40.5611664 242.627167,40.6474989 242.5175,40.7244992 C242.407833,40.8014996 242.299334,40.8399992 242.192,40.8399992 C242.108,40.8399992 242.0345,40.8178328 241.9715,40.7734992 C241.9085,40.7291657 241.858334,40.6743329 241.821,40.6089992 L241.597,40.2099992 C241.989002,39.8319973 242.411331,39.5496668 242.864,39.3629992 C243.316669,39.1763316 243.818331,39.0829992 244.369,39.0829992 C244.765669,39.0829992 245.117998,39.1483319 245.426,39.2789992 C245.734002,39.4096666 245.992999,39.5916647 246.203,39.8249992 C246.413001,40.0583337 246.571666,40.3406642 246.679,40.6719992 C246.786334,41.0033342 246.84,41.3673306 246.84,41.7639992 L246.84,46.2999992 Z M243.606,45.5369992 C243.825334,45.5369992 244.025999,45.5148328 244.208,45.4704992 C244.390001,45.4261657 244.561499,45.3631663 244.7225,45.2814992 C244.883501,45.1998322 245.037499,45.1006665 245.1845,44.9839992 C245.331501,44.867332 245.474999,44.7343333 245.615,44.5849992 L245.615,43.1079992 C245.040997,43.126666 244.553335,43.1721655 244.152,43.2444992 C243.750665,43.3168329 243.424001,43.411332 243.172,43.5279992 C242.919999,43.6446665 242.736834,43.7823318 242.6225,43.9409992 C242.508166,44.0996667 242.451,44.2769983 242.451,44.4729992 C242.451,44.6596668 242.481333,44.8206652 242.542,44.9559992 C242.602667,45.0913332 242.684333,45.2021655 242.787,45.2884992 C242.889667,45.374833 243.010999,45.4378324 243.151,45.4774992 C243.291001,45.5171661 243.442666,45.5369992 243.606,45.5369992 Z M248.73,46.2999992 L248.73,39.2089992 L249.472,39.2089992 C249.649334,39.2089992 249.761333,39.2953317 249.808,39.4679992 L249.906,40.2379992 C250.214002,39.8973309 250.558165,39.6220003 250.9385,39.4119992 C251.318835,39.2019982 251.758664,39.0969992 252.258,39.0969992 C252.645335,39.0969992 252.987165,39.1611653 253.2835,39.2894992 C253.579835,39.4178332 253.827166,39.5998314 254.0255,39.8354992 C254.223834,40.0711671 254.374333,40.3546642 254.477,40.6859992 C254.579667,41.0173342 254.631,41.3836639 254.631,41.7849992 L254.631,46.2999992 L253.385,46.2999992 L253.385,41.7849992 C253.385,41.2483299 253.262501,40.8318341 253.0175,40.5354992 C252.772499,40.2391644 252.398003,40.0909992 251.894,40.0909992 C251.525331,40.0909992 251.181168,40.179665 250.8615,40.3569992 C250.541832,40.5343335 250.246668,40.7746644 249.976,41.0779992 L249.976,46.2999992 L248.73,46.2999992 Z M258.663,46.4119992 C258.102997,46.4119992 257.672502,46.2556675 257.3715,45.9429992 C257.070498,45.630331 256.92,45.1800022 256.92,44.5919992 L256.92,40.2519992 L256.066,40.2519992 C255.991333,40.2519992 255.928334,40.2298328 255.877,40.1854992 C255.825666,40.1411657 255.8,40.072333 255.8,39.9789992 L255.8,39.4819992 L256.962,39.3349992 L257.249,37.1439992 C257.258333,37.0739989 257.288666,37.0168328 257.34,36.9724992 C257.391334,36.9281657 257.456666,36.9059992 257.536,36.9059992 L258.166,36.9059992 L258.166,39.3489992 L260.196,39.3489992 L260.196,40.2519992 L258.166,40.2519992 L258.166,44.5079992 C258.166,44.8066674 258.238333,45.0283318 258.383,45.1729992 C258.527667,45.3176666 258.714332,45.3899992 258.943,45.3899992 C259.073667,45.3899992 259.186833,45.3724994 259.2825,45.3374992 C259.378167,45.3024991 259.461,45.2639994 259.531,45.2219992 C259.601,45.179999 259.6605,45.1414994 259.7095,45.1064992 C259.7585,45.0714991 259.801666,45.0539992 259.839,45.0539992 C259.904334,45.0539992 259.962666,45.0936655 260.014,45.1729992 L260.378,45.7679992 C260.163332,45.9686669 259.904335,46.1261653 259.601,46.2404992 C259.297665,46.3548331 258.985002,46.4119992 258.663,46.4119992 Z M261.33,45.5299992 C261.33,45.4086653 261.352166,45.2943331 261.3965,45.1869992 C261.440834,45.0796654 261.5015,44.986333 261.5785,44.9069992 C261.6555,44.8276655 261.747666,44.7646661 261.855,44.7179992 C261.962334,44.6713323 262.076666,44.6479992 262.198,44.6479992 C262.319334,44.6479992 262.433666,44.6713323 262.541,44.7179992 C262.648334,44.7646661 262.741666,44.8276655 262.821,44.9069992 C262.900334,44.986333 262.962166,45.0796654 263.0065,45.1869992 C263.050834,45.2943331 263.073,45.4086653 263.073,45.5299992 C263.073,45.6559999 263.050834,45.7714987 263.0065,45.8764992 C262.962166,45.9814998 262.900334,46.0736655 262.821,46.1529992 C262.741666,46.232333 262.648334,46.2941657 262.541,46.3384992 C262.433666,46.3828328 262.319334,46.4049992 262.198,46.4049992 C262.076666,46.4049992 261.962334,46.3828328 261.855,46.3384992 C261.747666,46.2941657 261.6555,46.232333 261.5785,46.1529992 C261.5015,46.0736655 261.440834,45.9814998 261.3965,45.8764992 C261.352166,45.7714987 261.33,45.6559999 261.33,45.5299992 Z M268.764,40.3779992 C268.708,40.4806664 268.621667,40.5319992 268.505,40.5319992 C268.435,40.5319992 268.355667,40.5063328 268.267,40.4549992 C268.178333,40.4036656 268.069834,40.3464996 267.9415,40.2834992 C267.813166,40.2204989 267.660334,40.1621662 267.483,40.1084992 C267.305666,40.0548323 267.095668,40.0279992 266.853,40.0279992 C266.642999,40.0279992 266.454001,40.0548323 266.286,40.1084992 C266.117999,40.1621662 265.974501,40.2356654 265.8555,40.3289992 C265.736499,40.422333 265.6455,40.530832 265.5825,40.6544992 C265.5195,40.7781665 265.488,40.9123318 265.488,41.0569992 C265.488,41.2390001 265.540499,41.3906653 265.6455,41.5119992 C265.750501,41.6333332 265.889332,41.7383321 266.062,41.8269992 C266.234668,41.9156663 266.430666,41.9938322 266.65,42.0614992 C266.869334,42.1291662 267.094499,42.2014989 267.3255,42.2784992 C267.556501,42.3554996 267.781666,42.4406654 268.001,42.5339992 C268.220334,42.627333 268.416332,42.7439985 268.589,42.8839992 C268.761668,43.0239999 268.900499,43.1954982 269.0055,43.3984992 C269.110501,43.6015003 269.163,43.8453311 269.163,44.1299992 C269.163,44.4566675 269.104667,44.7588312 268.988,45.0364992 C268.871333,45.3141673 268.698668,45.5544982 268.47,45.7574992 C268.241332,45.9605003 267.961335,46.120332 267.63,46.2369992 C267.298665,46.3536665 266.916002,46.4119992 266.482,46.4119992 C265.987331,46.4119992 265.539335,46.3315 265.138,46.1704992 C264.736665,46.0094984 264.396001,45.8030005 264.116,45.5509992 L264.41,45.0749992 C264.447334,45.0143323 264.491666,44.9676661 264.543,44.9349992 C264.594334,44.9023324 264.662,44.8859992 264.746,44.8859992 C264.83,44.8859992 264.918666,44.9186656 265.012,44.9839992 C265.105334,45.0493329 265.218499,45.1216655 265.3515,45.2009992 C265.484501,45.280333 265.645499,45.3526656 265.8345,45.4179992 C266.023501,45.4833329 266.260332,45.5159992 266.545,45.5159992 C266.787668,45.5159992 266.999999,45.4844996 267.182,45.4214992 C267.364001,45.3584989 267.515666,45.2733331 267.637,45.1659992 C267.758334,45.0586654 267.848166,44.9349999 267.9065,44.7949992 C267.964834,44.6549985 267.994,44.5056667 267.994,44.3469992 C267.994,44.1509983 267.941501,43.9888332 267.8365,43.8604992 C267.731499,43.7321653 267.592668,43.6224997 267.42,43.5314992 C267.247332,43.4404988 267.050168,43.3611662 266.8285,43.2934992 C266.606832,43.2258322 266.380501,43.1546663 266.1495,43.0799992 C265.918499,43.0053322 265.692168,42.9201664 265.4705,42.8244992 C265.248832,42.7288321 265.051668,42.6086666 264.879,42.4639992 C264.706332,42.3193318 264.567501,42.1408336 264.4625,41.9284992 C264.357499,41.7161648 264.305,41.4583341 264.305,41.1549992 C264.305,40.8843312 264.360999,40.6241672 264.473,40.3744992 C264.585001,40.1248313 264.748332,39.9055002 264.963,39.7164992 C265.177668,39.5274983 265.441332,39.3769998 265.754,39.2649992 C266.066668,39.1529987 266.423665,39.0969992 266.825,39.0969992 C267.291669,39.0969992 267.710498,39.1704985 268.0815,39.3174992 C268.452502,39.4645 268.773332,39.6663313 269.044,39.9229992 L268.764,40.3779992 Z M271.06,46.2999992 L271.06,40.2729992 L270.276,40.1819992 C270.178,40.1586658 270.0975,40.1224995 270.0345,40.0734992 C269.9715,40.024499 269.94,39.953333 269.94,39.8599992 L269.94,39.3489992 L271.06,39.3489992 L271.06,38.6629992 C271.06,38.2569972 271.117166,37.8965008 271.2315,37.5814992 C271.345834,37.2664977 271.509166,37.0005003 271.7215,36.7834992 C271.933834,36.5664982 272.189332,36.4019998 272.488,36.2899992 C272.786668,36.1779987 273.122665,36.1219992 273.496,36.1219992 C273.813335,36.1219992 274.107332,36.1686654 274.378,36.2619992 L274.35,36.8849992 C274.345333,36.978333 274.305667,37.0343325 274.231,37.0529992 C274.156333,37.071666 274.051334,37.0809992 273.916,37.0809992 L273.699,37.0809992 C273.484332,37.0809992 273.289501,37.108999 273.1145,37.1649992 C272.939499,37.2209995 272.789001,37.3119986 272.663,37.4379992 C272.536999,37.5639999 272.440167,37.7296649 272.3725,37.9349992 C272.304833,38.1403336 272.271,38.3946644 272.271,38.6979992 L272.271,39.3489992 L274.322,39.3489992 L274.322,40.2519992 L272.313,40.2519992 L272.313,46.2999992 L271.06,46.2999992 Z" id="quant.sf" fill="#000000" fill-rule="nonzero"></path>
                    </g>
                </g>
            </g>
        </g>
    </g>
</svg>