<?xml version="1.0" encoding="UTF-8"?>
<svg width="381px" height="360px" viewBox="0 0 381 360" version="1.1" xmlns="http://www.w3.org/2000/svg" xmlns:xlink="http://www.w3.org/1999/xlink">
    <!-- Generator: sketchtool 53.2 (72643) - https://sketchapp.com -->
    <title>7D445F4C-82BD-42CA-A7DB-E298E1B2C78A</title>
    <desc>Created with sketchtool.</desc>
    <defs>
        <path d="M20.1970933,1.56943465 L19.4718731,2.25010891 C18.8676812,2.81718886 18.5249488,3.6089159 18.5249488,4.43754576 L18.5249488,64.6242668 C18.5249488,69.0661425 14.7246205,71.5148716 9.70818722,71.5148716 C4.69175391,71.5148716 2.41155694,68.7911681 2.41155694,64.3492924 L2.41155694,4.35356017 C2.41155694,3.57448564 2.10848376,2.82596636 1.56645498,2.26635763 L0.891425635,1.56943465 C0.535800988,1.20227581 0.545151296,0.616344028 0.912310132,0.260719381 C1.08495302,0.0935000221 1.31587602,2.04255293e-15 1.55622552,1.99840144e-15 L19.5759448,-4.99600361e-15 C20.0772183,-1.08110356e-15 20.4835807,0.406362436 20.4835807,0.907635904 C20.4835807,1.15833397 20.3798887,1.39786727 20.1970933,1.56943465 Z" id="path-1"></path>
    </defs>
    <g id="Species-Compendia" stroke="none" stroke-width="1" fill="none" fill-rule="evenodd">
        <g id="species-compendia-downloading" transform="translate(-500.000000, -657.000000)">
            <g id="tubey-adventure" transform="translate(500.000000, 660.000000)">
                <path d="M218.839558,52.8085325 C197.315862,66.4125903 173.991721,67.0562195 152.333102,54.2700357 C121.637229,36.1537119 81.5399457,31.5326854 66.6407758,114.6271 C41.2122415,256.592252 31.2422023,305.105692 72.2671609,331.268033 C113.292119,357.430373 129.285917,320.497161 149.330366,344.482677 C177.803344,378.552485 212.687756,389.929121 245.561885,373.929695 C266.584358,363.697265 284.606144,346.918845 289.769315,319.477575 C304.209812,242.730423 295.088586,196.609696 321.165258,176.363418 C347.24193,156.11714 332.774211,81.1675725 314.236622,79.4756003 C295.699033,77.783628 252.015388,95.1914111 238.521059,60.6157086 C233.710149,48.3402907 226.342052,48.0612605 218.839558,52.8085325 Z" id="Shape" fill="#FFFBC9" fill-rule="nonzero" opacity="0.15687779" transform="translate(189.922817, 212.225143) rotate(-91.000000) translate(-189.922817, -212.225143) "></path>
                <g id="mountains" transform="translate(147.000000, 196.000000)">
                    <path d="M129.702734,74.2220972 L144.471434,37.3891503 C144.882513,36.3639245 146.046868,35.8660602 147.072094,36.2771393 C147.478586,36.4401282 147.820343,36.7320375 148.044887,37.1080446 L207,135.830398 C183.388889,143.276799 164.5,147 150.333333,147 L149.975024,146.911717 C136.575568,149.637239 114.294419,151 83.1315789,151 C39.1533835,151 11.4428571,148.285934 0,142.857801 L30.7563728,84.9904186 C31.2747756,84.015056 32.4857118,83.6446169 33.4610744,84.1630198 C33.6618616,84.2697377 33.8429799,84.4099144 33.9966411,84.5775223 L53.1233766,105.440256 L92.4683204,3.04175976 C92.8644949,2.01068283 94.0215107,1.49599265 95.0525876,1.89216706 C95.5339868,2.07713682 95.9253288,2.44091274 96.144907,2.90754368 L129.702734,74.2220972 Z" id="Combined-Shape" fill="#AAC4E4"></path>
                    <path d="M84.8450655,26.5134776 L87.6521244,24.7515625 C87.9464645,24.5668131 88.3156153,24.5481227 88.6271104,24.7021981 L95.0081567,27.8584667 C95.3028838,28.0042481 95.6504425,27.9958276 95.9377641,27.8359444 L101.49904,24.741312 C101.817302,24.5642117 102.206685,24.5741536 102.515494,24.7672647 L105.042851,26.3477235 C105.511116,26.6405484 106.128102,26.4983263 106.420926,26.0300614 C106.600635,25.742685 106.622544,25.3838405 106.479132,25.0767359 L95.7518941,2.10524753 C95.2845297,1.10442569 94.0943297,0.671972919 93.0935078,1.13933724 C92.6202914,1.36032013 92.2522891,1.75764416 92.0681613,2.24638155 L83.3776473,25.3139464 C83.1829382,25.8307702 83.4440638,26.4075815 83.9608875,26.6022906 C84.2533021,26.7124554 84.5804031,26.679599 84.8450655,26.5134776 Z" id="Path-5" fill="#E9F0F8"></path>
                    <path d="M136.748095,61.3821588 L140.145537,59.6306322 C140.420394,59.4889316 140.745345,59.4823627 141.025704,59.6128395 L148.05463,62.884044 C148.337001,63.0154575 148.66448,63.0078026 148.940403,62.8633388 L155.195368,59.5884532 C155.419338,59.4711897 155.679412,59.4431095 155.923251,59.5098633 L162.350806,61.2694814 C162.88349,61.4153099 163.433534,61.1017014 163.579362,60.5690171 C163.653841,60.2969602 163.609959,60.0061013 163.458533,59.7681263 L148.621007,36.4501479 C148.028025,35.5182437 146.79186,35.2434933 145.859955,35.8364758 C145.514356,36.0563851 145.244617,36.3771113 145.087206,36.7552923 L135.366644,60.1090532 C135.154416,60.6189333 135.395711,61.2043176 135.905591,61.4165455 C136.177765,61.5298328 136.486059,61.5172498 136.748095,61.3821588 Z" id="Path-5" fill="#E9F0F8"></path>
                </g>
                <g id="clouds" transform="translate(0.000000, 23.000000)" fill-rule="nonzero">
                    <g id="clound7" transform="translate(135.516035, 141.532338)">
                        <path d="M45.9036324,11.5476223 L39.7491102,14.8778862 L43.4774446,9.08038413 C42.4217207,8.36010099 41.1154185,7.96116315 39.7649418,7.94660527 L39.6659945,7.94660527 C39.2391426,7.95374246 38.8124513,7.92654749 38.3915532,7.86537932 L36.309702,8.99577377 L37.2002277,7.60816382 C35.7253572,7.16549976 34.4512188,6.33651525 33.558967,5.23907366 L29.8345905,7.26972237 L32.1855784,3.60778587 C30.0087378,1.37068788 27.0719819,0 23.838384,0 C19.9636077,0 16.5123258,1.96972924 14.2840325,5.04277762 C12.9388596,6.91618004 10.5207942,8.02756907 7.9514052,7.9533741 L7.74559481,7.9533741 C3.46711347,7.9533741 0,12.0992819 0,17.2165166 C0,22.3337513 3.46711347,26.4796591 7.74559481,26.4796591 C8.68571484,26.4771059 9.61090979,26.2784499 10.4409193,25.9009242 C13.389019,24.6779538 16.8157675,24.6210561 19.8171657,25.7452412 C22.353672,26.713184 25.251854,26.713184 27.7883603,25.7452412 C30.7642185,24.6423611 34.1533021,24.6979261 37.0775331,25.8975398 C37.9024944,26.2656756 38.8185781,26.4594817 39.7491102,26.462737 C44.0275916,26.462737 47.494705,22.3168293 47.494705,17.1995945 C47.525476,15.2314682 46.9784257,13.2881796 45.9036324,11.5476223 L45.9036324,11.5476223 Z" id="Path" fill="#F2F2F2"></path>
                        <path d="M35.1056911,26.0638925 C32.8181702,25.6798458 30.4536294,25.9075483 28.3122173,26.7180959 C25.7180942,27.748715 22.7517412,27.748715 20.1576181,26.7180959 C17.086407,25.5206977 13.5773844,25.5811567 10.5608743,26.883444 C9.70937304,27.2832147 8.76144967,27.4941102 7.79811393,27.4981075 C3.90918438,27.4981075 0.672460733,24.0186084 0,19.431996 C0.778132772,18.9305842 1.43861205,18.2993492 1.94446477,17.5736272 C4.22515991,14.313394 7.75760424,12.2213811 11.7235022,12.2213811 C15.6894001,12.2213811 19.1853857,14.2702597 21.4620299,17.5053312 C22.8439638,19.488634 25.2956441,20.684783 27.9233243,20.6577286 L28.0245985,20.6577286 C31.1195383,20.6505396 33.8012793,22.8503882 35.1056911,26.0638925 Z" id="Path" fill="#000000" opacity="0.03"></path>
                    </g>
                    <g id="cloud" transform="translate(277.196868, 130.614692)">
                        <path d="M39.8672252,10.0518163 L34.5220333,12.9506989 L37.7600852,7.90416857 C36.8431909,7.27718635 35.7086697,6.9299244 34.535783,6.91725225 L34.4498474,6.91725225 C34.0791273,6.92346494 33.7085467,6.89979263 33.3429974,6.8465478 L31.5349132,7.8305181 L32.3083333,6.62265037 C31.0274108,6.23732622 29.9208238,5.51572312 29.1459046,4.56043718 L25.9112902,6.32804848 L27.9531191,3.14045609 C26.0625367,1.19313763 23.5119693,0 20.7035952,0 C17.3383587,0 14.3409263,1.71458297 12.4056575,4.38956808 C11.2373771,6.02030179 9.1372915,6.98772851 6.90578163,6.92314429 L6.72703566,6.92314429 C3.01118203,6.92314429 0,10.5320174 0,14.9863979 C0,19.4407784 3.01118203,23.0496515 6.72703566,23.0496515 C7.54352828,23.047429 8.34705849,22.8745056 9.06792033,22.5458822 C11.6283398,21.4813276 14.6044649,21.4318001 17.211174,22.4103654 C19.4141254,23.252927 21.9311914,23.252927 24.1341428,22.4103654 C26.7186704,21.4503454 29.6620837,21.4987129 32.2017732,22.5429362 C32.9182507,22.863386 33.7138677,23.0320877 34.5220333,23.0349214 C38.2378869,23.0349214 41.249069,19.4260483 41.249069,14.9716678 C41.2757935,13.2584801 40.8006812,11.5669129 39.8672252,10.0518163 Z" id="Path" fill="#F2F2F2"></path>
                        <path d="M30.1014514,22.9107079 C28.1400117,22.579592 26.112531,22.7759116 24.2763725,23.4747464 C22.052036,24.3633217 19.5085302,24.3633217 17.2841937,23.4747464 C14.650777,22.4423782 11.6419579,22.4945046 9.05544472,23.6173056 C8.32532312,23.9619784 7.51252415,24.1438075 6.68650981,24.1472539 C3.35193868,24.1472539 0.576602924,21.1473127 0,17.1928448 C0.667211644,16.7605394 1.23354104,16.2163037 1.66728556,15.5906035 C3.62287259,12.7797082 6.6517747,10.9760245 10.0523425,10.9760245 C13.4529104,10.9760245 16.4505509,12.7425188 18.4026644,15.5317203 C19.5908073,17.246452 21.7010162,18.2784377 23.960283,18.2496423 L24.0471207,18.2496423 C26.683516,18.243444 28.9829807,20.1401011 30.1014514,22.9107079 Z" id="Path" fill="#000000" opacity="0.03"></path>
                    </g>
                    <g id="cloud-" transform="translate(209.601626, 70.272942)">
                        <path d="M38.9180748,10.2151934 L33.7001401,13.1611929 L36.8611012,8.03263888 C35.9660361,7.39546601 34.8585253,7.04255984 33.7135624,7.02968173 L33.6296728,7.02968173 C33.2677787,7.0359954 32.9060208,7.01193833 32.5491744,6.95782808 L30.7841367,7.95779133 L31.5391434,6.73029154 C30.2887168,6.33870452 29.2084752,5.60537286 28.4520052,4.63456019 L25.2943997,6.43090134 L27.2876172,3.19149946 C25.4420454,1.21253028 22.9522014,0 20.2106884,0 C16.9255707,0 13.9995006,1.74245092 12.1103062,4.46091387 C10.96984,6.1181527 8.91975282,7.10130348 6.74137025,7.03566953 L6.56687983,7.03566953 C2.93949246,7.03566953 0,10.7031994 0,15.2299791 C0,19.7567588 2.93949246,23.4242887 6.56687983,23.4242887 C7.36393357,23.4220301 8.1483335,23.2462961 8.85203322,22.9123315 C11.3514947,21.8304741 14.2567649,21.7801416 16.8014141,22.774612 C18.9495348,23.6356345 21.4066764,23.6410771 23.5595622,22.7895815 C26.082558,21.8139579 28.9558951,21.8631115 31.4351202,22.9243071 C32.13454,23.2499653 32.9112152,23.421409 33.7001401,23.4242887 C37.3275275,23.4242887 40.2670199,19.7567588 40.2670199,15.2299791 C40.2959259,13.4838947 39.8320422,11.7593789 38.9180748,10.2151934 Z" id="Path" fill="#F2F2F2"></path>
                        <path d="M29.9430894,23.1997759 C27.9919687,22.8669354 25.9751545,23.0642776 24.1486559,23.7667521 C21.9360215,24.6599554 19.4058969,24.6599554 17.1932625,23.7667521 C14.5737001,22.729007 11.5807102,22.7814049 9.00780454,23.9100538 C8.28152407,24.2565218 7.47300119,24.4392979 6.65133247,24.4427623 C3.33430433,24.4427623 0.573569449,21.4271964 0,17.4521323 C0.663701482,17.0175753 1.22705146,16.470505 1.65851407,15.8415459 C3.60381286,13.0160105 6.61678009,11.2029327 9.99945774,11.2029327 C13.3821354,11.2029327 16.3640055,12.9786275 18.305849,15.7823561 C19.4877412,17.5060187 21.5868484,18.5433793 23.8342293,18.5144339 L23.9206102,18.5144339 C26.5431356,18.5082034 28.8305029,20.4147388 29.9430894,23.1997759 Z" id="Path" fill="#000000" opacity="0.03"></path>
                    </g>
                    <g id="cloud-5" transform="translate(333.504065, 102.863291)">
                        <path d="M25.8480624,6.68122957 L22.3810759,8.61433724 L24.4836355,5.2520685 C23.8894338,4.83176479 23.1522979,4.59888325 22.3900229,4.59063859 L22.3363405,4.59063859 C22.0951755,4.5928291 21.8542334,4.57702419 21.616102,4.54339359 L20.4440369,5.19694934 L20.9450724,4.40953278 C20.113382,4.1530963 19.3948246,3.67225888 18.8917216,3.03549087 L16.7936356,4.21661572 L18.1356949,2.09452807 C17.0055335,0.808129823 15.2766549,0.0386725878 13.4295402,0 C11.2464571,0 9.30047106,1.14175402 8.06130296,2.92525255 C7.30197557,4.01527453 5.93429691,4.66074366 4.48247811,4.61426108 L4.36616631,4.61426108 C1.95493307,4.61426108 0,7.02375578 0,9.99231624 C0,12.9608767 1.95493307,15.3664343 4.36616631,15.3664343 C4.89647705,15.3649206 5.41843625,15.2500787 5.88716687,15.0317823 C7.54912672,14.31975 9.48270482,14.2866372 11.1748806,14.9412294 C12.5988897,15.4982864 14.2244025,15.4982864 15.6484116,14.9412294 C17.3266687,14.3004811 19.2385426,14.3335298 20.8869165,15.0317823 C21.3516783,15.2434626 21.8667236,15.3554343 22.3900229,15.3585601 C24.8012562,15.3585601 26.7561892,12.9530025 26.7561892,9.98444207 C26.7731599,8.83375662 26.4608631,7.69781122 25.8480624,6.68122957 Z" id="Path" fill="#F2F2F2"></path>
                        <path d="M18.9527657,14.652475 C17.7174805,14.4568632 16.4396462,14.5717344 15.2840643,14.9822735 C14.5935712,15.2343701 13.8472963,15.3651844 13.0924864,15.3664343 C12.3290954,15.3662498 11.5745129,15.2315825 10.8789927,14.971401 C9.22000583,14.3714551 7.32626862,14.4032483 5.69810255,15.0583808 C5.24040596,15.2593026 4.73041391,15.3650338 4.21221273,15.3664343 C2.1126811,15.3664343 0.363801932,13.6159655 0,11.3110003 C0.418801331,11.0569372 0.775723655,10.7396865 1.05195739,10.3759673 C2.27924102,8.73422327 4.1859138,7.68321715 6.31174437,7.68321715 C8.43757493,7.68321715 10.3354814,8.7233508 11.5715313,10.3433499 C12.3209197,11.3455182 13.6532572,11.947282 15.078056,11.9271074 L15.135037,11.9271074 C16.7874868,11.9271074 18.2470776,13.0361 18.9527657,14.652475 Z" id="Path" fill="#000000" opacity="0.03"></path>
                    </g>
                    <path d="M379.970862,191.078441 L376.503875,193.011549 L378.606435,189.64928 C378.012233,189.228976 377.275097,188.996095 376.512822,188.98785 L376.45914,188.98785 C376.217975,188.990041 375.977033,188.974236 375.738901,188.940605 L374.566836,189.594161 L375.067872,188.806744 C374.236181,188.550308 373.517624,188.069471 373.014521,187.432703 L370.916435,188.613827 L372.258494,186.49174 C371.128333,185.205342 369.399454,184.435884 367.552339,184.397212 C365.369256,184.397212 363.42327,185.538966 362.184102,187.322464 C361.424775,188.412486 360.057096,189.057955 358.605277,189.011473 L358.488965,189.011473 C356.077732,189.011473 354.122799,191.420967 354.122799,194.389528 C354.122799,197.358088 356.077732,199.763646 358.488965,199.763646 C359.019276,199.762132 359.541235,199.64729 360.009966,199.428994 C361.671926,198.716962 363.605504,198.683849 365.29768,199.338441 C366.721689,199.895498 368.347202,199.895498 369.771211,199.338441 C371.449468,198.697693 373.361342,198.730741 375.009716,199.428994 C375.474477,199.640674 375.989523,199.752646 376.512822,199.755772 C378.924055,199.755772 380.878988,197.350214 380.878988,194.381654 C380.895959,193.230968 380.583662,192.095023 379.970862,191.078441 L379.970862,191.078441 Z" id="Path" fill="#F2F2F2"></path>
                    <path d="M374.190433,196.854482 C372.955148,196.65887 371.677314,196.773741 370.521732,197.18428 C369.831239,197.436377 369.084964,197.567191 368.330154,197.568441 C367.566763,197.568257 366.812181,197.433589 366.11666,197.173408 C364.457674,196.573462 362.563936,196.605255 360.93577,197.260388 C360.478074,197.461309 359.968082,197.567041 359.44988,197.568441 C357.350349,197.568441 355.60147,195.817972 355.237668,193.513007 C355.656469,193.258944 356.013391,192.941693 356.289625,192.577974 C357.516909,190.93623 359.423582,189.885224 361.549412,189.885224 C363.675243,189.885224 365.573149,190.925358 366.809199,192.545357 C367.558587,193.547525 368.890925,194.149289 370.315724,194.129114 L370.372705,194.129114 C372.025154,194.129114 373.484745,195.238107 374.190433,196.854482 Z" id="Path" fill="#000000" opacity="0.03"></path>
                    <g id="cloud6" transform="translate(0.000000, 153.785713)">
                        <path d="M26.962931,6.68122957 L23.4959444,8.61433724 L25.598504,5.2520685 C25.0043023,4.83176479 24.2671665,4.59888325 23.5048915,4.59063859 L23.4512091,4.59063859 C23.2100441,4.5928291 22.969102,4.57702419 22.7309706,4.54339359 L21.5589055,5.19694934 L22.059941,4.40953278 C21.2282505,4.1530963 20.5096932,3.67225888 20.0065902,3.03549087 L17.9085041,4.21661572 L19.2505635,2.09452807 C18.1204021,0.808129823 16.3915235,0.0386725878 14.5444088,3.69482223e-13 C12.3613256,3.69482223e-13 10.4153396,1.14175402 9.17617153,2.92525255 C8.41684414,4.01527453 7.04916548,4.66074366 5.59734669,4.61426108 L5.48103488,4.61426108 C3.06980164,4.61426108 1.11486857,7.02375578 1.11486857,9.99231624 C1.11486857,12.9608767 3.06980164,15.3664343 5.48103488,15.3664343 C6.01134562,15.3649206 6.53330482,15.2500787 7.00203544,15.0317823 C8.6639953,14.31975 10.5975734,14.2866372 12.2897491,14.9412294 C13.7137582,15.4982864 15.3392711,15.4982864 16.7632802,14.9412294 C18.4415373,14.3004811 20.3534112,14.3335298 22.0017851,15.0317823 C22.4665469,15.2434626 22.9815922,15.3554343 23.5048915,15.3585601 C25.9161247,15.3585601 27.8710578,12.9530025 27.8710578,9.98444207 C27.8880284,8.83375662 27.5757317,7.69781122 26.962931,6.68122957 L26.962931,6.68122957 Z" id="Path" fill="#F2F2F2"></path>
                        <path d="M18.9527657,14.652475 C17.7174805,14.4568632 16.4396462,14.5717344 15.2840643,14.9822735 C14.5935712,15.2343701 13.8472963,15.3651844 13.0924864,15.3664343 C12.3290954,15.3662498 11.5745129,15.2315825 10.8789927,14.971401 C9.22000583,14.3714551 7.32626862,14.4032483 5.69810255,15.0583808 C5.24040596,15.2593026 4.73041391,15.3650338 4.21221273,15.3664343 C2.1126811,15.3664343 0.363801932,13.6159655 1.2718715e-12,11.3110003 C0.418801331,11.0569372 0.775723655,10.7396865 1.05195739,10.3759673 C2.27924102,8.73422327 4.1859138,7.68321715 6.31174437,7.68321715 C8.43757493,7.68321715 10.3354814,8.7233508 11.5715313,10.3433499 C12.3209197,11.3455182 13.6532572,11.947282 15.078056,11.9271074 L15.135037,11.9271074 C16.7874868,11.9271074 18.2470776,13.0361 18.9527657,14.652475 Z" id="Path" fill="#000000" opacity="0.03"></path>
                    </g>
                    <g id="cloud-2" transform="translate(107.736845, 0.000000)">
                        <path d="M53.8743209,13.8810648 L46.6511299,17.8842792 L51.0268508,10.9152687 C49.7878114,10.049437 48.2546834,9.56988532 46.6697105,9.55238572 L46.553582,9.55238572 C46.0526117,9.56096514 45.55183,9.52827483 45.0578473,9.45474634 L42.6145042,10.813561 L43.6596605,9.14555498 C41.9286941,8.61344124 40.4333148,7.6169428 39.3861327,6.29773982 L35.015057,8.73872424 L37.7742695,4.33681566 C35.2194431,1.64766449 31.77275,0 27.9776716,0 C23.4300806,0 19.3795195,2.36775489 16.7643063,6.06177799 C15.185558,8.31374117 12.3476207,9.64970997 9.33208404,9.56052233 L9.09053682,9.56052233 C4.06914167,9.56052233 0,14.5441989 0,20.6954796 C0,26.8467604 4.06914167,31.8304369 9.09053682,31.8304369 C10.1938989,31.8273678 11.2797443,31.588569 12.2538764,31.1347563 C15.7138829,29.6646587 19.7356507,29.5962636 23.2582104,30.9476142 C26.2318556,32.1176272 29.6332786,32.125023 32.6135202,30.9679557 C36.1061051,29.6422153 40.0836679,29.7090084 43.5156612,31.1510296 C44.4838685,31.593555 45.5590205,31.8265237 46.6511299,31.8304369 C51.6725251,31.8304369 55.7416667,26.8467604 55.7416667,20.6954796 C55.7816813,18.3227873 55.1395268,15.9794038 53.8743209,13.8810648 L53.8743209,13.8810648 Z" id="Path" fill="#F2F2F2"></path>
                        <path d="M41.2501372,30.1817431 C38.5622382,29.7402552 35.7838388,30.0020147 33.2676216,30.9337944 C30.2194567,32.1185614 26.7339117,32.1185614 23.6857469,30.9337944 C20.0769907,29.5573035 15.9537941,29.6268053 12.4093131,31.1238733 C11.4087761,31.583437 10.2949405,31.8258759 9.16299493,31.8304711 C4.59339746,31.8304711 0.790159563,27.8305495 0,22.5579256 C0.914327068,21.9815184 1.6904081,21.2558708 2.28479874,20.4216038 C4.96467725,16.6737434 9.11539495,14.2688319 13.7754324,14.2688319 C18.4354698,14.2688319 22.5433475,16.6241576 25.218466,20.3430929 C26.8466619,22.6294019 29.7384296,24.0053828 32.8344618,23.9669889 L32.9534618,23.9669889 C36.5662998,23.9587246 39.717418,26.4876006 41.2501372,30.1817431 Z" id="Path" fill="#000000" opacity="0.03"></path>
                    </g>
                    <g id="cloud-3" transform="translate(174.606414, 225.398010)">
                        <path d="M25.8480624,6.68122957 L22.3810759,8.61433724 L24.4836355,5.2520685 C23.8894338,4.83176479 23.1522979,4.59888325 22.3900229,4.59063859 L22.3363405,4.59063859 C22.0951755,4.5928291 21.8542334,4.57702419 21.616102,4.54339359 L20.4440369,5.19694934 L20.9450724,4.40953278 C20.113382,4.1530963 19.3948246,3.67225888 18.8917216,3.03549087 L16.7936356,4.21661572 L18.1356949,2.09452807 C17.0055335,0.808129823 15.2766549,0.0386725878 13.4295402,0 C11.2464571,0 9.30047106,1.14175402 8.06130296,2.92525255 C7.30197557,4.01527453 5.93429691,4.66074366 4.48247811,4.61426108 L4.36616631,4.61426108 C1.95493307,4.61426108 0,7.02375578 0,9.99231624 C0,12.9608767 1.95493307,15.3664343 4.36616631,15.3664343 C4.89647705,15.3649206 5.41843625,15.2500787 5.88716687,15.0317823 C7.54912672,14.31975 9.48270482,14.2866372 11.1748806,14.9412294 C12.5988897,15.4982864 14.2244025,15.4982864 15.6484116,14.9412294 C17.3266687,14.3004811 19.2385426,14.3335298 20.8869165,15.0317823 C21.3516783,15.2434626 21.8667236,15.3554343 22.3900229,15.3585601 C24.8012562,15.3585601 26.7561892,12.9530025 26.7561892,9.98444207 C26.7731599,8.83375662 26.4608631,7.69781122 25.8480624,6.68122957 Z" id="Path" fill="#F2F2F2"></path>
                        <path d="M18.9527657,14.652475 C17.7160504,14.4568632 16.4367369,14.5717344 15.2798171,14.9822735 C14.5885246,15.2343701 13.8413858,15.3651844 13.0857021,15.3664343 C12.3288268,15.363689 11.5811702,15.2290792 10.8915871,14.971401 C9.2306796,14.3714551 7.33475007,14.4032483 5.70469911,15.0583808 C5.24647265,15.2593026 4.73589019,15.3650338 4.21708911,15.3664343 C2.1151269,15.3664343 0.364223097,13.6159655 0,11.3110003 C0.419286167,11.0569372 0.776621691,10.7396865 1.05317522,10.3759673 C2.28187964,8.73422327 4.19075973,7.68321715 6.31905132,7.68321715 C8.44734291,7.68321715 10.3474465,8.7233508 11.5849274,10.3433499 C12.3311465,11.3399227 13.6548965,11.9408724 15.0735703,11.9271074 L15.1306173,11.9271074 C16.7849801,11.9271074 18.2462607,13.0361 18.9527657,14.652475 Z" id="Path" fill="#000000" opacity="0.03"></path>
                    </g>
                </g>
                <g id="tubey-hot-air-balloon">
                    <g id="tubey" transform="translate(78.270929, 227.084225) rotate(-11.000000) translate(-78.270929, -227.084225) translate(66.770929, 190.084225)">
                        <g id="bubble-small" transform="translate(0.332760, 0.229214)">
                            <mask id="mask-2" fill="white">
                                <use xlink:href="#path-1"></use>
                            </mask>
                            <path stroke="#CACACA" stroke-width="1.5" d="M20.7103622,2.11629386 L19.985142,2.79696812 C19.5319981,3.22227809 19.2749488,3.81607337 19.2749488,4.43754576 L19.2749488,64.6242668 C19.2749488,69.3554469 15.3444252,72.2648716 9.70818722,72.2648716 C4.45078147,72.2648716 1.66155694,69.3846453 1.66155694,64.3492924 L1.66155694,4.35356017 C1.66155694,3.76925427 1.43425206,3.20786481 1.02773047,2.78815827 L0.352701125,2.09123528 C-0.291106055,1.42654711 -0.27417867,0.36580205 0.390509498,-0.278005129 C0.703054565,-0.580731683 1.12110739,-0.75 1.55622552,-0.75 L19.5759448,-0.75 C20.4914319,-0.75 21.2335807,-0.00785112637 21.2335807,0.907635904 C21.2335807,1.36549144 21.0442055,1.8029565 20.7103622,2.11629386 Z"></path>
                            <g mask="url(#mask-2)" fill="#80A6D6" fill-rule="nonzero" id="Oval">
                                <g transform="translate(1.639937, 19.898534)">
                                    <ellipse cx="4.7973955" cy="3.65238127" rx="2.70458963" ry="2.66145323"></ellipse>
                                    <ellipse cx="2.70458963" cy="6.87542085" rx="1.35229481" ry="1.55251438"></ellipse>
                                    <ellipse cx="1.48102211" cy="4.86509708" rx="1.35229481" ry="1.55251438"></ellipse>
                                    <ellipse cx="8.54670685" cy="5.26823275" rx="1.57767728" ry="1.77430215"></ellipse>
                                    <ellipse cx="10.3675936" cy="5.98826977" rx="1.35229481" ry="1.55251438"></ellipse>
                                    <ellipse cx="13.0721832" cy="5.54469423" rx="1.35229481" ry="1.55251438"></ellipse>
                                    <ellipse cx="17.3544501" cy="5.98826977" rx="1.57767728" ry="1.55251438"></ellipse>
                                    <ellipse cx="15.3348117" cy="2.80567006" rx="2.47920716" ry="2.43966546"></ellipse>
                                    <ellipse cx="11.9685392" cy="4.48485863" rx="2.02844222" ry="2.21787769"></ellipse>
                                </g>
                            </g>
                            <path d="M18.651379,24.7436756 L18.651379,64.9338845 C18.651379,66.8557023 18.3617099,68.008029 17.0555567,69.1199478 C16.0885239,69.9431758 14.9282885,70.7993168 13.3303692,71.2515279 C12.2557617,71.5556418 10.8340076,71.6067913 9.70122474,71.6067913 C4.60889556,71.6067913 2.29420048,68.969139 2.29420048,64.6675976 L2.29420048,24.7436756 L18.651379,24.7436756 Z" id="Rectangle-2-Copy" fill="#80A6D6" mask="url(#mask-2)"></path>
                        </g>
                        <g id="air-bubbles" transform="translate(7.766139, 3.995274)" fill-rule="nonzero">
                            <g id="bubble-large" transform="translate(0.000000, 9.124285)">
                                <ellipse id="Oval" fill="#80A6D6" cx="1.97562583" cy="2.17180515" rx="1.94780012" ry="1.93750252"></ellipse>
                                <ellipse id="Oval-2" stroke="#FDFDFD" cx="1.44964676" cy="1.64905726" rx="1" ry="1"></ellipse>
                            </g>
                            <g id="bubble-small" transform="translate(1.356504, 0.000000)">
                                <ellipse id="Oval" fill="#80A6D6" cx="1.20346222" cy="1.02732692" rx="1" ry="1"></ellipse>
                                <ellipse id="Oval-2" stroke="#FDFDFD" fill="#FDFDFD" cx="1.26182318" cy="0.698329284" rx="1" ry="1"></ellipse>
                            </g>
                            <g id="bubble-med" transform="translate(5.086889, 4.393174)">
                                <ellipse id="Oval" fill="#80A6D6" cx="1.17389739" cy="1.4779089" rx="1.16868007" ry="1.16250151"></ellipse>
                                <ellipse id="Oval-2" stroke="#FDFDFD" fill="#FDFDFD" cx="1.03747834" cy="1.34266152" rx="1" ry="1"></ellipse>
                            </g>
                        </g>
                        <g id="liquid-bubbles" transform="translate(4.492448, 25.645051)"></g>
                        <g id="face" transform="translate(11.699854, 41.524414) rotate(12.000000) translate(-11.699854, -41.524414) translate(5.699854, 31.024414)" stroke="#FDFDFD">
                            <path d="M7.0915978,0.608752596 C7.06227471,0.608865676 7.03841198,0.585186287 7.0382989,0.555863201 L7.03829891,0.555451048 L7.01060114,7.64590043 C7.01070006,7.62057884 7.03120341,7.60007652 7.056525,7.59997887 C7.08584809,7.59986579 7.10971081,7.62354518 7.10982389,7.65286827 L7.10982388,7.65328042 L7.13752165,0.562831036 C7.13742274,0.588152624 7.11691939,0.608654948 7.0915978,0.608752596 Z" id="Rectangle-3" fill="#FDFDFD" transform="translate(7.074061, 4.104366) rotate(-7.000000) translate(-7.074061, -4.104366) "></path>
                            <path d="M9.60559361,10.7718203 C9.58891253,10.7790664 9.57225892,10.7863058 9.55563279,10.7935384 L9.45273184,10.7939386 L9.45191411,10.583644 C9.45246751,10.5662112 9.45302288,10.5487396 9.45358025,10.5312292 C9.45346312,10.5357563 9.45346312,10.5357563 9.45345378,10.5402848 C9.45385679,10.6439279 9.51636551,10.7328104 9.60559361,10.7718203 Z M9.44376037,10.8422842 C6.98434651,11.915675 5.13537073,12.8395276 3.90193615,13.6096076 C2.75608871,14.3250036 2.19642709,14.8871814 2.19546508,15.137801 C2.19285427,15.8179658 4.52206357,17.5993736 8.98771865,20.0901391 C9.06275779,20.131993 9.14731583,20.1538047 9.23315281,20.1534709 L9.40956144,20.1527551 C9.35736212,17.9527812 9.33301681,16.3927343 9.33655936,15.469834 C9.34007163,14.5548219 9.37580892,13.0131506 9.44376037,10.8422842 Z" id="Rectangle-3" transform="translate(5.824458, 15.473211) scale(1, -1) rotate(96.000000) translate(-5.824458, -15.473211) "></path>
                            <path d="M2.16731346,1.14675513 C2.13799038,1.14686821 2.11412765,1.12318882 2.11401457,1.09386574 L2.11401458,1.09345358 L2.08631681,8.18390297 C2.08641572,8.15858138 2.10691907,8.13807906 2.13224067,8.13798141 C2.16156375,8.13786833 2.18542648,8.16154772 2.18553956,8.1908708 L2.18553955,8.19128296 L2.21323732,1.10083357 C2.2131384,1.12615516 2.19263506,1.14665748 2.16731346,1.14675513 Z" id="Rectangle-3" fill="#FDFDFD" transform="translate(2.149777, 4.642368) rotate(-7.000000) translate(-2.149777, -4.642368) "></path>
                        </g>
                    </g>
                    <path d="M50,173 L59,248.30576" id="Line-14" stroke="#E9F0F8" stroke-width="2" stroke-linecap="square"></path>
                    <path d="M104.845678,173 L99,249.413827" id="Line-14" stroke="#E9F0F8" stroke-width="2" stroke-linecap="square"></path>
                    <g id="balloon-shadow" transform="translate(2.000000, 0.000000)">
                        <path d="M52.2428008,177.66745 L106.51261,177.061673 C139.317663,145.121051 155.72019,113.702848 155.72019,82.8070652 C155.72019,36.4633909 116.902979,1.22534615 78.085768,1.22534615 C39.268557,1.22534615 5.25728639,29.0315508 0.45134598,73.5214781 C-2.71692012,102.850999 13.5458143,137.13039 49.2395492,176.359651 L49.239542,176.359658 C50.0080568,177.204295 51.1009317,177.680196 52.2428008,177.66745 Z" id="Path-2" fill="#F2F2F2"></path>
                        <path d="M75.2093454,0 L75.2093454,176.449845" id="Line-2" stroke="#FDFDFD" stroke-width="5" stroke-linecap="round"></path>
                        <path d="M80.351618,0 C108.007208,24.3668834 124.229945,50.2041822 129.019828,77.5118963 C133.809711,104.81961 123.608155,138.003151 98.41516,177.062518" id="Line" stroke="#FDFDFD" stroke-width="3" stroke-linecap="round"></path>
                        <path d="M21.819267,0 C48.7834675,24.3668834 64.6006357,50.2041822 69.2707715,77.5118963 C73.9409074,104.81961 63.937293,138.003151 39.2599283,177.062518" id="Line" stroke="#FDFDFD" stroke-width="3" stroke-linecap="round" transform="translate(46.102396, 88.531259) scale(-1, 1) translate(-46.102396, -88.531259) "></path>
                    </g>
                    <g id="balloon">
                        <path d="M52.2422032,176.967953 L106.51261,176.362465 C139.317663,144.437508 155.72019,113.034713 155.72019,82.1540823 C155.72019,35.8331359 116.902979,0.612372607 78.085768,0.612372607 C39.268557,0.612372607 5.25728639,28.4049405 0.45134598,72.8730491 C-2.71692256,102.188209 13.5458394,136.450819 49.2396318,175.660879 L49.2396264,175.660884 C50.0081126,176.505075 51.1006832,176.980688 52.2422032,176.967953 Z" id="Path-2" fill="#AAC4E4"></path>
                        <path d="M77.7008685,0 L77.7008685,176.363311" id="Line-2" stroke="#FDFDFD" stroke-width="5" stroke-linecap="round"></path>
                        <path d="M82.843141,0 C110.498731,24.3549334 126.721468,50.179561 131.511351,77.4738829 C136.301234,104.768205 126.099678,137.935472 100.906683,176.975683" id="Line" stroke="#FDFDFD" stroke-width="3" stroke-linecap="round"></path>
                        <path d="M24.31079,0 C51.2749905,24.3549334 67.0921587,50.179561 71.7622946,77.4738829 C76.4324304,104.768205 66.428816,137.935472 41.7514513,176.975683" id="Line" stroke="#FDFDFD" stroke-width="3" stroke-linecap="round" transform="translate(48.593919, 88.487842) scale(-1, 1) translate(-48.593919, -88.487842) "></path>
                    </g>
                    <path d="M55,246 L104,246 C106.761424,246 109,248.238576 109,251 L109,275 C109,282.179702 103.179702,288 96,288 L63,288 C55.8202983,288 50,282.179702 50,275 L50,251 C50,248.238576 52.2385763,246 55,246 Z" id="Rectangle" fill="#F2F2F2"></path>
                    <path d="M54,245 L103,245 C105.761424,245 108,247.238576 108,250 L108,274 C108,281.179702 102.179702,287 95,287 L62,287 C54.8202983,287 49,281.179702 49,274 L49,250 C49,247.238576 51.2385763,245 54,245 Z" id="Rectangle" fill="#D4E1F1"></path>
                </g>
            </g>
        </g>
    </g>
</svg>