<svg id="Layer_1" data-name="Layer 1" xmlns="http://www.w3.org/2000/svg" viewBox="0 0 108 109.6"><defs><style>.cls-1{fill:#fd0;}.cls-2{fill:#003595;}</style></defs><path class="cls-1" d="M301.47,195.32H197.79a2.16,2.16,0,0,0-2.16,2.16V302.76a2.16,2.16,0,0,0,2.16,2.16h4.85a2.16,2.16,0,0,0,2.14-1.84l1.16-3.75a2.17,2.17,0,0,1,2.07-1.52h83.24a2.17,2.17,0,0,1,2.07,1.52l1.16,3.75a2.15,2.15,0,0,0,2.14,1.84h4.85a2.16,2.16,0,0,0,2.16-2.16V197.48a2.16,2.16,0,0,0-2.16-2.16" transform="translate(-195.63 -195.32)"/><path class="cls-2" d="M291.62,265.41a2.39,2.39,0,0,0-1.05-2.17c-.57-.25-1.52-.44-1.75-.77v0a10,10,0,0,0-5.49-3.53,13.81,13.81,0,0,0-12.94,3.69,10.55,10.55,0,0,0-3.12,7.25c-.06.65-1.41,1.69-1.42,2.6a2.18,2.18,0,0,0,.85,1.94c.37.29,1.06.25,1.58.35a2.43,2.43,0,0,1,1,.67v0c3.08,3.65,8.65,4.2,13,2.69l.11,0,.13,0c4.12-1.6,7.81-5.23,8.06-9.86a9.42,9.42,0,0,0,0-1.19A2.62,2.62,0,0,0,291.62,265.41Zm-21.51,1.45c-.12-.57.92-.83,1.07-.25S270.23,267.45,270.11,266.86Zm.44-2c-.17-.86,1.27-1.19,1.5-.34S270.73,265.74,270.55,264.87Zm2,1.35c-.21-1,1.51-1.43,1.78-.4S272.8,267.27,272.59,266.22Zm.56-2.9a1,1,0,0,1,1.93-.43C275.26,264,273.39,264.46,273.15,263.32Zm2.3.73c-.16-.77,1.15-1.07,1.35-.32S275.6,264.82,275.45,264.05Zm.72-2.51a1.14,1.14,0,0,1,2.22-.49C278.59,262.37,276.45,262.88,276.17,261.54Zm3.57-.08c-.21-1,1.51-1.43,1.78-.4S280,262.52,279.74,261.46Zm3.95,12.86c-.72.29-1.57-.38-.62-.76a6.25,6.25,0,0,0,3.86-5.43c.05-.6,1.55-.85,1.5-.15A7.49,7.49,0,0,1,283.69,274.32Z" transform="translate(-195.63 -195.32)"/><path class="cls-2" d="M238.22,273.56c0-2.57.13-5.15,0-7.71-.34-6.14-11-3-8.13,1.41.52.81,2.87-.05,2.24-1a1.49,1.49,0,0,1,.79-2.23,2.34,2.34,0,0,1,2.54,1.57,3.54,3.54,0,0,1,.16,1l-3.43,1.5c-1.58.71-3.34,1.46-3.76,3.33-.51,2.25.69,4.38,3.1,4.56a5.36,5.36,0,0,0,4-1.55v.88c0,1,1.49.69,2,.34l1.52-1c1.15-.76-.1-1.32-1.07-1.13m-6.63.38a2.7,2.7,0,0,1-.57-2.38c.17-1.1.82-1.46,1.74-1.89s2-.9,3-1.34v3.35c-.94,1.27-2.61,3.77-4.17,2.26" transform="translate(-195.63 -195.32)"/><path class="cls-2" d="M258.43,273.37c-1,1.79-2.92,2.13-4.07.27a8.12,8.12,0,0,1-.81-4.9c.11-1.16.39-3.16,1.67-3.67,1.74-.69,3,1.23,3.25,2.67,0,1.86,0,3.73,0,5.59l0,0m2.87,1.24-.39.16,0-8.58c0-2.62.42-5.27.65-7.89.07-.7-1-.77-1.42-.61l-2.31.82c-1.42.5-1.08,2,.39,1.46l.78-.27c-.15,1.39-.32,2.79-.43,4.18a5,5,0,0,0-3.17-.4c-2.81.51-4.06,2.84-4.32,5.5-.24,2.46.09,5.8,2.53,7.12a4.88,4.88,0,0,0,4.83-.29v.44c0,.87,1.2.72,1.74.5l2.13-.91c1.55-.65.16-1.73-1-1.23" transform="translate(-195.63 -195.32)"/><path class="cls-2" d="M251.13,276.82l-1.34.39q0-4.81-.15-9.63c0-1.72.34-3.75-1.47-4.69a4.51,4.51,0,0,0-4.51.48v-.32c0-.87-1.2-.73-1.74-.5l-1.63.7c-1.5.64-.24,1.68.92,1.28v9.08h0c0,.76,0,1.55-.84,1.65-.47.05-1.17.29-1.32.81s.29.78.74.78h4.4a2.39,2.39,0,0,0,1.21-.3,1.1,1.1,0,0,0,.39-.41.52.52,0,0,0,0-.58.84.84,0,0,0-.66-.31A1.37,1.37,0,0,1,244,275a2.54,2.54,0,0,1-.36-1.58v-7.73c.68-.86,1.85-2.08,2.9-1.33.66.47.58,1.11.6,1.81,0,1.43.06,2.86.09,4.29.05,2.67.07,5.34.1,8,0,.71.89.76,1.42.61l2.75-.8c1.47-.42,1.1-1.89-.39-1.46" transform="translate(-195.63 -195.32)"/><path class="cls-2" d="M228.19,277.19c-1.57,1.92-1.76-1.89-1.76-2.75v-9.13l1.48-.25c.47-.08,1.29-.32,1.36-.91s-.66-.74-1.1-.67l-1.74.29v-3.52c0-1.15-2.46-.71-2.46.25v3.69l-1.52.25c-.48.08-1.31.32-1.37.92s.66.74,1.09.67l1.8-.31v6.34c0,1.41,0,2.82,0,4.22.11,3.39,4.32,3.82,6.22,1.48.95-1.16-1.38-1.32-2-.57" transform="translate(-195.63 -195.32)"/><path class="cls-2" d="M214.26,270.39a4,4,0,0,0-4.26,6.14c1.76,3.17,5.87,3.73,9,2.48a5.92,5.92,0,0,0,3.14-8.05c-.92-1.94-3-3-4.84-4s-3.36-1.48-3.83-3.52c-.44-1.87.25-4.29,2.44-4.57a3.8,3.8,0,0,1,3.05.93c.63.67,1,2.05-.08,2.5-1.64.68-.17,1.83,1.08,1.3,3.14-1.31,2.57-4.93-.4-6-2.77-1-6.38-.27-8.05,2.31a5.55,5.55,0,0,0-.45,4.8,5.73,5.73,0,0,0,3.26,3.16c1.87.94,4.29,1.89,5.27,3.87.71,1.44.73,3.93-.41,5.17-1.33,1.45-3.89,1.26-5.37.19a4.44,4.44,0,0,1-1.8-2.73c-.18-1,0-2.5,1.3-2.31,1.15.17,2.67-1.43.95-1.68" transform="translate(-195.63 -195.32)"/><path class="cls-2" d="M213.2,251.37c-.52,1.2-1.25,2.61-2.71,2.67a2.55,2.55,0,0,1-1.39-.2,1.76,1.76,0,0,1-.39-1.24V235.34c0-.92-1.27-.76-1.84-.52L204.1,236c-.46.19-1,.69-.65,1.19s1.3.3,1.73.12l.93-.39v14.82c0,.46,0,1.37-.39,1.7s-1.24.31-1.63.42c-.88.26-1.69,1.52-.26,1.61l8.67.57c.53,0,1.47-.18,1.69-.75l1.44-3.72c.5-1.29-2-1.1-2.43-.18" transform="translate(-195.63 -195.32)"/><path class="cls-2" d="M289.09,241.4c1.77-.78,2.77,1.86,2.94,3.24l-4.09,2.42c0-.3-.05-.59-.07-.86-.08-1.2-.24-4.15,1.22-4.8m6.1,6.4c-.1-1-2.55-.4-2.43.65.19,1.75-1,3.88-3,2.65a3.8,3.8,0,0,1-1.52-2.36l.09-.05,5.74-3.39c.15-.09.45-.38.44-.59-.1-3.08-2.23-5.6-5.53-4.84-3.08.71-3.72,3.77-3.57,6.54.15,3,1.08,6.41,4.65,6.64a4.69,4.69,0,0,0,5.13-5.25" transform="translate(-195.63 -195.32)"/><path class="cls-2" d="M267,256.43c-2.93.11-4.52-3-4.75-5.49-.19-2.17,0-4.42,0-6.6,0-1.49.08-3-1.44-3.77a4.55,4.55,0,0,0-4.51.45v-.33c0-.87-1.2-.72-1.74-.5l-1.64.69c-1.51.62-.23,1.67.93,1.27v9.71c-.05.53-.2,1-.82,1-.47,0-1.17.29-1.32.8s.29.78.74.78h4.4a2.2,2.2,0,0,0,1.21-.3,1,1,0,0,0,.39-.41.53.53,0,0,0,0-.57.84.84,0,0,0-.67-.31,1.34,1.34,0,0,1-1.07-.27,2.66,2.66,0,0,1-.36-1.62.5.5,0,0,0,0-.12v-7.56c.83-1,2.48-2.42,3.31-.77a3.39,3.39,0,0,1,.18,1.55c0,1.84,0,3.67,0,5.51,0,2.2.21,4.4,1.65,6.18a6.29,6.29,0,0,0,5.31,2.22c1.31-.05,1.94-1.65.27-1.58" transform="translate(-195.63 -195.32)"/><path class="cls-2" d="M242.29,252.42l-.89.36v-8.4c0-1.3.21-2.69-1-3.56-1.71-1.23-3.8-.62-5.42.55a2.5,2.5,0,0,0-1-.81,4.51,4.51,0,0,0-4.51.48v-.33c0-.86-1.2-.73-1.74-.49l-1.92.85c-1.54.68-.16,1.76,1,1.24l.18-.09v10.67c0,.68-.16,1.22-.95,1.32-.46,0-1.18.29-1.32.81s.29.78.74.78h4.64a2.15,2.15,0,0,0,1.19-.29,1.1,1.1,0,0,0,.41-.42.52.52,0,0,0,0-.58.84.84,0,0,0-.67-.31,1.64,1.64,0,0,1-1.15-.3,2.43,2.43,0,0,1-.38-1.58s0,0,0-.07v-8.89c.68-.86,1.85-2.08,2.89-1.34.68.49.57,1.17.58,1.89s0,1.49.06,2.23l.15,6.69c0,1,1.48.72,2,.35l1.51-1.05c1.16-.81-.15-1.37-1.11-1.13-.06-2.35-.12-4.69-.17-7,0-.19,0-.39,0-.57.74-.92,2-2.24,3.08-1.21.51.48.42,1.1.42,1.74v10.31c0,.88,1.2.72,1.74.5l2.63-1.08c1.55-.63.16-1.72-1-1.23" transform="translate(-195.63 -195.32)"/><path class="cls-2" d="M266.38,251.48a2.8,2.8,0,0,1-.5-2.58,2.3,2.3,0,0,1,1.58-1.76c1-.48,2-.93,3-1.37v3.32c-.9,1.22-2.59,3.73-4.1,2.39m6.56-.5c0-2.59.07-5.17,0-7.75-.17-5.43-10.42-4-8.23,1.26.41,1,2.82.27,2.44-.65s-.59-2.06.57-2.42A2.36,2.36,0,0,1,270.4,243a4.17,4.17,0,0,1,.13,1c-2.54,1-6.46,2.22-7.07,4.93-.51,2.26.53,4.33,3,4.47a5.44,5.44,0,0,0,4-1.57v.89c0,1,1.49.69,2,.35l1.52-1c1.16-.76-.11-1.32-1.07-1.12" transform="translate(-195.63 -195.32)"/><path class="cls-2" d="M248,251c-1.91-.25-2.58-2.88-2.59-4.5,0-1.2.37-4.49,2-4.53,3.19-.06,3.57,8.52.56,9m0-10.64c-6.26,0-7,11.84-.74,12.26h.31c6.21-.41,6.76-12.28.43-12.25" transform="translate(-195.63 -195.32)"/><path class="cls-2" d="M219.53,242c1.68-.75,2.67,1.61,2.91,3-.95.28-1.9.52-2.86.73-.32.07-.79.19-1.31.29-.05-1.39,0-3.51,1.26-4.05m6.1,6.39c-.11-1-2.56-.4-2.44.66.19,1.74-1,3.87-3,2.65-1.32-.82-1.68-2.65-1.83-4.17l.1,0a37.6,37.6,0,0,0,5.44-1.35c.32-.11,1.05-.4,1-.85-.1-3.09-2.24-5.61-5.53-4.85-2.8.65-3.58,3.23-3.59,5.77a1.49,1.49,0,0,1-1.16-.66c-.46-.83-2.82,0-2.25,1s2.06,1.3,3.48,1.24c.29,2.8,1.35,5.61,4.6,5.82a4.71,4.71,0,0,0,5.13-5.26" transform="translate(-195.63 -195.32)"/><path class="cls-2" d="M284,251.41q0-7.42,0-14.86c0-.9-1.2-.7-1.74-.5l-2.26.81c-.44.16-.91.67-.61,1.13s1.22.26,1.64.11l.52-.19v3.37a4.88,4.88,0,0,0-2.82-.3c-2.9.51-4,3-4.23,5.66-.19,2.3.24,5.25,2.5,6.45a4.51,4.51,0,0,0,4.55-.25v.39c0,1,1.49.68,2,.34l1.6-1c1.2-.79-.19-1.36-1.16-1.11m-2.48-1.06c-1,1.69-2.58,2.15-3.74.37a7,7,0,0,1-.84-4.32c.09-1.17.28-3.31,1.57-3.82,1.76-.7,2.81,1.36,3,2.72,0,0,0,0,0,0v5s0,0,0,0" transform="translate(-195.63 -195.32)"/><path class="cls-2" d="M277,226.53c-4,.26-5.9,4.92-2.24,7.22,2.95,1.86,8.15,1.21,10.38-1.57a4.7,4.7,0,0,0-.78-6.79c-1.5-1.06-3.48-1.43-5.19-2s-3.88-1.26-4.08-3.43,1.14-3.21,3.17-3.25a4,4,0,0,1,2.92.92c.59.59,1.27,2.84,0,3.09-.51.11-1.38.63-1.21,1.26s1.19.58,1.68.48a3.68,3.68,0,0,0,3.13-3.87,4,4,0,0,0-3.06-3.43c-3-1-7.94-.25-9.22,3.07a4.7,4.7,0,0,0,.22,4c1,1.74,2.95,2.31,4.73,2.9,2.65.89,7,1.85,5.65,5.65-.62,1.7-2.49,2.14-4.14,2a3.78,3.78,0,0,1-3.05-1.76c-.44-.81-.39-2.58.77-2.65,1.54-.1,2.31-2,.32-1.89" transform="translate(-195.63 -195.32)"/><path class="cls-2" d="M272.88,207.86c-1.38-.36-3.18.31-3.33,1.87a2.08,2.08,0,0,0,2.22,2.49,1.49,1.49,0,0,1-.76,1.21c-.49.19-1.11.8-.72,1.34s1.43.33,1.94.13a4,4,0,0,0,2.51-3.59c.09-1.43-.28-3-1.86-3.45" transform="translate(-195.63 -195.32)"/><path class="cls-2" d="M270.85,227.33a2.15,2.15,0,0,0-1.9.85l-.66.9q-2.19-3.75-4.37-7.5l4.89-6.71c.42-.59-.37-1-.84-1.05a2.11,2.11,0,0,0-1.9.84l-3.44,4.72a4,4,0,0,0-.2-.35c-.86-1.48-1.66-3-2.6-4.47a3.59,3.59,0,0,0-4.1-1.65c-1.42.41-2.65,1.71-2.1,3.25.42,1.18,3.3.36,2.9-.77a1,1,0,0,1-.07-.46,2,2,0,0,1,.4.42,3.11,3.11,0,0,1,.36.53c.27.44.52.9.78,1.35l2.76,4.72-5.65,7.76c-.43.58.37,1,.84,1a2.15,2.15,0,0,0,1.9-.85c1.4-1.91,2.79-3.83,4.19-5.75l4.6,7.89c.54.93,2.27.09,2.7-.5.79-1.05,1.57-2.11,2.35-3.17.44-.58-.37-1-.84-1" transform="translate(-195.63 -195.32)"/><path class="cls-2" d="M245.88,216.73c2.67-1.43,4.73,2.33,5,4.59l-7,3.85c-.05-.29-.08-.57-.11-.83-.21-2.13-.09-6.41,2.16-7.61m5.35,9.37c0,2.2-.71,5.4-3.59,5-1.9-.3-2.89-2.09-3.42-4l8.73-4.78c.29-.16.85-.46.85-.88,0-3.3-2-6.39-5.5-6.77a6.34,6.34,0,0,0-6.68,4c-2.21,5.43-.55,15.56,7.14,14.25,3.58-.61,5.41-3.59,5.39-7.05,0-1.37-2.92-.85-2.92.29" transform="translate(-195.63 -195.32)"/><path class="cls-2" d="M241.2,233.55a1.07,1.07,0,0,1-2-.21,7.46,7.46,0,0,1-.17-1.63c-.09-2.4-.19-4.79-.28-7.19q-.35-8.94-.7-17.89c-.06-1.47-.12-2.94-.17-4.41,0-.81-1.05-.95-1.7-.73l-3.39,1.21c-.49.17-1.4.57-1.21,1.25s1.2.65,1.68.49l1.75-.63q.57,14.81,1.16,29.6a2.51,2.51,0,0,0,1.62,2.33,5,5,0,0,0,6.16-2c.81-1.23-2.13-1.14-2.74-.2" transform="translate(-195.63 -195.32)"/><path class="cls-2" d="M221.71,222.43l3.92-11.16,1.56,12.1c-1.49-.21-3.49-.53-5.48-.94m10.75,7.16-1.34,1-2.88-22.36c-.15-1.14-.29-2.28-.44-3.42-.17-1.32-2.64-.25-2.91.53l-5.79,16.46c-3.27-.87-5.86-2-5.14-3.45s-2.23-1.22-2.74-.21c-1.45,2.89,2.57,4.7,7.13,5.81q-1.48,4.2-2.95,8.4l-.38,1.08a4.4,4.4,0,0,1-2.7,2.86c-1.21.55-.94,1.87.45,1.67l6.28-.9.15,0a2.15,2.15,0,0,0,1.07-.43.89.89,0,0,0,.4-.63.64.64,0,0,0-.39-.65,1,1,0,0,0-.47-.14,1.62,1.62,0,0,0-.44,0h0c-.53,0-1.27.06-1.55-.19-.45-.39-.07-1.23.08-1.7l3.09-8.78c2.58.48,5,.76,6.49.91.18,1.45.37,2.89.56,4.33.14,1.14.29,2.28.44,3.42.12,1,1.94.51,2.38.17l3.48-2.66c1.56-1.19-.83-1.89-1.86-1.11" transform="translate(-195.63 -195.32)"/><polygon class="cls-2" points="5.78 94.84 5.78 90.2 8.71 90.2 8.71 91.03 6.73 91.03 6.73 92.24 8.46 92.24 8.46 93.05 6.73 93.05 6.73 94.84 5.78 94.84"/><path class="cls-2" d="M205.37,288.33c0,.81.26,1.19.79,1.19s.81-.38.81-1.19-.27-1.14-.81-1.14-.79.36-.79,1.14m-.93,0a1.73,1.73,0,1,1,3.45,0,1.73,1.73,0,1,1-3.45,0" transform="translate(-195.63 -195.32)"/><path class="cls-2" d="M210.48,289.49a1,1,0,0,1-1.13.76c-.64,0-1.09-.33-1.09-1.18v-2.55h.94v2.32c0,.46.15.71.55.71s.71-.31.71-1v-2h.94v3.64h-.81Z" transform="translate(-195.63 -195.32)"/><path class="cls-2" d="M212.91,287.22a1.13,1.13,0,0,1,1.16-.78,1,1,0,0,1,1.08,1.14v2.58h-.93v-2.25c0-.42-.15-.68-.54-.68s-.73.21-.73.9v2H212v-3.64h.79Z" transform="translate(-195.63 -195.32)"/><path class="cls-2" d="M218.14,288a.75.75,0,0,0-.78-.81c-.46,0-.87.32-.87,1.23,0,.75.33,1.16.86,1.16a.81.81,0,0,0,.79-.86Zm0-3.05h.94v5.26h-.82l-.11-.63a1,1,0,0,1-1.14.72c-.8,0-1.45-.63-1.45-1.84s.58-2,1.62-2a1,1,0,0,1,1,.56Z" transform="translate(-195.63 -195.32)"/><path class="cls-2" d="M221.52,288.61c-.82,0-1.13.18-1.13.55a.41.41,0,0,0,.46.42.6.6,0,0,0,.67-.55Zm.94.53c0,.26.11.34.27.34a.55.55,0,0,0,.22-.06v.69a1,1,0,0,1-.53.11.74.74,0,0,1-.83-.57,1,1,0,0,1-1.06.6,1,1,0,0,1-1.08-1c0-.81.65-1.26,2.07-1.18v-.39c0-.35-.17-.54-.49-.54a.51.51,0,0,0-.53.55l-.92-.16c0-.77.72-1.1,1.49-1.1s1.39.35,1.39,1.17Z" transform="translate(-195.63 -195.32)"/><path class="cls-2" d="M225.47,290a2.25,2.25,0,0,1-1,.22,1,1,0,0,1-1.15-1.12v-1.88h-.53v-.73h.54v-.77l.93-.11v.88h1.08v.73h-1.09v1.67c0,.4.17.53.46.53a1.08,1.08,0,0,0,.63-.21Z" transform="translate(-195.63 -195.32)"/><path class="cls-2" d="M226.65,290.16h-.93v-3.64h.93Zm-.47-5.33a.56.56,0,1,1,0,1.12.56.56,0,1,1,0-1.12" transform="translate(-195.63 -195.32)"/><path class="cls-2" d="M228,288.33c0,.81.26,1.19.79,1.19s.8-.38.8-1.19-.26-1.14-.8-1.14-.79.36-.79,1.14m-.93,0a1.73,1.73,0,1,1,3.44,0,1.73,1.73,0,1,1-3.44,0" transform="translate(-195.63 -195.32)"/><path class="cls-2" d="M231.81,287.22a1.13,1.13,0,0,1,1.16-.78,1,1,0,0,1,1.08,1.14v2.58h-.93v-2.25c0-.42-.15-.68-.54-.68s-.73.21-.73.9v2h-.94v-3.64h.79Z" transform="translate(-195.63 -195.32)"/><path class="cls-2" d="M235.58,287.25v-.73h.54v-.31a1.24,1.24,0,0,1,1.38-1.37,2.13,2.13,0,0,1,.84.16l-.15.79a1.17,1.17,0,0,0-.6-.16c-.32,0-.54.14-.54.61v.28H238v.73h-.93v2.91h-.93v-2.91Z" transform="translate(-195.63 -195.32)"/><path class="cls-2" d="M238.85,288.33c0,.81.26,1.19.79,1.19s.8-.38.8-1.19-.26-1.14-.8-1.14-.79.36-.79,1.14m-.93,0a1.73,1.73,0,1,1,3.44,0,1.73,1.73,0,1,1-3.44,0" transform="translate(-195.63 -195.32)"/><path class="cls-2" d="M244.06,287.48a1.48,1.48,0,0,0-.38,0,.91.91,0,0,0-1,1v1.72h-.94v-3.64h.81l.11,1a1.27,1.27,0,0,1,1.45-1.07Z" transform="translate(-195.63 -195.32)"/><path class="cls-2" d="M249.59,289.22a2,2,0,0,1-2,1c-1.25,0-2.1-.86-2.1-2.41a2.13,2.13,0,0,1,2.24-2.41,1.86,1.86,0,0,1,1.84,1.15l-.92.45a1,1,0,0,0-1-.77c-.75,0-1.21.61-1.21,1.6s.4,1.55,1.2,1.55a1.12,1.12,0,0,0,1.07-.68Z" transform="translate(-195.63 -195.32)"/><path class="cls-2" d="M250.84,287.21a1.1,1.1,0,0,1,1.13-.77,1,1,0,0,1,1.08,1.14v2.58h-.94v-2.25c0-.42-.14-.68-.54-.68s-.73.2-.73.9v2h-.93V284.9h.93Z" transform="translate(-195.63 -195.32)"/><path class="cls-2" d="M254.57,290.16h-.94v-3.64h.94Zm-.47-5.33a.56.56,0,1,1-.59.57.55.55,0,0,1,.59-.57" transform="translate(-195.63 -195.32)"/><path class="cls-2" d="M256.63,290.14a1.86,1.86,0,0,1-.55.09.84.84,0,0,1-.95-.88V284.9h.94v4.19a.29.29,0,0,0,.33.32.65.65,0,0,0,.27-.05Z" transform="translate(-195.63 -195.32)"/><path class="cls-2" d="M259.37,288a.75.75,0,0,0-.78-.81c-.45,0-.86.32-.86,1.23,0,.75.33,1.16.86,1.16a.8.8,0,0,0,.78-.86Zm0-3.05h.93v5.26h-.82l-.11-.63a1,1,0,0,1-1.14.72c-.79,0-1.45-.63-1.45-1.84s.59-2,1.63-2a1,1,0,0,1,1,.56Z" transform="translate(-195.63 -195.32)"/><path class="cls-2" d="M261.85,287.21a1.1,1.1,0,0,1,1.13-.77,1,1,0,0,1,1.08,1.14v2.58h-.94v-2.25c0-.42-.14-.68-.54-.68s-.73.2-.73.9v2h-.94V284.9h.94Z" transform="translate(-195.63 -195.32)"/><path class="cls-2" d="M265.37,288.33c0,.81.26,1.19.79,1.19s.81-.38.81-1.19-.27-1.14-.81-1.14-.79.36-.79,1.14m-.93,0a1.73,1.73,0,1,1,3.45,0,1.73,1.73,0,1,1-3.45,0" transform="translate(-195.63 -195.32)"/><path class="cls-2" d="M269,288.33c0,.81.26,1.19.8,1.19s.8-.38.8-1.19-.26-1.14-.8-1.14-.8.36-.8,1.14m-.93,0a1.73,1.73,0,1,1,3.45,0,1.73,1.73,0,1,1-3.45,0" transform="translate(-195.63 -195.32)"/><path class="cls-2" d="M274.36,288a.75.75,0,0,0-.78-.81c-.46,0-.87.32-.87,1.23,0,.75.34,1.16.86,1.16a.81.81,0,0,0,.79-.86Zm0-3.05h.94v5.26h-.82l-.11-.63a1,1,0,0,1-1.14.72c-.8,0-1.45-.63-1.45-1.84s.58-2,1.62-2a1,1,0,0,1,1,.56Z" transform="translate(-195.63 -195.32)"/><path class="cls-2" d="M281.14,289.22a2,2,0,0,1-1.95,1c-1.25,0-2.1-.86-2.1-2.41a2.13,2.13,0,0,1,2.24-2.41,1.84,1.84,0,0,1,1.83,1.15l-.91.45a1,1,0,0,0-1-.77c-.76,0-1.21.61-1.21,1.6s.4,1.55,1.2,1.55a1.1,1.1,0,0,0,1.06-.68Z" transform="translate(-195.63 -195.32)"/><path class="cls-2" d="M283.37,288.61c-.82,0-1.13.18-1.13.55a.41.41,0,0,0,.46.42.6.6,0,0,0,.67-.55Zm.94.53c0,.26.11.34.27.34a.55.55,0,0,0,.22-.06v.69a1,1,0,0,1-.53.11.74.74,0,0,1-.83-.57,1,1,0,0,1-1.06.6,1,1,0,0,1-1.08-1c0-.81.65-1.26,2.07-1.18v-.39c0-.35-.17-.54-.49-.54a.51.51,0,0,0-.53.55l-.92-.16c.05-.77.71-1.1,1.49-1.1s1.39.35,1.39,1.17Z" transform="translate(-195.63 -195.32)"/><path class="cls-2" d="M286,287.22a1.12,1.12,0,0,1,1.16-.78,1,1,0,0,1,1.08,1.14v2.58h-.93v-2.25c0-.42-.15-.68-.54-.68s-.73.21-.73.9v2h-.94v-3.64h.79Z" transform="translate(-195.63 -195.32)"/><path class="cls-2" d="M291.81,289.2a1.35,1.35,0,0,1-1.5,1.05,1.66,1.66,0,0,1-1.7-1.89,1.69,1.69,0,0,1,1.73-1.92,1.26,1.26,0,0,1,1.42,1.17l-.81.21c-.06-.41-.26-.64-.63-.64s-.8.46-.8,1.17.31,1.17.82,1.17A.61.61,0,0,0,291,289Z" transform="translate(-195.63 -195.32)"/><path class="cls-2" d="M294.26,288a.71.71,0,0,0,0-.14.62.62,0,0,0-.64-.68c-.44,0-.71.32-.77.82Zm.1,1,.81.26a1.4,1.4,0,0,1-1.53,1,1.66,1.66,0,0,1-1.71-1.86c0-1.25.67-1.95,1.73-1.95a1.42,1.42,0,0,1,1.51,1.59,1.8,1.8,0,0,1-.06.48h-2.27c0,.61.3,1,.83,1a.65.65,0,0,0,.69-.53" transform="translate(-195.63 -195.32)"/><path class="cls-2" d="M297.88,287.48a1.48,1.48,0,0,0-.38,0,.91.91,0,0,0-1,1v1.72h-.94v-3.64h.81l.11,1a1.28,1.28,0,0,1,1.45-1.07Z" transform="translate(-195.63 -195.32)"/><path class="cls-2" d="M300.24,286.32v-.65h0l-.2.4h-.2l-.19-.4h0v.65h-.31v-1.1h.35l.27.51h0l.26-.51h.35v1.1Zm-1.79,0v-.85h-.31v-.25h.93v.25h-.32v.85Z" transform="translate(-195.63 -195.32)"/></svg>