<?xml version="1.0" encoding="UTF-8"?>
<svg width="380px" height="311px" viewBox="0 0 380 311" version="1.1" xmlns="http://www.w3.org/2000/svg" xmlns:xlink="http://www.w3.org/1999/xlink">
    <!-- Generator: Sketch 51.2 (57519) - http://www.bohemiancoding.com/sketch -->
    <title>undraw_analysis_4jis</title>
    <desc>Created with Sketch.</desc>
    <defs>
        <linearGradient x1="49.9984429%" y1="100%" x2="49.9984429%" y2="0%" id="linearGradient-1">
            <stop stop-color="#808080" stop-opacity="0.25" offset="0%"></stop>
            <stop stop-color="#808080" stop-opacity="0.12" offset="54%"></stop>
            <stop stop-color="#808080" stop-opacity="0.1" offset="100%"></stop>
        </linearGradient>
        <linearGradient x1="50%" y1="100%" x2="50%" y2="0%" id="linearGradient-2">
            <stop stop-color="#808080" stop-opacity="0.25" offset="0%"></stop>
            <stop stop-color="#808080" stop-opacity="0.12" offset="54%"></stop>
            <stop stop-color="#808080" stop-opacity="0.1" offset="100%"></stop>
        </linearGradient>
        <linearGradient x1="37%" y1="21.5328057%" x2="37%" y2="3.53280574%" id="linearGradient-3">
            <stop stop-color="#808080" stop-opacity="0.25" offset="0%"></stop>
            <stop stop-color="#808080" stop-opacity="0.12" offset="54%"></stop>
            <stop stop-color="#808080" stop-opacity="0.1" offset="100%"></stop>
        </linearGradient>
        <linearGradient x1="49.9974037%" y1="100%" x2="49.9974037%" y2="0.00511098643%" id="linearGradient-4">
            <stop stop-color="#808080" stop-opacity="0.25" offset="0%"></stop>
            <stop stop-color="#808080" stop-opacity="0.12" offset="54%"></stop>
            <stop stop-color="#808080" stop-opacity="0.1" offset="100%"></stop>
        </linearGradient>
        <linearGradient x1="49.9649841%" y1="99.992805%" x2="49.9649841%" y2="-0.00679819912%" id="linearGradient-5">
            <stop stop-color="#808080" stop-opacity="0.25" offset="0%"></stop>
            <stop stop-color="#808080" stop-opacity="0.12" offset="54%"></stop>
            <stop stop-color="#808080" stop-opacity="0.1" offset="100%"></stop>
        </linearGradient>
    </defs>
    <g id="About-Page" stroke="none" stroke-width="1" fill="none" fill-rule="evenodd">
        <g id="about-page-copy-4" transform="translate(-824.000000, -865.000000)" fill-rule="nonzero">
            <g id="SavingTime" transform="translate(1.000000, 833.000000)">
                <g id="undraw_analysis_4jis" transform="translate(823.000000, 32.000000)">
                    <ellipse id="Oval" fill="#386DB0" opacity="0.1" cx="65.5" cy="300" rx="65.5" ry="11"></ellipse>
                    <ellipse id="Oval" fill="#386DB0" opacity="0.1" cx="314.5" cy="297" rx="65.5" ry="11"></ellipse>
                    <path d="M101.313433,0.164612499 C84.2511392,1.07812852 67.0108042,6.06904533 53.6985059,16.7972884 C42.0182531,26.2146731 33.5946729,41.0203169 35.6495666,55.8965169 C38.0753796,73.4575627 53.7244703,86.2319331 59.5293593,102.98344 C63.264518,113.752532 62.6821745,125.635667 60.2378154,136.776106 C58.6651171,143.954263 56.2467224,151.139846 51.599102,156.828897 C43.2274505,167.063247 28.1199022,172.002175 24.0064057,184.572304 C19.5331174,198.241623 30.8053588,211.647285 41.3951085,221.369175 C49.8483623,229.126635 58.702209,236.846959 69.355015,241.098894 C77.144323,244.21079 85.5975767,245.328547 93.9766466,245.774165 C117.114503,246.989571 140.247351,243.289102 161.854902,234.91595 C172.207263,230.894251 182.222088,225.795643 193.056644,223.370741 C216.146379,218.201577 239.903768,225.654531 263.305075,229.145202 C283.36506,232.128651 303.750827,232.188689 323.827998,229.323449 C336.461513,227.518698 349.514168,224.261976 359.028251,215.750681 C368.672157,207.109413 373.494109,193.733459 372.959985,180.773415 C372.425861,167.81337 366.965927,155.336078 358.924394,145.161144 C348.53865,132.019139 334.213742,122.668597 321.750849,111.468742 C309.060575,100.058391 298.265297,86.698498 289.770176,71.8904743 C284.874039,63.3494708 280.708614,54.2848667 274.365892,46.7650701 C264.473471,35.045328 250.126307,28.0751265 235.790272,22.6905808 C202.719095,10.2875584 168.416467,7.76239211 133.935797,2.28129597 C123.160587,0.561954834 112.229592,-0.407263386 101.313433,0.164612499 Z" id="Shape" fill="#386DB0" opacity="0.0816964286"></path>
                    <g id="Group" opacity="0.7" transform="translate(96.000000, 27.000000)">
                        <rect id="Rectangle-path" fill="#F6F7F9" x="0.199903846" y="109.381567" width="70.6919231" height="39.5517164"></rect>
                        <g opacity="0.2" transform="translate(5.923077, 119.348259)" fill="#386DB0" id="Oval">
                            <ellipse cx="7.58524038" cy="7.59084577" rx="7.35942308" ry="7.36845771"></ellipse>
                        </g>
                        <g opacity="0.2" transform="translate(29.615385, 117.865672)" fill="#386DB0" id="Rectangle-path">
                            <rect x="0.225817308" y="0.340995025" width="32.0660577" height="2.02002488"></rect>
                        </g>
                        <g opacity="0.2" transform="translate(29.615385, 123.054726)" fill="#386DB0" id="Rectangle-path">
                            <rect x="0.225817308" y="0.300223881" width="16.3365865" height="2.02002488"></rect>
                        </g>
                        <g opacity="0.2" transform="translate(29.615385, 128.243781)" fill="#386DB0" id="Rectangle-path">
                            <rect x="0.225817308" y="0.259452736" width="26.420625" height="2.02002488"></rect>
                        </g>
                        <g opacity="0.2" transform="translate(29.615385, 133.432836)" fill="#386DB0" id="Rectangle-path">
                            <rect x="0.225817308" y="0.218681592" width="32.0660577" height="2.02002488"></rect>
                        </g>
                        <g opacity="0.2" transform="translate(52.937500, 140.845771)" fill="#386DB0" id="Rectangle-path">
                            <rect x="0.0999519231" y="0.23721393" width="8.87350962" height="3.90291045"></rect>
                        </g>
                        <rect id="Rectangle-path" fill="#FFFBC9" x="59.7157212" y="0.0741293532" width="70.6919231" height="39.5517164"></rect>
                        <g opacity="0.2" transform="translate(65.524038, 10.007463)" fill="#C2B700" id="Oval">
                            <ellipse cx="7.50379808" cy="7.62420398" rx="7.35942308" ry="7.36845771"></ellipse>
                        </g>
                        <g opacity="0.2" transform="translate(89.216346, 8.895522)" fill="#C2B700" id="Rectangle-path">
                            <rect x="0.144375" y="0.00370646766" width="32.0660577" height="2.02002488"></rect>
                        </g>
                        <g opacity="0.2" transform="translate(89.216346, 13.713930)" fill="#C2B700" id="Rectangle-path">
                            <rect x="0.144375" y="0.33358209" width="16.3365865" height="2.02002488"></rect>
                        </g>
                        <g opacity="0.2" transform="translate(89.216346, 18.902985)" fill="#C2B700" id="Rectangle-path">
                            <rect x="0.144375" y="0.292810945" width="26.420625" height="2.02002488"></rect>
                        </g>
                        <g opacity="0.2" transform="translate(89.216346, 24.092040)" fill="#C2B700" id="Rectangle-path">
                            <rect x="0.144375" y="0.255746269" width="32.0660577" height="2.02002488"></rect>
                        </g>
                        <g opacity="0.2" transform="translate(112.538462, 31.504975)" fill="#C2B700" id="Rectangle-path">
                            <rect x="0.0148076923" y="0.270572139" width="8.87350962" height="3.90291045"></rect>
                        </g>
                        <rect id="Rectangle-path" fill="#D6E8FF" x="83.2451442" y="66.479204" width="70.6919231" height="39.5517164"></rect>
                        <g opacity="0.2" transform="translate(97.730769, 74.129353)" fill="#002F6C" id="Rectangle-path">
                            <rect x="0.222115385" y="0.33358209" width="8.87350962" height="3.90291045"></rect>
                            <rect x="17.9913462" y="0.33358209" width="8.87350962" height="3.90291045"></rect>
                            <rect x="35.7605769" y="0.33358209" width="8.87350962" height="3.90291045"></rect>
                            <rect x="0.370192308" y="9.26616915" width="8.87350962" height="3.90291045"></rect>
                            <rect x="18.1394231" y="9.26616915" width="8.87350962" height="3.90291045"></rect>
                            <rect x="35.9086538" y="9.26616915" width="8.87350962" height="3.90291045"></rect>
                            <rect x="0.370192308" y="18.1987562" width="8.87350962" height="3.90291045"></rect>
                            <rect x="18.1394231" y="18.1987562" width="8.87350962" height="3.90291045"></rect>
                            <rect x="35.9086538" y="18.1987562" width="8.87350962" height="3.90291045"></rect>
                        </g>
                    </g>
                    <rect id="Rectangle-path" fill="url(#linearGradient-1)" x="71" y="56" width="119" height="51"></rect>
                    <rect id="Rectangle-path" fill="#F9E2DF" x="72" y="57" width="117" height="51"></rect>
                    <g id="Group" opacity="0.2" transform="translate(83.000000, 66.000000)" fill="#E56E60">
                        <rect id="Rectangle-path" x="0" y="0" width="92" height="3"></rect>
                    </g>
                    <g id="Group" opacity="0.2" transform="translate(83.000000, 75.000000)" fill="#E56E60">
                        <rect id="Rectangle-path" x="0" y="0" width="92" height="3"></rect>
                    </g>
                    <g id="Group" opacity="0.2" transform="translate(83.000000, 84.000000)" fill="#E56E60">
                        <rect id="Rectangle-path" x="0" y="0" width="92" height="3"></rect>
                    </g>
                    <g id="Group" opacity="0.2" transform="translate(83.000000, 92.000000)" fill="#E56E60">
                        <rect id="Rectangle-path" x="0" y="0" width="92" height="3"></rect>
                    </g>
                    <rect id="Rectangle-path" fill="url(#linearGradient-2)" x="155" y="148" width="113" height="47"></rect>
                    <rect id="Rectangle-path" fill="#EAF6F0" x="156" y="147" width="112" height="47"></rect>
                    <g id="Group" opacity="0.2" transform="translate(165.000000, 158.000000)" fill="#41A36D">
                        <circle id="Oval" cx="11.9775" cy="11.895" r="11.76"></circle>
                    </g>
                    <g id="Group" opacity="0.2" transform="translate(197.000000, 158.000000)" fill="#41A36D">
                        <circle id="Oval" cx="11.9775" cy="11.895" r="11.76"></circle>
                    </g>
                    <g id="Group" opacity="0.2" transform="translate(230.000000, 158.000000)" fill="#41A36D">
                        <circle id="Oval" cx="11.9775" cy="11.895" r="11.76"></circle>
                    </g>
                    <g id="Group" opacity="0.1" transform="translate(30.000000, 107.000000)" fill="url(#linearGradient-3)">
                        <path d="M0.43,0.46 L0.8,0.54 C0.691918003,0.465871747 0.559051592,0.437143875 0.43,0.46 Z" id="Shape"></path>
                    </g>
                    <path d="M87.9321196,149.641787 C87.1091494,144.133842 82.0894037,131.284443 82.0894037,131.284443 C82.0000313,130.913287 81.9032113,130.519863 81.7914959,130.141284 C78.2277744,117.933984 73.297401,116.853922 73.297401,116.853922 L55.6351948,113.101541 C55.7809694,113.192511 55.9074747,113.311034 56.0075795,113.450428 L55.728291,113.494966 C54.9177129,112.542014 54.3822526,111.387391 54.1791707,110.154568 C54.1456561,109.972702 54.1158653,109.783413 54.0935222,109.590412 C56.6616942,107.097585 58.0238375,103.620273 57.8297306,100.052531 C57.6356237,96.4847878 55.9042033,93.1746755 53.0806358,90.9732586 C52.8981673,90.828508 52.7082511,90.6911805 52.5146111,90.5538531 C53.3487528,89.6742148 53.3748197,88.4456906 52.7529373,87.2134548 C51.3602185,84.3295776 48.3364548,82.5072047 45.2233187,81.6201434 C42.8475044,80.9409291 40.2706023,80.7219474 37.917131,81.4642582 C36.5728222,81.8873753 35.3514004,82.6037051 34.0927402,83.2309577 C31.7467166,84.4000971 29.1623668,85.324274 27.3898156,87.2431472 C26.9764686,87.6922452 26.6003601,88.2638244 26.7195232,88.8539615 C26.8126193,89.2956364 27.1589371,89.6333877 27.3860918,90.0268124 C27.8888111,90.9027391 27.7584765,92.0050705 27.4196064,92.9589398 C27.0807363,93.9128091 26.5668454,94.8147166 26.3247954,95.7797206 C26.0827453,96.7447245 26.1795654,97.9101524 26.9168871,98.6079245 C27.2751107,98.8873351 27.6480246,99.1475131 28.0340412,99.3873507 C28.4386258,99.7286658 28.7933427,100.124687 29.0878898,100.563913 L31.1806918,103.380982 C32.1575882,104.629831 33.0294431,105.956883 33.7873847,107.348633 C34.3049994,108.369311 34.7108988,109.464219 35.4072581,110.377261 C35.6121255,110.648765 35.8455764,110.897621 36.1036175,111.119572 C36.0365883,111.093591 35.9658352,111.071322 35.8988059,111.041629 C36.522009,111.647231 37.3676892,111.970696 38.2373818,111.936114 L38.3416495,111.936114 C38.5012909,111.933533 38.6541344,111.871272 38.7698919,111.761671 L38.7698919,112.132826 C38.8071304,113.487543 38.8034066,114.927626 38.7065865,116.278631 L38.5427373,116.196977 C38.0473633,115.949065 37.4524975,116.0114 37.0196839,116.356574 L20.7501965,129.347012 C20.7501965,129.347012 17.2162657,134.172032 17.7078135,142.485912 L14.8590706,154.964155 C14.8590706,154.964155 11.2953491,165.553218 14.0361004,173.113653 C16.7768518,180.674087 18.3669344,184.990624 18.3669344,184.990624 C18.3669344,184.990624 19.4617454,193.579159 21.1076858,194.269508 C22.7536262,194.959857 23.4648809,195.353282 23.4648809,195.353282 L23.7925795,197.405771 C23.7925795,197.405771 23.900571,197.602484 24.0942111,197.943946 C25.2932898,200.018705 29.7283915,207.345312 32.3090175,206.565886 C32.631354,208.554573 32.772195,210.568286 32.7298122,212.582314 L35.2769235,229.655461 C35.2769235,229.655461 37.0569223,234.298614 36.9489308,236.729682 C36.8409392,239.16075 39.0305612,242.619918 39.0305612,242.619918 C37.7012736,245.04293 37.3116453,247.868317 37.9357502,250.558931 C38.9784274,255.098161 40.2929454,276.053593 40.2929454,276.053593 L42.2107265,281.130998 L42.1548688,287.069484 C41.9960689,288.033996 41.5908189,288.94152 40.9781332,289.704687 C39.741816,291.040847 39.8237406,292.584853 36.8819015,294.407226 C33.9400624,296.229599 32.0409005,296.916236 32.0409005,299.347304 C32.0374981,299.683162 32.0076153,300.018233 31.9515282,300.349423 C31.6759635,302.127257 31.1434534,303.084838 36.6063369,303.604456 C43.0188013,304.209439 47.2937776,300.037653 47.2937776,300.037653 C47.2937776,300.037653 48.2359109,298.33405 52.6784604,297.647412 C52.6784604,297.647412 54.1940661,297.565758 54.2797145,296.225887 C54.3095053,295.765655 54.3020576,294.882305 54.2610953,293.909878 C54.1903422,292.054101 54.0115976,289.893977 53.7769952,289.786342 C53.4828113,289.656437 52.9614727,287.789526 52.7827281,287.114023 L54.0190453,287.114023 C54.0190453,287.114023 55.169714,278.525488 54.0190453,272.958157 C52.8683765,267.390827 53.9110537,263.452868 53.9110537,263.452868 L53.6913467,248.762539 C53.6913467,248.762539 52.1385025,247.192552 53.3562005,244.334656 C54.5738985,241.476759 53.3562005,227.320894 53.3562005,227.320894 C53.3562005,227.320894 53.7993383,222.243488 55.0579986,221.055791 C56.3166588,219.868094 55.121304,213.614126 55.0579986,213.287509 L57.2923067,220.784848 C57.2923067,220.784848 58.2791262,235.694159 60.3644805,238.39617 L60.9677437,245.143774 C60.9677437,245.143774 65.24272,251.356915 64.4197498,254.708448 C63.5967797,258.059981 65.2985777,270.155934 65.2985777,270.155934 L65.2985777,282.526543 C65.2985777,282.526543 63.3770727,287.496313 66.0656902,289.277859 L67.2238066,289.23332 C66.8290788,289.604475 66.5460664,290.120381 66.1066525,290.576903 C65.5927616,291.103943 65.3023016,293.108182 65.1384523,294.830343 C65.00067,296.288984 64.9559838,297.543489 64.9559838,297.543489 C64.9559838,297.543489 66.1066525,299.365862 68.2441407,299.488343 C70.3816288,299.610824 77.4532142,305 77.4532142,305 C77.4532142,305 84.4465988,305 86.2526646,304.628845 L86.3606561,304.602864 C86.9408297,304.418565 87.4284001,304.020236 87.7235841,303.489398 C88.0879292,302.874785 88.2062804,302.145816 88.0550065,301.448043 C87.8278518,300.382827 86.9825386,299.221111 85.1019959,298.222703 C80.4136725,295.75452 79.7173132,293.445933 79.7173132,293.445933 L76.6451394,288.858453 L77.0845534,288.858453 C77.0845534,288.858453 76.8127125,283.996318 80.1530032,278.540334 L79.9370201,254.504313 C79.9370201,254.504313 81.303672,246.238683 78.9502007,241.755126 C78.9502007,241.755126 78.7565606,237.000626 80.3317479,235.541985 C81.9069352,234.083344 78.2352221,219.337342 78.2352221,219.337342 C78.2352221,219.337342 77.4904527,211.424309 76.581834,204.201626 C80.279614,207.697909 84.1189003,195.104608 84.7742973,192.866541 L84.8711174,192.866541 C84.8711174,192.866541 84.8524981,192.807156 84.8264312,192.703233 C84.8003643,192.599309 84.8711174,192.543636 84.8711174,192.543636 C84.8711174,192.525078 84.051871,189.630066 84.6514104,190.220203 C85.2509497,190.81034 86.7367647,188.601966 86.7367647,188.601966 C86.7367647,188.601966 86.5170577,176.554263 89.0939598,170.482161 C91.6708619,164.410059 87.9321196,149.641787 87.9321196,149.641787 Z M76.9132564,157.306145 L76.9318756,157.272742 C77.3042603,164.629041 76.8573987,180.325201 76.8573987,180.325201 C76.8573987,180.325201 76.3509555,182.336863 75.8072738,184.704835 L75.4162699,169.791812 L75.0438852,155.747293 L76.9132564,157.306145 Z M29.7209438,152.236163 C29.7209438,152.236163 31.5828673,175.463066 29.7209438,178.810887 C29.1884337,179.764757 28.7452959,181.460937 28.3766351,183.402079 C27.7622003,181.791265 26.4588539,178.009192 26.9243348,176.004953 C27.527598,173.406865 25.7178083,166.603587 25.7178083,166.443991 C25.7178083,166.284394 25.5539591,162.661917 26.8684771,159.878252 C28.182995,157.094587 27.307891,155.90689 27.307891,155.90689 C27.307891,155.90689 28.4064258,151.371371 29.7209438,152.236163 Z" id="Shape" fill="url(#linearGradient-4)"></path>
                    <path d="M34.7088973,204.594256 C33.111556,211.74411 26.7442232,200.92977 25.2937639,198.336269 L25,197.79891 L25.6903452,194.511321 L29.3403618,193 C29.9169202,193.306407 30.4629308,193.668825 30.9707515,194.08218 C32.9793622,195.664403 35.9427057,199.056478 34.7088973,204.594256 Z" id="Shape" fill="#EFB7B9"></path>
                    <path d="M85,192.820921 L84.9576491,192.980391 C84.9576491,193.028602 84.9229983,193.084231 84.9037479,193.154695 C84.2492334,195.379852 80.3567974,207.862988 76.5991144,204.39545 C72.4872236,200.59043 74.4854178,191.852977 74.4854178,191.852977 L74.5239186,191.852977 L83.1750597,191 L84.8883475,192.698537 L85,192.820921 Z" id="Shape" fill="#EFB7B9"></path>
                    <path d="M80.2212769,254.421658 L80.4337979,278.313906 C77.1527727,283.740583 77.4174918,288.572556 77.4174918,288.572556 L66.6050225,289 C63.9652886,287.230754 65.8593349,282.290991 65.8593349,282.290991 L65.8593349,269.991762 C65.8593349,269.991762 64.1703527,257.971299 64.9756952,254.626087 C65.7810378,251.280875 61.5828169,245.121968 61.5828169,245.121968 L60.9937238,238.412959 C58.943083,235.729356 57.9736892,220.906349 57.9736892,220.906349 L55.7701826,213.472545 C55.8261091,213.795915 56.9707395,220.044028 55.7701826,221.192551 C54.5696256,222.341074 54.0998425,227.422079 54.0998425,227.422079 C54.0998425,227.422079 55.2854857,241.490554 54.0998425,244.333985 C52.9141993,247.177415 54.4204881,248.794268 54.4204881,248.794268 L54.640466,263.397977 C54.640466,263.397977 53.6151456,267.319309 54.7448622,272.850059 C55.8745788,278.38081 54.7448622,286.918535 54.7448622,286.918535 L43.1121366,286.918535 L43.1643348,280.971491 L41.2814737,275.923938 C41.2814737,275.923938 39.9877059,255.0907 38.9661139,250.582098 C38.3520825,247.907781 38.7336882,245.102147 40.039904,242.687397 C40.039904,242.687397 37.8885954,239.249262 37.9967201,236.833276 C38.1048448,234.417289 36.3524791,229.800897 36.3524791,229.800897 L33.846969,212.833238 C33.9175278,209.568543 33.5003448,206.311555 32.6091277,203.169291 C31.1513085,198.337318 29,192 29,192 L31.4309414,192.21558 L43.7049582,193.304633 C43.7049582,193.304633 73.5324597,191.304939 74.8784257,192.966395 C75.1617622,193.508686 75.3532498,194.09393 75.4451482,194.698471 C76.7836574,200.701268 78.5546653,219.493927 78.5546653,219.493927 C78.5546653,219.493927 82.1637929,234.153389 80.6127629,235.602981 C79.0617328,237.052573 79.2556115,241.776756 79.2556115,241.776756 C81.5672429,246.207304 80.2212769,254.421658 80.2212769,254.421658 Z" id="Shape" fill="#444053"></path>
                    <path d="M54.9829535,296.49031 C54.8976051,297.839164 53.4132851,297.922055 53.4132851,297.922055 C49.071649,298.615321 48.1513706,300.333415 48.1513706,300.333415 C48.1513706,300.333415 43.9692989,304.534456 37.7054685,303.942919 C32.3656272,303.422969 32.8814284,302.435819 33.1560276,300.664977 C33.2106995,300.331208 33.2392382,299.993566 33.241376,299.65522 C33.241376,297.206182 35.096776,296.509149 37.9874893,294.674255 C40.8782025,292.839361 40.8002757,291.28328 42.0062857,289.938193 C43.2122957,288.593107 43.3347521,285.982056 43.3347521,285.982056 C44.7003266,283.570696 48.1587922,286.358831 48.1587922,286.358831 C48.3183566,287.21411 53.4652363,287.112381 53.4652363,287.112381 C53.4652363,287.112381 54.1480235,289.889213 54.4968387,290.051226 C54.7269083,290.160491 54.9013159,292.33825 54.9718211,294.19575 C55.0052183,295.137688 55.0089291,296.030645 54.9829535,296.49031 Z" id="Shape" fill="#B07473"></path>
                    <path d="M54.9835285,296.378449 C54.8981779,297.747395 53.4138191,297.83152 53.4138191,297.83152 C49.0720694,298.535113 48.1517669,300.278799 48.1517669,300.278799 C48.1517669,300.278799 43.9695859,304.542417 37.7055915,303.942069 C32.3656106,303.414374 32.8814253,302.41252 33.1560317,300.615299 C35.5421385,301.227119 40.106542,302.076019 42.7709661,300.584709 C46.4818632,298.51217 49.1277329,297.062922 49.1277329,297.062922 L54.9649741,294 C55.0057939,295.005678 55.0095048,295.911936 54.9835285,296.378449 Z" id="Shape" fill="#000000" opacity="0.1"></path>
                    <path d="M87.6101411,303.449446 C87.3207888,303.993105 86.8347907,304.402617 86.2537587,304.59236 C86.2195726,304.604824 86.1842272,304.613759 86.1482623,304.619028 C84.3510556,305 77.410899,305 77.410899,305 C77.410899,305 70.3765491,299.491151 68.2666209,299.365431 C66.1566928,299.23971 65,297.384379 65,297.384379 C65,297.384379 65.041445,296.104314 65.1770833,294.618525 C65.3428633,292.862246 65.6329785,290.80881 66.1416219,290.283069 C67.0835541,289.292543 67.2719405,287.932474 69.4082428,288.79728 C69.4082428,288.79728 72.4224259,283.421771 75.979162,287.574361 L79.6564654,293.21655 C79.6564654,293.21655 80.3497275,295.567144 85.0066404,298.085366 C86.8716662,299.094941 87.7118697,300.283572 87.9341657,301.369341 C88.0870592,302.079289 87.9714591,302.821394 87.6101411,303.449446 Z" id="Shape" fill="#B07473"></path>
                    <path d="M87.608963,303.506422 C87.1945344,303.847706 86.7311279,304.214679 86.2526513,304.607339 C86.218467,304.619345 86.1831234,304.627952 86.1471604,304.633028 C84.3500473,305 77.4102523,305 77.4102523,305 C77.4102523,305 70.376269,299.693578 68.2664507,299.572477 C66.1566325,299.451376 65,297.66422 65,297.66422 C65,297.66422 65.0414429,296.431193 65.177074,295 C67.3358702,295.631193 70.6136235,296.743119 71.4914586,297.93578 C72.8364678,299.770642 76.9242406,302.306422 76.9242406,302.306422 C76.9242406,302.306422 84.545959,301.594495 87.9329708,301.495413 C88.0878171,302.181604 87.9721647,302.89942 87.608963,303.506422 Z" id="Shape" fill="#000000" opacity="0.1"></path>
                    <path d="M58,116.558899 L48.1206764,127 C48.1206764,127 36.1550591,126.117862 38.2450585,122.581898 C39.3085866,120.784265 39.4753419,117.022207 39.3827001,113.738282 C39.2937639,110.576671 38.9676647,107.88578 38.9676647,107.88578 C38.9676647,107.88578 55.7506566,99.5314171 54.4647882,107.322398 C54.1918687,108.791057 54.1755695,110.295923 54.4166144,111.770152 C55.146632,115.706413 58,116.558899 58,116.558899 Z" id="Shape" fill="#EFB7B9"></path>
                    <path d="M54.9277583,107.195773 C54.647255,108.608457 54.6305028,110.055968 54.8782459,111.47401 C52.4955179,113.733808 49.2436992,115.004052 45.8517545,114.99999 C43.5056284,114.99999 40.9957306,113.217391 39.1104507,112.165658 C39.0190432,109.124545 39,107.737683 39,107.737683 C39,107.737683 56.2493586,99.7017271 54.9277583,107.195773 Z" id="Shape" fill="#000000" opacity="0.1"></path>
                    <path d="M57.9999993,102.495179 C58.0019608,108.327557 53.9699946,113.386059 48.2839809,114.684888 C42.5979672,115.983718 36.7694622,113.177598 34.2387588,107.922848 C31.7080553,102.668099 33.1479095,96.3616309 37.708443,92.7258556 C42.2689765,89.0900804 48.737828,89.0915239 53.2967384,92.7293341 C56.2678634,95.1001614 57.9987209,98.6941117 57.9999993,102.495179 Z" id="Shape" fill="#EFB7B9"></path>
                    <path d="M75,195.447793 C71.9415307,202.6959 52.2657465,202.846138 52.2657465,202.846138 L52.2657465,194.945776 L51.0732748,194.868824 C51.5885404,197.129735 50.3371811,202.648263 50.3371811,202.648263 C34.787202,204.84688 31,196.019434 31,196.019434 L31.5373484,193 L43.6534504,194.073658 C43.6534504,194.073658 73.0971978,192.102232 74.4258469,193.740201 C74.7106503,194.273917 74.9046622,194.850929 75,195.447793 Z" id="Shape" fill="#000000" opacity="0.1"></path>
                    <path d="M52.549562,201.848103 L52.549562,193.839067 L51.3411754,193.764806 C51.8633178,196.055754 50.5952577,201.647599 50.5952577,201.647599 C38.738896,203.311043 33.6256303,198.677163 31.824239,196.263685 C31.5020454,195.8489 31.2257027,195.400746 31,194.926989 L35.8074395,167.974001 L36.926316,128.30755 L38.6605747,121.349306 L39.0633702,118.007566 L39.0633702,117.970435 L39.1043957,117.989001 L40.3277007,118.51254 L47.6675308,121.668627 L56.047916,115.404722 L56.1709924,115.311896 L56.5849767,115 L57.2749506,115.553244 L58.9868317,116.919644 L64.484245,152.245546 C64.484245,152.245546 74.0170731,179.447308 75.784898,190.426779 C75.8557602,190.864919 75.9154336,191.273353 75.9601887,191.655797 C77.1200907,201.662451 52.549562,201.848103 52.549562,201.848103 Z" id="Shape" fill="#E1E7EF"></path>
                    <circle id="Oval" fill="#67647E" cx="47.5" cy="122.5" r="1"></circle>
                    <circle id="Oval" fill="#67647E" cx="48.5" cy="128.5" r="1"></circle>
                    <circle id="Oval" fill="#67647E" cx="48.5" cy="138.5" r="1"></circle>
                    <circle id="Oval" fill="#67647E" cx="50.5" cy="150.5" r="1"></circle>
                    <circle id="Oval" fill="#67647E" cx="50.5" cy="160.5" r="1"></circle>
                    <circle id="Oval" fill="#67647E" cx="51.5" cy="171.5" r="1"></circle>
                    <circle id="Oval" fill="#67647E" cx="51.5" cy="182.5" r="1"></circle>
                    <path d="M39.8318455,172.182146 C39.8318455,172.182146 39.0124358,182.533779 37.5127613,185.542455 C36.0130869,188.551131 35.3328222,197 35.3328222,197 L31.854196,196.627639 C31.5202922,196.211674 31.2339058,195.762245 31,195.28714 L35.9821658,168.257462 L37.1417079,128.478147 L38.9389981,121.500104 L39.3564332,118.148856 C39.3700079,118.138966 39.3859673,118.13256 39.4028149,118.130238 C39.7982435,117.950265 40.2579524,117.957142 40.6473901,118.148856 L40.8174563,118.230775 C40.7672094,118.368549 40.7169626,118.510046 40.6705809,118.655266 C39.3100516,122.769854 38.799853,130.35857 38.799853,130.35857 C38.799853,130.35857 40.755614,144.23646 40.975927,150.693198 C41.19624,157.149936 39.8318455,172.182146 39.8318455,172.182146 Z" id="Shape" fill="#000000" opacity="0.1"></path>
                    <path d="M31,194.013986 C30.9633855,194.094481 30.921483,194.172723 30.8745387,194.248252 C29.5793358,196.321678 26.295203,197.63986 25.295203,198 L25,197.496503 L25.6937269,194.416084 L29.3616236,193 C29.9410063,193.287099 30.4896917,193.626678 31,194.013986 Z" id="Shape" fill="#000000" opacity="0.1"></path>
                    <path d="M21.682071,142 L18.6197006,143.822038 L15.82152,156.130014 C15.82152,156.130014 12.3275154,166.57538 15.0177873,174.033195 C17.7080593,181.49101 19.2745939,185.743661 19.2745939,185.743661 C19.2745939,185.743661 20.3499585,194.226833 21.9611449,194.909175 C23.5723313,195.591517 24.2755974,195.975104 24.2755974,195.975104 L24.5956021,198 C24.5956021,198 28.9714802,196.524666 30.5194098,193.942831 C32.0673395,191.360996 29.3807885,184.90272 29.3807885,184.90272 C29.3807885,184.90272 27.0700569,179.414477 27.6616935,176.85846 C28.2533301,174.302444 26.4784204,167.585984 26.4784204,167.427386 C26.4784204,167.268787 26.318418,163.69479 27.5947158,160.950669 C28.8710136,158.206547 28.02635,157.037344 28.02635,157.037344 L27.2188963,149.20332 L21.682071,142 Z" id="Shape" fill="#67647E"></path>
                    <path d="M75,192.52738 C75,192.52738 66.8604217,195.578123 64.2703863,192.897616 C61.6803508,190.217109 61.9527897,177.717947 61.9527897,177.717947 C61.9527897,177.717947 59.4747154,154.61153 57.9072588,150.816613 C56.3398022,147.021696 57.1608509,119.63165 57.1608509,119.63165 C57.1608509,119.63165 56.1009517,116.095898 55.1940661,115.159201 C55.1370229,115.097577 55.0717251,115.04401 55,115 L55.3172234,115.066642 L56.4368352,115.307296 L58.1498414,116.669764 L63.6508677,151.893999 C63.6508677,151.893999 73.1899608,179.017475 74.9589476,189.965348 L75,192.52738 Z" id="Shape" fill="#000000" opacity="0.1"></path>
                    <path d="M84,193.499428 L83.9085589,193.499428 C82.9063643,193.649996 74.0329188,194.910464 74,192.742286 C74.0001551,192.490731 74.0123666,192.239385 74.0365764,191.989446 L82.2553036,191 L83.8829554,192.970289 C83.9122165,193.099347 83.93782,193.211198 83.9597659,193.297236 L84,193.499428 Z" id="Shape" fill="#000000" opacity="0.1"></path>
                    <path d="M75.5156786,129 L81.3664308,132.068806 C81.3664308,132.068806 86.2194371,144.757634 87.0154329,150.200978 C87.0154329,150.200978 90.6175888,164.776881 88.1158878,170.770469 C85.6141869,176.764057 85.8379461,188.666296 85.8379461,188.666296 C85.8379461,188.666296 84.4073546,190.852497 83.8241135,190.265325 C83.2408724,189.678152 84.0368681,192.55862 84.0368681,192.55862 C84.0368681,192.55862 74.0484054,193.895452 74.000719,191.916054 C73.9530326,189.936656 76.2933335,180.497586 76.2933335,180.497586 C76.2933335,180.497586 76.9279292,158.037327 76.0255561,154.517986 C75.123183,150.998646 75.5156786,129 75.5156786,129 Z" id="Shape" fill="#67647E"></path>
                    <path d="M57.6514985,153 C57.6514985,153 54.4267654,160.885369 53.4055999,161.40627 C52.3844345,161.927172 53.6134161,164 53.6134161,164 C53.6134161,164 59.4645151,155.80209 57.6514985,153 Z" id="Shape" fill="#000000" opacity="0.1"></path>
                    <path d="M55.9997533,125.004586 C56.0355083,124.840073 52.1739722,129.152645 51.1442293,129.795027 C50.1144863,130.437408 54.8985005,129.759774 55.9997533,125.004586 Z" id="Shape" fill="#000000" opacity="0.1"></path>
                    <path d="M45,153 C45,153 39.3227627,157.13591 40.0673184,158.765443 C40.8118741,160.394976 45,153 45,153 Z" id="Shape" fill="#000000" opacity="0.1"></path>
                    <path d="M56,210 C56,210 61.0795423,213.194321 69,214 L56,210 Z" id="Shape" fill="#000000" opacity="0.1"></path>
                    <path d="M44,218 C44,218 48.5857288,223.83959 50.6775266,223.99703 C52.7693244,224.15447 44,218 44,218 Z" id="Shape" fill="#000000" opacity="0.1"></path>
                    <path d="M51,242 C50.7782073,242.114631 48.1817026,247.822468 45.5316618,247.996391 C42.881621,248.170314 51,242 51,242 Z" id="Shape" fill="#000000" opacity="0.1"></path>
                    <path d="M73,254.187779 C73,254.187779 77.909784,252.914321 79,257 C79,257 78.6721728,255.72212 73,254.187779 Z" id="Shape" fill="#000000" opacity="0.1"></path>
                    <path d="M70,273.284314 C70,273.284314 75.6704052,272.479581 76.8771837,273.577865 C78.0839622,274.676149 70,273.284314 70,273.284314 Z" id="Shape" fill="#000000" opacity="0.1"></path>
                    <path d="M54.0588721,276 C54.0588721,276.04321 47.7573994,276.981492 48.0072375,277.604956 C48.2570756,278.22842 54.7251071,278.138912 54.9551168,277.15742 C55.0446178,276.911052 54.999055,276.646837 54.8292541,276.427554 C54.6594532,276.208272 54.3805717,276.053495 54.0588721,276 Z" id="Shape" fill="#000000" opacity="0.1"></path>
                    <path d="M68,281.353424 C68,281.353424 77.5744008,280.126498 76.972791,282.244681 C76.3711811,284.362865 68,281.353424 68,281.353424 Z" id="Shape" fill="#000000" opacity="0.1"></path>
                    <path d="M17,162 C17.0538462,162.156744 23.1707692,162.998785 24,165 C24,165 17.9871795,162.156744 17.0538462,162.156744" id="Shape" fill="#000000" opacity="0.1"></path>
                    <path d="M26,179 C26,179 20.6406584,180.656364 21.019143,183.166792 C21.3976276,185.677219 20.47791,181.994766 26,179 Z" id="Shape" fill="#000000" opacity="0.1"></path>
                    <path d="M23,191 C23,191 24.8664577,188.615911 26.6424863,189.053667 C28.4185149,189.491424 23,191 23,191 Z" id="Shape" fill="#000000" opacity="0.1"></path>
                    <path d="M52.98525,92.665126 C52.8012101,92.8401729 52.5955512,92.99167 52.3731263,93.1160424 C50.857567,93.9815109 50.4519428,95.2978958 49.7255068,96.8506482 C49.0617582,98.2579437 48.3279472,99.7597861 46.9820126,100.545253 C45.2488912,101.574361 42.9626459,101.196173 41.1594622,102.098006 C39.5248412,102.942705 38.5714937,104.679241 38.7478422,106.490804 C38.8650393,107.17367 39.0376776,107.846147 39.2640912,108.501746 C39.6709219,109.920352 39.8561934,111.391806 39.8135275,112.865452 C39.8189751,112.910141 39.8189751,112.955312 39.8135275,113 C35.598985,110.926327 32.9539255,106.66273 33.0006079,102.018187 C33.0472903,97.3736447 35.7775287,93.1625881 40.0329241,91.1717052 C44.2883196,89.1808223 49.3226791,89.7592187 53,92.6614896 L52.98525,92.665126 Z" id="Shape" fill="#000000" opacity="0.1"></path>
                    <path d="M52.5692006,89.2413937 C51.2275872,86.3519805 48.3140562,84.5268907 45.316446,83.6199672 C43.0280264,82.9416484 40.5458589,82.720539 38.2757174,83.4663149 C36.9816271,83.8897957 35.8008611,84.5906002 34.5908502,85.2351904 C32.32802,86.4081947 29.8385412,87.3338563 28.1386768,89.2601318 C27.7438696,89.7060983 27.3783074,90.2832314 27.4952873,90.875355 C27.5830222,91.3175739 27.9193395,91.6548595 28.1350212,92.0483593 C28.621219,92.9253018 28.5005834,94.030849 28.1679218,94.9864915 C27.8352602,95.9421341 27.3490624,96.8340671 27.1151026,97.8159429 C26.8811428,98.7978187 26.9725333,99.9483373 27.681724,100.649142 C28.0243609,100.927437 28.3806389,101.187611 28.7491658,101.428646 C29.1365964,101.774037 29.4771595,102.171066 29.7617731,102.609146 L31.776021,105.431102 C32.7233616,106.683505 33.5670834,108.014783 34.2984004,109.411072 C34.8028763,110.434172 35.1903722,111.528476 35.8593511,112.442895 C36.52833,113.357313 37.5774936,114.091846 38.6888027,113.990661 C38.8630581,113.996669 39.029326,113.915634 39.1347887,113.773299 C39.1784788,113.683978 39.1986415,113.584503 39.1932786,113.484732 C39.2387563,111.965872 39.055026,110.448927 38.6485909,108.987591 C38.4241342,108.311945 38.2529879,107.618905 38.1368038,106.915159 C37.963002,105.048414 38.9078203,103.259327 40.5275808,102.388036 C42.3188357,101.462375 44.5853215,101.852127 46.303464,100.791551 C47.6377661,99.9633278 48.3652349,98.4305522 49.023247,96.9802241 C49.7543714,95.3949819 50.145523,94.0233538 51.6479838,93.1314208 C53.1504445,92.2394878 53.3112919,90.7591788 52.5692006,89.2413937 Z" id="Shape" fill="#585268"></path>
                    <path d="M48,291 C48,291 49.2722774,293.407038 48.9466946,294.769792 C48.6211118,296.132546 48,291 48,291 Z" id="Shape" fill="#000000" opacity="0.1"></path>
                    <path d="M73,297 C73,297 73.399421,294.065585 75.0077093,294.038664 C76.6159975,294.011743 76.6937609,293.880502 77.9203016,294.328067 C79.1468423,294.775633 80.2956196,295.475585 79.9315456,295.58327 C79.5674715,295.690955 77.8107259,293.900693 76.0433762,294.81265 C74.9205433,295.393974 73.894847,296.131167 73,297 Z" id="Shape" fill="#000000" opacity="0.1"></path>
                    <path d="M41.8405797,126 L47,122.151602 C47,122.151602 39.423913,117.394982 38.5217391,118.064603 C37.6195652,118.734225 37,124.737725 37,124.737725 L41.8405797,126 Z" id="Shape" fill="#000000" opacity="0.1"></path>
                    <path d="M41.8188406,125 L47,121.1039 C47,121.1039 39.423913,116.404989 38.5217391,117.063217 C37.6195652,117.721445 37,123.991732 37,123.991732 L41.8188406,125 Z" id="Shape" fill="#E1E7EF"></path>
                    <path d="M41.8188406,125 L47,121.1039 C47,121.1039 39.423913,116.404989 38.5217391,117.063217 C37.6195652,117.721445 37,123.991732 37,123.991732 L41.8188406,125 Z" id="Shape" fill="#000000" opacity="0.03"></path>
                    <path d="M39.8179843,117.231987 L39.6565116,117.150076 C39.1686504,116.903301 38.579963,116.964587 38.1544398,117.306451 L22.0522306,130.259462 C22.0522306,130.259462 18.5524034,135.058667 19.0480871,143.342786 L28.5411806,156.683011 C28.5411806,156.683011 29.6264274,152.163046 30.9294747,153.023106 C30.9294747,153.023106 32.7732678,176.151622 30.9294747,179.487609 C29.0856816,182.823596 28.2708077,195.300038 28.2708077,195.300038 L34.5081606,196 C34.5081606,196 35.1578067,187.555783 36.6223266,184.543714 C38.0868466,181.531646 38.8754343,171.181151 38.8754343,171.181151 C38.8754343,171.181151 40.1935022,156.143147 39.9757018,149.683395 C39.7579014,143.223644 37.8615358,129.354725 37.8615358,129.354725 C37.8615358,129.354725 38.3910161,121.223257 39.8179843,117.231987 Z" id="Shape" fill="#67647E"></path>
                    <path d="M55.2834183,123 L49,120.58059 C49,120.58059 57.005096,111.474811 58,116.526246 L55.2834183,123 Z" id="Shape" fill="#000000" opacity="0.1"></path>
                    <path d="M55.2834183,123 L49,120.584122 C49,120.584122 57.005096,111.474173 58,116.525887 L55.2834183,123 Z" id="Shape" fill="#E1E7EF"></path>
                    <path d="M55.2834183,123 L49,120.584122 C49,120.584122 57.005096,111.474173 58,116.525887 L55.2834183,123 Z" id="Shape" fill="#000000" opacity="0.03"></path>
                    <path d="M55,115.008007 C55.1267855,114.985043 55.2575417,115.011911 55.365,115.083007 L55,115.008007 Z" id="Shape" fill="#000000" opacity="0.1"></path>
                    <path d="M56,114.006643 L73.7345125,117.779979 C73.7345125,117.779979 78.6107532,118.849091 82.1328994,130.923768 C85.6550456,142.998445 77.309172,157.799543 77.309172,157.799543 L75.4674534,156.256914 L76.3901882,191.530212 C76.3901882,191.530212 68.2056057,194.574777 65.6061943,191.900147 C63.0067829,189.225517 63.2731006,176.732814 63.2731006,176.732814 C63.2731006,176.732814 60.7824669,153.637774 59.207066,149.834843 C57.6316652,146.031912 58.4568751,118.675222 58.4568751,118.675222 C58.4568751,118.675222 56.990252,113.79578 56,114.006643 Z" id="Shape" fill="#67647E"></path>
                    <path d="M72.2426752,137.163764 C71.9815333,137.394272 71.6814151,148.120295 72.807833,156.284714 C73.4990535,161.256726 74.5658851,166.174619 76,171 L74.3279125,138.28284 C74.3279125,138.28284 73.0299985,136.453653 72.2426752,137.163764 Z" id="Shape" fill="#000000" opacity="0.1"></path>
                    <path d="M70,128 C70.5153993,128.274928 72.7636065,132.853235 71.7328079,134.731907 C70.7020094,136.610579 70,128 70,128 Z" id="Shape" fill="#000000" opacity="0.1"></path>
                    <path d="M53.5606036,89.0999748 C52.6916682,87.3773457 51.335193,85.9509657 49.6615628,85 C50.9041396,85.8898157 51.9083787,87.0743042 52.5849053,88.4480487 C53.3354425,89.9742341 53.1252921,91.504188 51.6354757,92.3709106 C50.1456593,93.2376332 49.6803262,94.6319261 48.9447998,96.2410155 C48.2693163,97.6993705 47.5187791,99.2557029 46.1490486,100.069668 C44.3852862,101.139882 42.0623735,100.747973 40.2235573,101.674989 C38.5601859,102.552403 37.5903434,104.352765 37.7693006,106.230936 C37.8867882,106.938953 38.0625151,107.635974 38.2946767,108.314838 C38.7111692,109.784353 38.8985219,111.309773 38.8500742,112.836869 C38.8565691,112.936848 38.8371765,113.036813 38.7937839,113.127033 C38.685521,113.270156 38.5148384,113.351639 38.3359562,113.345598 C37.8766228,113.381779 37.4158919,113.296006 37,113.096886 C37.6129668,113.705811 38.4501079,114.031967 39.3116546,113.997524 C39.4905368,114.003565 39.6612194,113.922082 39.7694823,113.778959 C39.8126367,113.68856 39.8332435,113.588975 39.8295253,113.488796 C39.8743588,111.961616 39.6857852,110.436559 39.2703751,108.966765 C39.0382135,108.2879 38.8624866,107.590879 38.744999,106.882862 C38.5665824,105.005786 39.5364875,103.206797 41.1992557,102.330684 C43.0380719,101.399899 45.3609846,101.791809 47.124747,100.725363 C48.4944774,99.8925556 49.2450147,98.3512967 49.9204981,96.8929416 C50.6710354,95.2989257 51.0688201,93.9197062 52.6111741,93.0228367 C54.153528,92.1259673 54.3186462,90.6261603 53.5606036,89.0999748 Z" id="Shape" fill="#000000" opacity="0.1"></path>
                    <ellipse id="Oval" fill="#386DB0" opacity="0.1" cx="359" cy="283" rx="15" ry="2"></ellipse>
                    <ellipse id="Oval" fill="#386DB0" opacity="0.1" cx="240" cy="302.5" rx="11" ry="1.5"></ellipse>
                    <ellipse id="Oval" fill="#386DB0" opacity="0.1" cx="143" cy="291.5" rx="11" ry="1.5"></ellipse>
                    <path d="M148.556999,287.740912 C149.226323,287.196873 149.713441,286.462086 149.953344,285.634613 C150.135635,284.801551 149.778345,283.797512 148.976267,283.491935 C148.079398,283.14998 147.120549,283.772047 146.395033,284.397753 C145.669517,285.023458 144.834626,285.740109 143.886716,285.60551 C144.880303,284.704873 145.328518,283.350749 145.067958,282.036806 C145.024925,281.769618 144.911709,281.518578 144.739835,281.309241 C144.240359,280.778119 143.336198,281.007302 142.741931,281.425652 C140.84611,282.753457 140.317467,285.325398 140.30653,287.635415 C140.116948,286.802354 140.277363,285.932914 140.270072,285.088939 C140.26278,284.244964 140.033094,283.270028 139.307578,282.826213 C138.861674,282.579896 138.358867,282.454469 137.849254,282.462431 C136.99978,282.429691 136.048223,282.516998 135.468539,283.139066 C134.739377,283.910285 134.932605,285.205349 135.559685,286.049324 C136.186764,286.893299 137.145612,287.435335 138.027898,288.021024 C138.733692,288.440928 139.335576,289.01414 139.788825,289.698061 C139.843445,289.793647 139.887455,289.894892 139.920074,290 L145.264832,290 C146.458057,289.396464 147.565219,288.636728 148.556999,287.740912 Z" id="Shape" fill="#386DB0"></path>
                    <path d="M365.542738,279.740912 C366.216095,279.197836 366.708062,278.463241 366.953354,277.634613 C367.135605,276.801551 366.778394,275.815701 365.976493,275.491935 C365.079822,275.14998 364.121186,275.772047 363.39583,276.397753 C362.670474,277.023458 361.835768,277.740109 360.884422,277.60551 C361.880939,276.706918 362.329656,275.350978 362.065404,274.036806 C362.026108,273.768518 361.912487,273.516523 361.737353,273.309241 C361.241633,272.778119 360.337672,273.007302 359.743536,273.425652 C357.848134,274.753457 357.319608,277.325398 357.308673,279.635415 C357.115488,278.802354 357.279513,277.932914 357.272223,277.088939 C357.264933,276.244964 357.031653,275.270028 356.309942,274.826213 C355.864137,274.579896 355.361441,274.454469 354.85194,274.462431 C353.999009,274.429691 353.051308,274.516998 352.468108,275.139066 C351.739107,275.910285 351.932292,277.205349 352.562878,278.049324 C353.193463,278.893299 354.148454,279.435335 355.030546,280.021024 C355.736183,280.440928 356.337934,281.01414 356.791083,281.698061 C356.844192,281.794388 356.888125,281.895478 356.922303,282 L362.262234,282 C363.45176,281.396305 364.555042,280.63654 365.542738,279.740912 Z" id="Shape" fill="#386DB0"></path>
                    <path d="M242.555069,297.721893 C243.22411,297.178502 243.71213,296.446257 243.954895,295.621536 C244.133519,294.787198 243.776272,293.807757 242.977934,293.484904 C242.08117,293.143914 241.122435,293.760599 240.397005,294.388166 C239.671574,295.015734 238.836782,295.723108 237.885338,295.592516 C238.880693,294.69564 239.329215,293.344254 239.066441,292.03388 C239.025137,291.766936 238.911738,291.51617 238.738357,291.308369 C238.23894,290.778745 237.338531,291.007281 236.740689,291.424451 C234.845091,292.752137 234.316511,295.313194 234.305575,297.620321 C234.116015,296.78961 234.276412,295.922624 234.272766,295.08103 C234.269121,294.239436 234.032171,293.267251 233.310386,292.824688 C232.8641,292.580166 232.36165,292.455168 231.852234,292.461932 C230.999215,292.432912 230.051417,292.516346 229.468156,293.136658 C228.73908,293.909328 228.932285,295.200739 229.562936,296.038706 C230.193586,296.876672 231.148676,297.417178 232.027212,298.004843 C232.742306,298.42864 233.350744,299.009289 233.806158,299.70254 C233.858617,299.797656 233.902532,299.897196 233.937391,300 L239.274228,300 C240.466111,299.391393 241.56974,298.62507 242.555069,297.721893 Z" id="Shape" fill="#386DB0"></path>
                    <path d="M351.97398,128.033857 C347.097183,127.937283 342.792814,124.482901 340.354415,120.29307 C339.71572,119.292345 339.31399,118.159165 339.17982,116.979836 C339.196885,116.710975 339.241728,116.444598 339.313635,116.184956 C339.47018,115.792062 339.594492,115.387097 339.685342,114.974066 C339.705793,114.808786 339.705793,114.641618 339.685342,114.476337 C339.685342,114.476337 339.685342,114.476337 339.685342,114.454051 C339.804288,113.555169 339.276464,112.689716 338.614825,112.069413 C337.953186,111.449111 337.146582,110.999669 336.466358,110.401653 C334.369929,108.56303 333.73431,105.613806 333.693422,102.805728 C333.693422,102.757441 333.693422,102.709153 333.693422,102.657152 C333.715725,101.457404 333.812369,100.250228 333.801217,99.046766 C333.817973,98.3633243 333.788168,97.6795352 333.712008,97.0001377 C333.511286,95.2989476 332.864515,93.5680424 331.52637,92.4834408 C328.036039,89.6567909 322.166783,92.5985869 318.557507,89.9242269 C317.676561,89.2742088 316.9666,88.3047533 315.903518,88.0670324 C315.096913,87.8738842 314.260572,88.1338914 313.47627,88.3938987 C310.814847,89.2704944 307.848624,90.4256694 306.807844,93.0108841 C306.213112,94.4966396 306.38038,96.1644002 305.833971,97.6575846 C305.462264,98.6567552 304.804342,99.514779 304.313689,100.465663 C303.909079,101.17863 303.712088,101.99047 303.744977,102.809442 C303.703754,103.233403 303.763622,103.661092 303.919679,104.057477 C304.103496,104.530907 304.399395,104.952768 304.78204,105.286939 C304.64213,105.581572 304.467424,105.858407 304.26165,106.111534 C303.581425,106.943557 302.536928,107.537859 301.830685,108.340167 C300.522275,109.855638 300.570597,111.917124 301.217368,113.70003 C301.864138,115.482937 303.023865,117.106125 303.819318,118.840744 C304.165006,119.583622 304.443786,120.437932 304.08323,121.188238 C303.834186,121.708253 303.313796,122.101978 302.908635,122.551419 C302.315193,123.216781 301.943656,124.050189 301.845553,124.936057 C293.879869,126.752393 293.876151,133.144856 293.876151,133.144856 L289.579217,143.968585 C289.579217,143.968585 288.891558,145.788636 288.092388,148.191845 L283,147.28182 L286.51635,153.202556 C285.84356,155.613194 285.371492,157.849257 285.527609,158.971002 C285.527609,158.971002 283.947853,166.39978 286.757959,167.696102 L292.965469,170.485608 C293.233323,170.648105 293.522235,170.773085 293.824112,170.857046 L294.076873,170.968478 C294.259738,171.058184 294.473872,171.058184 294.656737,170.968478 L294.69019,170.968478 L294.757097,170.968478 C294.883383,170.981314 295.010902,170.963474 295.128805,170.916477 C295.26822,170.843565 295.377458,170.723884 295.437322,170.578467 C295.438721,170.567368 295.438721,170.556137 295.437322,170.545038 L297.295857,170.006451 L298.871896,171.863646 C299.581856,172.361374 300.276949,172.795957 300.957173,173.185968 L298.533642,197.403784 C298.533642,197.403784 298.139633,229.592678 296.953887,236.921167 C296.511555,239.636386 296.507838,241.486151 296.675106,242.745329 L296.630502,242.827046 C296.92415,244.89596 297.68615,245.304543 297.68615,245.304543 L297.68615,245.274828 L297.730755,245.304543 C298.089798,244.365196 298.515879,243.452824 299.00571,242.574467 C299.00571,242.745329 299.00571,242.919905 299.00571,243.10191 C298.983408,245.835701 298.897915,249.657807 298.634003,252.142733 C298.150784,256.369708 299.864354,270.372954 299.864354,270.372954 L300.455368,283.113308 C300.551271,285.274771 300.04972,287.420888 299.00571,289.316337 C297.604374,291.860693 295.779292,295.43765 295.660346,297.023694 C295.654891,297.110277 295.654891,297.197118 295.660346,297.283701 L292.552874,300.897802 C292.552874,300.897802 291.363411,302.728995 294.039703,303.468159 C295.478209,303.869313 297.96493,303.468159 299.957281,302.996431 C301.751246,302.585018 303.024052,300.99131 303.027582,299.152039 C303.5409,297.397117 304.403099,295.763657 305.562625,294.349334 L306.064429,297.279987 L309.409794,298.108296 L309.837257,290.074072 C310.010999,289.622002 310.089456,289.138951 310.067715,288.655176 C310.725637,282.942446 308.517696,283.455031 308.517696,283.455031 C308.573753,283.508967 308.611456,283.579122 308.625492,283.655608 C308.588321,283.592464 308.55115,283.525605 308.517696,283.458746 C307.160965,280.784386 307.826321,276.401407 307.826321,276.401407 C307.826321,276.401407 309.584496,263.668482 310.20153,260.30696 C310.636427,257.933465 310.458008,250.155535 310.313042,245.798557 C310.313042,245.616552 310.313042,245.427118 310.294457,245.274828 C315.472337,245.207969 321.817379,245.029678 326.277865,244.598809 L326.277865,245.126252 L325.452675,275.212802 C325.397256,277.129866 325.008606,279.022692 324.3041,280.806672 C324.3041,280.840102 324.274363,280.873531 324.263212,280.906961 C323.276283,283.420454 322.713558,286.080172 322.597964,288.777751 L322.226257,298.338588 L322.226257,298.602309 C321.560901,298.858602 320.512687,299.597765 320.48295,301.740968 C320.438345,304.879626 325.973065,303.832169 325.973065,303.832169 C331.507784,303.832169 331.548672,298.074866 331.548672,298.074866 C331.548672,298.074866 331.727092,292.796719 331.987287,289.264336 C332.247482,285.731952 331.154663,286.511973 331.154663,286.511973 L331.072887,296.540823 C331.072887,296.566824 331.072887,296.592825 331.072887,296.618826 L331.072887,287.81201 L331.15838,286.53426 L331.15838,286.497116 L331.176965,286.225965 L331.864623,275.86282 C331.864623,275.86282 336.960728,258.590912 337.752465,255.277677 C338.313742,252.926469 338.079567,245.831986 337.893713,241.905877 C337.893713,241.723872 337.893713,241.55301 337.871411,241.385863 C339.447449,241.244716 340.845068,241.229858 341.406346,241.229858 L341.662824,241.229858 C341.662824,241.229858 341.398912,213.490802 340.74099,203.023654 C340.083068,192.556506 339.02742,183.003098 336.388299,180.124447 C334.797393,178.386113 332.578301,173.015106 331.06917,169.036996 C334.21649,170.399078 337.482743,171.468392 340.826483,172.23137 C349.175026,173.977133 348.033885,166.734075 348.033885,166.734075 L347.186392,153.039123 L347.242148,153.039123 C347.21172,149.451179 346.903522,145.870967 346.320315,142.33054 C345.8817,139.615321 345.205193,136.807243 344.171847,134.530323 C345.078813,134.184885 345.97091,133.787445 346.848139,133.416006 C349.115552,132.416836 351.680332,130.997939 352,128.553871 L351.888488,128.553871 C351.930396,128.383003 351.95898,128.209143 351.97398,128.033857 Z M300.22491,147.846407 C300.247212,149.261589 300.191456,151.713086 300.109681,154.428304 L297.459409,150.892206 L300.117115,146.583515 L300.22491,147.846407 Z M336.860367,160.367612 L332.444486,158.948716 C333.22839,157.728624 334.143254,156.597702 335.172817,155.576051 L335.544524,155.204612 L335.406992,155.234327 L335.622583,155.041179 L335.748963,155.011463 L335.544524,155.204612 L335.786134,155.156325 C336.052846,156.264892 336.567545,157.298628 337.291548,158.179837 C338.867586,159.933029 336.845499,160.367612 336.845499,160.367612 L336.860367,160.367612 Z" id="Shape" fill="url(#linearGradient-5)"></path>
                    <polygon id="Shape" fill="#A27772" points="311 288 310.422918 298 306.770816 297.160972 306 293"></polygon>
                    <polygon id="Shape" fill="#000000" opacity="0.1" points="311 288 310.422918 298 306.770816 297.160972 306 293"></polygon>
                    <path d="M322,297.967697 L327.130301,299 L330.924902,295.733497 L330.924902,286.534937 L331.008383,285.277739 L331.008383,285.240871 L331.027356,284.975421 L331.717974,274.762992 C331.717974,274.762992 336.848275,257.741046 337.645141,254.485604 C338.210537,252.166608 337.975271,245.172753 337.789336,241.308989 C337.713444,239.723666 337.645141,238.665555 337.645141,238.665555 L326.322051,236 L326.082991,244.479635 L325.255768,274.121489 C325.199316,276.010117 324.806456,277.874958 324.09462,279.633251 L324.056674,279.732795 C323.070651,282.216068 322.515428,284.841057 322.413612,287.500878 L322.034151,296.920646 L322.034151,297.182409 L322,297.967697 Z" id="Shape" fill="#CC818C"></path>
                    <polygon id="Shape" fill="#000000" opacity="0.1" points="331 286.005 331 286.36 331 286.36 331.025 286"></polygon>
                    <path d="M322,298.979964 L327.173469,300 L331,296.772313 L331,296 C330.976166,296.34885 330.768901,296.662649 330.44898,296.834244 L330.395408,296.863388 C328.61348,297.761644 326.593613,298.14168 324.586735,297.956284 L322.566327,297.79235 C322.384144,297.811532 322.205352,297.853167 322.034439,297.916211 L322.034439,298.174863 L322,298.979964 Z" id="Shape" fill="#000000" opacity="0.1"></path>
                    <path d="M330.515211,296.722839 L330.565441,296.69387 C330.887694,296.512216 331.086888,296.168371 331.08568,295.795846 L331.164613,286.069664 C331.164613,286.069664 332.212266,285.320103 331.961116,288.738389 C331.709967,292.156675 331.541337,297.265998 331.541337,297.265998 C331.541337,297.265998 331.501871,302.838818 326.231313,302.838818 C326.231313,302.838818 320.960754,303.849095 321.000221,300.811021 C321.039687,297.772948 323.178048,297.64621 323.178048,297.64621 L325.068848,297.812779 C326.950787,297.993593 328.844022,297.614714 330.515211,296.722839 Z" id="Shape" fill="#B07473"></path>
                    <path d="M296.005682,296.684283 C296.139102,298.92051 302.935913,297.62896 302.935913,297.62896 L307.510323,289.027237 C307.510323,289.027237 311.322331,286.185827 309.416327,283.691291 C309.312672,283.556053 309.218434,283.414284 309.134239,283.266924 L309.134239,283.244783 C309.092306,283.178361 309.057998,283.111938 309.019878,283.041825 C307.647555,280.407063 308.322281,276.085906 308.322281,276.085906 C308.322281,276.085906 310.098677,263.539421 310.723846,260.218292 C311.162227,257.875052 310.983063,250.203245 310.834394,245.907919 C310.777214,244.12558 310.723846,242.922593 310.723846,242.922593 L299.432678,240 C299.432678,240 299.432678,241.361663 299.432678,243.258396 C299.409805,245.9522 299.325941,249.723526 299.051477,252.173781 C298.56354,256.347333 300.298003,270.155847 300.298003,270.155847 L300.896489,282.724473 C300.981748,284.852009 300.463645,286.961537 299.398369,288.824279 C297.980302,291.333576 296.13529,294.865043 296.005682,296.429663 C295.998106,296.514378 295.998106,296.599568 296.005682,296.684283 Z" id="Shape" fill="#CC818C"></path>
                    <path d="M296,296.660446 C296.133953,298.937187 302.9579,297.622238 302.9579,297.622238 L307.550574,288.864674 C307.550574,288.864674 311.377802,285.971786 309.464188,283.432055 C309.360119,283.294367 309.265504,283.150029 309.180973,283 C309.119738,284.32622 307.650082,287.636136 307.650082,287.636136 C307.650082,287.636136 303.857299,295.086264 302.674686,296.791941 C301.492072,298.497618 296.225806,296.476353 296.030618,296.416241 C296.013629,296.496684 296.003389,296.57836 296,296.660446 Z" id="Shape" fill="#000000" opacity="0.1"></path>
                    <path d="M309.31426,283.011518 C309.31426,283.011518 311.5377,282.507687 310.877498,288.16467 C310.926582,289.47378 310.253203,290.708131 309.113164,291.39882 C307.523367,292.376845 305.064682,294.477375 303.823957,298.563592 C303.825901,300.380343 302.546611,301.959328 300.735425,302.375666 C298.728258,302.831336 296.224042,303.235142 294.774633,302.838746 C292.07691,302.097818 293.256926,300.293659 293.256926,300.293659 L296.353047,296.707568 C296.353047,296.707568 301.748494,298.782166 302.943688,297.096555 C304.138881,295.410944 307.876234,288.06835 307.876234,288.06835 C307.876234,288.06835 309.98964,283.485711 309.31426,283.011518 Z" id="Shape" fill="#B07473"></path>
                    <path d="M326.224635,237 L326,246 C328.852512,245.698696 330.863533,245.276087 331.212966,244.685217 C331.958185,243.413478 334.682334,242.873478 337,242.654348 C336.928687,240.971739 336.864506,239.848696 336.864506,239.848696 L326.224635,237 Z" id="Shape" fill="#000000" opacity="0.1"></path>
                    <path d="M299,244.2888 C299.28203,243.711182 299.693778,243.208578 300.202206,242.821317 C301.360294,242.169517 301.235294,246.989117 301.235294,246.989117 C301.235294,246.989117 305.077206,247.026363 310,246.963045 C309.944853,245.160351 309.893382,243.949864 309.893382,243.949864 L299.003676,241 C299.003676,241 299.018382,242.374368 299,244.2888 Z" id="Shape" fill="#000000" opacity="0.1"></path>
                    <path d="M298.150434,244.998003 C298.150434,244.998003 299.438092,241.493279 300.593305,240.849328 C301.748517,240.205376 301.62711,244.990601 301.62711,244.990601 C301.62711,244.990601 329.933503,245.249662 331.349926,243.047644 C332.766349,240.845627 341,240.978858 341,240.978858 C341,240.978858 340.742468,213.536908 340.09864,203.181874 C339.454811,192.82684 338.424685,183.37852 335.853049,180.532551 C334.186452,178.682116 331.806125,172.727416 330.35659,168.752682 C329.558242,166.580271 329.032142,165 329.032142,165 L302.013407,166.554365 L301.792666,168.752682 L298.923029,197.619467 C298.923029,197.619467 298.555127,229.446948 297.37784,236.708054 C296.200553,243.969161 298.150434,244.998003 298.150434,244.998003 Z" id="Shape" fill="#444053"></path>
                    <g id="Group" opacity="0.1" transform="translate(297.000000, 165.000000)" fill="#000000">
                        <path d="M32.89875,78.7305069 C34.33875,76.5132719 42.735,76.6439171 42.735,76.6439171 C42.735,76.6439171 42.4725,48.9658065 41.81625,38.521659 C41.16,28.0775115 40.11,18.5478802 37.48875,15.6774194 C35.79,13.8110599 33.36375,7.80511521 31.88625,3.79617512 C31.20375,1.9559447 30.71625,0.537511521 30.5775,0.130645161 L32.715,0.0111981567 C32.715,0.0111981567 33.25125,1.60506912 34.065,3.79617512 C35.565,7.80511521 37.96875,13.8185253 39.6675,15.6774194 C42.2925,18.5478802 43.33875,28.0775115 43.995,38.521659 C44.65125,48.9658065 44.89875,76.6252535 44.89875,76.6252535 C44.89875,76.6252535 36.50625,76.4908756 35.06625,78.7305069 C33.8325,80.6267281 12.6,80.7125806 6.435,80.6976498 C14.34,80.6603226 31.77375,80.4251613 32.89875,78.7305069 Z" id="Shape"></path>
                        <path d="M1.5375,76.4908756 C2.07,76.1959908 2.33625,77.0134562 2.4675,77.9839631 C1.99184426,78.8450378 1.57708837,79.7380792 1.22625,80.6565899 C1.22625,80.6565899 0.47625,80.2497235 0.17625,78.18553 C0.5925,77.4501843 1.07625,76.7484332 1.5375,76.4908756 Z" id="Shape"></path>
                    </g>
                    <path d="M306.349,97.9156429 C304.493198,100.493875 306.370919,104.15318 304.379951,106.657111 C303.722383,107.485563 302.710459,108.076253 302.023667,108.88613 C300.752369,110.394433 300.803513,112.4377 301.428203,114.20977 C302.052892,115.98184 303.181716,117.590448 303.956185,119.314223 C304.292275,120.057229 304.562608,120.900541 304.215559,121.643547 C303.974451,122.159937 303.484928,122.550015 303.075775,122.999534 C301.797171,124.452111 301.76064,126.473088 302.447432,128.182002 C303.134225,129.890917 304.453014,131.373214 305.735271,132.814646 C306.246712,133.386761 306.89332,134.014601 307.744505,133.999741 C308.192941,133.962708 308.626241,133.817527 309.008496,133.576228 C312.038698,131.953812 314.337515,129.206251 315.427087,125.904688 C316.348074,122.798692 316.153865,119.460954 314.879114,116.487084 C313.783168,113.860557 312.000429,111.341766 311.985816,108.562922 C311.985816,106.359909 313.100028,104.257201 313.297298,102.061618 C313.538407,99.3979404 311.985816,95.1628048 308.822185,94 C309.030415,95.7200595 307.306127,96.6079519 306.349,97.9156429 Z" id="Shape" fill="#585268"></path>
                    <path d="M306.349,97.9156429 C304.493198,100.493875 306.370919,104.15318 304.379951,106.657111 C303.722383,107.485563 302.710459,108.076253 302.023667,108.88613 C300.752369,110.394433 300.803513,112.4377 301.428203,114.20977 C302.052892,115.98184 303.181716,117.590448 303.956185,119.314223 C304.292275,120.057229 304.562608,120.900541 304.215559,121.643547 C303.974451,122.159937 303.484928,122.550015 303.075775,122.999534 C301.797171,124.452111 301.76064,126.473088 302.447432,128.182002 C303.134225,129.890917 304.453014,131.373214 305.735271,132.814646 C306.246712,133.386761 306.89332,134.014601 307.744505,133.999741 C308.192941,133.962708 308.626241,133.817527 309.008496,133.576228 C312.038698,131.953812 314.337515,129.206251 315.427087,125.904688 C316.348074,122.798692 316.153865,119.460954 314.879114,116.487084 C313.783168,113.860557 312.000429,111.341766 311.985816,108.562922 C311.985816,106.359909 313.100028,104.257201 313.297298,102.061618 C313.538407,99.3979404 311.985816,95.1628048 308.822185,94 C309.030415,95.7200595 307.306127,96.6079519 306.349,97.9156429 Z" id="Shape" fill="#000000" opacity="0.1"></path>
                    <path d="M328,192 C324.16813,192.203008 320.562108,193.845865 317.208281,195.706767 C313.854454,197.567669 310.609787,199.691729 307,201" id="Shape" fill="#000000" opacity="0.1"></path>
                    <path d="M325,201 C321.206661,201.367541 317.671353,203.102655 315.041431,205.887621 C314.111111,206.884163 313.308851,208.00242 312.3371,208.957123 C310.847426,210.418888 309.008952,211.46707 307,212" id="Shape" fill="#000000" opacity="0.1"></path>
                    <path d="M326,207 C323.040571,207.805489 320.361986,209.389264 318.253949,211.580033 C317.685298,212.180693 317.160389,212.827833 316.599028,213.424917 C313.526124,216.642739 309.188335,218.376788 305,220" id="Shape" fill="#000000" opacity="0.1"></path>
                    <path d="M326.360675,113.183069 C326.447305,116.224941 326.713972,119.259272 327.159324,122.27066 C327.516814,124.417276 328.026428,126.328288 328.756621,127.177211 C330.882547,129.664144 318.381795,133 318.381795,133 L311,127.390376 C311,127.390376 316.852953,122.091152 314.126139,116.919079 C311.399324,111.747006 326.360675,113.183069 326.360675,113.183069 Z" id="Shape" fill="#CC818C"></path>
                    <path d="M302,169 L331,169 C330.189464,166.684418 329.655332,165 329.655332,165 L302.224111,166.656805 L302,169 Z" id="Shape" fill="#000000" opacity="0.1"></path>
                    <path d="M299.575366,168 L330.120277,168 C329.262812,164.91915 330.120277,162.063639 331.345754,159.873059 C332.202127,158.333988 333.2797,156.929948 334.543769,155.706154 L334.753536,155.517757 L345.425854,153.142473 L345.999951,153.016875 C345.999951,153.016875 346.084593,133.55285 339.221189,130.882042 C332.357784,128.211233 328.236061,124.602132 328.236061,124.602132 L318.80026,127.527831 L311.848532,124 C309.618386,126.412224 303.697089,125.477626 303.697089,125.477626 C294,126.585845 294,133.918563 294,133.918563 C294,133.918563 299.663689,147.183948 300.094262,147.183948 C300.524835,147.183948 299.575366,168 299.575366,168 Z" id="Shape" fill="#67647E"></path>
                    <path d="M310,156 C310,156 304.030851,154.545102 302,152" id="Shape" fill="#000000" opacity="0.1"></path>
                    <path d="M342.134348,148 L335,153.668344 C335.051786,154.11634 335.130789,154.560995 335.236598,155 L335.444077,154.820332 L346,152.555108 L342.134348,148 Z" id="Shape" fill="#000000" opacity="0.1"></path>
                    <path d="M323,165.838664 C323,165.838664 324.518242,166.774341 326.841506,168 L330.824245,168 C330.001569,164.775395 330.824245,161.786643 332,159.493849 L324.963123,157 C327.364064,159.435852 323,165.838664 323,165.838664 Z" id="Shape" fill="#000000" opacity="0.1"></path>
                    <path d="M298.751158,131 L294.502316,133.338704 L290.337285,144.087821 C290.337285,144.087821 286.004633,155.878014 286.42733,159.001244 C286.42733,159.001244 284.900517,166.366862 287.618901,167.668208 L294.710021,170.940163 C294.96613,171.058745 295.267827,170.99753 295.459989,170.787991 C295.652151,170.578452 295.692006,170.267232 295.559061,170.014348 C294.549688,168.062329 293.441928,165.013462 295.194666,163.321712 L293.154056,158.99009 L300.540336,146.690513 L303,142.45928 L298.751158,131 Z" id="Shape" fill="#67647E"></path>
                    <path d="M308.043536,153.028192 C308.410519,154.598515 309.665599,157.011172 313.805164,157.922112 L318.36309,161.786936 L323.196252,164.073814 L325.163279,165 L326,158.733954 L324.102699,157.655309 L321.900803,156.401338 C321.900803,156.401338 316.913508,147.009891 309.01237,150.977625 C308.264714,151.338838 307.861152,152.192989 308.043536,153.028192 Z" id="Shape" fill="#000000" opacity="0.1"></path>
                    <path d="M308.042785,153.023296 C308.409783,154.593761 309.664916,157.006636 313.804655,157.917659 L318.36277,161.786645 L323.196135,164.07373 L325.163244,165 L326,158.733386 L324.10262,157.658456 L321.900632,156.400559 C321.900632,156.400559 316.913128,147.012073 309.01166,150.976354 C308.265575,151.337271 307.862306,152.189257 308.042785,153.023296 Z" id="Shape" fill="#CC818C"></path>
                    <circle id="Oval" fill="#000000" opacity="0.1" cx="317" cy="110" r="11"></circle>
                    <circle id="Oval" fill="#CC818C" cx="317" cy="110" r="11"></circle>
                    <path d="M324.279424,133 L321,126.705965 C321,126.705965 325.824396,124.794125 326.174202,122.574385 C326.524007,120.354646 330.794545,125.173629 329.869019,126.770409 C328.943492,128.367189 324.279424,133 324.279424,133 Z" id="Shape" fill="#000000" opacity="0.1"></path>
                    <path d="M324.279424,133 L321,126.705799 C321,126.705799 325.824396,124.793908 326.174202,122.57411 C326.524007,120.354312 330.794545,125.177002 329.869019,126.770244 C328.943492,128.363487 324.279424,133 324.279424,133 Z" id="Shape" fill="#67647E"></path>
                    <path d="M297.414798,150.376658 L316,174.98184 C316,174.98184 309.153212,178.64387 299.704495,172.077849 L295.615751,167.2989 L284,148 L297.414798,150.376658 Z" id="Shape" fill="#F6F8FB"></path>
                    <path d="M293.439857,163.542575 L295.080309,163.497242 C295.080309,163.497242 305.103288,153.297117 307.562163,158.457624 C310.021037,163.618132 301.321236,168.43108 301.321236,168.43108 L298.674881,169.942209 L295.206498,171 L293,167.894629 L293.439857,163.542575 Z" id="Shape" fill="#CC818C"></path>
                    <path d="M295.829795,169.76359 C295.972431,170.366086 296.108275,171.030774 295.870548,171.590511 C295.815685,171.741602 295.715815,171.865551 295.588672,171.940347 C295.481399,171.991435 295.364469,172.010171 295.249062,171.994766 C294.431196,171.914744 293.670262,171.482746 293.119709,170.785889 C292.576329,170.094037 292.11188,169.326033 291.737497,168.500294 C291.316381,167.664575 290.878285,166.73168 291.031109,165.779349 C291.197518,164.737615 292.009185,164.014621 292.783495,163.44711 C294.349096,162.261555 294.386454,163.641463 294.743044,165.165192 L295.829795,169.76359 Z" id="Shape" fill="#000000" opacity="0.1"></path>
                    <path d="M294.829795,169.76359 C294.972431,170.366086 295.108275,171.030774 294.870548,171.590511 C294.815685,171.741602 294.715815,171.865551 294.588672,171.940347 C294.481399,171.991435 294.364469,172.010171 294.249062,171.994766 C293.431196,171.914744 292.670262,171.482746 292.119709,170.785889 C291.576329,170.094037 291.11188,169.326033 290.737497,168.500294 C290.316381,167.664575 289.878285,166.73168 290.031109,165.779349 C290.197518,164.737615 291.009185,164.014621 291.783495,163.44711 C293.349096,162.261555 293.386454,163.641463 293.743044,165.165192 L294.829795,169.76359 Z" id="Shape" fill="#67647E"></path>
                    <polygon id="Shape" fill="#000000" opacity="0.1" points="300 147.615068 301 146 300.124464 149"></polygon>
                    <path d="M324,163.116822 L326.104712,164 L327,158.024922 L324.969895,157 C326.356021,158.475597 325.14267,161.215992 324,163.116822 Z" id="Shape" fill="#000000" opacity="0.1"></path>
                    <path d="M332,155.97359 C332,155.97359 325.679919,156.252137 323,155" id="Shape" fill="#000000" opacity="0.1"></path>
                    <g id="Group" opacity="0.1" transform="translate(304.000000, 124.000000)" fill="#000000">
                        <path d="M27.2296581,36.41625 C28.0870862,34.8543486 29.1643591,33.4291866 30.427094,32.18625 C30.7299867,31.9919419 31.0441854,31.816618 31.3679487,31.66125 L41.2910256,29.58375 L41.864359,29.45625 C41.864359,29.45625 41.9525641,9.6975 35.0946154,6.98625 C31.25147,5.49070909 27.6481735,3.41921398 24.4034188,0.84 L25.1568376,0.60375 C25.1568376,0.60375 29.2694017,4.275 36.1236752,6.97875 C42.9779487,9.6825 42.9007692,29.45625 42.9007692,29.45625 L41.8717094,29.45625 L31.7134188,31.44 L31.1400855,31.99875 C29.8664008,33.2984115 28.7743842,34.7710226 27.8948718,36.375 C26.554058,38.9185734 26.2490541,41.8986476 27.0458974,44.67 L25.9947863,44.67 C25.1494872,41.5425 26.0205128,38.64375 27.2296581,36.41625 Z" id="Shape"></path>
                        <path d="M0.147008547,1.5675 C0.312393162,1.5375 0.47042735,1.5025 0.639487179,1.4775 C1.33505735,1.61117936 2.03575882,1.68964548 2.73803419,1.7125 C1.87293777,1.74485808 1.00722886,1.69641094 0.147008547,1.5675 Z" id="Shape"></path>
                        <path d="M14.6935043,3.57375 L8.41623932,0.345 C8.54649417,0.240252617 8.66930901,0.126216894 8.78376068,0.00375 L15.3329915,3.37875 L14.6935043,3.57375 Z" id="Shape"></path>
                    </g>
                    <path d="M342.819084,148 L347.08041,153.191775 L347.94908,167.283737 C347.94908,167.283737 349.067538,174.459512 340.820771,172.731393 C332.574004,171.003273 323,165.640911 323,165.640911 C323,165.640911 327.608049,159.499782 325.087789,157.167192 L336.909895,160.972021 C336.909895,160.972021 338.908207,160.538137 337.342365,158.810018 C335.776524,157.081898 335.500637,153.966833 335.500637,153.966833 L342.819084,148 Z" id="Shape" fill="#67647E"></path>
                    <path d="M344,163 L346,166 C344.95122,165.58015 344.175742,164.416933 344,163 Z" id="Shape" fill="#000000" opacity="0.1"></path>
                    <polygon id="Shape" fill="#000000" opacity="0.1" points="340 162 344 166.574855 342.002043 167"></polygon>
                    <path d="M304.184182,104.43645 C303.787188,103.458541 304.088609,102.328182 304.551768,101.387456 C305.014927,100.44673 305.680259,99.5915249 306.022114,98.5950247 C306.555115,97.1077109 306.389701,95.4419194 306.970488,93.9769154 C307.988702,91.4112991 310.881608,90.2586309 313.476769,89.3922706 C314.241349,89.135709 315.057391,88.8754291 315.844026,89.0650616 C316.88062,89.317905 317.575358,90.2809406 318.417132,90.9242038 C321.93861,93.5790589 327.661932,90.6564874 331.065783,93.4675104 C332.370716,94.5420946 333.002964,96.2673786 333.197785,97.9554797 C333.392606,99.6435809 333.197785,101.35771 333.179406,103.060684 C333.124268,106.035312 333.671972,109.299966 335.881167,111.274375 C336.546498,111.8693 337.329458,112.319213 337.97641,112.932729 C338.623362,113.546246 339.134307,114.420043 339.020356,115.301277 C338.928894,115.710674 338.805992,116.112228 338.652769,116.502283 C338.211665,118.056525 338.865969,119.703725 339.663632,121.105519 C342.045593,125.269997 346.239755,128.701974 351,128.798649 C350.6802,131.226689 348.187963,132.635919 345.975092,133.632419 C343.155704,134.900354 340.192957,136.145979 337.112582,135.986093 C334.032207,135.826207 330.8195,133.833206 330.271797,130.780495 C330.084327,129.72822 330.110058,128.437976 329.205796,127.883951 C328.661768,127.549306 327.956002,127.634826 327.367863,127.381983 C326.518738,127.010154 326.096014,126.06571 325.816648,125.173322 C325.242701,123.339036 324.934405,121.430337 324.901358,119.506656 C324.864599,117.227348 325.16602,114.739816 323.886819,112.862082 C322.70319,111.125643 320.600595,110.259283 319.236849,108.645548 C317.979704,107.158234 316.608606,105.380894 314.546446,105.098304 C311.774843,104.693011 305.871404,108.615801 304.184182,104.43645 Z" id="Shape" fill="#000000" opacity="0.1"></path>
                    <path d="M304.184182,104.436438 C303.787188,103.45853 304.088609,102.328172 304.551768,101.387447 C305.014927,100.446722 305.680259,99.5915167 306.022114,98.5950173 C306.555115,97.1077046 306.389701,95.4419145 306.970488,93.9769115 C307.988702,91.4112972 310.881608,90.25863 313.476769,89.3922703 C314.241349,89.1357089 315.057391,88.8754292 315.844026,89.0650616 C316.88062,89.3179047 317.575358,90.2809396 318.417132,90.9242024 C321.93861,93.5827737 327.661932,90.6564861 331.065783,93.467507 C332.370716,94.5458086 333.002964,96.267373 333.197785,97.9554728 C333.392606,99.6435727 333.197785,101.357701 333.179406,103.060673 C333.124268,106.035299 333.671972,109.29995 335.881167,111.274358 C336.546498,111.869283 337.329458,112.319195 337.97641,112.932711 C338.623362,113.546228 339.134307,114.420024 339.020356,115.301256 C338.928396,115.71173 338.805508,116.114481 338.652769,116.50598 C338.211665,118.056503 338.865969,119.70742 339.663632,121.105494 C342.045593,125.269969 346.239755,128.701943 351,128.798619 C350.6802,131.226657 348.187963,132.635885 345.975092,133.632385 C343.155704,134.904037 340.192957,136.145943 337.112582,135.986057 C334.032207,135.826171 330.8195,133.833172 330.271797,130.761871 C330.084327,129.709598 330.110058,128.419354 329.205796,127.86533 C328.661768,127.530685 327.956002,127.616205 327.367863,127.363362 C326.518738,126.991534 326.096014,126.04709 325.816648,125.154703 C325.242701,123.320419 324.934405,121.411721 324.901358,119.488042 C324.864599,117.208735 325.16602,114.721205 323.886819,112.843472 C322.70319,111.107035 320.600595,110.240675 319.236849,108.626941 C317.979704,107.139628 316.608606,105.36229 314.546446,105.0797 C311.774843,104.711591 305.871404,108.615786 304.184182,104.436438 Z" id="Shape" fill="#585268"></path>
                    <path d="M312.302946,133 L319,127.943533 C319,127.943533 314.416169,125.632005 313.86844,123.659982 C313.320711,121.68796 309.653647,124.595429 310.026569,126.365192 C310.39949,128.134956 312.302946,133 312.302946,133 Z" id="Shape" fill="#000000" opacity="0.1"></path>
                    <path d="M312.302946,132 L319,126.943533 C319,126.943533 314.416169,124.632005 313.86844,122.659982 C313.320711,120.68796 309.653647,123.595429 310.026569,125.365192 C310.39949,127.134956 312.302946,132 312.302946,132 Z" id="Shape" fill="#67647E"></path>
                    <circle id="Oval" fill="#000000" opacity="0.1" cx="319.5" cy="131.5" r="1"></circle>
                    <circle id="Oval" fill="#000000" opacity="0.1" cx="319.5" cy="134.5" r="1"></circle>
                    <circle id="Oval" fill="#000000" opacity="0.1" cx="319.5" cy="137.5" r="1"></circle>
                    <g id="Group" opacity="0.1" transform="translate(304.000000, 93.000000)" fill="#000000">
                        <path d="M2.87627907,4.35560345 C3.38232558,2.96551724 3.2744186,1.40862069 3.74697674,0.0111206897 C3.53023665,0.321023846 3.34924929,0.654276789 3.20744186,1.00456897 C2.61953488,2.46508621 2.78325581,4.13318966 2.24744186,5.61224138 C2.24744186,5.63818966 2.22139535,5.66784483 2.21023256,5.6975 C2.4728185,5.27134893 2.69576118,4.82218208 2.87627907,4.35560345 Z" id="Shape"></path>
                        <path d="M43.3562791,39.2856897 C40.5023256,40.5534483 37.5032558,41.7915517 34.3813953,41.6321552 C31.2595349,41.4727586 28.0148837,39.4858621 27.4604651,36.4239655 C27.2706977,35.3749138 27.2967442,34.0886207 26.3813953,33.5362931 C25.8306977,33.2026724 25.1162791,33.287931 24.5209302,33.0358621 C23.6576744,32.6651724 23.2334884,31.7236207 22.9506977,30.8339655 C22.3690054,29.0029227 22.0569207,27.0975207 22.024186,25.1772414 C21.9869767,22.9049138 22.2883721,20.425 20.9972093,18.5530172 C19.7990698,16.8218966 17.6706977,15.9581897 16.2902326,14.3493966 C15.0139535,12.8666379 13.6297674,11.0947414 11.5386047,10.8130172 C8.67348837,10.4423276 2.69395349,14.334569 0.989767442,10.1680172 C0.716568748,9.3804517 0.755160192,8.51873337 1.09767442,7.75853448 C0.974883721,7.96612069 0.855813953,8.1737069 0.747906977,8.385 C0.264186047,9.32284483 -0.0409302326,10.4497414 0.375813953,11.4246552 C2.08372093,15.5912069 8.05953488,11.680431 10.9283721,12.0696552 C13.015814,12.3513793 14.4037209,14.1343966 15.68,15.6060345 C17.0604651,17.2 19.1851163,18.0785345 20.3832558,19.8133621 C21.6781395,21.6668103 21.3767442,24.1652586 21.4139535,26.4338793 C21.4445815,28.3528436 21.7554375,30.2571475 22.3367442,32.0868966 C22.6195349,32.9728448 23.0474419,33.9403448 23.9069767,34.2887931 C24.5023256,34.5371552 25.2167442,34.4556034 25.7674419,34.7892241 C26.6790698,35.3378448 26.6567442,36.6426724 26.8427907,37.6731897 C27.3972093,40.7350862 30.6493023,42.7256897 33.7674419,42.8850862 C36.8855814,43.0444828 39.8883721,41.8026724 42.7386047,40.5349138 C44.7925581,39.6267241 47.0809302,38.3626724 47.6948837,36.2942241 C46.6976744,37.6546552 44.9562791,38.5776724 43.3562791,39.2856897 Z" id="Shape"></path>
                    </g>
                </g>
            </g>
        </g>
    </g>
</svg>