<?xml version="1.0" encoding="UTF-8"?>
<svg width="417px" height="397px" viewBox="0 0 417 397" version="1.1" xmlns="http://www.w3.org/2000/svg" xmlns:xlink="http://www.w3.org/1999/xlink">
    <!-- Generator: Sketch 50.2 (55047) - http://www.bohemiancoding.com/sketch -->
    <title>reward-poster</title>
    <desc>Created with Sketch.</desc>
    <defs>
        <polygon id="path-1" points="125.009334 14 338 14.7577994 336.990832 309.429728 310.535984 309.384177 310.324967 371 291.391322 370.932636 291.616965 309.269019 288.502616 309.257212 288.291364 370.941742 269.195719 370.858728 269.421327 309.204732 266.468915 309.227391 266.257829 370.863349 247.338258 370.785946 247.563866 309.13195 244.435547 309.100426 244.224295 370.784956 225.12865 370.711991 225.354258 309.057995 222.401846 309.070604 222.190761 370.706563 203.095116 370.638623 203.320724 308.984627 124 308.720501"></polygon>
        <filter x="-3.3%" y="-1.4%" width="106.5%" height="103.9%" filterUnits="objectBoundingBox" id="filter-2">
            <feOffset dx="0" dy="2" in="SourceAlpha" result="shadowOffsetOuter1"></feOffset>
            <feGaussianBlur stdDeviation="2" in="shadowOffsetOuter1" result="shadowBlurOuter1"></feGaussianBlur>
            <feColorMatrix values="0 0 0 0 0   0 0 0 0 0   0 0 0 0 0  0 0 0 0.314000226 0" type="matrix" in="shadowBlurOuter1"></feColorMatrix>
        </filter>
        <rect id="path-3" x="0.401845318" y="0.344644042" width="193.75586" height="176.22"></rect>
    </defs>
    <g id="Empty-States" stroke="none" stroke-width="1" fill="none" fill-rule="evenodd">
        <g id="404-page" transform="translate(-810.000000, -222.000000)">
            <g id="reward-poster" transform="translate(781.000000, 210.000000)">
                <path d="M279.080713,57.021902 C253.246679,72.8401411 225.243461,73.5757341 199.232119,58.6844618 C162.367314,37.5855025 114.222754,32.1851736 96.3826332,128.870796 C65.9348395,294.05627 128.226249,353.017336 128.226249,353.017336 C128.226249,353.017336 171.715553,368.470769 195.795378,396.3934 C230.000575,436.055616 271.890341,449.31423 311.350621,430.715091 C336.584829,418.820014 358.212533,399.305869 364.39565,367.37635 C381.688759,278.07656 370.710803,224.402195 402.007408,200.857239 C433.304013,177.312284 415.890184,90.0877031 393.632473,88.1081805 C371.374762,86.128658 318.937105,106.360455 302.715384,66.118137 C296.932151,51.8308882 288.085654,51.5019646 279.080713,57.021902 Z" id="Shape" fill="#000000" fill-rule="nonzero" opacity="0.05" transform="translate(253.500000, 242.500000) rotate(-60.000000) translate(-253.500000, -242.500000) "></path>
                <g id="Rectangle-path" fill-rule="nonzero" transform="translate(231.000000, 192.500000) rotate(-0.200000) translate(-231.000000, -192.500000) ">
                    <use fill="black" fill-opacity="1" filter="url(#filter-2)" xlink:href="#path-1"></use>
                    <use fill="#FDFDFD" fill-rule="evenodd" xlink:href="#path-1"></use>
                </g>
                <path d="M124.734483,288 L336.265517,288" id="Line-2" stroke="#CACACA" stroke-linecap="square" stroke-dasharray="4,7"></path>
                <rect id="Rectangle-4" fill="#80A6D6" x="173" y="250" width="116" height="4" rx="2"></rect>
                <rect id="Rectangle-4" fill="#CACACA" x="179" y="259" width="83" height="4" rx="2"></rect>
                <rect id="Rectangle-4" fill="#CACACA" x="179" y="268" width="83" height="4" rx="2"></rect>
                <rect id="Rectangle-4" fill="#999999" transform="translate(209.500000, 340.000000) rotate(90.000000) translate(-209.500000, -340.000000) " x="186" y="339" width="47" height="2" rx="1"></rect>
                <rect id="Rectangle-4" fill="#CACACA" transform="translate(216.000000, 349.500000) rotate(90.000000) translate(-216.000000, -349.500000) " x="202" y="349" width="28" height="1" rx="0.5"></rect>
                <rect id="Rectangle-4" fill="#999999" transform="translate(231.500000, 340.000000) rotate(90.000000) translate(-231.500000, -340.000000) " x="208" y="339" width="47" height="2" rx="1"></rect>
                <rect id="Rectangle-4" fill="#CACACA" transform="translate(238.000000, 348.500000) rotate(90.000000) translate(-238.000000, -348.500000) " x="224" y="348" width="28" height="1" rx="0.5"></rect>
                <rect id="Rectangle-4" fill="#999999" transform="translate(253.500000, 339.000000) rotate(90.000000) translate(-253.500000, -339.000000) " x="230" y="338" width="47" height="2" rx="1"></rect>
                <rect id="Rectangle-4" fill="#CACACA" transform="translate(260.000000, 348.500000) rotate(90.000000) translate(-260.000000, -348.500000) " x="246" y="348" width="28" height="1" rx="0.5"></rect>
                <rect id="Rectangle-4" fill="#999999" transform="translate(275.500000, 339.000000) rotate(90.000000) translate(-275.500000, -339.000000) " x="252" y="338" width="47" height="2" rx="1"></rect>
                <rect id="Rectangle-4" fill="#CACACA" transform="translate(282.000000, 348.500000) rotate(90.000000) translate(-282.000000, -348.500000) " x="268" y="348" width="28" height="1" rx="0.5"></rect>
                <rect id="Rectangle-4" fill="#999999" transform="translate(297.500000, 339.000000) rotate(90.000000) translate(-297.500000, -339.000000) " x="274" y="338" width="47" height="2" rx="1"></rect>
                <rect id="Rectangle-4" fill="#CACACA" transform="translate(305.000000, 348.500000) rotate(90.000000) translate(-305.000000, -348.500000) " x="291" y="348" width="28" height="1" rx="0.5"></rect>
                <g id="Sample-Badge" transform="translate(133.000000, 64.000000)">
                    <mask id="mask-4" fill="white">
                        <use xlink:href="#path-3"></use>
                    </mask>
                    <use id="Mask" fill="#CACACA" fill-rule="nonzero" opacity="0.2" transform="translate(97.279776, 88.454644) rotate(-0.200000) translate(-97.279776, -88.454644) " xlink:href="#path-3"></use>
                    <g mask="url(#mask-4)">
                        <g transform="translate(96.394256, 111.262022) rotate(17.000000) translate(-96.394256, -111.262022) translate(-97.105744, 12.762022)">
                            <g id="leaf" opacity="0.200000003" stroke="none" stroke-width="1" fill="none" transform="translate(301.372238, 94.618489) rotate(12.000000) translate(-301.372238, -94.618489) translate(229.872238, 20.118489)">
                                <path d="M3.78469305,31.6481011 C1.19885811,34.7818817 -1.2214834,39.119331 0.681691118,43.3984527 C4.37426342,51.7817136 17.9188668,47.693482 22.7543782,55.5093748 C24.2024457,57.8477796 24.3989692,60.7058299 24.0628107,63.256335 C23.4111803,68.2459924 21.0011821,72.4826942 19.3359044,77.0428487 C17.6706267,81.6030032 16.8069578,87.1176087 19.1548959,91.9322835 C21.4149157,96.5931856 26.1780236,99.536076 30.7911532,100.70793 C35.4042827,101.879783 40.0277556,101.614658 44.6357135,101.768431 C50.1099695,101.988557 55.5454287,102.809837 60.8488985,104.218188 C63.1826076,104.734023 65.4208791,105.629068 67.4789793,106.869441 C69.8320891,108.41247 71.7352637,110.67664 73.5970648,112.903692 L90.1464084,132.676734 C92.3443681,135.327987 94.5888729,137.979239 97.3143429,139.925259 C100.458718,142.168218 104.037514,143.308257 107.559421,144.405876 C115.135917,146.781398 123.074431,149.17813 130.314768,147.550261 C137.555106,145.922392 143.631818,138.82764 141.821734,130.614059 C140.099568,122.792864 132.33172,117.246444 129.714855,109.584324 C125.577519,97.510519 135.791567,86.3116279 132.724767,74.0257232 C129.787258,62.2435565 116.764993,56.1668854 109.524655,46.192873 C104.352986,39.0450959 102.315348,30.105072 97.7953082,22.5012795 C91.2841758,11.5463036 79.9271887,4.27656885 68.5753734,1.51926611 C57.223558,-1.23803663 45.8096825,0.0928921928 35.1870726,2.83958992 C30.6877198,4.01144359 26.188367,5.49084256 22.6199148,8.41782547 C18.8290807,11.5303961 18.3894888,16.2496258 15.6278171,20.009102 C12.4265534,24.3889713 7.27039855,27.4007943 3.78469305,31.6481011 Z" id="Shape" fill="#94989E" fill-rule="nonzero"></path>
                                <path d="M20.5156712,11.9663866 C20.5156712,11.9663866 108.233181,82.3808707 137.748078,143.596639" id="Shape" stroke="#535461" stroke-width="2"></path>
                                <path d="M1.46540509,44.5778068 C1.46540509,44.5778068 44.0506169,29.951718 67.4086339,55.3445378" id="Shape" stroke="#535461" stroke-width="2"></path>
                                <path d="M20.5156712,94.2352941 C20.5156712,94.2352941 70.8138438,57.9226584 83.5280899,72.0845863" id="Shape" stroke="#535461" stroke-width="2"></path>
                                <path d="M69.5626978,1.49579832 C69.5626978,1.49579832 60.0840029,24.6622663 71.8048492,58.3361345" id="Shape" stroke="#535461" stroke-width="2"></path>
                            </g>
                            <g id="leaf" opacity="0.199999988" stroke="none" stroke-width="1" fill="none" transform="translate(99.532953, 98.516154) scale(-1, 1) rotate(62.000000) translate(-99.532953, -98.516154) translate(28.032953, 24.016154)">
                                <path d="M3.78469305,31.6481011 C1.19885811,34.7818817 -1.2214834,39.119331 0.681691118,43.3984527 C4.37426342,51.7817136 17.9188668,47.693482 22.7543782,55.5093748 C24.2024457,57.8477796 24.3989692,60.7058299 24.0628107,63.256335 C23.4111803,68.2459924 21.0011821,72.4826942 19.3359044,77.0428487 C17.6706267,81.6030032 16.8069578,87.1176087 19.1548959,91.9322835 C21.4149157,96.5931856 26.1780236,99.536076 30.7911532,100.70793 C35.4042827,101.879783 40.0277556,101.614658 44.6357135,101.768431 C50.1099695,101.988557 55.5454287,102.809837 60.8488985,104.218188 C63.1826076,104.734023 65.4208791,105.629068 67.4789793,106.869441 C69.8320891,108.41247 71.7352637,110.67664 73.5970648,112.903692 L90.1464084,132.676734 C92.3443681,135.327987 94.5888729,137.979239 97.3143429,139.925259 C100.458718,142.168218 104.037514,143.308257 107.559421,144.405876 C115.135917,146.781398 123.074431,149.17813 130.314768,147.550261 C137.555106,145.922392 143.631818,138.82764 141.821734,130.614059 C140.099568,122.792864 132.33172,117.246444 129.714855,109.584324 C125.577519,97.510519 135.791567,86.3116279 132.724767,74.0257232 C129.787258,62.2435565 116.764993,56.1668854 109.524655,46.192873 C104.352986,39.0450959 102.315348,30.105072 97.7953082,22.5012795 C91.2841758,11.5463036 79.9271887,4.27656885 68.5753734,1.51926611 C57.223558,-1.23803663 45.8096825,0.0928921928 35.1870726,2.83958992 C30.6877198,4.01144359 26.188367,5.49084256 22.6199148,8.41782547 C18.8290807,11.5303961 18.3894888,16.2496258 15.6278171,20.009102 C12.4265534,24.3889713 7.27039855,27.4007943 3.78469305,31.6481011 Z" id="Shape" fill="#94989E" fill-rule="nonzero"></path>
                                <path d="M20.5156712,11.9663866 C20.5156712,11.9663866 108.233181,82.3808707 137.748078,143.596639" id="Shape" stroke="#535461" stroke-width="2"></path>
                                <path d="M1.46540509,44.5778068 C1.46540509,44.5778068 44.0506169,29.951718 67.4086339,55.3445378" id="Shape" stroke="#535461" stroke-width="2"></path>
                                <path d="M20.5156712,94.2352941 C20.5156712,94.2352941 70.8138438,57.9226584 83.5280899,72.0845863" id="Shape" stroke="#535461" stroke-width="2"></path>
                                <path d="M69.5626978,1.49579832 C69.5626978,1.49579832 60.0840029,24.6622663 71.8048492,58.3361345" id="Shape" stroke="#535461" stroke-width="2"></path>
                            </g>
                            <path d="M227.53871,20.5639768 L222.064532,25.4546671 C221.533647,25.928966 221.230146,26.6071001 221.230146,27.3189981 L221.230146,173.495773 C221.230146,184.037117 212.017733,190.528123 198.507054,190.528123 C186.039133,190.528123 179.61553,184.214136 179.61553,172.836038 L179.61553,27.2342957 C179.61553,26.5637155 179.346132,25.9212478 178.867853,25.4512185 L173.84523,20.5152245 C173.25437,19.9345557 173.246108,18.9848442 173.826777,18.3939844 C174.108795,18.1070173 174.494275,17.9453782 174.896623,17.9453782 L226.539341,17.9453782 C227.367768,17.9453782 228.039341,18.616951 228.039341,19.4453782 C228.039341,19.872517 227.857241,20.2793974 227.53871,20.5639768 Z" id="Rectangle-2" stroke="#CACACA" stroke-width="1" fill="#FDFDFD"></path>
                            <path d="M220.578807,51.3529412 L220.628839,169.57259 C220.628839,180.229803 211.04992,186.10494 198.405747,186.10494 C185.761574,186.10494 180.014222,179.570069 180.014222,168.912855 L179.77942,73.205638 C191.586245,71.0294632 198.87408,68.5973069 201.642925,65.9091691 C210.393321,57.413835 216.705281,52.561759 220.578807,51.3529412 Z" id="Rectangle-2-Copy" stroke="none" fill="#80A6D6"></path>
                        </g>
                    </g>
                    <rect id="Rectangle-3" stroke="#FDFDFD" fill="#FDFDFD" mask="url(#mask-4)" x="103.17948" y="109.693277" width="1.93081017" height="16.9495798" rx="0.965405086"></rect>
                    <path d="M98.4297468,123.246054 C98.2049367,123.246054 98.0077754,123.396083 97.9478456,123.612769 C96.4907621,128.880019 95.7632443,132.590089 95.7632443,134.712408 C95.7632443,136.834732 96.4907654,140.544833 97.9478553,145.812142 C98.0077941,146.028817 98.2049679,146.178852 98.4297744,146.178852 L100.303067,146.178827 C100.338202,146.178827 100.37324,146.175124 100.407598,146.167779 C100.677663,146.110049 100.849779,145.844333 100.792021,145.574257 C99.7040988,140.484895 99.1594595,136.871691 99.1594595,134.712408 C99.1594595,132.553119 99.7041018,128.939919 100.79203,123.850572 C100.799374,123.816218 100.803076,123.781185 100.803076,123.746054 C100.803076,123.469919 100.579225,123.246068 100.303087,123.246068 L98.429743,123.246054 Z" id="Rectangle-3" stroke="#FDFDFD" mask="url(#mask-4)" transform="translate(98.283284, 134.712453) rotate(90.000000) translate(-98.283284, -134.712453) "></path>
                    <path d="M91.9562389,109.693277 C91.6800965,109.693277 91.4562389,109.917135 91.4562389,110.193277 L91.4562389,126.142857 C91.4562389,126.419 91.6800965,126.642857 91.9562389,126.642857 L92.8870491,126.642857 C93.1631915,126.642857 93.3870491,126.419 93.3870491,126.142857 L93.3870491,110.193277 C93.3870491,109.917135 93.1631915,109.693277 92.8870491,109.693277 L91.9562389,109.693277 Z" id="Rectangle-3" stroke="#FDFDFD" fill="#FDFDFD" mask="url(#mask-4)"></path>
                </g>
                <path d="M167.304688,32.3984375 C168.020837,31.7083299 169.316397,31.3632812 171.191406,31.3632812 C172.363287,31.3632812 173.34635,31.4804676 174.140625,31.7148438 C174.9349,31.9492199 175.530597,32.1966133 175.927734,32.4570312 C176.324872,32.7174492 176.523438,33.0039047 176.523438,33.3164062 C176.523438,34.0325557 175.690112,34.742184 174.023438,35.4453125 C173.77604,35.5625006 173.12826,35.8001284 172.080078,36.1582031 C171.031896,36.5162778 170.325523,36.760416 169.960938,36.890625 C169.166663,37.1901057 168.639324,37.4244783 168.378906,37.59375 C168.378906,37.6588545 168.404948,37.7141925 168.457031,37.7597656 C168.509115,37.8053388 168.632812,37.883463 168.828125,37.9941406 C169.023438,38.1048183 169.316404,38.2610667 169.707031,38.4628906 C170.097658,38.6647146 170.638017,38.9544252 171.328125,39.3320312 C173.385427,40.4518285 175.501291,41.6497332 177.675781,42.9257812 C177.779948,43.0039066 177.916666,43.1113274 178.085938,43.2480469 C178.255209,43.3847663 178.339844,43.5345044 178.339844,43.6972656 C178.339844,43.8600269 178.287761,43.973958 178.183594,44.0390625 C178.079427,44.104167 177.95573,44.1529946 177.8125,44.1855469 C177.66927,44.2180991 177.519532,44.234375 177.363281,44.234375 L176.972656,44.234375 C176.712238,44.234375 176.168624,43.9544299 175.341797,43.3945312 C174.51497,42.8346326 173.798831,42.3463562 173.193359,41.9296875 C172.587888,41.5130188 171.972659,41.109377 171.347656,40.71875 C169.876295,39.7682244 168.710942,39.149741 167.851562,38.8632812 L167.851562,43.3359375 C167.851562,43.5963555 167.630211,43.7265625 167.1875,43.7265625 L166.972656,43.7265625 C166.699217,43.7265625 166.497396,43.5898451 166.367188,43.3164062 C166.184895,42.8997375 166.09375,42.131516 166.09375,41.0117188 L166.152344,37.0859375 C166.152344,35.1588445 166.067709,33.4661531 165.898438,32.0078125 C166.210939,31.4739557 166.59505,31.4934867 167.050781,32.0664062 C167.154948,32.1966152 167.239583,32.3072912 167.304688,32.3984375 Z M173.90625,32.6328125 L172.636719,32.6132812 C169.693996,32.6132812 168.001304,32.9518195 167.558594,33.6289062 C167.428385,33.8111988 167.363281,34.0423163 167.363281,34.3222656 C167.363281,34.6022149 167.376302,34.8463531 167.402344,35.0546875 C167.467448,35.5885443 167.617186,35.9726551 167.851562,36.2070312 C167.890625,36.2200521 167.958984,36.2265625 168.056641,36.2265625 C168.154297,36.2265625 168.336587,36.2005211 168.603516,36.1484375 C168.870444,36.0963539 169.228513,36.0019538 169.677734,35.8652344 C170.126955,35.7285149 170.605466,35.562501 171.113281,35.3671875 C171.621096,35.171874 172.109373,34.9700531 172.578125,34.7617188 C174.049487,34.0976529 174.785156,33.5572937 174.785156,33.140625 C174.785156,32.9062488 174.49219,32.7369797 173.90625,32.6328125 Z M186.152344,31.5976562 C187.454434,31.5976562 188.32031,31.6822908 188.75,31.8515625 L188.75,32.8085938 C188.398436,32.8606773 187.91667,32.8899739 187.304688,32.8964844 C186.692705,32.9029948 186.04167,32.9127604 185.351562,32.9257812 C183.42447,32.9648439 182.109379,33.0624992 181.40625,33.21875 C181.184895,34.2604219 181.080729,34.9700502 181.09375,35.3476562 C181.106771,35.7252623 181.119792,36.0182281 181.132812,36.2265625 C181.184896,36.7343775 181.210938,37.3333299 181.210938,38.0234375 C182.096359,38.0234375 183.108718,37.9453133 184.248047,37.7890625 C185.387375,37.6328117 186.269528,37.5188806 186.894531,37.4472656 C187.519534,37.3756507 188.164059,37.3398438 188.828125,37.3398438 L188.828125,38.4140625 L181.347656,39.3515625 L181.464844,42.5546875 C182.753913,42.5546875 184.072259,42.4928392 185.419922,42.3691406 C186.767585,42.2454421 187.78971,42.1542972 188.486328,42.0957031 C189.182946,42.0371091 189.921871,42.0078125 190.703125,42.0078125 C190.703125,42.2682305 190.625001,42.5156238 190.46875,42.75 C190.156248,43.1666687 189.876303,43.2903654 189.628906,43.1210938 C187.337228,43.3684908 185.289723,43.5638014 183.486328,43.7070312 C181.682934,43.8502611 180.468753,43.9479164 179.84375,44 L179.921875,31.5390625 C180.260418,31.6432297 180.885412,31.6953125 181.796875,31.6953125 L186.152344,31.5976562 Z M205.996094,40.7578125 C206.647139,38.648427 207.402339,34.7942988 208.261719,29.1953125 C209.082035,29.1953125 209.511719,29.4492162 209.550781,29.9570312 C209.563802,30.113282 209.573568,30.223958 209.580078,30.2890625 C209.586589,30.354167 209.563802,30.5787741 209.511719,30.9628906 C209.459635,31.3470071 209.384766,31.8841111 209.287109,32.5742188 C209.189453,33.2643264 209.069011,34.0650996 208.925781,34.9765625 C208.782551,35.8880254 208.619793,36.8385367 208.4375,37.828125 C207.994789,40.1588658 207.539065,42.124992 207.070312,43.7265625 C206.60156,44.052085 206.23698,44.1041678 205.976562,43.8828125 C205.859374,43.7656244 205.755209,43.6061208 205.664062,43.4042969 C205.572916,43.2024729 205.468751,42.9713555 205.351562,42.7109375 C205.182291,42.4895822 204.869794,41.9036506 204.414062,40.953125 C203.958331,40.0025994 203.590496,39.2473986 203.310547,38.6875 C203.030598,38.1276014 202.760418,37.6067732 202.5,37.125 C201.901039,36.0442654 201.399742,35.4127613 200.996094,35.2304688 C200.527341,35.9596391 199.694016,37.958317 198.496094,41.2265625 C198.287759,41.799482 198.098959,42.3300757 197.929688,42.8183594 C197.760416,43.3066431 197.617188,43.7005193 197.5,44 L196.289062,43.9414062 L191.40625,32.6523438 C191.380208,32.5872393 191.367188,32.5221357 191.367188,32.4570312 C191.367188,32.3919268 191.389974,32.3268232 191.435547,32.2617188 C191.48112,32.1966143 191.562499,32.1380211 191.679688,32.0859375 C191.901043,32.0078121 192.122395,31.96875 192.34375,31.96875 C192.565105,31.96875 192.724609,32.0110673 192.822266,32.0957031 C192.919922,32.180339 192.998047,32.2877598 193.056641,32.4179688 C193.115235,32.5481777 193.164062,32.6914055 193.203125,32.8476562 C193.242188,33.003907 193.317057,33.2057279 193.427734,33.453125 C193.538412,33.7005221 193.701171,34.0651018 193.916016,34.546875 C194.13086,35.0286482 194.361978,35.5364557 194.609375,36.0703125 C194.856772,36.6041693 195.104165,37.134763 195.351562,37.6621094 C195.59896,38.1894558 195.833332,38.674477 196.054688,39.1171875 C196.52344,40.0937549 196.816406,40.6406244 196.933594,40.7578125 C198.444018,37.0338355 199.374998,34.8235712 199.726562,34.1269531 C200.078127,33.4303351 200.299479,33.003907 200.390625,32.8476562 C200.533855,32.626301 200.644531,32.515625 200.722656,32.515625 C201.282555,32.515625 202.226556,33.7656125 203.554688,36.265625 C203.919273,36.9296908 204.257811,37.5677053 204.570312,38.1796875 C205.338546,39.6640699 205.813801,40.5234363 205.996094,40.7578125 Z M220.625,36.8515625 L221.171875,36.8515625 C221.39323,36.8515625 221.604817,36.8710936 221.806641,36.9101562 C222.008465,36.9492189 222.109375,37.0924467 222.109375,37.3398438 C222.200521,37.8606797 221.894535,38.1145834 221.191406,38.1015625 C220.996093,38.0885416 220.817058,38.0755209 220.654297,38.0625 C220.491536,38.0494791 220.358073,38.0462239 220.253906,38.0527344 C220.149739,38.0592448 220.104167,38.0950518 220.117188,38.1601562 C220.247396,38.5377623 220.387369,38.9609352 220.537109,39.4296875 C220.68685,39.8984398 220.852864,40.3671852 221.035156,40.8359375 C221.503909,41.9947975 221.946613,42.8281225 222.363281,43.3359375 C222.141926,43.6093764 221.884767,43.8372387 221.591797,44.0195312 C221.298827,44.2018238 221.142578,44.2929688 221.123047,44.2929688 C221.103516,44.2929688 221.08724,44.2864584 221.074219,44.2734375 L218.320312,38.4726562 L212.988281,39.78125 L212.792969,40.6015625 C212.415363,42.0989658 211.99219,43.1406221 211.523438,43.7265625 C211.445312,43.8567715 211.282553,43.8697922 211.035156,43.765625 C210.618488,43.6093742 210.410156,43.4791672 210.410156,43.375 C210.410156,43.3489582 210.546874,42.9713578 210.820312,42.2421875 C211.093751,41.5130172 211.370441,40.7740923 211.650391,40.0253906 C211.93034,39.276689 212.223306,38.4921916 212.529297,37.671875 C212.835288,36.8515584 213.124999,36.0703162 213.398438,35.328125 C213.671876,34.5859338 213.91927,33.9186228 214.140625,33.3261719 C214.36198,32.733721 214.518229,32.3040378 214.609375,32.0371094 C214.700521,31.770181 214.76237,31.5358083 214.794922,31.3339844 C214.827474,31.1321604 214.876302,30.9596361 214.941406,30.8164062 C215.071615,30.5169256 215.397133,30.3671875 215.917969,30.3671875 C216.477867,30.6796891 216.910806,31.086586 217.216797,31.5878906 C217.522788,32.0891952 217.783202,32.6262992 217.998047,33.1992188 C218.212892,33.7721383 218.424478,34.3515596 218.632812,34.9375 C218.841147,35.5234404 219.121092,36.0572893 219.472656,36.5390625 C219.589844,36.7213551 219.765624,36.8190104 220,36.8320312 C220.234376,36.8450521 220.442707,36.8515625 220.625,36.8515625 Z M215.742188,32.6328125 C215.63802,33.4270873 215.403648,34.2408813 215.039062,35.0742188 C214.674477,35.9075562 214.381512,36.5553362 214.160156,37.0175781 C213.938801,37.47982 213.750001,37.906248 213.59375,38.296875 C214.479171,38.296875 215.5664,38.0364609 216.855469,37.515625 C217.180991,37.3723951 217.493488,37.2421881 217.792969,37.125 C217.180987,34.5077994 216.4974,33.0104186 215.742188,32.6328125 Z M225.019531,32.3984375 C225.735681,31.7083299 227.031241,31.3632812 228.90625,31.3632812 C230.078131,31.3632812 231.061194,31.4804676 231.855469,31.7148438 C232.649744,31.9492199 233.245441,32.1966133 233.642578,32.4570312 C234.039716,32.7174492 234.238281,33.0039047 234.238281,33.3164062 C234.238281,34.0325557 233.404956,34.742184 231.738281,35.4453125 C231.490884,35.5625006 230.843104,35.8001284 229.794922,36.1582031 C228.74674,36.5162778 228.040366,36.760416 227.675781,36.890625 C226.881506,37.1901057 226.354168,37.4244783 226.09375,37.59375 C226.09375,37.6588545 226.119791,37.7141925 226.171875,37.7597656 C226.223959,37.8053388 226.347655,37.883463 226.542969,37.9941406 C226.738282,38.1048183 227.031248,38.2610667 227.421875,38.4628906 C227.812502,38.6647146 228.352861,38.9544252 229.042969,39.3320312 C231.100271,40.4518285 233.216135,41.6497332 235.390625,42.9257812 C235.494792,43.0039066 235.63151,43.1113274 235.800781,43.2480469 C235.970053,43.3847663 236.054688,43.5345044 236.054688,43.6972656 C236.054688,43.8600269 236.002605,43.973958 235.898438,44.0390625 C235.79427,44.104167 235.670574,44.1529946 235.527344,44.1855469 C235.384114,44.2180991 235.234376,44.234375 235.078125,44.234375 L234.6875,44.234375 C234.427082,44.234375 233.883468,43.9544299 233.056641,43.3945312 C232.229814,42.8346326 231.513675,42.3463562 230.908203,41.9296875 C230.302731,41.5130188 229.687503,41.109377 229.0625,40.71875 C227.591138,39.7682244 226.425786,39.149741 225.566406,38.8632812 L225.566406,43.3359375 C225.566406,43.5963555 225.345054,43.7265625 224.902344,43.7265625 L224.6875,43.7265625 C224.414061,43.7265625 224.21224,43.5898451 224.082031,43.3164062 C223.899739,42.8997375 223.808594,42.131516 223.808594,41.0117188 L223.867188,37.0859375 C223.867188,35.1588445 223.782553,33.4661531 223.613281,32.0078125 C223.925783,31.4739557 224.309894,31.4934867 224.765625,32.0664062 C224.869792,32.1966152 224.954427,32.3072912 225.019531,32.3984375 Z M231.621094,32.6328125 L230.351562,32.6132812 C227.408839,32.6132812 225.716148,32.9518195 225.273438,33.6289062 C225.143229,33.8111988 225.078125,34.0423163 225.078125,34.3222656 C225.078125,34.6022149 225.091146,34.8463531 225.117188,35.0546875 C225.182292,35.5885443 225.33203,35.9726551 225.566406,36.2070312 C225.605469,36.2200521 225.673828,36.2265625 225.771484,36.2265625 C225.869141,36.2265625 226.051431,36.2005211 226.318359,36.1484375 C226.585288,36.0963539 226.943357,36.0019538 227.392578,35.8652344 C227.841799,35.7285149 228.32031,35.562501 228.828125,35.3671875 C229.33594,35.171874 229.824216,34.9700531 230.292969,34.7617188 C231.76433,34.0976529 232.5,33.5572937 232.5,33.140625 C232.5,32.9062488 232.207034,32.7369797 231.621094,32.6328125 Z M239.023438,32.0078125 C239.986984,31.6692691 241.263013,31.5 242.851562,31.5 C245.755223,31.5 247.74088,32.2161387 248.808594,33.6484375 C249.225262,34.1953152 249.433594,34.8919229 249.433594,35.7382812 C249.446615,35.8554693 249.453125,35.9726557 249.453125,36.0898438 C249.453125,37.3919336 248.691414,38.713535 247.167969,40.0546875 C245.774733,41.3177146 244.056,42.3333295 242.011719,43.1015625 C240.657545,43.6223984 239.537765,43.8828125 238.652344,43.8828125 C238.287759,43.8828125 237.975262,43.8307297 237.714844,43.7265625 L237.714844,31.5390625 L237.988281,31.5390625 C238.287762,31.5390625 238.528645,31.5878901 238.710938,31.6855469 C238.89323,31.7832036 238.997396,31.8906244 239.023438,32.0078125 Z M248.125,35.8945312 C248.007812,34.7356713 247.363287,33.8763049 246.191406,33.3164062 C245.319006,32.8997375 244.225267,32.6914062 242.910156,32.6914062 L242.558594,32.7109375 C241.321608,32.7369793 240.253911,32.9322898 239.355469,33.296875 L239.355469,42.6132812 C240.266932,42.6132812 241.406243,42.2812533 242.773438,41.6171875 C245.143241,40.4453066 246.770829,39.0846432 247.65625,37.5351562 C247.968752,36.9882785 248.125,36.441409 248.125,35.8945312 Z M262.936577,40.308381 L262.929688,40.2109375 C262.94187,40.2457442 262.944166,40.2782248 262.936577,40.3083793 L262.936577,40.308381 Z M262.936577,40.3083793 C262.887386,40.5038356 262.422853,40.6015625 261.542969,40.6015625 L260.996094,40.5820312 C260.94401,40.5559895 260.904948,40.4518238 260.878906,40.2695312 C260.813802,39.9570297 260.761719,39.7617191 260.722656,39.6835938 C260.839844,39.4492176 261.458328,39.2864588 262.578125,39.1953125 C262.812501,39.1692707 262.96875,39.1497396 263.046875,39.1367188 L263.046875,36.5390625 L262.578125,36.5390625 C260.559886,36.5390625 259.199222,36.2395863 258.496094,35.640625 C258.274738,35.4453115 258.164062,35.1979182 258.164062,34.8984375 C258.138021,34.7682285 258.125,34.5794283 258.125,34.3320312 C258.125,34.0846342 258.255207,33.7753925 258.515625,33.4042969 C258.776043,33.0332013 259.140623,32.6979182 259.609375,32.3984375 C260.468754,31.8515598 261.399735,31.5000008 262.402344,31.34375 L262.402344,26.8125 L263.359375,26.8125 L264.003906,30.6992188 L267.910156,30.6992188 L267.910156,31.5195312 L264.355469,32.0078125 L264.335938,35.7382812 L268.769531,35.7382812 C268.782552,35.8554693 268.789062,36.0442695 268.789062,36.3046875 C268.789062,36.5651055 268.720704,36.871092 268.583984,37.2226562 C268.447265,37.5742205 268.248699,37.8834622 267.988281,38.1503906 C267.727863,38.417319 267.428387,38.638671 267.089844,38.8144531 C266.7513,38.9902353 266.422528,39.1464837 266.103516,39.2832031 C265.784504,39.4199226 265.494793,39.5501296 265.234375,39.6738281 C264.973957,39.7975267 264.778646,39.9440096 264.648438,40.1132812 L265,43.3359375 L265,43.5507812 C265,43.7460947 264.746096,43.8958328 264.238281,44 C263.964842,44.0520836 263.619794,44.078125 263.203125,44.078125 L262.936577,40.308381 L262.936577,40.3083793 Z M267.285156,36.7148438 C267.154947,36.5065094 266.855471,36.4023438 266.386719,36.4023438 C266.061196,36.4023438 265.712892,36.4479162 265.341797,36.5390625 C264.970701,36.6302088 264.700522,36.7148434 264.53125,36.7929688 L264.648438,38.4921875 C266.406259,37.9843725 267.285156,37.3919305 267.285156,36.7148438 Z M261.054688,35.6015625 L261.894531,35.5820312 L262.402344,35.5820312 C262.558595,35.5820312 262.692057,35.5787761 262.802734,35.5722656 C262.913412,35.5657552 262.994791,35.5625 263.046875,35.5625 L262.714844,32.6523438 C262.714844,32.6393229 262.666016,32.623047 262.568359,32.6035156 C262.470703,32.5839843 262.343751,32.5742188 262.1875,32.5742188 C262.031249,32.5742188 261.803387,32.6393223 261.503906,32.7695312 C261.204426,32.8997402 260.91797,33.0690094 260.644531,33.2773438 C260.032549,33.759117 259.726562,34.2604141 259.726562,34.78125 C259.726562,35.3281277 260.169266,35.6015625 261.054688,35.6015625 Z M274.06939,40.308381 L274.0625,40.2109375 C274.074682,40.2457442 274.076979,40.2782248 274.06939,40.3083793 L274.06939,40.308381 Z M274.06939,40.3083793 C274.020198,40.5038356 273.555665,40.6015625 272.675781,40.6015625 L272.128906,40.5820312 C272.076823,40.5559895 272.037761,40.4518238 272.011719,40.2695312 C271.946614,39.9570297 271.894531,39.7617191 271.855469,39.6835938 C271.972657,39.4492176 272.59114,39.2864588 273.710938,39.1953125 C273.945314,39.1692707 274.101562,39.1497396 274.179688,39.1367188 L274.179688,36.5390625 L273.710938,36.5390625 C271.692698,36.5390625 270.332035,36.2395863 269.628906,35.640625 C269.407551,35.4453115 269.296875,35.1979182 269.296875,34.8984375 C269.270833,34.7682285 269.257812,34.5794283 269.257812,34.3320312 C269.257812,34.0846342 269.38802,33.7753925 269.648438,33.4042969 C269.908855,33.0332013 270.273435,32.6979182 270.742188,32.3984375 C271.601567,31.8515598 272.532547,31.5000008 273.535156,31.34375 L273.535156,26.8125 L274.492188,26.8125 L275.136719,30.6992188 L279.042969,30.6992188 L279.042969,31.5195312 L275.488281,32.0078125 L275.46875,35.7382812 L279.902344,35.7382812 C279.915365,35.8554693 279.921875,36.0442695 279.921875,36.3046875 C279.921875,36.5651055 279.853516,36.871092 279.716797,37.2226562 C279.580077,37.5742205 279.381512,37.8834622 279.121094,38.1503906 C278.860676,38.417319 278.5612,38.638671 278.222656,38.8144531 C277.884113,38.9902353 277.55534,39.1464837 277.236328,39.2832031 C276.917316,39.4199226 276.627605,39.5501296 276.367188,39.6738281 C276.10677,39.7975267 275.911459,39.9440096 275.78125,40.1132812 L276.132812,43.3359375 L276.132812,43.5507812 C276.132812,43.7460947 275.878909,43.8958328 275.371094,44 C275.097655,44.0520836 274.752606,44.078125 274.335938,44.078125 L274.06939,40.308381 L274.06939,40.3083793 Z M278.417969,36.7148438 C278.28776,36.5065094 277.988284,36.4023438 277.519531,36.4023438 C277.194009,36.4023438 276.845705,36.4479162 276.474609,36.5390625 C276.103514,36.6302088 275.833334,36.7148434 275.664062,36.7929688 L275.78125,38.4921875 C277.539071,37.9843725 278.417969,37.3919305 278.417969,36.7148438 Z M272.1875,35.6015625 L273.027344,35.5820312 L273.535156,35.5820312 C273.691407,35.5820312 273.824869,35.5787761 273.935547,35.5722656 C274.046225,35.5657552 274.127604,35.5625 274.179688,35.5625 L273.847656,32.6523438 C273.847656,32.6393229 273.798829,32.623047 273.701172,32.6035156 C273.603515,32.5839843 273.476563,32.5742188 273.320312,32.5742188 C273.164062,32.5742188 272.936199,32.6393223 272.636719,32.7695312 C272.337238,32.8997402 272.050783,33.0690094 271.777344,33.2773438 C271.165362,33.759117 270.859375,34.2604141 270.859375,34.78125 C270.859375,35.3281277 271.302079,35.6015625 272.1875,35.6015625 Z M285.202202,40.308381 L285.195312,40.2109375 C285.207495,40.2457442 285.209791,40.2782248 285.202202,40.3083793 L285.202202,40.308381 Z M285.202202,40.3083793 C285.153011,40.5038356 284.688478,40.6015625 283.808594,40.6015625 L283.261719,40.5820312 C283.209635,40.5559895 283.170573,40.4518238 283.144531,40.2695312 C283.079427,39.9570297 283.027344,39.7617191 282.988281,39.6835938 C283.105469,39.4492176 283.723953,39.2864588 284.84375,39.1953125 C285.078126,39.1692707 285.234375,39.1497396 285.3125,39.1367188 L285.3125,36.5390625 L284.84375,36.5390625 C282.825511,36.5390625 281.464847,36.2395863 280.761719,35.640625 C280.540363,35.4453115 280.429688,35.1979182 280.429688,34.8984375 C280.403646,34.7682285 280.390625,34.5794283 280.390625,34.3320312 C280.390625,34.0846342 280.520832,33.7753925 280.78125,33.4042969 C281.041668,33.0332013 281.406248,32.6979182 281.875,32.3984375 C282.734379,31.8515598 283.66536,31.5000008 284.667969,31.34375 L284.667969,26.8125 L285.625,26.8125 L286.269531,30.6992188 L290.175781,30.6992188 L290.175781,31.5195312 L286.621094,32.0078125 L286.601562,35.7382812 L291.035156,35.7382812 C291.048177,35.8554693 291.054688,36.0442695 291.054688,36.3046875 C291.054688,36.5651055 290.986329,36.871092 290.849609,37.2226562 C290.71289,37.5742205 290.514324,37.8834622 290.253906,38.1503906 C289.993488,38.417319 289.694012,38.638671 289.355469,38.8144531 C289.016925,38.9902353 288.688153,39.1464837 288.369141,39.2832031 C288.050129,39.4199226 287.760418,39.5501296 287.5,39.6738281 C287.239582,39.7975267 287.044271,39.9440096 286.914062,40.1132812 L287.265625,43.3359375 L287.265625,43.5507812 C287.265625,43.7460947 287.011721,43.8958328 286.503906,44 C286.230467,44.0520836 285.885419,44.078125 285.46875,44.078125 L285.202202,40.308381 L285.202202,40.3083793 Z M289.550781,36.7148438 C289.420572,36.5065094 289.121096,36.4023438 288.652344,36.4023438 C288.326821,36.4023438 287.978517,36.4479162 287.607422,36.5390625 C287.236326,36.6302088 286.966147,36.7148434 286.796875,36.7929688 L286.914062,38.4921875 C288.671884,37.9843725 289.550781,37.3919305 289.550781,36.7148438 Z M283.320312,35.6015625 L284.160156,35.5820312 C284.342449,35.5820312 284.511718,35.5820312 284.667969,35.5820312 C284.82422,35.5820312 284.957682,35.5787761 285.068359,35.5722656 C285.179037,35.5657552 285.260416,35.5625 285.3125,35.5625 L284.980469,32.6523438 C284.980469,32.6393229 284.931641,32.623047 284.833984,32.6035156 C284.736328,32.5839843 284.609376,32.5742188 284.453125,32.5742188 C284.296874,32.5742188 284.069012,32.6393223 283.769531,32.7695312 C283.470051,32.8997402 283.183595,33.0690094 282.910156,33.2773438 C282.298174,33.759117 281.992188,34.2604141 281.992188,34.78125 C281.992188,35.3281277 282.434891,35.6015625 283.320312,35.6015625 Z" id="Reward-$$$" fill="#999999"></path>
            </g>
        </g>
    </g>
</svg>