<?xml version="1.0" encoding="UTF-8"?>
<svg width="49px" height="48px" viewBox="0 0 49 48" version="1.1" xmlns="http://www.w3.org/2000/svg" xmlns:xlink="http://www.w3.org/1999/xlink">
    <!-- Generator: Sketch 53.2 (72643) - https://sketchapp.com -->
    <title>icon-process</title>
    <desc>Created with Sketch.</desc>
    <defs>
        <linearGradient x1="52.7695656%" y1="-19.5136876%" x2="52.7695656%" y2="149.532303%" id="linearGradient-1">
            <stop stop-color="#0C3483" stop-opacity="0.937981205" offset="0%"></stop>
            <stop stop-color="#6B8CCE" offset="49.9452381%"></stop>
            <stop stop-color="#A2B6DF" offset="100%"></stop>
            <stop stop-color="#A1B6DF" offset="100%"></stop>
            <stop stop-color="#A2B6DF" offset="100%"></stop>
        </linearGradient>
    </defs>
    <g id="Landing-Page" stroke="none" stroke-width="1" fill="none" fill-rule="evenodd">
        <g id="landing-page" transform="translate(-990.000000, -1282.000000)">
            <g id="examples" transform="translate(1.000000, 1065.000000)">
                <g id="example-workflows" transform="translate(78.000000, 190.000000)">
                    <g id="process-card" transform="translate(888.000000, 3.000000)">
                        <g id="icon-process" transform="translate(24.000000, 24.000000)">
                            <path d="M18.065625,8 C25.04375,8 32.021875,8 39,8 L39,8 C43.418278,8 47,11.581722 47,16 L47,16 C47,20.4390994 43.4395672,24.0577172 39.0010509,24.1296689 L7.61804672,24.6384106 C3.39088842,24.706936 1.35973643e-15,28.1532387 0,32.3809524 L0,32.3809524 C5.15317144e-16,36.5888362 3.41116381,40 7.61904762,40 L28.2,40" id="Path-3" stroke="#4A4A4A" stroke-width="2" stroke-linecap="round"></path>
                            <rect id="Rectangle" fill="#80A6D6" x="0" y="0" width="16" height="16" rx="8"></rect>
                            <rect id="Rectangle" fill="#386DB0" x="32" y="32" width="16" height="16" rx="8"></rect>
                            <polyline id="Path-4" stroke="#4A4A4A" stroke-width="2" stroke-linecap="round" stroke-linejoin="round" points="22 44 28 39.5 22 35"></polyline>
                        </g>
                    </g>
                </g>
            </g>
        </g>
    </g>
</svg>