<?xml version="1.0" encoding="UTF-8"?>
<svg width="303px" height="382px" viewBox="0 0 303 382" version="1.1" xmlns="http://www.w3.org/2000/svg" xmlns:xlink="http://www.w3.org/1999/xlink">
    <!-- Generator: Sketch 51.3 (57544) - http://www.bohemiancoding.com/sketch -->
    <title>distressed-tubey</title>
    <desc>Created with Sketch.</desc>
    <defs>
        <path d="M46.7086955,1.72362914 L42.0261272,6.18980803 C41.4325615,6.75594406 41.0966942,7.54043315 41.0966942,8.36069546 L41.0966942,145.689429 C41.0966942,155.703226 32.6658515,161.22366 21.5371392,161.22366 C10.4084269,161.22366 5.3499213,155.083322 5.3499213,145.069524 L5.3499213,8.27697995 C5.3499213,7.50623933 5.05328139,6.76506549 4.52151498,6.20715366 L0.215993508,1.6899421 C-0.16505099,1.29016274 -0.149863385,0.657179936 0.249915974,0.276135438 C0.435886581,0.0988799711 0.682944529,-2.7930426e-14 0.93985807,-2.79776202e-14 L46.0185065,-2.98649994e-14 C46.5707913,-2.99664524e-14 47.0185065,0.44771525 47.0185065,1 C47.0185065,1.27342077 46.9065508,1.53491713 46.7086955,1.72362914 Z" id="path-1"></path>
    </defs>
    <g id="Empty-States" stroke="none" stroke-width="1" fill="none" fill-rule="evenodd">
        <g id="heavy-traffic-page" transform="translate(-841.000000, -169.000000)">
            <g id="distressed-tubey" transform="translate(826.000000, 164.000000)">
                <path d="M317.705292,115.201228 C318.205958,127.332276 312.313159,140.326078 304.894125,147.589094 C297.47509,154.85211 288.883983,157.351459 280.688249,158.176837 C265.462149,159.695789 250.344067,156.094704 235.145379,162.917271 C219.946691,169.739839 204.28153,192.658036 206.517826,214.736481 C209.049391,239.925782 230.252605,243.299905 244.327651,254.936714 C258.023995,266.397487 266.151272,288.126646 266.239189,313.519596 C266.203722,324.445963 264.508859,336.215943 259.95598,345.968963 C252.444022,361.879655 239.314512,368.61208 227.376451,373.017663 C182.034829,389.671612 136.539982,391.438389 94.0950895,378.1936 C87.7530758,376.215208 80.2859803,371.143641 81.4679583,360.845101 C107.311159,360.928032 133.834877,352.43659 159.239152,335.947023 C164.033749,332.819102 168.979606,329.204342 172.518343,323.069978 C179.737998,310.582041 178.166265,292.135517 171.983958,281.679633 C165.801651,271.223749 156.481321,266.598765 147.67224,261.467386 C126.181955,248.83263 67.7876039,212.585541 66.0385234,170.845918 C64.3454999,131.833718 118.911179,93.2253278 139.928633,77.3233114 C165.417232,58.0506566 188.742272,54.5873757 214.79964,56.4391704 C239.505481,58.2068409 315.527871,66.3286339 317.705292,115.201228 Z" id="Shape" fill="#CACACA" fill-rule="nonzero" opacity="0.151685"></path>
                <path d="M119.8999,114.781145 C127.79296,98.0686095 134.434642,88.0011492 139.824946,84.5787639 C155.483522,74.6368977 174.546798,78.8995799 180.944644,77.0295701 C187.906114,74.9948203 212.486892,67.9120119 254.686978,55.7811448 L258.203163,59.9954305" id="back-tongs" stroke="#CACACA" stroke-width="4" opacity="0.33" stroke-linecap="round" fill-rule="nonzero" transform="translate(189.051531, 85.281145) rotate(4.000000) translate(-189.051531, -85.281145) "></path>
                <path d="M119.8999,112.781145 C127.79296,96.0686095 134.434642,86.0011492 139.824946,82.5787639 C155.483522,72.6368977 174.546798,76.8995799 180.944644,75.0295701 C187.906114,72.9948203 212.486892,65.9120119 254.686978,53.7811448 L258.203163,57.9954305" id="back-tongs" stroke="#AAC4E4" stroke-width="4" stroke-linecap="round" fill-rule="nonzero" transform="translate(189.051531, 83.281145) rotate(4.000000) translate(-189.051531, -83.281145) "></path>
                <g id="Sample-Badge" transform="translate(158.885988, 179.378284) rotate(-40.000000) translate(-158.885988, -179.378284) translate(135.385988, 98.378284)">
                    <g id="bubble-small">
                        <mask id="mask-2" fill="white">
                            <use xlink:href="#path-1"></use>
                        </mask>
                        <path stroke="#CACACA" stroke-width="2" d="M47.3988846,2.44725829 L42.7163162,6.91343717 C42.3206057,7.29086119 42.0966942,7.81385392 42.0966942,8.36069546 L42.0966942,145.689429 C42.0966942,155.916751 33.712192,162.22366 21.5371392,162.22366 C10.2415705,162.22366 4.3499213,156.041182 4.3499213,145.069524 L4.3499213,8.27697995 C4.3499213,7.76315287 4.15216136,7.26903697 3.79765042,6.89709576 L-0.507871054,2.37988419 C-1.26996005,1.58032548 -1.23958484,0.314359872 -0.440026123,-0.447729124 C-0.0680849071,-0.802240058 0.426030988,-1 0.93985807,-1 L46.0185065,-1 C47.123076,-1 48.0185065,-0.1045695 48.0185065,1 C48.0185065,1.54684154 47.794595,2.06983427 47.3988846,2.44725829 Z"></path>
                        <g mask="url(#mask-2)" fill="#80A6D6" fill-rule="nonzero" id="Oval">
                            <g transform="translate(4.000000, 45.000000)">
                                <circle cx="10.6427876" cy="8.23395556" r="6"></circle>
                                <ellipse cx="6" cy="15.5" rx="3" ry="3.5"></ellipse>
                                <ellipse cx="3.28557522" cy="10.9679111" rx="3" ry="3.5"></ellipse>
                                <ellipse cx="18.9604517" cy="11.8767432" rx="3.5" ry="4"></ellipse>
                                <ellipse cx="23" cy="13.5" rx="3" ry="3.5"></ellipse>
                                <ellipse cx="29" cy="12.5" rx="3" ry="3.5"></ellipse>
                                <circle cx="38.5" cy="13.5" r="3.5"></circle>
                                <circle cx="34.0195308" cy="6.3251235" r="5.5"></circle>
                                <ellipse cx="26.5516197" cy="10.1106987" rx="4.5" ry="5"></ellipse>
                            </g>
                        </g>
                        <path d="M41.3771735,55.7823266 L41.3771735,146.387433 C41.3771735,150.719993 40.7345567,153.317808 37.8369197,155.824525 C35.6916044,157.680417 33.1176789,159.610508 29.5727729,160.629976 C27.1888088,161.315572 24.0347167,161.430884 21.5216933,161.430884 C10.2246097,161.430884 5.08957172,155.484541 5.08957172,145.787114 L5.08957172,55.7823266 L41.3771735,55.7823266 Z" id="Rectangle-2-Copy" fill="#80A6D6" mask="url(#mask-2)"></path>
                    </g>
                    <g id="air-bubbles" transform="translate(14.985126, 9.169698)" fill-rule="nonzero">
                        <g id="bubble-large" transform="translate(0.000000, 20.631819)">
                            <ellipse id="Oval" fill="#80A6D6" cx="4.43445736" cy="4.91088245" rx="4.37200021" ry="4.38107771"></ellipse>
                            <ellipse id="Oval-2" stroke="#FDFDFD" cx="3.12285729" cy="3.59655914" rx="1" ry="1"></ellipse>
                        </g>
                        <g id="bubble-small" transform="translate(3.044786, 0.000000)">
                            <ellipse id="Oval" fill="#80A6D6" cx="2.70127156" cy="2.32299004" rx="2.18600011" ry="2.19053885"></ellipse>
                            <ellipse id="Oval-2" stroke="#FDFDFD" fill="#FDFDFD" cx="2.70127156" cy="1.4467745" rx="1" ry="1"></ellipse>
                        </g>
                        <g id="bubble-med" transform="translate(11.417947, 9.933839)">
                            <ellipse id="Oval" fill="#80A6D6" cx="2.63491084" cy="3.34184532" rx="2.62320013" ry="2.62864662"></ellipse>
                            <ellipse id="Oval-2" stroke="#FDFDFD" fill="#FDFDFD" cx="2.19771082" cy="2.90373755" rx="1" ry="1"></ellipse>
                        </g>
                    </g>
                    <g id="liquid-bubbles" transform="translate(7.373161, 56.169821)" fill="#FDFDFD" fill-rule="nonzero">
                        <g id="bubble-small" transform="translate(10.227529, 31.942085)">
                            <ellipse id="Oval" cx="2.70127156" cy="2.32299004" rx="2.18600011" ry="2.19053885"></ellipse>
                        </g>
                        <g id="bubble-small" transform="translate(21.591451, 21.674986)">
                            <ellipse id="Oval" cx="2.70127156" cy="2.32299004" rx="2.18600011" ry="2.19053885"></ellipse>
                        </g>
                        <g id="bubble-med" transform="translate(9.091137, 12.548676)">
                            <ellipse id="Oval" cx="2.63491084" cy="3.34184532" rx="2.62320013" ry="2.62864662"></ellipse>
                        </g>
                        <g id="bubble-med" transform="translate(22.727843, 2.281577)">
                            <ellipse id="Oval" cx="2.63491084" cy="3.34184532" rx="2.62320013" ry="2.62864662"></ellipse>
                        </g>
                    </g>
                    <path d="M26.8065222,102.958711 L36.249941,108.049634 L29.6678079,112.256139" id="Line" stroke="#FDFDFD" stroke-width="1.25" stroke-linecap="round" stroke-linejoin="round" fill-rule="nonzero" transform="translate(31.528232, 107.607425) scale(-1, 1) rotate(10.000000) translate(-31.528232, -107.607425) "></path>
                    <path d="M11.4943765,102.958709 L20.937324,108.046859 L14.3555193,112.251072" id="Line" stroke="#FDFDFD" stroke-width="1.25" stroke-linecap="round" stroke-linejoin="round" fill-rule="nonzero" transform="translate(16.215850, 107.604890) rotate(10.000000) translate(-16.215850, -107.604890) "></path>
                </g>
                <path d="M131.253404,129.337866 C147.892307,124.368822 159.544073,118.47515 166.208703,111.656851 C172.873332,104.838553 179.397623,92.1370739 185.781576,73.5524156 L232.439795,9.81420976 L228.760289,4.15628523" id="front-tongs" stroke="#CACACA" stroke-width="4" opacity="0.326004464" stroke-linecap="round" fill-rule="nonzero" transform="translate(181.846599, 66.747075) rotate(4.000000) translate(-181.846599, -66.747075) "></path>
                <path d="M129.253404,129.337866 C145.892307,124.368822 157.544073,118.47515 164.208703,111.656851 C170.873332,104.838553 177.397623,92.1370739 183.781576,73.5524156 L230.439795,9.81420976 L226.760289,4.15628523" id="front-tongs" stroke="#AAC4E4" stroke-width="4" stroke-linecap="round" fill-rule="nonzero" transform="translate(179.846599, 66.747075) rotate(4.000000) translate(-179.846599, -66.747075) "></path>
                <g id="fire" transform="translate(189.000000, 232.000000)" fill="#F2F2F2" fill-rule="nonzero">
                    <path d="M25.7058824,33.7620557 C25.7058824,35.6840806 25.6325374,37.5768856 25.5158522,39.3138507 C25.0869302,45.9468532 19.9364951,51.3760334 13.1805586,52.3167387 C11.5222572,52.5739103 9.82485777,52.4414474 8.22977193,51.9303858 C7.55231961,51.6994752 6.9089397,51.3829246 6.3161345,50.9888533 C-0.871674361,46.213011 -2.48526411,41.3202888 4.40916481,27.1128885 C11.3035937,12.9054882 4.89924268,6.65890723 4.89924268,6.65890723 C10.56681,6.24008762 11.0002122,24.7882773 11.0002122,24.7882773 C12.4671119,24.4895842 13.6873058,19.3793356 13.6873058,19.3793356 C15.0208511,19.7949085 12.8605078,28.1128609 12.8605078,28.1128609 C12.8605078,28.1128609 16.5544281,27.9375411 15.3975776,14.5028467 C14.2407271,1.06815235 18.3280433,0 18.3280433,0 C14.9708431,7.84718615 18.4480624,13.7301408 23.1488093,20.6844944 C25.1224563,23.6194784 25.6958808,28.7719336 25.7058824,33.7620557 Z" id="Shape"></path>
                    <path d="M33.8786287,7.66870753 C33.8786287,7.66870753 24.4745921,6.41787475 27.2528372,23.4292006 C30.0310823,40.4405264 27.1236165,41.5549047 27.1236165,41.5549047 C27.1236165,41.5549047 26.8845582,28.7086896 19.3703744,25.7944117 C19.3703744,25.7944117 23.9706314,34.6119705 12.6896642,45.9052037 C1.40869696,57.1984368 19.1862349,58.4232782 19.1862349,58.4232782 C19.1862349,58.4232782 27.8892492,61.7176794 34.392281,52.5589843 L34.586112,52.2860753 C38.6425166,46.5105175 39.1210062,38.9304431 35.8234002,32.6853632 C33.0580772,27.4643546 31.0616174,20.9047926 30.9776239,19.4362824 C30.803176,16.2750869 29.1459205,8.31849079 33.8786287,7.66870753 Z" id="Shape"></path>
                </g>
                <g id="fire" transform="translate(188.000000, 233.000000)" fill="#FFC950" fill-rule="nonzero">
                    <path d="M25.7058824,33.7620557 C25.7058824,35.6840806 25.6325374,37.5768856 25.5158522,39.3138507 C25.0869302,45.9468532 19.9364951,51.3760334 13.1805586,52.3167387 C11.5222572,52.5739103 9.82485777,52.4414474 8.22977193,51.9303858 C7.55231961,51.6994752 6.9089397,51.3829246 6.3161345,50.9888533 C-0.871674361,46.213011 -2.48526411,41.3202888 4.40916481,27.1128885 C11.3035937,12.9054882 4.89924268,6.65890723 4.89924268,6.65890723 C10.56681,6.24008762 11.0002122,24.7882773 11.0002122,24.7882773 C12.4671119,24.4895842 13.6873058,19.3793356 13.6873058,19.3793356 C15.0208511,19.7949085 12.8605078,28.1128609 12.8605078,28.1128609 C12.8605078,28.1128609 16.5544281,27.9375411 15.3975776,14.5028467 C14.2407271,1.06815235 18.3280433,0 18.3280433,0 C14.9708431,7.84718615 18.4480624,13.7301408 23.1488093,20.6844944 C25.1224563,23.6194784 25.6958808,28.7719336 25.7058824,33.7620557 Z" id="Shape"></path>
                    <path d="M33.8786287,7.66870753 C33.8786287,7.66870753 24.4745921,6.41787475 27.2528372,23.4292006 C30.0310823,40.4405264 27.1236165,41.5549047 27.1236165,41.5549047 C27.1236165,41.5549047 26.8845582,28.7086896 19.3703744,25.7944117 C19.3703744,25.7944117 23.9706314,34.6119705 12.6896642,45.9052037 C1.40869696,57.1984368 19.1862349,58.4232782 19.1862349,58.4232782 C19.1862349,58.4232782 27.8892492,61.7176794 34.392281,52.5589843 L34.586112,52.2860753 C38.6425166,46.5105175 39.1210062,38.9304431 35.8234002,32.6853632 C33.0580772,27.4643546 31.0616174,20.9047926 30.9776239,19.4362824 C30.803176,16.2750869 29.1459205,8.31849079 33.8786287,7.66870753 Z" id="Shape"></path>
                </g>
                <path d="M199.245283,311.188679 L199.245283,301 L220.754717,301 L220.754717,311.188679 L237,311.188679 C238.656854,311.188679 240,312.531825 240,314.188679 L240,358 C240,359.656854 238.656854,361 237,361 L183,361 C181.343146,361 180,359.656854 180,358 L180,314.188679 C180,312.531825 181.343146,311.188679 183,311.188679 L199.245283,311.188679 Z" id="Combined-Shape" fill="#CACACA" fill-rule="nonzero" opacity="0.311495536"></path>
                <path d="M196.245283,309.188679 L196.245283,299 L217.754717,299 L217.754717,309.188679 L234,309.188679 C235.656854,309.188679 237,310.531825 237,312.188679 L237,356 C237,357.656854 235.656854,359 234,359 L180,359 C178.343146,359 177,357.656854 177,356 L177,312.188679 C177,310.531825 178.343146,309.188679 180,309.188679 L196.245283,309.188679 Z" id="Combined-Shape" fill="#AAC4E4" fill-rule="nonzero"></path>
                <polyline id="Line-4" stroke="#FDFDFD" stroke-width="1.25" stroke-linecap="round" stroke-linejoin="round" fill-rule="nonzero" transform="translate(188.685854, 214.194046) rotate(-11.000000) translate(-188.685854, -214.194046) " points="197.371708 208 196.619804 211.465393 190.753796 209.339138 189.776404 215.926743 183.910396 213.800488 182.933004 220.388093 180 219.324965 180 219.324965"></polyline>
                <g id="steam" transform="translate(104.761232, 60.232778) rotate(40.000000) translate(-104.761232, -60.232778) translate(72.761232, 28.732778)" fill-rule="nonzero" stroke="#999999" stroke-linecap="round" stroke-linejoin="round" stroke-width="0.75">
                    <path d="M16.9562797,43.5606956 L60.5697388,62.5664378" id="Line-5"></path>
                    <path d="M27.5330667,28.7365275 L61.1714435,60.8668373" id="Line-2"></path>
                    <path d="M42.5347756,14.4009459 L62.7665656,60.6702231" id="Line-6"></path>
                    <g id="sh" transform="translate(0.018642, 0.064602)">
                        <path d="M6.49488093,26.080036 C2.67251428,27.5772201 0,31.0063395 0,34.9971684 C0,37.3989019 0.967928819,39.5971959 2.57190074,41.2933903" id="Oval-3"></path>
                        <path d="M18.4021626,16.0807856 C17.1443285,15.5237801 15.7457004,15.2133543 14.2722055,15.2133543 C8.78123317,15.2133543 4.32992062,19.5241652 4.32992062,24.84182 C4.32992062,25.6434338 4.4310735,26.4221679 4.62169235,27.1667041" id="Oval-3"></path>
                        <path d="M27.0620039,10.8666817 C24.3106273,11.00922 21.8489839,12.0488284 20.0884543,13.6407534 C18.3701102,15.194533 17.3196825,17.2744774 17.3196825,19.560027" id="Oval-3"></path>
                        <path d="M40.0517657,2.18273941 C38.5920939,1.48403831 36.9158454,1.08666817 35.1331597,1.08666817 C29.4799088,1.08666817 24.8970436,5.08282177 24.8970436,10.0123271 C24.8970436,10.3005057 24.9127058,10.5854945 24.9433285,10.8666817" id="Oval-3"></path>
                        <path d="M1.09873748,39.120054 C0.394518642,40.3392993 0.000372704381,42.0263677 0.000372704381,43.4667266 C0.000372704381,44.8240065 -0.0519364382,45.8231622 1.08285286,46.7267311 C2.67331662,47.9931281 4.33029333,47.8133993 6.49525364,47.8133993" id="Oval-3"></path>
                        <path d="M3.37986457,47.8133993 C3.2931625,48.188526 3.24744047,48.5784591 3.24744047,48.9786454 C3.24744047,51.9359993 5.7443782,54.3334083 8.82450699,54.3334083 C10.4807193,54.3334083 11.9683131,53.6402437 12.9897619,52.5395815" id="Oval-4"></path>
                        <path d="M49.9465639,10.8666817 C50.5400936,9.83043376 50.8765673,8.64683772 50.8765673,7.38995469 C50.8765673,3.30859541 47.3286697,0 42.9521161,0 C41.0258813,0 39.2601661,0.640910877 37.8868054,1.70653478" id="Oval-4"></path>
                    </g>
                </g>
                <g id="steam" opacity="0.209453" transform="translate(104.761232, 61.232778) rotate(40.000000) translate(-104.761232, -61.232778) translate(72.761232, 29.732778)" fill-rule="nonzero" stroke="#999999" stroke-linecap="round" stroke-linejoin="round" stroke-width="2.75">
                    <path d="M16.9562797,43.5606956 L60.5697388,62.5664378" id="Line-5"></path>
                    <path d="M27.5330667,28.7365275 L61.1714435,60.8668373" id="Line-2"></path>
                    <path d="M42.5347756,14.4009459 L62.7665656,60.6702231" id="Line-6"></path>
                    <g id="sh" transform="translate(0.018642, 0.064602)">
                        <path d="M6.49488093,26.080036 C2.67251428,27.5772201 0,31.0063395 0,34.9971684 C0,37.3989019 0.967928819,39.5971959 2.57190074,41.2933903" id="Oval-3"></path>
                        <path d="M18.4021626,16.0807856 C17.1443285,15.5237801 15.7457004,15.2133543 14.2722055,15.2133543 C8.78123317,15.2133543 4.32992062,19.5241652 4.32992062,24.84182 C4.32992062,25.6434338 4.4310735,26.4221679 4.62169235,27.1667041" id="Oval-3"></path>
                        <path d="M27.0620039,10.8666817 C24.3106273,11.00922 21.8489839,12.0488284 20.0884543,13.6407534 C18.3701102,15.194533 17.3196825,17.2744774 17.3196825,19.560027" id="Oval-3"></path>
                        <path d="M40.0517657,2.18273941 C38.5920939,1.48403831 36.9158454,1.08666817 35.1331597,1.08666817 C29.4799088,1.08666817 24.8970436,5.08282177 24.8970436,10.0123271 C24.8970436,10.3005057 24.9127058,10.5854945 24.9433285,10.8666817" id="Oval-3"></path>
                        <path d="M1.09873748,39.120054 C0.394518642,40.3392993 0.000372704381,42.0263677 0.000372704381,43.4667266 C0.000372704381,44.8240065 -0.0519364382,45.8231622 1.08285286,46.7267311 C2.67331662,47.9931281 4.33029333,47.8133993 6.49525364,47.8133993" id="Oval-3"></path>
                        <path d="M3.37986457,47.8133993 C3.2931625,48.188526 3.24744047,48.5784591 3.24744047,48.9786454 C3.24744047,51.9359993 5.7443782,54.3334083 8.82450699,54.3334083 C10.4807193,54.3334083 11.9683131,53.6402437 12.9897619,52.5395815" id="Oval-4"></path>
                        <path d="M49.9465639,10.8666817 C50.5400936,9.83043376 50.8765673,8.64683772 50.8765673,7.38995469 C50.8765673,3.30859541 47.3286697,0 42.9521161,0 C41.0258813,0 39.2601661,0.640910877 37.8868054,1.70653478" id="Oval-4"></path>
                    </g>
                </g>
                <g id="steam" transform="translate(44.862313, 106.000000) rotate(-29.000000) translate(-44.862313, -106.000000) translate(11.906941, 72.917127)" fill-rule="nonzero" stroke="#999999" stroke-linecap="round" stroke-linejoin="round" stroke-width="0.75">
                    <path d="M16.8910463,44.7057644 L62.0320394,65.1152732" id="Line-5"></path>
                    <path d="M28.5330667,29.7365275 L62.6202793,62.9114386" id="Line-2"></path>
                    <path d="M42.1797021,16.077113 L64.413845,62.8033668" id="Line-6"></path>
                    <g id="sh" transform="translate(1.018642, 1.064602)">
                        <path d="M6.49488093,26.080036 C2.67251428,27.5772201 0,31.0063395 0,34.9971684 C0,37.3989019 0.967928819,39.5971959 2.57190074,41.2933903" id="Oval-3"></path>
                        <path d="M18.4021626,16.0807856 C17.1443285,15.5237801 15.7457004,15.2133543 14.2722055,15.2133543 C8.78123317,15.2133543 4.32992062,19.5241652 4.32992062,24.84182 C4.32992062,25.6434338 4.4310735,26.4221679 4.62169235,27.1667041" id="Oval-3"></path>
                        <path d="M27.0620039,10.8666817 C24.3106273,11.00922 21.8489839,12.0488284 20.0884543,13.6407534 C18.3701102,15.194533 17.3196825,17.2744774 17.3196825,19.560027" id="Oval-3"></path>
                        <path d="M40.0517657,2.18273941 C38.5920939,1.48403831 36.9158454,1.08666817 35.1331597,1.08666817 C29.4799088,1.08666817 24.8970436,5.08282177 24.8970436,10.0123271 C24.8970436,10.3005057 24.9127058,10.5854945 24.9433285,10.8666817" id="Oval-3"></path>
                        <path d="M1.09873748,39.120054 C0.394518642,40.3392993 0.000372704381,42.0263677 0.000372704381,43.4667266 C0.000372704381,44.8240065 -0.0519364382,45.8231622 1.08285286,46.7267311 C2.67331662,47.9931281 4.33029333,47.8133993 6.49525364,47.8133993" id="Oval-3"></path>
                        <path d="M3.37986457,47.8133993 C3.2931625,48.188526 3.24744047,48.5784591 3.24744047,48.9786454 C3.24744047,51.9359993 5.7443782,54.3334083 8.82450699,54.3334083 C10.4807193,54.3334083 11.9683131,53.6402437 12.9897619,52.5395815" id="Oval-4"></path>
                        <path d="M49.9465639,10.8666817 C50.5400936,9.83043376 50.8765673,8.64683772 50.8765673,7.38995469 C50.8765673,3.30859541 47.3286697,0 42.9521161,0 C41.0258813,0 39.2601661,0.640910877 37.8868054,1.70653478" id="Oval-4"></path>
                    </g>
                </g>
                <g id="steam" opacity="0.205412946" transform="translate(45.501738, 105.589724) rotate(-29.000000) translate(-45.501738, -105.589724) translate(13.501738, 73.589724)" fill-rule="nonzero" stroke="#999999" stroke-linecap="round" stroke-linejoin="round" stroke-width="2.75">
                    <path d="M16.5999319,43.2606108 L61.7409251,63.6701196" id="Line-5"></path>
                    <path d="M28,28 L62.0872126,61.1749111" id="Line-2"></path>
                    <path d="M41.0780576,14.7148746 L63.3122006,61.4411284" id="Line-6"></path>
                    <g id="sh">
                        <path d="M6.75369998,26.1141102 C2.93133332,27.6112943 0.258819045,31.0404137 0.258819045,35.0312426 C0.258819045,37.4329761 1.22674786,39.63127 2.83071979,41.3274645" id="Oval-3"></path>
                        <path d="M18.6609817,16.1148598 C17.4031475,15.5578543 16.0045195,15.2474285 14.5310245,15.2474285 C9.04005221,15.2474285 4.58873967,19.5582394 4.58873967,24.8758941 C4.58873967,25.677508 4.68989255,26.4562421 4.88051139,27.2007783" id="Oval-3"></path>
                        <path d="M27.3208229,10.9007558 C24.5694463,11.0432942 22.1078029,12.0829026 20.3472733,13.6748276 C18.6289292,15.2286072 17.5785015,17.3085516 17.5785015,19.5941012" id="Oval-3"></path>
                        <path d="M40.3105848,2.21681359 C38.850913,1.51811249 37.1746644,1.12074234 35.3919787,1.12074234 C29.7387279,1.12074234 25.1558626,5.11689594 25.1558626,10.0464012 C25.1558626,10.3345799 25.1715249,10.6195687 25.2021476,10.9007558" id="Oval-3"></path>
                        <path d="M1.35755652,39.1541281 C0.653337687,40.3733734 0.259191749,42.0604418 0.259191749,43.5008008 C0.259191749,44.8580807 0.206882607,45.8572363 1.3416719,46.7608053 C2.93213566,48.0272022 4.58911237,47.8474735 6.75407268,47.8474735" id="Oval-3"></path>
                        <path d="M3.63868362,47.8474735 C3.55198155,48.2226002 3.50625951,48.6125332 3.50625951,49.0127195 C3.50625951,51.9700734 6.00319725,54.3674825 9.08332604,54.3674825 C10.7395383,54.3674825 12.2271322,53.6743178 13.2485809,52.5736557" id="Oval-4"></path>
                        <path d="M50.205383,10.9007558 C50.7989126,9.86450794 51.1353863,8.68091189 51.1353863,7.42402886 C51.1353863,3.34266959 47.5874887,0.0340741737 43.2109352,0.0340741737 C41.2847003,0.0340741737 39.5189851,0.67498505 38.1456245,1.74060895" id="Oval-4"></path>
                    </g>
                </g>
            </g>
        </g>
    </g>
</svg>