<?xml version="1.0" encoding="UTF-8"?>
<svg width="325px" height="302px" viewBox="0 0 325 302" version="1.1" xmlns="http://www.w3.org/2000/svg" xmlns:xlink="http://www.w3.org/1999/xlink">
    <!-- Generator: Sketch 50.2 (55047) - http://www.bohemiancoding.com/sketch -->
    <title>ghost-sample</title>
    <desc>Created with Sketch.</desc>
    <defs>
        <path d="M50.2023645,3.45990919 L45.7572241,8.38820852 C45.2600906,8.93937727 44.9849315,9.65527107 44.9849315,10.3975168 L44.9849315,187.97037 C44.9849315,200.882027 35.633146,208 23.288789,208 C10.9444321,208 5.33336072,200.082731 5.33336072,187.171074 L5.33336072,10.3171405 C5.33336072,9.62351369 5.09300664,8.95131748 4.65320302,8.41494921 L0.531684976,3.3884979 C-0.168682517,2.53435554 -0.0440233649,1.27417633 0.810118985,0.573808836 C1.16769783,0.28060642 1.61582864,0.12037037 2.07824651,0.12037037 L48.7172262,0.12037037 C49.8217957,0.12037037 50.7172262,1.01580087 50.7172262,2.12037037 C50.7172262,2.61520083 50.5337868,3.09246336 50.2023645,3.45990919 Z" id="path-1"></path>
        <mask id="mask-2" maskContentUnits="userSpaceOnUse" maskUnits="objectBoundingBox" x="-3" y="-3" width="56.6390387" height="213.87963">
            <rect x="-2.92181249" y="-2.87962963" width="56.6390387" height="213.87963" fill="white"></rect>
            <use xlink:href="#path-1" fill="black"></use>
        </mask>
        <linearGradient x1="50.0748148%" y1="100.108673%" x2="50.0748148%" y2="-0.00135473328%" id="linearGradient-3">
            <stop stop-color="#808080" stop-opacity="0.25" offset="0%"></stop>
            <stop stop-color="#808080" stop-opacity="0.12" offset="54%"></stop>
            <stop stop-color="#808080" stop-opacity="0.1" offset="100%"></stop>
        </linearGradient>
        <linearGradient x1="50.0072835%" y1="99.9864746%" x2="50.0072835%" y2="-0.000567339517%" id="linearGradient-4">
            <stop stop-color="#808080" stop-opacity="0.25" offset="0%"></stop>
            <stop stop-color="#808080" stop-opacity="0.12" offset="54%"></stop>
            <stop stop-color="#808080" stop-opacity="0.1" offset="100%"></stop>
        </linearGradient>
    </defs>
    <g id="Empty-States" stroke="none" stroke-width="1" fill="none" fill-rule="evenodd" opacity="0.699665179">
        <g id="no-search-results" transform="translate(-731.000000, -354.000000)">
            <g id="ghost-sample" transform="translate(731.000000, 354.000000)">
                <path d="M97.9498796,302 C148.821283,302 234.246976,301.707242 278.691794,288.166682 C326.142458,273.710361 324.997574,240.299545 324.997574,231.296375 C324.997574,213.860355 271.84497,244.361175 166.661682,244.361175 C113.206174,244.361175 75.0308243,220.037328 40.4410887,225.916751 C6.96932308,231.606146 0.110248263,254.925191 0.110248263,263.5 C0.110248263,280.936019 -7.23340865,302 97.9498796,302 Z" id="Oval" fill="#4A4A4A" fill-rule="nonzero" opacity="0.1"></path>
                <g id="Sample-Badge" transform="translate(141.000000, 54.000000)" fill="#FDFDFD" stroke="#80A6D6" stroke-dasharray="18,8" stroke-width="6">
                    <use id="Rectangle-2" mask="url(#mask-2)" xlink:href="#path-1"></use>
                </g>
                <path d="M165.934422,25.5737418 L162,0 L170.857215,0 L166.922794,25.5737418 C166.880804,25.8466731 166.62551,26.0338885 166.352579,25.9918991 C166.13687,25.9587131 165.967608,25.789451 165.934422,25.5737418 Z" id="Triangle" fill="#CACACA"></path>
                <path d="M205.54905,12.3658917 L209.483472,37.9396336 L200.626256,37.9396336 L204.560678,12.3658917 C204.602667,12.0929604 204.857961,11.9057451 205.130893,11.9477345 C205.346602,11.9809205 205.515864,12.1501826 205.54905,12.3658917 Z" id="Triangle" fill="#CACACA" transform="translate(205.054864, 23.546659) rotate(223.000000) translate(-205.054864, -23.546659) "></path>
                <path d="M221.112275,40.0282209 L225.046697,65.6019627 L216.189481,65.6019627 L220.123903,40.0282209 C220.165893,39.7552896 220.421186,39.5680742 220.694118,39.6100636 C220.909827,39.6432496 221.079089,39.8125117 221.112275,40.0282209 Z" id="Triangle" fill="#CACACA" transform="translate(220.618089, 51.208988) rotate(239.000000) translate(-220.618089, -51.208988) "></path>
                <path d="M131.54905,12.3658917 L135.483472,37.9396336 L126.626256,37.9396336 L130.560678,12.3658917 C130.602667,12.0929604 130.857961,11.9057451 131.130893,11.9477345 C131.346602,11.9809205 131.515864,12.1501826 131.54905,12.3658917 Z" id="Triangle" fill="#CACACA" transform="translate(131.054864, 23.546659) scale(-1, 1) rotate(223.000000) translate(-131.054864, -23.546659) "></path>
                <path d="M112.112275,40.0282209 L116.046697,65.6019627 L107.189481,65.6019627 L111.123903,40.0282209 C111.165893,39.7552896 111.421186,39.5680742 111.694118,39.6100636 C111.909827,39.6432496 112.079089,39.8125117 112.112275,40.0282209 Z" id="Triangle" fill="#CACACA" transform="translate(111.618089, 51.208988) scale(-1, 1) rotate(239.000000) translate(-111.618089, -51.208988) "></path>
                <g id="right-man" transform="translate(204.000000, 84.000000)" fill-rule="nonzero">
                    <path d="M70.3481495,41.9340901 C69.4452005,39.1792934 68.1409409,35.688066 67.1114918,34.8652637 C67.0696378,34.8301276 66.959132,34.7861842 66.7799743,34.7334335 L66.7799743,31.3285775 L64.3459379,31.7331598 C63.9591058,30.5032574 63.6673692,29.2430573 63.4735234,27.9646344 C63.9528342,28.46494 64.6739085,28.6155901 65.3012317,28.3464874 C64.9178883,27.3785391 64.71508,26.583223 64.7123519,25.7735255 C64.7317759,25.033961 64.8447095,24.300296 65.0482315,23.5915083 C65.4844388,22.0231834 66.221629,20.5594136 66.6316638,18.981997 C66.8933713,17.9670768 67.0167189,16.9188239 66.9980779,15.8680767 C67.0115526,14.0868341 66.6230577,12.3272322 65.8639391,10.7312446 C65.6719588,10.2703376 65.3719785,9.8670577 64.9915246,9.55841037 C64.648964,9.36035132 64.2965987,9.18129744 63.935903,9.02199782 C63.3308516,8.59739429 62.8096094,8.0557326 62.4004535,7.42639776 C60.6713833,5.23176753 58.3562726,3.62121923 55.7482931,2.79870302 C55.0684303,2.53411123 54.331159,2.4727073 53.6196017,2.62141412 C51.9838245,3.07600103 51.3905827,5.18983017 50.0645127,6.29902223 C48.8954772,7.27638408 47.2902346,7.3763932 45.8202162,7.70369578 C44.3501978,8.03099835 42.8714552,8.68105764 41.8681785,9.8629836 C41.1769205,10.6867559 40.7997538,11.746235 40.8081949,12.8405279 C40.7263255,13.8800236 41.1691432,14.8890717 41.9772303,15.5044072 C42.8941296,16.1307158 44.0315619,16.2974329 45.0786639,15.9589941 C44.2613873,18.9005344 44.6586722,22.064032 46.1748024,24.6873189 C47.6909326,27.3106058 50.1884428,29.1558324 53.0656185,29.7784361 L53.3491532,30.3103028 C54.2257932,32.0111445 54.8912613,33.8212913 55.3295341,35.6971577 C53.0874289,37.0200056 50.6403062,38.2610279 49.1615637,38.3792205 C49.1019674,38.9815752 48.993991,39.5776586 48.8387703,40.1612012 C48.4929471,41.6246496 47.828788,42.9856062 46.8976481,44.1388366 C44.8867327,46.4935968 35.8441565,64.2952202 35.8441565,64.2952202 C35.8441565,64.2952202 35.5606218,65.0043758 35.09388,66.213577 C29.4798928,66.9318243 20.3151786,67.9682825 17.7590041,67.4364158 L7.72623749,57.4900542 C7.72623749,57.4900542 4.48085558,60.0721078 4.76439029,63.2087575 L2.98030266,61.4176851 C2.98030266,61.4176851 -6.56391185,69.0092865 8.50704845,73.9824673 L31.4384633,76.7554474 C29.2574271,83.6242556 27.2159772,91.6204394 27.8484777,95.9708361 C28.4741621,95.9704844 28.9116219,95.9355326 29.3446685,95.8662811 L29.3054099,96.6390789 L27.085115,137.865566 C27.085115,137.865566 26.5834767,145.457167 33.3664993,148.857477 C33.3664993,148.857477 41.654437,174.246156 38.3916068,177.128237 C38.3916068,177.128237 38.7798312,177.341893 39.4341421,177.637375 L32.6162229,183.933403 C32.6162229,183.933403 27.5911154,185.242614 24.8299236,184.978953 C23.8253036,184.835287 22.877273,185.500459 22.627077,186.524549 C22.6009045,187.010957 22.6009045,187.083691 22.6009045,187.133695 C22.6309544,187.36806 22.667305,187.543833 22.7099563,187.661016 C22.8190082,187.938314 22.8539047,187.992864 22.8888013,188.051961 C22.9362994,188.125705 23.0046386,188.218137 23.0938187,188.329259 C23.1287153,188.371687 23.2552154,188.495941 23.473319,188.70202 C23.5823708,188.792937 23.6608881,188.847488 23.7394054,188.902038 C23.8746297,188.992956 23.9618711,189.047506 24.0534747,189.097511 L24.376268,189.242978 L24.7470442,189.379354 L25.1788893,189.529368 L25.636907,189.638469 L26.1036487,189.729386 L26.661994,189.80212 L27.2857703,189.856671 C28.3195815,189.938496 29.7110826,189.970317 31.3206874,189.961226 C31.3657621,190.521883 31.3846644,190.582494 31.4079288,190.643106 C31.538791,190.974954 31.5736876,191.029505 31.6085841,191.088601 C31.6560823,191.162345 31.7244214,191.254778 31.8136015,191.365899 C31.8484981,191.408327 31.9749982,191.532581 32.1931018,191.73866 C32.3021537,191.829578 32.380671,191.884128 32.4591883,191.938679 C32.5987746,192.029596 32.686016,192.084147 32.7776196,192.134151 L33.1004129,192.279619 L33.4711891,192.415995 L33.9030342,192.566009 L34.3610519,192.67511 L34.8277936,192.766027 L35.3861389,192.838761 L36.0099152,192.893311 C42.5530239,193.416086 63.3862819,191.847761 63.3862819,191.847761 C63.5912993,190.697656 64.594576,184.80621 61.0351249,180.451268 C61.1398146,180.337621 61.2445043,180.214882 61.3404699,180.087598 C61.3404699,180.087598 58.5792781,175.114417 60.0841931,173.541546 C61.5891081,171.968676 52.550894,144.748012 52.550894,144.748012 C52.550894,144.748012 47.7787867,136.897296 50.5399786,127.996484 C53.3011704,119.095672 50.2869784,109.412971 50.2869784,109.412971 C50.2869784,109.412971 56.8737078,107.371876 57.008932,98.9211052 C57.008932,98.6665365 57.008932,98.4028761 57.008932,98.1346698 C57.1533729,98.1561895 57.2992655,98.1653119 57.4451392,98.161945 C57.5380773,98.1688965 57.6313739,98.1688965 57.7243119,98.161945 C57.7243119,98.161945 56.468035,93.4524246 57.9773121,90.0475687 C59.4865892,86.6427127 62.7494193,89.7839083 65.7636114,75.9144616 C67.9446476,65.8771827 69.8639595,54.3306752 70.7581844,48.7119809 C71.1448502,46.451096 71.0042195,44.1264659 70.3481495,41.9340901 Z M13.0261555,70.3822302 L10.7360675,68.1092956 C11.4950681,68.4365982 12.3369481,68.7593549 13.2791557,69.068474 L21.9160592,70.1140239 C18.0599871,70.4776934 14.4787256,70.6822575 13.0261555,70.3822302 Z" id="Shape" fill="url(#linearGradient-3)"></path>
                    <path d="M35.226826,68.7514502 C35.226826,68.7514502 17.3564386,71.2771084 13.6314303,70.5363677 L3.68491222,60.9156627 C3.68491222,60.9156627 -5.7482655,68.2382865 9.14738025,73.0307898 L36.9642857,76.3373494 L35.226826,68.7514502 Z" id="Shape" fill="#FDC2CC"></path>
                    <path d="M35.226826,68.7514502 C35.226826,68.7514502 17.3564386,71.2771084 13.6314303,70.5363677 L3.68491222,60.9156627 C3.68491222,60.9156627 -5.7482655,68.2382865 9.14738025,73.0307898 L36.9642857,76.3373494 L35.226826,68.7514502 Z" id="Shape" fill="#000000" opacity="0.05"></path>
                    <path d="M41.3549907,173.493976 L32.7450308,181.40307 C32.7450308,181.40307 27.8269173,182.679166 25.1178239,182.422143 C22.4087304,182.16512 21.1824634,186.75997 27.5790549,187.269507 C33.9756463,187.779044 54.3916877,186.250433 54.3916877,186.250433 C54.3916877,186.250433 56.3615421,178.088826 50.4563272,173.493976 L41.3549907,173.493976 Z" id="Shape" fill="#334153"></path>
                    <path d="M41.3549907,173.493976 L32.7450308,181.40307 C32.7450308,181.40307 27.8269173,182.679166 25.1178239,182.422143 C22.4087304,182.16512 21.1824634,186.75997 27.5790549,187.269507 C33.9756463,187.779044 54.3916877,186.250433 54.3916877,186.250433 C54.3916877,186.250433 56.3615421,178.088826 50.4563272,173.493976 L41.3549907,173.493976 Z" id="Shape" fill="#334153" opacity="0.05"></path>
                    <path d="M54.7006968,182.746988 C54.6861215,183.671237 54.5826928,184.59172 54.3919282,185.494934 C54.3919282,185.494934 33.9523124,187.014597 27.5768918,186.508042 C24.5022517,186.265972 23.1932465,185.082518 22.9584084,183.948374 C22.6800817,185.248381 23.7933884,186.969769 27.5768918,187.270116 C33.9740566,187.77667 54.3919282,186.257007 54.3919282,186.257007 C54.6314663,185.104065 54.7351388,183.925538 54.7006968,182.746988 Z" id="Shape" fill="#FFFFFF" opacity="0.3"></path>
                    <path d="M51.0107143,27.3471581 C51.0107143,27.3471581 56.5308543,35.4294721 54.5223214,40.9036961 C52.5137886,46.3779201 65.0571429,35.1668199 65.0571429,35.1668199 C65.0571429,35.1668199 61.044511,27.8678545 63.04861,20.0481928 L51.0107143,27.3471581 Z" id="Shape" fill="#FDC2CC"></path>
                    <path d="M49.487768,176.578313 L40.8782171,184.493043 C40.8782171,184.493043 35.9603373,185.768595 33.2513725,185.511681 C30.5424078,185.254768 29.3118508,189.838641 35.7124866,190.352467 C42.1131224,190.866293 62.5238455,189.333829 62.5238455,189.333829 C62.5238455,189.333829 64.4936064,181.175708 58.588672,176.582821 L49.487768,176.578313 Z" id="Shape" fill="#334153"></path>
                    <path d="M52.4892857,174.940891 C51.2043798,176.602102 49.3924446,177.222774 47.4977527,177.336868 C43.1900511,177.551365 38.4467881,174.940891 38.4467881,174.940891 C41.6481639,172.10223 33.5205893,147.056291 33.5205893,147.056291 C26.8695676,143.701924 27.3617519,136.212787 27.3617519,136.212787 L29.5395587,95.5633377 L30.0840103,85.3541967 L36.983302,80.9638554 L42.4234631,85.3359417 L47.5805094,89.4844035 C47.915744,90.803467 48.1315754,92.1527018 48.2251402,93.5142074 C48.8218592,103.002274 41.6655864,105.233954 41.6655864,105.233954 C41.6655864,105.233954 44.6230479,114.785913 41.9138564,123.562032 C39.2046648,132.338151 43.8869492,140.082859 43.8869492,140.082859 C43.8869492,140.082859 52.7593337,166.931485 51.291492,168.483165 C49.8236503,170.034845 52.4892857,174.940891 52.4892857,174.940891 Z" id="Shape" fill="#8D8B8B"></path>
                    <path d="M52.4892857,174.940891 C51.2043798,176.602102 49.3924446,177.222774 47.4977527,177.336868 C43.1900511,177.551365 38.4467881,174.940891 38.4467881,174.940891 C41.6481639,172.10223 33.5205893,147.056291 33.5205893,147.056291 C26.8695676,143.701924 27.3617519,136.212787 27.3617519,136.212787 L29.5395587,95.5633377 L30.0840103,85.3541967 L36.983302,80.9638554 L42.4234631,85.3359417 L47.5805094,89.4844035 C47.915744,90.803467 48.1315754,92.1527018 48.2251402,93.5142074 C48.8218592,103.002274 41.6655864,105.233954 41.6655864,105.233954 C41.6655864,105.233954 44.6230479,114.785913 41.9138564,123.562032 C39.2046648,132.338151 43.8869492,140.082859 43.8869492,140.082859 C43.8869492,140.082859 52.7593337,166.931485 51.291492,168.483165 C49.8236503,170.034845 52.4892857,174.940891 52.4892857,174.940891 Z" id="Shape" fill="#999999" opacity="0.05"></path>
                    <path d="M60.6214286,177.272176 C56.4667669,182.650744 46.6976975,177.272176 46.6976975,177.272176 C46.8967257,177.08281 47.0455251,176.842589 47.129575,176.574954 C48.9218667,171.468031 41.0832898,147.051687 41.0832898,147.051687 C34.4885202,143.724038 33.7413721,135.782953 33.7413721,135.782953 L32.013862,94.7419448 L31.7892857,89.4267607 L42.0679706,85.3113413 L45.2249952,84.0481928 L55.7325751,92.4872926 C56.1874741,94.232383 56.4141227,96.0341676 56.406304,97.8432235 C56.2767408,106.123864 49.8849536,108.120453 49.8849536,108.120453 C49.8849536,108.120453 52.8174019,117.596331 50.1311237,126.302548 C47.4448456,135.008766 52.0875289,142.691787 52.0875289,142.691787 C52.0875289,142.691787 60.8848739,169.326564 59.4294466,170.865885 C57.9740194,172.405206 60.6214286,177.272176 60.6214286,177.272176 Z" id="Shape" fill="#999999"></path>
                    <path d="M56.9247746,97.9277108 C54.7939744,97.6090125 50.4805661,94.927394 48.2628643,93.4704874 C47.4176106,92.9150418 46.8773453,92.5599208 46.8773453,92.5599208 C46.8773453,92.5599208 44.6596435,86.1222151 38.7428673,91.0165105 C36.8188192,92.6474765 34.6464666,93.9294517 32.3163247,94.8090203 C31.425036,95.1384427 30.5060013,95.3792917 29.5714286,95.5283679 L30.1160508,85.3436807 L37.017504,80.9638554 L42.4593696,85.3254693 L45.6443205,84.055229 L56.244848,92.5326038 C56.7045542,94.2904313 56.9332147,96.1054509 56.9247746,97.9277108 Z" id="Shape" fill="#000000" opacity="0.1"></path>
                    <path d="M70.0595005,48.0085449 C69.1937907,53.5024858 67.3152003,64.7935753 65.1898827,74.6138816 C62.2507979,88.190342 59.0693142,85.1084855 57.5976075,88.4392438 C56.1259008,91.770002 57.3508802,96.3769476 57.3508802,96.3769476 C54.9009214,96.6349003 46.8195202,91.0006693 46.8195202,91.0006693 C46.8195202,91.0006693 44.6162887,84.601631 38.738119,89.4665293 C32.8599493,94.3314275 28.206759,94.0734748 28.206759,94.0734748 C26.9817796,85.624391 36.0414329,63.0965178 36.0414329,63.0965178 C36.0414329,63.0965178 44.8673446,45.6869701 46.8065346,43.3834974 C47.7142235,42.2550407 48.3614395,40.9233935 48.6981105,39.4915787 C48.8483851,38.9209343 48.9526353,38.3381224 49.0097661,37.7492663 C52.1912497,37.4913136 60.0302522,31.8661335 60.0302522,31.8661335 L66.1508206,30.8433735 L66.1508206,34.1696063 C66.2219666,34.2030368 66.2888526,34.2456023 66.3499339,34.2963199 C67.3584858,35.1018566 68.6267507,38.5185991 69.5054462,41.2112637 C70.222259,43.3948493 70.4125702,45.7296359 70.0595005,48.0085449 Z" id="Shape" fill="#CACACA"></path>
                    <path d="M65.2809876,37.8038544 C65.2809876,37.8038544 58.9345578,32.3722814 49.4170703,49.9608853 C39.8995828,67.5494892 37.7035714,64.7011137 37.7035714,64.7011137 C37.7035714,64.7011137 39.6579784,72.4735667 38.6786177,74.0143412 C38.6786177,74.0143412 45.2666519,73.4977017 47.7085821,74.0143412 C50.1505122,74.5309807 65.2809876,54.3546072 65.2809876,54.3546072 C65.2809876,54.3546072 73.0943012,42.9748216 65.2809876,37.8038544 Z" id="Shape" fill="#000000" opacity="0.1"></path>
                    <path d="M64.5446262,37.0270304 C64.5446262,37.0270304 58.1965303,31.6153363 48.6765442,49.1907621 C39.1565581,66.766188 36.9642857,63.9436899 36.9642857,63.9436899 C36.9642857,63.9436899 44.5250362,72.7405519 46.9676075,73.2437526 C49.4101787,73.7469532 64.5446262,53.5731822 64.5446262,53.5731822 C64.5446262,53.5731822 72.3513601,42.2054224 64.5446262,37.0270304 Z" id="Shape" fill="#000000" opacity="0.1"></path>
                    <path d="M38.0074402,72.8583983 C38.1136019,70.9579022 37.3843169,67.6150248 36.9642857,65.8823529 C38.552096,65.6782424 39.5537089,65.5421687 39.5537089,65.5421687 L41.4,73.253012 L38.0074402,72.8583983 Z" id="Shape" fill="#000000" opacity="0.1"></path>
                    <path d="M63.5785714,20.8192771 L51.75,28.2007845 C52.2479733,28.9806508 52.7075128,29.787916 53.1267324,30.619267 C53.8092556,30.768205 54.5040149,30.8432841 55.2005446,30.8433735 C58.3591871,30.8433735 59.831768,27.2903519 61.7356669,24.8998827 C61.613678,22.9949776 63.0514049,22.9482887 63.5785714,20.8192771 Z" id="Shape" fill="#000000" opacity="0.1"></path>
                    <ellipse id="Oval" fill="#FDC2CC" cx="54.7071429" cy="19.2771084" rx="10.35" ry="10.7951807"></ellipse>
                    <path d="M41.715603,10.314037 C42.7677166,9.18774147 44.1347086,8.43875005 45.6201121,8.1747094 C47.0678514,7.8494583 48.6559776,7.74867627 49.8141691,6.80040899 C51.1302957,5.70554966 51.7093915,3.62577504 53.3238402,3.1630939 C54.0261724,3.01570617 54.7539638,3.07599529 55.4252558,3.33717195 C58.0049661,4.14974001 60.29538,5.74417455 62.0058891,7.91817332 C62.4090316,8.54115798 62.9228209,9.0776571 63.5194348,9.4986188 C63.8762218,9.65636857 64.2247528,9.83374931 64.563562,10.030015 C64.9352687,10.3363051 65.2278214,10.7346936 65.4146572,11.1890083 C66.5786863,13.6427183 66.8469332,16.455154 66.1692365,19.1003977 C65.7656243,20.6625192 65.0373676,22.1101156 64.6074328,23.6813991 C64.1774981,25.2526825 64.0678209,26.9980441 64.8574969,28.3860875 C64.0941434,28.7937966 63.1289839,28.2807244 62.6639525,27.5386022 C62.198921,26.79648 62.0409858,25.8802797 61.7865347,25.0236325 C61.2901346,23.3385817 60.3598372,21.8283687 59.0972492,20.6579382 C58.3163474,19.9341399 56.9037047,19.4485538 56.372867,20.3830781 C56.1622867,20.7449772 56.175448,21.2030773 55.9955773,21.5787194 C55.6402231,22.3116797 54.6136443,22.4582717 53.9336456,22.0368196 C53.278237,21.5643446 52.8176387,20.8510886 52.6438414,20.039503 C51.6216497,16.4296739 49.8799754,14.1574972 46.1816595,15.7012947 C44.8041135,16.2785008 43.1808907,16.667886 41.8559898,15.6783897 C40.1099284,14.3728043 40.4652826,11.7891195 41.715603,10.314037 Z" id="Shape" fill="#000000" opacity="0.1" transform="translate(53.598214, 15.807229) rotate(15.000000) translate(-53.598214, -15.807229) "></path>
                    <path d="M41.715603,10.314037 C42.7677166,9.18774147 44.1347086,8.43875005 45.6201121,8.1747094 C47.0678514,7.8494583 48.6559776,7.74867627 49.8141691,6.80040899 C51.1302957,5.70554966 51.7093915,3.62577504 53.3238402,3.1630939 C54.0261724,3.01570617 54.7539638,3.07599529 55.4252558,3.33717195 C58.0049661,4.14974001 60.29538,5.74417455 62.0058891,7.91817332 C62.4090316,8.54115798 62.9228209,9.0776571 63.5194348,9.4986188 C63.8762218,9.65636857 64.2247528,9.83374931 64.563562,10.030015 C64.9352687,10.3363051 65.2278214,10.7346936 65.4146572,11.1890083 C66.5786863,13.6427183 66.8469332,16.455154 66.1692365,19.1003977 C65.7656243,20.6625192 65.0373676,22.1101156 64.6074328,23.6813991 C64.1774981,25.2526825 64.0678209,26.9980441 64.8574969,28.3860875 C64.0941434,28.7937966 63.1289839,28.2807244 62.6639525,27.5386022 C62.198921,26.79648 62.0409858,25.8802797 61.7865347,25.0236325 C61.2901346,23.3385817 60.3598372,21.8283687 59.0972492,20.6579382 C58.3163474,19.9341399 56.9037047,19.4485538 56.372867,20.3830781 C56.1622867,20.7449772 56.175448,21.2030773 55.9955773,21.5787194 C55.6402231,22.3116797 54.6136443,22.4582717 53.9336456,22.0368196 C53.278237,21.5643446 52.8176387,20.8510886 52.6438414,20.039503 C51.6216497,16.4296739 49.8799754,14.1574972 46.1816595,15.7012947 C44.8041135,16.2785008 43.1808907,16.667886 41.8559898,15.6783897 C40.1099284,14.3773853 40.4652826,11.7982815 41.715603,10.314037 Z" id="Shape" fill="#4A4A4A" transform="translate(53.598214, 15.807229) rotate(15.000000) translate(-53.598214, -15.807229) "></path>
                    <path d="M66.5357143,34.2254922 L61.5334378,34.2254922 C61.5334378,34.2254922 51.6898277,39.2454086 51.4462386,38.996854 C51.280946,38.8281919 49.758514,39.1166928 48.7928571,39.3253012 C48.9438696,38.7656284 49.0486319,38.1940222 49.1060431,37.6164879 C52.3031503,37.3634948 60.1806483,31.8464691 60.1806483,31.8464691 L66.3312734,30.8433735 L66.3312734,34.1056534 C66.4040611,34.136724 66.4727437,34.1769843 66.5357143,34.2254922 Z" id="Shape" fill="#000000" opacity="0.05"></path>
                    <path d="M62.8328397,185.831325 C62.8182643,186.755574 62.7148357,187.676057 62.524071,188.579271 C62.524071,188.579271 42.0844552,190.098934 35.7090346,189.59238 C32.6343945,189.35031 31.3253894,188.166855 31.0905512,187.032711 C30.8122245,188.332718 31.9255313,190.054106 35.7090346,190.354453 C42.1061995,190.861007 62.524071,189.341344 62.524071,189.341344 C62.7636092,188.188403 62.8672816,187.009875 62.8328397,185.831325 Z" id="Shape" fill="#FFFFFF" opacity="0.3"></path>
                    <g id="Group" opacity="0.05" transform="translate(28.092857, 33.927711)" fill="#000000">
                        <path d="M8.24756195,55.7096784 C4.90915889,58.4389841 1.9557879,59.5807437 0.0175014577,60.035628 C0.0175014577,60.2266794 0.0525043732,60.4177308 0.0787565598,60.5996845 C0.0787565598,60.5996845 4.78227332,60.8589685 10.7240182,55.9689625 C11.6442326,55.14902 12.7320678,54.5578683 13.9049082,54.2404022 C12.6229264,53.5990153 10.7590211,53.6399549 8.24756195,55.7096784 Z" id="Shape"></path>
                        <path d="M41.8372347,7.46010228 C40.9621618,4.73079657 39.6495525,1.31916443 38.647594,0.5094704 C38.5858521,0.458491053 38.5182427,0.415705813 38.4463273,0.3821028 C38.4463273,0.3821028 36.3986567,0.454884285 36.4642872,0.5094704 C37.4837471,1.31916443 38.4725794,4.49425674 39.3607784,7.20081824 C40.0765619,9.39474833 40.2613989,11.7382317 39.8989483,14.0240825 C39.0238754,19.5463777 37.1249672,30.8957407 34.9766633,40.7667297 C32.0057908,54.4132582 28.789898,51.3154962 27.3022741,54.6634446 C26.0859227,57.3927503 26.6940984,61.0045315 26.9566203,62.2190725 C28.0154585,62.6739568 28.934285,62.9605339 29.5293345,62.8968501 C29.5293345,62.8968501 28.2911064,58.2661281 29.7787303,54.9181798 C31.2663542,51.5702314 34.4822471,54.6588957 37.4531195,41.0214649 C39.6014235,31.1550247 41.4915809,19.8011129 42.3754045,14.2788177 C42.7371243,11.9944444 42.5522947,9.65261758 41.8372347,7.46010228 Z" id="Shape"></path>
                    </g>
                    <path d="M41.4,72.4819277 L38.1905048,72.1015321 L13.6034008,69.188149 C-1.32009324,64.3817382 8.11959848,57.060241 8.11959848,57.060241 L18.0554228,66.682013 C20.9224548,67.2682698 32.1622738,65.9033208 37.1982395,65.2454601 C38.7085902,65.0440741 39.6613405,64.9098169 39.6613405,64.9098169 L41.4,72.4819277 Z" id="Shape" fill="#FDC2CC"></path>
                    <path d="M65.2809876,37.03277 C65.2809876,37.03277 58.9345578,31.601197 49.4170703,49.1898009 C39.8995828,66.7784048 37.7035714,63.9300294 37.7035714,63.9300294 C37.7035714,63.9300294 39.6579784,71.7024824 38.6786177,73.2432569 C38.6786177,73.2432569 45.2666519,72.7266174 47.7085821,73.2432569 C50.1505122,73.7598964 65.2809876,53.5835229 65.2809876,53.5835229 C65.2809876,53.5835229 73.0943012,42.1900212 65.2809876,37.03277 Z" id="Shape" fill="#CACACA"></path>
                </g>
                <g id="left-man" transform="translate(36.000000, 84.000000)" fill-rule="nonzero">
                    <path d="M88.1022111,182.655908 C88.1022111,182.655908 82.4958243,183.055455 79.0026142,176.884668 C78.3251826,175.6385 77.5245411,174.467683 76.6134309,173.390848 C75.4946517,171.502844 74.913386,169.329376 74.9358275,167.117955 C75.1298947,162.536478 70.4852189,137.427146 70.4852189,137.427146 C70.4852189,137.427146 71.0674206,127.860206 66.4184323,121.889193 C63.3607952,117.955871 58.9619379,106.679757 56.3096857,99.4346313 C56.4882218,99.5979962 56.7029247,99.7138392 56.9350135,99.7720269 L56.8271984,99.1460694 L56.9350135,99.1727058 L55.5808555,91.3992899 C53.5848589,89.0357556 51.9026133,86.4098247 50.5782335,83.5903587 L50.888741,83.5237675 L54.9986538,82.6358845 C54.9986538,82.6358845 61.6788792,72.8691712 62.0885767,68.0568451 L62.6319649,68.0834816 L63.3996086,68.0834816 C71.8997534,67.8925868 81.9049974,69.08235 81.9049974,69.08235 C81.9049974,69.0512741 81.8575588,68.9269705 81.8058075,68.7316362 C81.5461813,67.7644483 81.3459679,66.781393 81.2063554,65.788304 L81.5901773,65.7616675 L85.393895,65.499742 C85.393895,65.499742 98.555966,50.356897 93.717223,47.5645049 C88.87848,44.7721127 83.8456698,60.1191709 83.8456698,60.1191709 L82.2198176,60.4254905 L81.7885571,60.5098394 C81.8316832,60.4432482 81.8748092,60.3810964 81.9265605,60.3189446 C81.9783117,60.2567927 60.4368489,59.3245156 57.1463311,53.9439444 C57.1463311,53.9439444 47.6585998,46.1705285 47.2747779,40.989731 C47.0677729,38.2417331 45.394482,36.7811655 43.8635072,36.0175861 C42.6926295,35.4432263 41.3962814,35.193779 40.1029155,35.2939614 L35.6609322,35.6091599 L35.9757524,36.1862839 L35.8506868,36.1862839 C35.5722601,35.5290781 35.3388103,34.8526377 35.1520448,34.1619106 L35.2426095,34.1619106 C35.2124212,34.0198493 35.182233,33.877788 35.1563574,33.7179691 C37.9065072,33.0497838 40.2767454,31.2639866 41.7269767,28.7674987 C43.177208,26.2710109 43.5838913,23.2765012 42.8543576,20.4663149 C43.2847965,20.5236391 43.7212798,20.5116573 44.1481392,20.4307995 C45.7783039,20.0845252 46.9383947,18.3797898 46.9815208,16.6661755 C46.9815208,16.5551901 46.9815208,16.4442048 46.9815208,16.3332194 C46.9815208,16.3332194 46.9815208,16.2888252 46.9815208,16.2666281 C46.9491891,14.5279803 46.1570065,12.8970276 44.8252182,11.827213 C43.9368215,11.068073 42.8802332,10.5264644 42.0737761,9.6829755 C41.1163777,8.67522826 40.5945525,7.32564606 39.8484718,6.13144338 C38.6045143,4.16752691 36.7587416,2.68780307 34.6043439,1.92731725 C33.0000548,1.36795094 31.0378194,1.30579913 29.808727,2.50444122 C29.174774,3.12151992 28.8082026,4.00496353 28.0836849,4.5243751 C27.0615975,5.27463626 25.6729386,5.05266551 24.4222831,5.20360562 C22.1538528,5.47884936 20.1614292,7.14363004 19.1609048,9.26123106 C18.5473558,10.5985977 18.2517083,12.0670424 18.2983837,13.5452667 C18.2847141,14.5600777 18.4021838,15.5722548 18.6477048,16.5551901 C18.8892107,17.5363009 19.2471569,18.4818963 19.5102258,19.4541282 C20.0536141,21.4785015 20.1786796,23.6094208 20.8040074,25.611597 C21.2276513,27.0928681 22.0716566,28.4100159 23.2276915,29.3939787 L23.0422494,30.2197099 C22.9214965,30.2463464 19.9069855,30.9122587 17.8196846,35.6002811 C16.1722694,39.2938745 10.6003835,43.1117715 8.15082378,44.6522485 C7.22766445,45.23369 6.57030813,46.1727312 6.32659179,47.2581852 C6.09135319,48.3448029 5.98706506,49.4571165 6.01608422,50.5699889 C5.97295816,52.9717125 6.44734473,56.292395 8.3362658,60.5054 C12.5971197,70.0723396 15.6935702,74.2675869 15.6935702,74.2675869 C15.6935702,74.2675869 15.9307635,77.1976009 15.9437013,80.2874339 C15.9437013,82.5870509 15.7798223,84.8777891 15.3054358,86.0231582 C14.9043635,86.9909507 14.7792979,89.4637049 14.7879231,92.2827336 C14.7879231,97.6943806 15.3054358,104.75749 15.3054358,104.75749 C15.3054358,104.75749 16.7846593,105.046052 19.0789653,105.392326 L20.5064376,131.225283 C20.6857232,134.353395 19.7107085,137.435801 17.7765585,139.855506 C16.7715057,141.12489 15.6119565,142.255869 14.3264744,143.220583 C10.2596877,146.208309 1.54822526,177.697081 1.54822526,177.697081 C1.54822526,177.697081 1.97948577,177.723717 2.67812781,177.78143 L0,185.470497 C0,185.470497 10.6952608,193.905385 17.2072946,191.601329 C17.9028589,191.368299 18.6325099,191.261642 19.3635972,191.286131 C20.6573788,191.286131 23.3958831,190.242868 21.8649082,188.86221 C19.0832779,186.35838 15.7496341,182.567119 13.5200172,179.930107 C13.7302661,180.034903 13.9321484,180.156625 14.1237819,180.294139 L14.1237819,180.231987 L14.2143466,180.294139 C14.2143466,180.294139 14.2359097,179.98338 14.2833483,179.481726 L14.188471,179.45065 C14.3868509,177.377443 15.007866,172.16557 16.2455837,171.526294 C17.7938089,170.727199 29.2135874,147.41583 29.2135874,147.41583 L40.6333659,117.125701 C40.6333659,117.125701 49.7329629,133.267414 57.4740891,136.055367 L57.4740891,142.78996 C57.4740891,142.78996 61.734943,162.718494 63.2831683,164.911565 C64.8313936,167.104636 63.2831683,175.872481 63.2831683,175.872481 C63.5892441,176.233449 63.9401409,176.551378 64.3268188,176.818077 L63.0891011,184.041005 C63.0891011,184.041005 71.9946308,183.641458 87.0930615,188.427147 C87.1318749,188.436026 92.9409541,185.852286 88.1022111,182.655908 Z M52.4800923,78.4184401 L50.5954839,78.9023363 L50.2245998,79.0000035 C50.1857864,78.760275 50.1599108,78.6182138 50.1599108,78.6182138 C49.7284991,78.8176974 49.2650518,78.9335799 48.7928149,78.9600487 C48.1247562,76.7813551 47.7390394,74.5214046 47.6456619,72.2387742 C47.6456619,72.2387742 46.5502602,67.6351007 46.4898838,63.9148708 C46.5114468,62.4631821 46.7227644,61.1979488 47.2575275,60.4832029 L47.8871678,60.5364759 L48.3184284,60.9804174 L48.3486166,61.0114933 L48.5728721,61.2201458 L48.8057527,61.4376772 L48.8445662,61.4731925 L49.0990099,61.6996027 L49.1421359,61.7395574 L49.4008923,61.9659676 L49.4267679,61.9881647 L49.7157124,62.2323325 L49.7804015,62.2856055 L50.0865965,62.5386521 L50.1124721,62.5386521 L50.4143545,62.78282 L50.4833562,62.8360929 L50.8154268,63.0980184 L50.8844284,63.1512914 L51.2035612,63.3910198 L51.2596251,63.4309746 L51.6218839,63.6973395 L51.708136,63.7594913 L52.0876453,64.0302956 L52.1221461,64.0524927 L52.4930302,64.3055394 L52.5835949,64.3676912 L52.9846672,64.6296167 L53.0709193,64.6828896 L53.4461159,64.9181786 L53.5151176,64.9625728 L53.9463781,65.2200589 L54.0498806,65.2822107 L54.4811411,65.5396968 L54.515642,65.5396968 L54.9469025,65.7749858 L55.0547176,65.8326982 L55.5118538,66.0679872 L55.6067311,66.1123813 L56.0379916,66.3165944 L56.1199311,66.3565491 L56.5986303,66.5696411 L56.7150706,66.6184746 L57.2153328,66.8226877 C54.0671311,70.2809921 52.4800923,78.4184401 52.4800923,78.4184401 Z" id="Shape" fill="url(#linearGradient-4)"></path>
                    <path d="M4.88270884,172.883415 L1.3737084,182.946078 C1.3737084,182.946078 10.9823879,190.522314 17.2252914,188.95422 C18.1655993,188.713878 19.1237419,188.554496 20.0897816,188.477727 C21.3830147,188.378096 23.607207,187.412115 22.2339367,186.177566 C17.802402,182.192353 11.8964972,174.789386 11.8964972,174.789386 L4.88270884,172.883415 Z" id="Shape" fill="#4F4D59"></path>
                    <path d="M64.8794187,172.378741 L63.1905863,182.12994 C63.1905863,182.12994 71.8319214,181.746 86.4827564,186.335827 C86.4827564,186.335827 92.1193416,183.848944 87.4214729,180.790514 C87.4214729,180.790514 81.9734883,181.174453 78.5915372,175.245201 C75.2095861,169.315948 73.1435526,170.083828 73.1435526,170.083828 L64.8794187,172.378741 Z" id="Shape" fill="#4F4D59"></path>
                    <path d="M18.7769377,100.126583 L20.4310061,130.399807 C20.6082066,133.626324 19.5779552,136.799098 17.5556696,139.254725 C16.6414297,140.382217 15.5997749,141.391174 14.45322,142.259787 C10.5108809,145.184715 2.0605626,176.00998 2.0605626,176.00998 C2.0605626,176.00998 11.6378757,176.593184 14.2646734,178.547588 C14.2646734,178.547588 14.8260282,170.743329 16.3301163,169.964239 C17.8342044,169.185149 28.9113204,146.368932 28.9113204,146.368932 L39.9970067,116.696721 C39.9970067,116.696721 48.8244183,132.501125 56.3362885,135.230167 L56.3362885,141.863564 C56.3362885,141.863564 60.4671743,161.371986 61.9712624,163.517823 C63.4753505,165.66366 61.9712624,174.24701 61.9712624,174.24701 C61.9712624,174.24701 66.2906949,179.905431 76.2408161,173.855238 C76.2408161,173.855238 73.0483784,170.146769 73.2412102,165.659208 C73.434042,161.171648 68.9217777,136.592462 68.9217777,136.592462 C68.9217777,136.592462 69.4831325,127.243378 64.9794386,121.375715 C60.4757446,115.508052 52.9595893,93.1014146 52.9595893,93.1014146 L47.7916969,81.5486183 L18.7769377,100.126583 Z" id="Shape" fill="#999999"></path>
                    <g id="Group" opacity="0.1" transform="translate(2.060563, 81.548618)" fill="#000000">
                        <path d="M1.81082945,94.0535673 C1.81082945,94.0535673 10.2328947,63.3859478 14.162053,60.4759787 C15.3699733,59.5600868 16.4619222,58.4901506 17.4121502,57.2914007 C19.3347728,54.8813836 20.3012912,51.8030618 20.1155819,48.6810812 L18.4670438,18.5626796 L46.0608388,0.907981225 L45.6850063,0.0708668273 L16.7757974,18.549392 L18.4243355,48.6677936 C18.6170109,51.7904215 17.6565543,54.8720568 15.7379871,57.2869715 C14.7877591,58.4857214 13.6958102,59.5556576 12.4878899,60.4715496 C8.55873167,63.3815187 0.136666374,94.0491382 0.136666374,94.0491382 C0.136666374,94.0491382 9.68195843,94.6293603 12.2999737,96.5737689 C12.2999737,96.5737689 12.3213278,96.2725849 12.3683068,95.7809463 C8.67831475,94.4743391 1.81082945,94.0535673 1.81082945,94.0535673 Z" id="Shape"></path>
                        <path d="M61.5169516,92.3084717 C61.5169516,92.3084717 63.0160109,83.769019 61.5169516,81.6341559 C60.0178923,79.4992927 55.8837345,60.0862112 55.8837345,60.0862112 L55.8837345,53.4867379 C48.414063,50.7716526 39.6161651,35.0347877 39.6161651,35.0347877 L38.962729,36.8064584 C41.4995986,40.9787429 48.268855,51.3385872 54.2138422,53.4955963 L54.2138422,60.0950695 C54.2138422,60.0950695 58.3309167,79.5037219 59.829976,81.638585 C61.3290353,83.7734482 59.829976,92.3129009 59.829976,92.3129009 C59.829976,92.3129009 61.918409,95.0368446 66.5308992,94.6692229 C63.0928857,94.3857556 61.5169516,92.3084717 61.5169516,92.3084717 Z" id="Shape"></path>
                    </g>
                    <path d="M84.754849,65.5825134 L80.9791407,65.8377869 L78.9882329,65.9721414 L78.9882329,61.0458114 L81.6193885,60.5621354 L83.2375493,60.2620771 C83.2375493,60.2620771 88.2323597,45.1516796 93.0386041,47.8969889 C97.8448484,50.6422982 84.754849,65.5825134 84.754849,65.5825134 Z" id="Shape" fill="#714B4F"></path>
                    <path d="M24.5761672,25.6149057 C24.5761672,25.6149057 22.0814292,35.5151928 21.3155008,41.6559916 C20.5495725,47.7967904 39.1506893,42.8443875 39.1506893,42.8443875 C39.1506893,42.8443875 32.0560045,33.9336773 36.086976,29.1800935 L24.5761672,25.6149057 Z" id="Shape" fill="#714B4F"></path>
                    <path d="M44.7106008,66.5172206 L45.0944657,70.2202714 L39.1707314,69.8290728 L33.2208245,64.5567819 L27.2970902,47.6196587 L23.475889,41.5827523 L20.605626,37.8841469 L21.7528588,33.4031442 C21.7528588,33.4031442 22.276311,33.8476881 23.1618177,34.5589584 C26.0713396,36.8305778 32.9023911,41.5471887 37.8926356,40.2446751 C38.1235352,40.1859998 38.3507727,40.1132603 38.5731235,40.0268485 L46.0192313,53.0742125 L44.7106008,66.5172206 Z" id="Shape" fill="#E6E6F0"></path>
                    <path d="M23.52366,31.9871008 C23.52366,31.9871008 20.5001133,32.5720746 18.4138661,37.2697265 C16.8113863,40.8822744 11.4078765,44.6064585 8.99335846,46.1381073 C8.06337124,46.7262009 7.40285976,47.6780069 7.16195303,48.7771874 C6.67386621,51.0099117 6.48813406,55.1627789 9.14021644,61.1464799 C13.3040722,70.5239219 16.3319382,74.6499964 16.3319382,74.6499964 C16.3319382,74.6499964 17.0878249,84.0274384 15.9518352,86.7826201 C14.8158455,89.5378019 15.9518352,104.590829 15.9518352,104.590829 C15.9518352,104.590829 35.8208563,108.502562 42.4510623,104.590829 C49.0812682,100.679096 48.1310107,85.6082072 48.1310107,85.6082072 C48.1310107,85.6082072 54.3767943,99.2903416 56.6487737,99.6966974 L55.3227325,92.0652458 C55.3227325,92.0652458 47.9409592,83.844355 47.5478981,73.2791037 C47.5478981,73.2791037 45.2759188,63.6917856 47.1677951,61.1464799 C47.1677951,61.1464799 79.1569191,63.8882654 81.0487955,61.5394394 C81.0487955,61.5394394 60.0394653,60.5615062 56.8215478,55.2878114 C56.8215478,55.2878114 47.5478981,47.6563598 47.1677951,42.5702139 C47.0550576,40.6305501 45.98219,38.8883145 44.3299806,37.961871 C43.0423837,37.2050817 41.5649999,36.86446 40.0883765,36.9839378 L35.8122176,37.2875883 C35.8122176,37.2875883 43.1939909,50.7911047 42.8138879,52.5504915 C42.4337849,54.3098782 43.1939909,68.5948481 43.1939909,68.5948481 C43.1939909,68.5948481 34.6935053,49.59883 30.9227107,47.4464837 C27.151916,45.2941375 22.7850507,36.4570148 22.7850507,36.4570148 L23.5409374,31.9915663" id="Shape" fill="#999999" opacity="0.1"></path>
                    <path d="M44.7106008,66.5172206 L45.0944657,70.2202714 L39.1707314,69.8290728 L33.2208245,64.5567819 L27.2970902,47.6196587 L23.475889,41.5827523 L20.605626,37.8841469 L21.7528588,33.4031442 C21.7528588,33.4031442 22.276311,33.8476881 23.1618177,34.5589584 L22.9000915,36.1059712 C22.9000915,36.1059712 27.2970902,44.9034953 31.1182914,47.046197 C34.9394926,49.1888987 43.5415575,68.0864606 43.5415575,68.0864606 C43.5415575,68.0864606 42.7781897,53.8610553 43.1576925,52.1139977 C43.4194186,50.92262 40.0693244,44.3567063 37.8926356,40.2535659 C38.1235352,40.1948907 38.3507727,40.1221511 38.5731235,40.0357394 L46.0192313,53.0742125 L44.7106008,66.5172206 Z" id="Shape" fill="#000000" opacity="0.1"></path>
                    <path d="M80.5473919,66.5570798 L78.9882329,66.680163 L78.9882329,62.1671109 L81.0487955,61.7240113 C80.3241643,62.8686854 80.3482042,64.8708394 80.5473919,66.5570798 Z" id="Shape" fill="#000000" opacity="0.1"></path>
                    <path d="M23.52366,31.9871008 C23.52366,31.9871008 20.5001133,32.5720746 18.4138661,37.2697265 C16.8113863,40.8822744 11.4078765,44.6064585 8.99335846,46.1381073 C8.06337124,46.7262009 7.40285976,47.6780069 7.16195303,48.7771874 C6.67386621,51.0099117 6.48813406,55.1627789 9.14021644,61.1464799 C13.3040722,70.5239219 16.3319382,74.6499964 16.3319382,74.6499964 C16.3319382,74.6499964 17.0878249,84.0274384 15.9518352,86.7826201 C14.8158455,89.5378019 15.9518352,104.590829 15.9518352,104.590829 C15.9518352,104.590829 35.8208563,108.502562 42.4510623,104.590829 C49.0812682,100.679096 48.1310107,85.5724836 48.1310107,85.5724836 C48.1310107,85.5724836 54.3767943,99.2724798 56.6487737,99.6609738 L55.3227325,92.0295222 C55.3227325,92.0295222 47.9409592,83.8086314 47.5478981,73.2433801 C47.5478981,73.2433801 45.2759188,63.656062 47.1677951,61.1107564 C47.1677951,61.1107564 54.5495684,69.3316472 62.8772799,69.1485638 C71.2049913,68.9654804 81.0487955,70.126497 81.0487955,70.126497 C81.0487955,70.126497 79.1569191,63.874869 81.0487955,61.5171122 C81.0487955,61.5171122 60.0394653,60.5391789 56.8215478,55.2654842 C56.8215478,55.2654842 47.5478981,47.6340326 47.1677951,42.5478867 C47.0550576,40.6082229 45.98219,38.8659872 44.3299806,37.9395438 C43.0423837,37.1827545 41.5649999,36.8421327 40.0883765,36.9616105 L35.8122176,37.265261 C35.8122176,37.265261 43.2112683,50.7419848 42.8311653,52.5281642 C42.4510623,54.3143436 43.2112683,68.5725209 43.2112683,68.5725209 C43.2112683,68.5725209 34.6935053,49.5854336 30.9227107,47.4330874 C27.151916,45.2807412 22.7677733,36.4525494 22.7677733,36.4525494 L23.52366,31.9871008" id="Shape" fill="#999999"></path>
                    <path d="M19.7301522,52.5197295 C19.7301522,52.5197295 24.2832821,68.3990965 26.9363891,70.3582973 C29.5894961,72.3174981 45.7115576,82.3147897 50.4551225,79.9619596 C50.4551225,79.9619596 51.593405,85.844035 49.8881453,87.2127917 C49.8881453,87.2127917 32.2036505,86.4971019 32.0608242,86.430006 C32.0608242,86.430006 20.4918926,84.8599615 18.5961978,78.9823592 C16.7005031,73.1047568 14.4239382,63.1029921 14.4239382,63.1029921 L19.7301522,52.5197295 Z" id="Shape" fill="#999999" opacity="0.1"></path>
                    <ellipse id="Oval" fill="#BA7855" cx="43.9586687" cy="68.0962064" rx="1" ry="1"></ellipse>
                    <ellipse id="Oval" fill="#BA7855" cx="45.3323771" cy="75.1764232" rx="1" ry="1"></ellipse>
                    <g id="Group" opacity="0.1" transform="translate(6.868542, 31.987101)" fill="#000000">
                        <path d="M10.462866,72.2099438 C10.462866,72.2099438 9.32859816,57.190133 10.462866,54.4568302 C11.5971338,51.7235274 10.8423929,42.3617425 10.8423929,42.3617425 C10.8423929,42.3617425 7.82342906,38.2662399 3.66157181,28.9000034 C1.01350928,22.9348148 1.20327272,18.7947958 1.68630693,16.5689792 C1.92788401,15.4724388 2.58903705,14.5234522 3.51924924,13.9380639 C5.93010747,12.4111537 11.3254271,8.69849147 12.9211651,5.09712013 C14.0942482,2.45730158 15.5649148,1.11735996 16.6301778,0.454066597 L16.7034955,0.00890326661 C16.7034955,0.00890326661 13.6845316,0.592067229 11.6014466,5.27518546 C10.0013958,8.87655681 4.60607621,12.589219 2.19953077,14.1161292 C1.26931858,14.7015175 0.608165551,15.6505041 0.366588462,16.7470445 C-0.120758552,18.9728611 -0.306209186,23.1128801 2.34185335,29.0780687 C6.49939779,38.4264987 9.5226744,42.5398078 9.5226744,42.5398078 C9.5226744,42.5398078 10.2774154,51.8882378 9.14314752,54.6348955 C8.00887969,57.3815533 9.14314752,72.3880091 9.14314752,72.3880091 C9.14314752,72.3880091 23.319339,75.1747316 31.7034328,73.6834344 C23.2244573,74.720665 10.462866,72.2099438 10.462866,72.2099438 Z" id="Shape"></path>
                        <path d="M35.9774229,20.5220295 C35.7186546,21.7239705 35.9774229,28.7931642 36.1887504,33.1201518 C37.1030652,35.047709 37.6766683,36.3208761 37.6766683,36.3208761 C37.6766683,36.3208761 36.9219273,22.0756496 37.2971414,20.3261577 C37.6551043,18.6567952 31.0176967,6.41480359 30.3578375,5.19060443 L28.9820525,5.28854036 C28.9820525,5.28854036 36.3569498,18.7413762 35.9774229,20.5220295 Z" id="Shape"></path>
                        <path d="M57.3344355,36.8995885 C49.0193466,37.0954603 41.6487621,28.8866485 41.6487621,28.8866485 C41.4258622,29.2054759 41.2634305,29.5649638 41.1700407,29.9461372 C43.3264434,32.0428565 49.364371,37.2379126 56.0104042,37.0687505 C64.3254931,36.8728787 74.1543767,38.0436582 74.1543767,38.0436582 C74.1543767,38.0436582 74.1155614,37.9145608 74.0551821,37.6919792 C68.5001638,37.1077848 62.9179449,36.8432453 57.3344355,36.8995885 Z" id="Shape"></path>
                        <path d="M42.5932665,53.2860506 C42.5932665,53.2860506 42.670897,54.5057982 42.6277689,56.3354195 C44.5944082,60.3418894 48.1740367,67.2508243 49.7740875,67.5268256 L49.4937552,65.9242376 C46.7335597,62.3673826 42.5932665,53.2860506 42.5932665,53.2860506 Z" id="Shape"></path>
                    </g>
                    <path d="M54.7259278,82.0919913 L50.6256203,82.982522 L47.3929397,83.6726833 L49.1281934,78.7747643 L50.3349433,78.4675312 L52.2155355,77.9955499 C52.2155355,77.9955499 54.9197124,64.3348085 60.3236622,65.3143923 C65.727612,66.2939761 54.7259278,82.0919913 54.7259278,82.0919913 Z" id="Shape" fill="#714B4F"></path>
                    <path d="M50.8004342,83.0155374 L47.3929397,83.6726833 L49.2220308,79.0090675 L50.4940382,78.7165316 C50.7785815,80.1338101 50.8814062,81.5765318 50.8004342,83.0155374 Z" id="Shape" fill="#999999" opacity="0.1"></path>
                    <path d="M19.7301522,51.8117078 C19.7301522,51.8117078 24.2832821,67.6910748 26.9363891,69.6502756 C29.5894961,71.6094764 45.7115576,81.6067681 50.4551225,79.2539379 C50.4551225,79.2539379 51.593405,85.1360133 49.8881453,86.50477 C49.8881453,86.50477 32.2036505,85.7890802 32.0608242,85.7219843 C32.0608242,85.7219843 20.4918926,84.1519398 18.5961978,78.2743375 C16.7005031,72.3967352 14.4239382,62.3949705 14.4239382,62.3949705 L19.7301522,51.8117078 Z" id="Shape" fill="#999999"></path>
                    <path d="M24.9460217,26.3229274 C24.9460217,26.3229274 24.5583049,27.9415477 24.039897,30.2963335 C26.2172308,34.7507239 30.88049,37.0714496 35.4187331,35.959145 C34.9613144,33.8355907 35.0615109,31.7120364 36.4032725,30.0273499 L24.9460217,26.3229274 Z" id="Shape" fill="#000000" opacity="0.1"></path>
                    <ellipse id="Oval" fill="#714B4F" cx="33.6558558" cy="23.3647154" rx="10.302813" ry="10.6203252"></ellipse>
                    <path d="M42.3224936,21.1529624 C43.0676118,21.3597824 43.8480032,21.4070649 44.6126523,21.2917189 C46.213161,20.9621723 47.3539029,19.3361199 47.3929397,17.7013953 C47.3605201,16.042908 46.5831714,14.4870779 45.2762779,13.464987 C44.4087935,12.7408517 43.3678123,12.2248511 42.5740641,11.4183292 C41.6328436,10.4600423 41.1210278,9.16787274 40.4053532,8.04047647 C39.1792371,6.16573651 37.3606597,4.75526732 35.2394838,4.03388354 C33.6649997,3.50053838 31.7391844,3.43983243 30.5290437,4.58457326 C29.9087924,5.1699521 29.544449,6.01549931 28.8504615,6.50981921 C27.8441796,7.22528224 26.4822292,7.0128114 25.2547388,7.155904 C22.9952663,7.5031458 21.0577563,8.95381587 20.0888694,11.0237405 C19.1567796,13.0885446 18.9787291,15.414792 19.5857285,17.597328 C19.8242867,18.529598 20.1712804,19.4358512 20.4271883,20.363785 C20.9606912,22.2977032 21.0864764,24.3270165 21.7023903,26.2349179 C22.3183042,28.1428193 23.5891688,30.0073593 25.5106467,30.5710575 C25.3586254,28.4321447 25.780899,26.2914614 26.7337996,24.3703779 C26.8915427,23.9518391 27.2012935,23.6081174 27.601284,23.407755 C27.9441737,23.319831 28.303713,23.319831 28.6466027,23.407755 C31.0530389,23.7645167 33.508463,23.2674403 35.5864776,22.0028458 C36.3151644,21.5692318 37.4515689,20.0472468 38.2323049,19.8954819 C39.2299119,19.7177002 41.2815124,20.9188109 42.3224936,21.1529624 Z" id="Shape" fill="#000000" opacity="0.1" transform="translate(33.312429, 17.118646) rotate(-15.000000) translate(-33.312429, -17.118646) "></path>
                    <path d="M41.0365071,20.9411836 C41.7817041,21.1481371 42.5621781,21.19545 43.3269081,21.0800296 C44.9275862,20.7502704 46.0684488,19.1231691 46.1074897,17.48739 C46.0750666,15.8278328 45.2976358,14.2709991 43.9906039,13.2482489 C43.1230277,12.5236464 42.0819364,12.007313 41.2881042,11.2002708 C40.346784,10.2413658 39.8349141,8.94836262 39.1191638,7.82023908 C37.892918,5.94428977 36.0741481,4.53291071 33.9527477,3.81106159 C32.378097,3.27737237 30.4520779,3.21662726 29.2418092,4.36210654 C28.6214923,4.947863 28.2571103,5.79395565 27.5630493,6.28859443 C26.556661,7.00451899 25.1945664,6.79191109 23.9669462,6.935096 C21.7072346,7.2825618 19.7695195,8.73416766 18.8005301,10.8054275 C17.8724846,12.8664963 17.6944729,15.1873517 18.297336,17.3658998 C18.5359194,18.2987712 18.8829499,19.2056089 19.1388848,20.1341414 C19.6724442,22.0693072 19.7982427,24.0999295 20.4142218,26.0090617 C21.0302009,27.9181938 22.3011999,29.7839366 24.2228811,30.3479983 C24.0708438,28.2077058 24.4931621,26.0656416 25.4461635,24.1433189 C25.6039233,23.7245101 25.9137069,23.3805666 26.3137397,23.1800749 C26.6566656,23.0920943 27.016243,23.0920943 27.3591689,23.1800749 C29.7658598,23.5370668 32.2215438,23.0396697 34.2997782,21.7742595 C35.0285422,21.3403658 36.165067,19.817399 36.9458855,19.6655362 C37.9435981,19.5049956 39.9954157,20.71122 41.0365071,20.9411836 Z" id="Shape" fill="#503F43" transform="translate(32.026979, 16.895586) rotate(-15.000000) translate(-32.026979, -16.895586) "></path>
                </g>
            </g>
        </g>
    </g>
</svg>