<?xml version="1.0" encoding="UTF-8"?>
<svg width="492px" height="442px" viewBox="0 0 492 442" version="1.1" xmlns="http://www.w3.org/2000/svg" xmlns:xlink="http://www.w3.org/1999/xlink">
    <!-- Generator: Sketch 50.2 (55047) - http://www.bohemiancoding.com/sketch -->
    <title>no-datasets</title>
    <desc>Created with Sketch.</desc>
    <defs></defs>
    <g id="Empty-States" stroke="none" stroke-width="1" fill="none" fill-rule="evenodd">
        <g id="empty-dataset" transform="translate(-489.000000, -357.000000)">
            <g id="no-datasets" transform="translate(489.000000, 357.000000)">
                <path d="M157.273808,438.759821 C233.474746,438.759821 307.06305,450.872615 373.637523,421.063258 C444.714492,389.237866 472.085704,364.360164 472.085704,344.539808 C472.085704,306.154651 449.905454,259 292.350034,259 C212.278331,259 100.299983,273.998472 48.4875669,286.941941 C-1.65022742,299.467066 37.649235,343.507858 37.649235,362.385182 C37.649235,400.770339 -0.281611802,438.759821 157.273808,438.759821 Z" id="Oval" fill="#F2F2F2" fill-rule="nonzero"></path>
                <g id="undraw_tweetstorm_49e8" transform="translate(87.000000, 134.000000)" fill-rule="nonzero">
                    <polygon id="Shape" fill="#E0E0E0" points="265.469528 73.6054646 159.823491 47.4492269 159.823491 252.132166 265.469528 223.705262"></polygon>
                    <polygon id="Shape" fill="#80A6D6" opacity="0.4" points="265.469528 73.6054646 159.823491 47.4492269 159.823491 252.132166 265.469528 223.705262"></polygon>
                    <polygon id="Shape" fill="#E0E0E0" points="54.1774547 73.6054646 159.823491 47.4492269 159.823491 252.132166 54.1774547 224.27421"></polygon>
                    <polygon id="Shape" fill="#80A6D6" opacity="0.4" points="54.1774547 72.6735569 159.823491 46.5188499 159.823491 252.132166 54.1774547 224.27038"></polygon>
                    <polygon id="Shape" fill="#80A6D6" points="158.920534 47.4131121 214.682554 0 320.54994 27.7944222 264.792917 73.4997828"></polygon>
                    <polygon id="Shape" fill="#E0E0E0" points="0.902957578 29.277322 55.1014532 73.4997828 160.726449 47.4222291 107.086341 0.930376998"></polygon>
                    <polygon id="Shape" fill="#80A6D6" opacity="0.8" points="0 28.3619684 55.3706147 73.4997828 160.726449 47.4131121 105.902827 0"></polygon>
                    <polygon id="Shape" fill="#80A6D6" points="54.1774547 73.4997828 54.1774547 224.257719 160.198248 252.132166 161.629407 102.5128"></polygon>
                    <polygon id="Shape" fill="#E0E0E0" points="265.469528 223.688434 159.823491 252.132166 159.823491 102.5128 265.469528 73.4997828"></polygon>
                    <polygon id="Shape" fill="#80A6D6" points="265.469528 223.688434 159.823491 252.132166 159.823491 102.5128 265.469528 73.4997828"></polygon>
                    <polygon id="Shape" fill="#000000" opacity="0.07" points="223.933479 173.823158 223.933479 223.29048 266.372486 211.347794 266.372486 161.885598"></polygon>
                    <polygon id="Shape" fill="#000000" opacity="0.1" points="53.2744971 152.021226 112.344515 167.46786 159.823491 127.420076 159.823491 102.818927 54.3793538 75.3605368"></polygon>
                    <polygon id="Shape" fill="#000000" opacity="0.1" points="266.372486 152.021226 207.299708 167.46786 159.823491 127.420076 159.823491 102.818927 265.267577 75.3605368"></polygon>
                    <polygon id="Shape" fill="#80A6D6" points="54.19351 73.4997828 0 119.652243 105.624996 146.999566 159.823491 102.557598"></polygon>
                    <polygon id="Shape" fill="#E0E0E0" points="265.683703 73.4997828 320.54994 119.652243 215.244337 146.999566 159.823491 102.557598"></polygon>
                    <polygon id="Shape" fill="#80A6D6" opacity="0.798716518" points="265.683703 73.4997828 320.54994 119.652243 215.244337 146.999566 159.823491 102.557598"></polygon>
                </g>
                <path d="M236.673113,56.7622735 L228,0.387037769 L247.525011,0.387037769 L238.851898,56.7622735 C238.759336,57.3639284 238.196562,57.7766295 237.594907,57.6840672 C237.119394,57.6109113 236.746269,57.2377867 236.673113,56.7622735 Z" id="Triangle" fill="#CACACA"></path>
                <path d="M409.21591,31.8699567 L417.889023,88.2451924 L398.364011,88.2451924 L407.037125,31.8699567 C407.129687,31.2683018 407.692461,30.8556007 408.294116,30.948163 C408.769629,31.0213189 409.142754,31.3944435 409.21591,31.8699567 Z" id="Triangle" fill="#CACACA" transform="translate(408.126517, 59.590192) rotate(-149.000000) translate(-408.126517, -59.590192) "></path>
                <path d="M462.339709,139.662883 L471.012823,196.038119 L451.487811,196.038119 L460.160924,139.662883 C460.253487,139.061228 460.816261,138.648527 461.417916,138.741089 C461.893429,138.814245 462.266554,139.18737 462.339709,139.662883 Z" id="Triangle" fill="#CACACA" transform="translate(461.250317, 167.383118) rotate(-111.000000) translate(-461.250317, -167.383118) "></path>
                <path d="M87.7719007,29.8947187 L96.4450139,86.2699544 L76.9200024,86.2699544 L85.5931156,29.8947187 C85.6856779,29.2930638 86.2484521,28.8803627 86.850107,28.972925 C87.3256203,29.0460809 87.6987448,29.4192054 87.7719007,29.8947187 Z" id="Triangle" fill="#CACACA" transform="translate(86.682508, 57.614954) rotate(137.000000) translate(-86.682508, -57.614954) "></path>
                <path d="M31.185456,138.237727 L39.8585692,194.612962 L20.3335577,194.612962 L29.0066709,138.237727 C29.0992332,137.636072 29.6620074,137.223371 30.2636623,137.315933 C30.7391756,137.389089 31.1123001,137.762213 31.185456,138.237727 Z" id="Triangle" fill="#CACACA" transform="translate(30.096063, 165.957962) rotate(115.000000) translate(-30.096063, -165.957962) "></path>
            </g>
        </g>
    </g>
</svg>