<?xml version="1.0" encoding="UTF-8"?>
<svg width="373px" height="280px" viewBox="0 0 373 280" version="1.1" xmlns="http://www.w3.org/2000/svg" xmlns:xlink="http://www.w3.org/1999/xlink">
    <!-- Generator: Sketch 50.2 (55047) - http://www.bohemiancoding.com/sketch -->
    <title>undraw_fishing_hoxa</title>
    <desc>Created with Sketch.</desc>
    <defs>
        <linearGradient x1="50.0031204%" y1="99.9971283%" x2="50.0031204%" y2="0%" id="linearGradient-1">
            <stop stop-color="#808080" stop-opacity="0.25" offset="0%"></stop>
            <stop stop-color="#808080" stop-opacity="0.12" offset="54%"></stop>
            <stop stop-color="#808080" stop-opacity="0.1" offset="100%"></stop>
        </linearGradient>
        <linearGradient x1="49.9951087%" y1="99.9796546%" x2="49.9951087%" y2="0.00691070484%" id="linearGradient-2">
            <stop stop-color="#808080" stop-opacity="0.25" offset="0%"></stop>
            <stop stop-color="#808080" stop-opacity="0.12" offset="54%"></stop>
            <stop stop-color="#808080" stop-opacity="0.1" offset="100%"></stop>
        </linearGradient>
    </defs>
    <g id="Empty-States" stroke="none" stroke-width="1" fill="none" fill-rule="evenodd" opacity="0.698883929">
        <g id="search-not-initiated" transform="translate(-686.000000, -353.000000)">
            <g id="undraw_fishing_hoxa" transform="translate(686.000000, 353.000000)">
                <path d="M14.7183073,64.8566186 C7.27549182,77.5834752 12.2956341,93.4692316 13.5157105,108.126527 C14.2564209,117.084668 13.479821,126.104061 11.2188905,134.801681 C8.0096352,147.14947 1.86031047,158.732103 0.2871461,171.367702 C-1.28601827,184.003302 3.57331167,198.89225 15.6447263,203.286631 C18.6407304,204.378206 21.881449,204.746744 24.797047,206.038383 C32.7048199,209.548272 36.2112285,218.940734 36.4804144,227.511883 C36.7496003,236.083031 34.6240804,244.608551 35.0086317,253.176189 C35.2253788,257.998776 36.3685449,263.035467 39.6721901,266.583964 C42.7101453,269.844651 47.1289892,271.406551 51.3835248,272.796467 C64.8358282,277.194358 78.882438,281.083315 92.9849826,279.724988 C107.087527,278.366661 121.382347,270.708084 126.801025,257.753084 C128.762236,253.063873 129.489388,247.925396 131.461087,243.250224 C133.432787,238.575052 137.16643,234.085904 142.242507,233.352338 C145.207048,232.924131 148.185572,233.829682 151.045236,234.721194 L192.038403,247.532288 C198.331061,249.501336 205.392821,251.424755 211.300927,248.508037 C214.338882,247.005805 216.642694,244.397958 218.859108,241.839249 C236.373671,221.745136 254.622378,199.952236 257.828137,173.603502 C258.95732,164.319846 258.128786,154.874735 259.383822,145.608629 C260.638858,136.342523 264.480875,126.742977 272.45507,121.741385 C278.604395,117.880508 286.215014,117.301376 293.458562,116.522181 C305.183881,115.258621 316.982613,113.117589 327.617205,108.073879 C338.251796,103.030169 347.715253,94.7994795 352.242471,84.024121 C353.581409,80.837142 354.47986,77.3097039 353.724741,73.9437205 C352.375316,67.9383009 346.358836,64.2599375 340.719916,61.6591099 C323.855594,53.9373547 305.564936,49.8027058 287.347693,46.1629511 C278.992442,44.4922441 270.567273,42.9092843 262.030234,43.0040513 C254.650345,43.0812688 247.347367,44.4080068 240.079347,45.6680568 C177.837973,56.4118263 110.583448,63.1964412 48.1148389,50.0975364 C35.0156236,47.3492935 21.8534817,52.6527354 14.7183073,64.8566186 Z" id="Shape" fill="#386DB0" fill-rule="nonzero" opacity="0.1"></path>
                <path d="M104,40.7068518 C104,40.7068518 179.410508,16.9543515 209.047076,34.3987312 C229.430757,46.3945583 275.362357,42.945888 302.062946,39.6185277 C316.832277,37.7761053 331.832554,39.3882676 345.857379,44.3253561 C359.370588,49.0876406 373.577502,54.8377351 372.981898,57.7803694 C371.857257,63.346766 104,60.0055416 104,60.0055416 L104,40.7068518 Z" id="Shape" fill="#999999" fill-rule="nonzero" opacity="0.4"></path>
                <path d="M282,149.293357 L281.720411,149.317886 L281.807782,149.100627 L281.458296,149.244298 L281.807782,148.322697 C281.807782,148.322697 280.671951,148.781745 278.568041,149.531642 C226.910413,151.946028 118.817674,108 118.817674,108 L58.9855525,116.238347 C58.6378361,115.912699 58.3087918,115.567568 58,115.204611 L58.2656099,116.287406 C58.1724134,116.184616 58.0838768,116.082995 58,115.982541 L58.0943614,116.360994 L58,116.360994 L58.1467844,116.564237 L64.9932287,144.408518 C64.9932287,144.408518 187.006022,211.815088 260.436671,203.247347 L281.33947,150.278034 L282,149.293357 Z" id="Shape" fill="url(#linearGradient-1)" fill-rule="nonzero"></path>
                <path d="M120.405042,111 C120.405042,111 229.594958,154.864612 278,150.402451 L245.73114,198 L129.046046,161.931149 L72,136.272851 L98.6308323,118.424204 L120.405042,111 Z" id="Shape" fill="#999999" fill-rule="nonzero"></path>
                <path d="M120.405042,111 C120.405042,111 229.594958,154.864612 278,150.402451 L245.73114,198 L129.046046,161.931149 L72,136.272851 L98.6308323,118.424204 L120.405042,111 Z" id="Shape" fill="#000000" fill-rule="nonzero" opacity="0.1"></path>
                <polygon id="Shape" fill="#FFFFFF" fill-rule="nonzero" opacity="0.1" points="115.986686 124 145 130.538998 85.8511566 141 72 128.668719"></polygon>
                <polygon id="Shape" fill="#FFFFFF" fill-rule="nonzero" opacity="0.1" points="129 150.66 163.606788 138 188 146.124706 145.263319 162"></polygon>
                <polygon id="Shape" fill="#FFFFFF" fill-rule="nonzero" opacity="0.1" points="176 165.218843 213.555392 155 247 164.104628 211.5 176"></polygon>
                <polygon id="Shape" fill="#999999" fill-rule="nonzero" points="62 119.298214 121 111 121 125.667868 71.6144758 133"></polygon>
                <polygon id="Shape" fill="#FFFFFF" fill-rule="nonzero" opacity="0.1" points="63 120.069638 121 111 121 125.667868 72.1395628 133"></polygon>
                <path d="M10,71.0270753 C10.0067972,59.3244848 18.1212741,49.1549124 29.6178645,46.4407347 C54.0456089,40.6375535 95.0119137,33.6064429 115.050161,45.4001164 C144.687149,62.858222 228.339825,47.6270395 228.339825,47.6270395 C228.339825,47.6270395 280.106465,63.2363133 278.981941,68.7862773 C277.857417,74.3362413 10.0105096,71.0132004 10.0105096,71.0132004 L10,71.0270753 Z" id="Shape" fill="#999999" fill-rule="nonzero"></path>
                <path d="M216.559643,51.7169208 C217.185487,51.1376826 217.773917,50.4534363 217.954188,49.6201463 C218.134458,48.7868563 217.777318,47.7875857 216.978006,47.4827235 C216.083457,47.1439877 215.124283,47.7604868 214.3998,48.3837607 C213.675317,49.0070345 212.841992,49.721767 211.893021,49.5896601 C212.887102,48.6918348 213.335155,47.340337 213.073282,46.029547 C213.027944,45.762701 212.910341,45.5132367 212.733149,45.3080397 C212.236555,44.7796119 211.335203,45.0065649 210.739971,45.4232099 C208.845431,46.7510542 208.318225,49.3118967 208.308021,51.6186874 C208.117547,50.7853974 208.277409,49.9250085 208.274008,49.068007 C208.270607,48.2110054 208.035915,47.2693199 207.311432,46.8120266 C206.861253,46.5725198 206.355544,46.4556676 205.84546,46.4732908 C204.995128,46.4428046 204.046157,46.5274886 203.46453,47.1507624 C202.743449,47.9196926 202.930522,49.2136633 203.556366,50.0638902 C204.18221,50.914117 205.141385,51.4425448 206.022329,52.0285577 C206.72848,52.4473324 207.330713,53.0193045 207.784217,53.7019125 C207.836999,53.7968198 207.88029,53.8966618 207.913467,54 L213.250151,54 C214.452113,53.3918612 215.565473,52.623801 216.559643,51.7169208 Z" id="Shape" fill="#999999" fill-rule="nonzero"></path>
                <path d="M95.559643,38.7304702 C96.1854874,38.151232 96.7739171,37.4669858 96.9541875,36.6336957 C97.1344579,35.8004057 96.7773184,34.8011351 95.9780064,34.4962729 C95.0834571,34.1575371 94.1242826,34.7740363 93.3997998,35.3973101 C92.6753169,36.0205839 91.8419915,36.7353165 90.893021,36.6032095 C91.8917643,35.7026509 92.3402497,34.3447007 92.0732818,33.029547 C92.0279436,32.762701 91.9103412,32.5132367 91.733149,32.3080397 C91.2365552,31.7796119 90.3352032,32.0065649 89.7399708,32.4232099 C87.8454312,33.7510542 87.3182253,36.3118967 87.3080213,38.6186874 C87.117547,37.7853974 87.2774094,36.9250085 87.2740081,36.068007 C87.2706067,35.2110054 87.0359151,34.2693199 86.3114322,33.8120266 C85.8612535,33.5725198 85.3555436,33.4556676 84.8454599,33.4732908 C83.9951279,33.4428046 83.0461574,33.5274886 82.4645303,34.1507624 C81.7434488,34.9196926 81.9305218,36.2136633 82.5563661,37.0638902 C83.1822105,37.914117 84.141385,38.4425448 85.0223289,39.0285577 C85.7284795,39.4473324 86.3307133,40.0193045 86.7842168,40.7019125 C86.8369987,40.7968198 86.8802901,40.8966618 86.9134673,41 L92.2501509,41 C93.4513161,40.3960538 94.5646368,39.6325788 95.559643,38.7304702 Z" id="Shape" fill="#999999" fill-rule="nonzero"></path>
                <path d="M275.559643,65.7169208 C276.185487,65.1376826 276.773917,64.4534363 276.954188,63.6201463 C277.134458,62.7868563 276.777318,61.7875857 275.978006,61.4827235 C275.083457,61.1439877 274.124283,61.7604868 273.3998,62.3837607 C272.675317,63.0070345 271.841992,63.721767 270.893021,63.5896601 C271.887102,62.6918348 272.335155,61.340337 272.073282,60.029547 C272.027944,59.762701 271.910341,59.5132367 271.733149,59.3080397 C271.236555,58.7796119 270.335203,59.0065649 269.739971,59.4232099 C267.845431,60.7510542 267.318225,63.3118967 267.308021,65.6186874 C267.117547,64.7853974 267.277409,63.9250085 267.274008,63.068007 C267.270607,62.2110054 267.035915,61.2693199 266.311432,60.8120266 C265.861253,60.5725198 265.355544,60.4556676 264.84546,60.4732908 C263.995128,60.4428046 263.046157,60.5274886 262.46453,61.1507624 C261.743449,61.9196926 261.930522,63.2136633 262.556366,64.0638902 C263.18221,64.914117 264.141385,65.4425448 265.022329,66.0285577 C265.72848,66.4473324 266.330713,67.0193045 266.784217,67.7019125 C266.836999,67.7968198 266.88029,67.8966618 266.913467,68 L272.250151,68 C273.452113,67.3918612 274.565473,66.623801 275.559643,65.7169208 Z" id="Shape" fill="#999999" fill-rule="nonzero"></path>
                <path d="M205.372478,178.554228 C201.904093,175.092963 199.160601,170.98293 197.710817,166.297773 C196.597465,162.68922 195.602039,159.164831 195.602039,158.025104 C195.602039,156.029703 192.858546,148.521529 189.469935,144.902455 C189.35201,144.776208 189.230616,144.653468 189.123096,144.551769 C188.533471,142.195163 187.357689,136.251045 189.397099,132.561835 C189.89581,131.660879 190.312572,130.715993 190.642249,129.738817 C191.864641,125.955585 193.743799,122.42277 196.191664,119.305926 C196.682491,118.706477 197.116775,118.061914 197.48884,117.380663 C198.338594,117.52795 198.838041,117.289484 198.73399,116.444333 C198.73399,116.412771 198.73399,116.381209 198.73399,116.349647 C199.125917,116.258469 199.330552,115.970907 199.261184,115.406304 C198.744395,111.247175 200.815021,98.2472657 200.815021,98.2472657 C202.781099,92.3822398 203.649135,86.1981587 203.374689,80.0116236 C202.857899,70.1328151 192.497834,68.0532505 192.497834,68.0532505 L191.641143,68.9124298 C190.947467,68.4810867 190.170548,67.9971408 189.383225,67.4851401 C189.700747,67.3460967 189.950384,67.0848569 190.076902,66.7592213 C190.975214,64.8760405 191.020303,62.2949958 191.148633,60.2540066 C191.22415,59.5952789 191.193697,58.9285342 191.058455,58.2796477 C190.892565,57.7251973 190.624231,57.2075663 190.267663,56.7541661 C188.645883,54.5946278 186.159091,53.2751274 183.480035,53.1526267 C182.619875,53.1175582 181.745842,53.2087364 180.903025,53.2087364 C179.321441,53.2087364 177.739858,52.9001332 176.165211,53.0333937 C174.590565,53.1666541 172.92574,53.868025 172.228595,55.2953147 C171.791579,56.1895625 171.78811,57.2661668 171.271321,58.1007981 C170.674759,59.0792104 169.51285,59.5771837 168.843452,60.5065001 C168.4777,61.0165157 168.279914,61.6299507 168.278105,62.2599273 C168.268559,62.4646643 168.310315,62.6685223 168.399498,62.8525856 C168.558271,63.0747087 168.754309,63.266986 168.978719,63.420696 C169.767135,64.1451662 169.951731,65.3262749 169.422672,66.261248 C170.515372,66.4677548 171.380709,67.3137092 171.621628,68.4109496 C171.632827,68.5912045 171.698169,68.7637104 171.80892,68.9054161 C171.908028,68.9873681 172.028498,69.0385271 172.155759,69.052704 C173.165059,69.2280467 174.184764,68.7476077 174.947808,68.0567574 C175.010239,68.1724836 175.069202,68.2847029 175.13857,68.4074428 C177.019412,71.5275564 180.878526,72.7814244 184.204927,71.3532004 C184.348287,71.5355568 184.489334,71.723758 184.62807,71.9178039 C185.203494,72.7233029 185.676584,73.598684 186.036234,74.5233966 L185.238506,75.3229594 C184.53753,76.4344497 183.906201,77.5893034 183.348236,78.7807177 C182.055586,81.2750362 181.107952,83.9370744 180.531908,86.6921809 C178.652043,88.5718548 175.745537,91.9524623 175.398698,95.0805763 C175.398698,95.0805763 161.930961,101.841791 158.306499,98.2016766 C154.682037,94.5615619 150.020528,100.800256 151.054107,101.841791 C152.087686,102.883327 155.198827,104.962892 158.823289,102.893848 L173.331541,102.893848 C175.538446,102.596281 177.662488,101.8482 179.574634,100.69505 C179.317973,101.396421 178.998882,102.12234 178.645106,102.862286 C178.10057,103.914342 177.514413,104.966399 176.966408,105.909742 C176.664659,106.158729 176.366378,106.400702 176.068097,106.632154 C174.212511,107.407169 171.878288,108.385581 169.453887,109.437638 C168.116989,109.725465 166.849005,110.275936 165.721905,111.057804 C160.123933,113.512602 155.056623,115.904277 155.205763,116.40225 C154.831178,116.651237 154.636948,116.8371 154.688974,116.935292 C154.741,117.033484 154.786089,117.152717 154.858925,117.335074 C154.460061,118.818473 154.383756,121.851902 155.205763,127.855636 C157.286794,142.93511 152.61488,145.533689 152.61488,145.533689 C152.61488,145.533689 148.990418,150.211832 144.845699,149.692818 C140.700979,149.173803 144.328909,153.332933 147.967245,152.813918 C150.412456,152.463233 155.691337,152.112547 158.861441,151.91967 C159.441197,151.883828 159.974801,151.587979 160.316395,151.112994 C160.657988,150.638009 160.771847,150.03356 160.626849,149.464872 C160.027192,147.166169 159.948939,144.760186 160.397935,142.426616 C161.178322,138.512966 163.131022,131.064408 163.828167,126.950868 L163.828167,126.905279 C164.868683,125.853223 166.80751,124.404892 169.197227,124.748563 C170.442377,124.927413 172.665611,123.752617 175.05186,122.139464 C173.803242,129.325008 172.849436,137.043594 173.858736,139.828037 C175.939766,145.547716 178.003455,148.146295 178.003455,148.146295 C178.003455,148.146295 178.998882,148.191884 180.396641,148.17435 L181.066039,149.226406 L190.430677,163.75881 C190.430677,163.75881 198.716648,175.717183 190.947467,177.277733 C190.947467,177.277733 184.732121,178.838284 187.323005,180.917848 C187.323005,180.917848 205.452251,181.436863 205.96904,179.865792 C206.093902,179.462504 205.830305,179.010119 205.372478,178.554228 Z" id="Shape" fill="url(#linearGradient-2)" fill-rule="nonzero"></path>
                <path d="M195,70.9414302 C195,70.9414302 187.758375,85.0954455 187.241625,78.0184378 C187.091684,75.9136475 186.34239,73.8917857 185.078403,72.1812996 C183.7554,70.3851454 182.014849,68.9217018 180,67.9114121 C180,67.9114121 184.137562,60.3294014 183.620813,62.3389651 C183.357092,63.3837989 186.332858,65.5953638 189.32288,67.5213408 C192.156094,69.3706967 195,70.9414302 195,70.9414302 Z" id="Shape" fill="#FFB9B9" fill-rule="nonzero"></path>
                <path d="M162.342583,140.783098 C161.894187,143.066264 161.972052,145.419368 162.570439,147.668977 C162.722098,148.224806 162.612483,148.818284 162.271773,149.286011 C161.931064,149.753738 161.395184,150.046398 160.811674,150.083415 C157.646609,150.269141 152.380995,150.612558 149.942222,150.955976 C146.325004,151.464095 142.707787,147.395644 146.841241,147.903762 C150.974695,148.411881 154.591912,143.835312 154.591912,143.835312 C154.591912,143.835312 159.241603,141.291216 157.176656,126.541769 C156.354237,120.672127 156.432563,117.700511 156.82063,116.25325 C156.896088,115.885818 157.06102,115.541902 157.301265,115.251031 C157.301265,115.251031 157.301265,115.251031 157.301265,115.251031 C157.409441,115.128723 157.553894,115.042924 157.714254,115.005732 C158.081935,114.970488 158.446345,115.099047 158.707565,115.356158 C158.707565,115.356158 165.425762,121.460586 165.941999,122.984941 C166.070168,123.359897 165.977601,124.334083 165.746185,125.651686 C165.069737,129.671077 163.122278,136.952937 162.342583,140.783098 Z" id="Shape" fill="#FFB9B9" fill-rule="nonzero"></path>
                <path d="M162.342583,140.783098 C161.894187,143.066264 161.972052,145.419368 162.570439,147.668977 C162.722098,148.224806 162.612483,148.818284 162.271773,149.286011 C161.931064,149.753738 161.395184,150.046398 160.811674,150.083415 C157.646609,150.269141 152.380995,150.612558 149.942222,150.955976 C146.325004,151.464095 142.707787,147.395644 146.841241,147.903762 C150.974695,148.411881 154.591912,143.835312 154.591912,143.835312 C154.591912,143.835312 159.241603,141.291216 157.176656,126.541769 C156.354237,120.672127 156.432563,117.700511 156.82063,116.25325 C156.896088,115.885818 157.06102,115.541902 157.301265,115.251031 C157.301265,115.251031 157.301265,115.251031 157.301265,115.251031 C157.409441,115.128723 157.553894,115.042924 157.714254,115.005732 C158.081935,114.970488 158.446345,115.099047 158.707565,115.356158 C158.707565,115.356158 165.425762,121.460586 165.941999,122.984941 C166.070168,123.359897 165.977601,124.334083 165.746185,125.651686 C165.069737,129.671077 163.122278,136.952937 162.342583,140.783098 Z" id="Shape" fill="#000000" fill-rule="nonzero" opacity="0.05"></path>
                <path d="M205.968493,177.910595 C205.469826,179.423658 187.9993,178.919303 187.9993,178.919303 C185.502528,176.898408 191.493405,175.385345 191.493405,175.385345 C198.980282,173.872283 190.994739,162.258222 190.994739,162.258222 L181.949958,148.132826 L180,145.078874 C180,145.078874 182.496772,141.544916 186.98821,142.04927 C188.019934,142.164054 189.075732,142.880585 190.062748,143.948425 C193.326435,147.461513 195.974526,154.75204 195.974526,156.689456 C195.974526,157.795557 196.93403,161.211253 198.007023,164.720862 C199.403289,169.270485 202.061698,173.256623 205.390727,176.620144 C205.841247,177.089715 206.0923,177.53146 205.968493,177.910595 Z" id="Shape" fill="#FFB9B9" fill-rule="nonzero"></path>
                <path d="M164.75818,125.604098 C164.27608,126.019807 163.83989,126.487875 163.457347,127 C159.794473,126.532373 156.977142,118.327956 156.169256,116.248061 C156.100791,116.070084 156.046019,115.937473 156.00494,115.857209 C155.963861,115.776944 156.179526,115.539641 156.631394,115.249991 C156.631394,115.249991 156.631394,115.249991 156.631394,115.249991 L157.028491,115.005708 C157.382022,114.97061 157.732409,115.098637 157.983576,115.354684 C157.983576,115.354684 164.443241,121.433839 164.939612,122.951883 C165.069695,123.325287 164.980691,124.291949 164.75818,125.604098 Z" id="Shape" fill="#000000" fill-rule="nonzero" opacity="0.1"></path>
                <path d="M180.332865,104 C180.332865,104 155.501371,113.990604 156.007637,115 C156.513904,116.009396 159.554994,125.50047 163.608617,126 C163.608617,126 166.14344,122.499843 169.690796,122.999374 C173.238153,123.498904 184.892755,113.008769 184.892755,113.008769 L193,107.007516 L180.332865,104 Z" id="Shape" fill="#4C4C78" fill-rule="nonzero"></path>
                <path d="M180.332865,104 C180.332865,104 155.501371,113.990604 156.007637,115 C156.513904,116.009396 159.554994,125.50047 163.608617,126 C163.608617,126 166.14344,122.499843 169.690796,122.999374 C173.238153,123.498904 184.892755,113.008769 184.892755,113.008769 L193,107.007516 L180.332865,104 Z" id="Shape" fill="#386DB0" fill-rule="nonzero"></path>
                <path d="M191,145.505622 C191,147.56442 185.442257,147.955761 182.04626,148 L180,145.012191 C180,145.012191 182.620079,141.554772 187.333333,142.048203 C188.41601,142.160501 189.52395,142.861513 190.559711,143.906226 C190.7979,144.889684 191,145.505622 191,145.505622 Z" id="Shape" fill="#000000" fill-rule="nonzero" opacity="0.1"></path>
                <path d="M178.420761,107 C178.420761,107 172.402627,132.469844 174.409823,137.976838 C176.41702,143.483831 178.420761,145.968862 178.420761,145.968862 C178.420761,145.968862 189.451704,146.467933 189.451704,143.470064 C189.451704,143.470064 186.943573,135.478039 189.451704,130.979514 C189.934773,130.113472 190.338314,129.205717 190.657404,128.26732 C191.834438,124.635921 193.648629,121.241291 196.015686,118.24115 C197.235204,116.740495 198.167981,115.043652 197.974516,113.49481 C197.47358,109.495356 178.420761,107 178.420761,107 Z" id="Shape" fill="#386DB0" fill-rule="nonzero"></path>
                <path d="M183.366688,85 C183.366688,85 177.121021,90.0561283 176.601146,94.5705285 C176.601146,94.5705285 163.070063,101.123354 159.427354,97.5951766 C155.784646,94.0669992 151.102189,100.126713 152.149109,101.130299 C153.196029,102.133885 156.311692,104.154947 159.9544,102.137358 L174.521647,102.137358 C174.521647,102.137358 184.410023,101.130299 184.919141,93.5704152 C185.42826,86.0105311 183.366688,85 183.366688,85 Z" id="Shape" fill="#FFB9B9" fill-rule="nonzero"></path>
                <path d="M183.366688,85 C183.366688,85 177.121021,90.0561283 176.601146,94.5705285 C176.601146,94.5705285 163.070063,101.123354 159.427354,97.5951766 C155.784646,94.0669992 151.102189,100.126713 152.149109,101.130299 C153.196029,102.133885 156.311692,104.154947 159.9544,102.137358 L174.521647,102.137358 C174.521647,102.137358 184.410023,101.130299 184.919141,93.5704152 C185.42826,86.0105311 183.366688,85 183.366688,85 Z" id="Shape" fill="#000000" fill-rule="nonzero" opacity="0.05"></path>
                <path d="M187.954706,67.060421 C187.862744,67.3819725 188.092649,66.7628148 187.954706,67.060421 C187.204863,68.7023863 186.759201,71.3158478 185.040221,72 C183.727165,70.2358301 181.9997,68.7984462 180,67.8061469 C180,67.8061469 184.106453,60.35915 183.593589,62.3329291 C183.328314,63.3557367 185.015462,65.1687401 187.954706,67.060421 Z" id="Shape" fill="#000000" fill-rule="nonzero" opacity="0.1"></path>
                <path d="M188.999855,65.0000727 C188.999855,68.8660258 185.86588,72 181.999927,72 C178.133974,72 175,68.8660258 175,65.0000727 C175,61.1341195 178.133974,58.0001453 181.999927,58.0001453 C183.860081,57.988129 185.64753,58.72176 186.962885,60.0371148 C188.27824,61.3524697 189.011871,63.1399188 188.999855,65.0000727 Z" id="Shape" fill="#FFB9B9" fill-rule="nonzero"></path>
                <path d="M185.176871,77.0837692 L192.288588,70 C192.288588,70 202.438184,72.0254281 202.956164,81.6366249 C203.211454,87.6452617 202.35003,93.6491694 200.415265,99.346048 C200.415265,99.346048 198.381846,111.99713 198.892825,116.0445 C199.403805,120.09187 185.684351,109.971702 185.684351,109.971702 C185.684351,109.971702 174.509296,111.99713 175.016775,110.477187 C175.524255,108.957245 181.621013,100.367477 180.616553,97.3206198 C180.17907,96.0133297 180.305065,93.1163749 180.592054,90.2368506 C181.068239,85.5533734 182.64229,81.0468063 185.187371,77.0802831 L185.176871,77.0837692 Z" id="Shape" fill="#000000" fill-rule="nonzero" opacity="0.1"></path>
                <path d="M201.405412,97.3523896 C201.405412,97.3523896 199.375705,109.990224 199.89363,114.042554 C200.411555,118.094884 186.686536,107.97277 186.686536,107.97277 C186.686536,107.97277 184.936788,108.289848 182.837091,108.579051 C179.663049,109.018083 175.712119,109.394396 176.016575,108.478004 C176.097386,108.263077 176.194485,108.054576 176.307033,107.854301 C177.633342,105.359487 182.525636,98.0666868 181.605269,95.3105448 C181.167832,94.0073879 181.293814,91.1083865 181.580772,88.2302913 C182.059122,83.5491004 183.634123,79.0450087 186.179109,75.0802535 L193.290083,68 C193.290083,68 203.438619,70.0244229 203.956544,79.6308495 C204.211033,85.6441274 203.346103,91.6523977 201.405412,97.3523896 Z" id="Shape" fill="#CBCDDA" fill-rule="nonzero"></path>
                <path d="M188.999988,65.2657624 C189.001818,66.2708673 188.801222,67.2652803 188.41106,68.1852573 C187.815047,67.6766963 187.300143,67.073703 186.885358,66.3985407 C186.288155,65.4402047 185.637265,64.5190579 184.936042,63.6398504 C184.785322,63.4170095 184.574419,63.245428 184.329894,63.1467166 C183.868396,63.0109262 183.400009,63.446885 183.269136,63.9292985 C183.188982,64.4225245 183.188982,64.926194 183.269136,65.4194201 C183.348418,65.9208964 183.211132,66.4331746 182.893738,66.8202058 C182.297922,67.3955285 181.333596,66.995304 180.655124,66.5236109 C179.976651,66.0519177 179.125978,65.5266231 178.406178,65.9232741 C178.138352,66.0983505 177.912268,66.3341518 177.744925,66.6129467 C177.228929,67.4583882 176.644799,68.2569307 175.998807,69 C174.476269,66.3695111 174.711664,63.0299577 176.58686,60.657302 C178.462055,58.2846463 181.572235,57.3910945 184.356549,58.4250774 C187.140864,59.4590604 188.998237,62.1973632 188.996544,65.2657624 L188.999988,65.2657624 Z" id="Shape" fill="#000000" fill-rule="nonzero" opacity="0.1"></path>
                <path d="M190.960807,59.7571268 C191.033721,59.1435202 191.004767,58.5224953 190.875054,57.9178357 C190.716129,57.4028188 190.458963,56.9215348 190.116999,56.4991447 C188.566601,54.4914255 186.177556,53.2604227 183.599784,53.1410197 C182.773127,53.1109769 181.949899,53.1944293 181.123242,53.1944293 C179.603702,53.1944293 178.084162,52.907353 176.568052,53.0308625 C175.051942,53.1543721 173.453509,53.808639 172.794927,55.1372014 C172.376453,55.9717255 172.373023,56.9731544 171.875657,57.7642832 C171.302828,58.6755835 170.184611,59.1395789 169.54318,60.007484 C169.192154,60.4833397 169.002674,61.0540372 169.001222,61.6398131 C168.992296,61.8299999 169.032387,62.0193394 169.117846,62.190599 C169.27012,62.3965371 169.458169,62.575023 169.673524,62.7180183 C170.432074,63.396 170.608525,64.494158 170.098858,65.3651287 C171.153639,65.5572206 171.986737,66.3469113 172.211808,67.3679865 C172.222103,67.5355436 172.284286,67.6961411 172.390174,67.8286438 C172.487963,67.9064745 172.607398,67.9541292 172.733185,67.9655058 C173.731348,68.1357487 174.746662,67.6550628 175.477276,66.9807674 C176.20789,66.3064719 176.742987,65.445243 177.329537,64.6440999 C177.493779,64.3829272 177.718042,64.1623955 177.984689,63.9998473 C178.701582,63.6293186 179.54539,64.1266949 180.221122,64.5639856 C180.896855,65.0012762 181.860717,65.375143 182.454126,64.8343714 C182.770521,64.4742949 182.907356,63.9966147 182.828008,63.5291757 C182.746999,63.068529 182.746999,62.5978362 182.828008,62.1371895 C182.958353,61.6865465 183.421418,61.2792987 183.884483,61.4061464 C184.126688,61.4991545 184.334613,61.6607997 184.481323,61.8701418 C185.181282,62.6910577 185.830709,63.5515653 186.426197,64.4471522 C187.071059,65.4185383 188.998782,67.7184867 189.938633,65.8124336 C190.796162,64.0632711 190.854474,61.6565036 190.960807,59.7571268 Z" id="Shape" fill="#B96B6B" fill-rule="nonzero"></path>
                <path d="M181,95.0740741 C181,95.0740741 188.695299,94.6111111 190.749028,96 C192.802757,97.3888889 201,96.9259259 201,96.9259259" id="Shape" fill="#000000" fill-rule="nonzero" opacity="0.1"></path>
                <path d="M198.808898,93.0850445 C198.808898,93.0850445 196.218169,98.191023 196.218169,99.7252798 C196.218169,101.259537 194.144871,103.30052 194.144871,103.30052 C194.144871,103.30052 188.292535,106.467564 182.971904,109.532559 C179.735277,109.975945 175.706442,110.35599 176.016902,109.43051 C176.099306,109.213451 176.19832,109.002881 176.313087,108.80062 C181.833553,105.485781 189.484413,96.1324445 189.484413,96.1324445 C189.484413,91.536712 192.075143,83.3622199 192.075143,83.3622199 C192.075143,83.3622199 198.291466,80.2972252 200.361195,83.3622199 C202.430924,86.4272145 198.808898,93.0850445 198.808898,93.0850445 Z" id="Shape" fill="#000000" fill-rule="nonzero" opacity="0.05"></path>
                <path d="M62,118 L68.7481396,145.14004 C68.7481396,145.14004 186.499149,209.460928 257.373875,201.281072 L278,149.601464 C278,149.601464 227.166583,169.974721 173.223489,160.607467 C171.156206,160.244192 169.112248,159.760761 167.102187,159.159674 C150.982993,154.375361 72.7543004,130.662111 62,118 Z" id="Shape" fill="#000000" fill-rule="nonzero" opacity="0.1"></path>
                <path d="M62,118 L68.748249,145.140218 C68.748249,145.140218 186.497665,209.458055 257.373541,201.281617 L278,149.601671 C278,149.601671 227.165759,169.975062 173.22179,160.607746 C171.154474,160.244469 169.110482,159.761035 167.100389,159.159944 C150.984436,154.375599 72.7544747,130.662194 62,118 Z" id="Shape" fill="#999999" fill-rule="nonzero"></path>
                <rect id="Rectangle-path" fill="#535461" fill-rule="nonzero" transform="translate(139.000000, 84.500000) rotate(-49.880000) translate(-139.000000, -84.500000) " x="138" y="36" width="2" height="97"></rect>
                <path d="M191.190309,81.3735254 C191.190309,81.3735254 188.6324,89.5793668 188.6324,94.1656066 C188.6324,94.1656066 177.893411,107.479813 172.777594,107.991356 C167.661776,108.502898 164.596513,111.575678 166.640022,112.598763 C168.68353,113.621847 171.241439,115.160001 174.310225,112.598763 C177.379011,110.037524 193.230295,101.334252 193.230295,101.334252 C193.230295,101.334252 195.277326,99.2845557 195.277326,97.7499293 C195.277326,96.215303 197.835235,91.0928259 197.835235,91.0928259 C197.835235,91.0928259 201.414898,84.4357224 199.367866,81.3629418 C197.320835,78.2901611 191.190309,81.3735254 191.190309,81.3735254 Z" id="Shape" fill="#FFB9B9" fill-rule="nonzero"></path>
                <path d="M196.986327,73.0177118 C196.986327,73.0177118 187.611829,72.0200479 189.176039,84.9999991 C189.176039,84.9999991 195.425705,81.5047353 200.631367,84.9999991 C200.631367,85.0034393 202.712197,75.5153117 196.986327,73.0177118 Z" id="Shape" fill="#000000" fill-rule="nonzero" opacity="0.1"></path>
                <path d="M196.986327,73.0177118 C196.986327,73.0177118 187.611829,72.0200478 189.176039,85 C189.176039,85 195.425705,81.5047359 200.631367,85 C200.631367,85 202.712197,75.5153119 196.986327,73.0177118 Z" id="Shape" fill="#CBCDDA" fill-rule="nonzero"></path>
                <path d="M104,56 L101,207" id="Shape" stroke="#535461" stroke-width="2"></path>
                <path d="M93,196 C93,196 82.5989892,202.825632 89.1854325,218" id="Shape" stroke="#999999" opacity="0.15"></path>
                <path d="M98,198 C98,198 87.5989892,204.825632 94.1854325,220" id="Shape" stroke="#999999" opacity="0.15"></path>
                <path d="M105,196 C105,196 115.401011,202.825632 108.814567,218" id="Shape" stroke="#999999" opacity="0.15"></path>
                <path d="M101,200 C101,200 111.401011,206.825632 104.814567,222" id="Shape" stroke="#999999" opacity="0.15"></path>
                <path d="M55.2011952,20.6666667 L52.6319721,20.6666667 C53.6254245,20.6666666 54.4307768,19.8458553 54.4307768,18.8333333 C54.4307768,17.8208113 53.6254245,17.0000001 52.6319721,17 L31.8271912,17 C31.1845402,17 30.5907061,17.3494313 30.2693805,17.9166666 C29.948055,18.483902 29.948055,19.1827647 30.2693805,19.75 C30.5907061,20.3172354 31.1845402,20.6666667 31.8271912,20.6666667 L34.3964143,20.6666667 C33.4029619,20.6666667 32.5976096,21.487478 32.5976096,22.5 C32.5976096,23.512522 33.4029619,24.3333333 34.3964143,24.3333333 L30.7988048,24.3333333 C29.8053523,24.3333333 29,25.1541446 29,26.1666667 C29,27.1791887 29.8053523,28 30.7988048,28 L51.6035857,28 C52.5970381,28 53.4023904,27.1791887 53.4023904,26.1666667 C53.4023904,25.1541446 52.5970381,24.3333333 51.6035857,24.3333333 L55.2011952,24.3333333 C56.1946477,24.3333333 57,23.512522 57,22.5 C57,21.487478 56.1946477,20.6666667 55.2011952,20.6666667 Z" id="Shape" fill="#999999" fill-rule="nonzero" opacity="0.1"></path>
                <path d="M199.197709,3.66666667 L196.628486,3.66666667 C197.621939,3.66666667 198.427291,2.84585537 198.427291,1.83333333 C198.427291,0.820811292 197.621939,0 196.628486,0 L175.823705,0 C174.830253,-2.52453814e-15 174.0249,0.820811292 174.0249,1.83333333 C174.0249,2.84585537 174.830253,3.66666667 175.823705,3.66666667 L178.392928,3.66666667 C177.399476,3.66666667 176.594124,4.48747796 176.594124,5.5 C176.594124,6.51252204 177.399476,7.33333333 178.392928,7.33333333 L174.798805,7.33333333 C174.156154,7.33333331 173.56232,7.68276466 173.240994,8.24999998 C172.919669,8.8172353 172.919669,9.51609804 173.240994,10.0833334 C173.56232,10.6505687 174.156154,11 174.798805,11 L195.603586,11 C196.597038,11 197.40239,10.1791887 197.40239,9.16666667 C197.40239,8.15414466 196.597038,7.33333338 195.603586,7.33333333 L199.201195,7.33333333 C200.194648,7.33333333 201,6.51252204 201,5.5 C201,4.48747796 200.194648,3.66666667 199.201195,3.66666667 L199.197709,3.66666667 Z" id="Shape" fill="#999999" fill-rule="nonzero" opacity="0.1"></path>
                <path d="M274.201195,31.6666667 L271.631972,31.6666667 C272.274623,31.6666667 272.868457,31.3172354 273.189783,30.75 C273.511108,30.1827647 273.511108,29.483902 273.189783,28.9166666 C272.868457,28.3494313 272.274623,28 271.631972,28 L250.827191,28 C250.18454,28 249.590706,28.3494313 249.269381,28.9166666 C248.948055,29.483902 248.948055,30.1827647 249.269381,30.75 C249.590706,31.3172354 250.18454,31.6666667 250.827191,31.6666667 L253.38247,31.6666667 C252.389018,31.6666667 251.583665,32.487478 251.583665,33.5 C251.583665,34.512522 252.389018,35.3333333 253.38247,35.3333333 L249.798805,35.3333333 C248.805352,35.3333333 248,36.1541446 248,37.1666667 C248,38.1791887 248.805352,39 249.798805,39 L270.603586,39 C271.597038,39 272.40239,38.1791887 272.40239,37.1666667 C272.40239,36.1541446 271.597038,35.3333333 270.603586,35.3333333 L274.201195,35.3333333 C275.194648,35.3333333 276,34.512522 276,33.5 C276,32.487478 275.194648,31.6666667 274.201195,31.6666667 Z" id="Shape" fill="#999999" fill-rule="nonzero" opacity="0.1"></path>
            </g>
        </g>
    </g>
</svg>