<?xml version="1.0" encoding="UTF-8"?>
<svg width="83px" height="522px" viewBox="0 0 83 522" version="1.1" xmlns="http://www.w3.org/2000/svg" xmlns:xlink="http://www.w3.org/1999/xlink">
    <!-- Generator: Sketch 51.3 (57544) - http://www.bohemiancoding.com/sketch -->
    <title>network-illustration</title>
    <desc>Created with Sketch.</desc>
    <defs></defs>
    <g id="Species-Compendia" stroke="none" stroke-width="1" fill="none" fill-rule="evenodd">
        <g id="species-compendia-temp" transform="translate(0.000000, -545.000000)" fill-rule="nonzero">
            <g id="network-illustration" transform="translate(-12.000000, 545.000000)">
                <path d="M14.5,12.5 L8.5,11.5" id="Line-4" stroke="#AAC4E4" stroke-width="3" opacity="0.802901786" stroke-linecap="square"></path>
                <path d="M12.5,237.5 L52.5,262.5" id="Line-10" stroke="#AAC4E4" stroke-width="3" stroke-linecap="square"></path>
                <path d="M36.5,277.5 L53.5,272.5" id="Line-11" stroke="#AAC4E4" stroke-width="3" opacity="0.739676339" stroke-linecap="square"></path>
                <path d="M24.5,286.5 L12.5,426.5" id="Line-12" stroke="#AAC4E4" stroke-width="3" stroke-linecap="square"></path>
                <path d="M32.5,286.5 L69.5,375.5" id="Line-13" stroke="#AAC4E4" stroke-width="3" opacity="0.739676339" stroke-linecap="square"></path>
                <path d="M22.5,282.5 L11.5,291.5" id="Line-19" stroke="#AAC4E4" stroke-width="3" opacity="0.579910714" stroke-linecap="square"></path>
                <path d="M25.5,431.5 L69.5,394.5" id="Line-14" stroke="#AAC4E4" stroke-width="3" opacity="0.587555804" stroke-linecap="square"></path>
                <path d="M24.5,452.5 L75.5,506.5" id="Line-15" stroke="#AAC4E4" stroke-width="3" stroke-linecap="square"></path>
                <path d="M11.5,485.5 L75.5,510.5" id="Line-16" stroke="#AAC4E4" stroke-width="3" opacity="0.587555804" stroke-linecap="square"></path>
                <path d="M11,54 L21.5,28.5" id="Line-5" stroke="#AAC4E4" stroke-width="3" opacity="0.482198661" stroke-linecap="square"></path>
                <path d="M11.5,77.5 L35.5,59.5" id="Line-7" stroke="#AAC4E4" stroke-width="3" opacity="0.813950893" stroke-linecap="square"></path>
                <path d="M39.5,61.5 L10.5,133.5" id="Line-8" stroke="#AAC4E4" stroke-width="3" opacity="0.698058" stroke-linecap="square"></path>
                <path d="M11.5,202.5 L50.5,188.5" id="Line-9" stroke="#AAC4E4" stroke-width="3" opacity="0.8359375" stroke-linecap="square"></path>
                <path d="M24.5,274.5 L11.5,263.5" id="Line-17" stroke="#AAC4E4" stroke-width="3" opacity="0.579910714" stroke-linecap="square"></path>
                <path d="M22.5,278.5 L11.5,274.5" id="Line-18" stroke="#AAC4E4" stroke-width="3" stroke-linecap="square"></path>
                <circle id="Oval-2" fill="#AAC4E4" cx="30" cy="15" r="15"></circle>
                <circle id="Oval-2" fill="#AAC4E4" cx="65" cy="266" r="15"></circle>
                <circle id="Oval-2" fill="#AAC4E4" cx="80" cy="383" r="15"></circle>
                <circle id="Oval-2" fill="#AAC4E4" cx="15" cy="442" r="15"></circle>
                <circle id="Oval-2" fill="#D8D8D8" cx="61.5" cy="182.5" r="12.5"></circle>
                <circle id="Oval-2" fill="#AAC4E4" cx="61.5" cy="182.5" r="12.5"></circle>
                <circle id="Oval-2" fill="#AAC4E4" cx="29.5" cy="279.5" r="8.5"></circle>
                <circle id="Oval-2" fill="#AAC4E4" cx="43" cy="54" r="9"></circle>
                <circle id="Oval-2" fill="#AAC4E4" cx="82" cy="513" r="9"></circle>
            </g>
        </g>
    </g>
</svg>