<?xml version="1.0" encoding="UTF-8"?>
<svg width="39px" height="34px" viewBox="0 0 39 34" version="1.1" xmlns="http://www.w3.org/2000/svg" xmlns:xlink="http://www.w3.org/1999/xlink">
    <!-- Generator: Sketch 50.2 (55047) - http://www.bohemiancoding.com/sketch -->
    <title>badges/process</title>
    <desc>Created with Sketch.</desc>
    <defs></defs>
    <g id="Experiment-Page-Iteration" stroke="none" stroke-width="1" fill="none" fill-rule="evenodd">
        <g id="experiment-page-processing-info" transform="translate(-670.000000, -797.000000)" fill="#386DB0">
            <g id="processing-info-modal" transform="translate(288.000000, 605.000000)">
                <g id="pipeline-illustration" transform="translate(123.000000, 192.000000)">
                    <g id="badges/process" transform="translate(259.000000, 0.000000)">
                        <g id="icon-gears">
                            <g id="iconmonstr-gear-large" fill-rule="nonzero">
                                <path d="M25.9678005,15.36925 L25.9678005,10.63075 C23.6436824,9.80091667 23.0182912,9.76191667 22.6926117,8.97433333 C22.3647682,8.18458333 22.782417,7.70791667 23.8384409,5.48275 L20.4918406,2.132 C18.2997254,3.17525 17.7998453,3.60966667 17.0034994,3.27925 C16.2168914,2.95208333 16.1725298,2.31616667 15.3512981,-8.8817842e-16 L10.6175844,-8.8817842e-16 C9.79094278,2.32266667 9.75199108,2.95208333 8.96321914,3.27925 C8.14956139,3.61833333 7.66158314,3.17091667 5.47595993,2.132 L2.12935964,5.48275 C3.18646552,7.709 3.60303232,8.1835 3.27518884,8.97541667 C2.94842735,9.763 2.32195416,9.80308333 8.8817842e-16,10.63075 L8.8817842e-16,15.3703333 C2.31438022,16.1936667 2.94842735,16.237 3.27518884,17.0256667 C3.60411431,17.8208333 3.18754751,18.2899167 2.12935964,20.51725 L5.47595993,23.868 C7.63886132,22.8388333 8.1484794,22.3805833 8.96321914,22.72075 C9.75090909,23.0479167 9.78986079,23.6740833 10.6175844,26 L15.3502161,26 C16.1703658,23.6914167 16.2147274,23.0500833 17.0132373,22.7164167 C17.8193211,22.38275 18.2964794,22.8236667 20.4918406,23.8669167 L23.8384409,20.5161667 C22.783499,18.2953333 22.3647682,17.8165 22.6926117,17.0245833 C23.0172092,16.2380833 23.6447644,16.198 25.9678005,15.36925 Z M20.693091,16.1969167 C20.0687818,17.7070833 20.6195156,18.85975 21.221103,20.0730833 L20.048224,21.2474167 C18.8656071,20.6591667 17.7100399,20.08175 16.1822677,20.7165833 C14.6718073,21.346 14.2455026,22.5506667 13.8148699,23.8333333 L12.1550946,23.8333333 C11.7244619,22.5495833 11.2992392,21.3449167 9.79310677,20.71875 C8.25776056,20.08175 7.0805536,20.67 5.92065852,21.2474167 L4.74886152,20.0730833 C5.35153089,18.8619167 5.90226466,17.7114167 5.27579147,16.19475 C4.64931828,14.6878333 3.44614353,14.2620833 2.16398338,13.8309167 L2.16398338,12.1701667 C3.44614353,11.739 4.64931828,11.31325 5.27470948,9.80416667 C5.90010067,8.294 5.34828491,7.14025 4.74669753,5.92691667 L5.91957652,4.75258333 C7.09029153,5.33541667 8.25884255,5.91933333 9.79310677,5.28125 C11.2992392,4.65616667 11.7244619,3.45041667 12.1550946,2.16666667 L13.8148699,2.16666667 C14.2455026,3.45041667 14.6718073,4.65508333 16.1779397,5.28125 C17.7132859,5.91825 18.8894109,5.33 20.050388,4.75258333 L21.223267,5.92691667 C20.6216796,7.14133333 20.0709458,8.29616667 20.695255,9.80525 C21.3195642,11.3121667 22.522739,11.7379167 23.8059811,12.1701667 L23.8059811,13.832 C22.520575,14.2631667 21.3152362,14.6889167 20.693091,16.1969167 Z M12.9839003,9.75 C14.7735145,9.75 16.2298753,11.2081667 16.2298753,13 C16.2298753,14.7918333 14.7735145,16.25 12.9839003,16.25 C11.194286,16.25 9.73792519,14.7918333 9.73792519,13 C9.73792519,11.2081667 11.194286,9.75 12.9839003,9.75 Z M12.9839003,7.58333333 C9.99543921,7.58333333 7.57394181,10.0078333 7.57394181,13 C7.57394181,15.9921667 9.99543921,18.4166667 12.9839003,18.4166667 C15.9723613,18.4166667 18.3938587,15.9921667 18.3938587,13 C18.3938587,10.0078333 15.9723613,7.58333333 12.9839003,7.58333333 Z" id="Shape"></path>
                            </g>
                            <g id="iconmonstr-gear-med" transform="translate(22.971516, 16.000000)" fill-rule="nonzero">
                                <path d="M15.9801849,9.458 L15.9801849,6.542 C14.5499584,6.03133333 14.1651023,6.00733333 13.9646841,5.52266667 C13.7629343,5.03666667 14.0199489,4.74333333 14.6698098,3.374 L12.6103634,1.312 C11.2613695,1.954 10.9537509,2.22133333 10.4636919,2.018 C9.97962549,1.81666667 9.952326,1.42533333 9.44695266,-8.8817842e-16 L6.53389811,-8.8817842e-16 C6.02519556,1.42933333 6.00122528,1.81666667 5.51582716,2.018 C5.0151147,2.22666667 4.71482039,1.95133333 3.3698215,1.312 L1.31037516,3.374 C1.96090186,4.744 2.21725066,5.036 2.01550082,5.52333333 C1.81441683,6.008 1.42889487,6.03266667 8.8817842e-16,6.542 L8.8817842e-16,9.45866667 C1.42423398,9.96533333 1.81441683,9.992 2.01550082,10.4773333 C2.2179165,10.9666667 1.9615677,11.2553333 1.31037516,12.626 L3.3698215,14.688 C4.70083773,14.0546667 5.01444886,13.7726667 5.51582716,13.982 C6.00055944,14.1833333 6.02452972,14.5686667 6.53389811,16 L9.44628682,16 C9.95099432,14.5793333 9.9782938,14.1846667 10.4696845,13.9793333 C10.9657361,13.774 11.259372,14.0453333 12.6103634,14.6873333 L14.6698098,12.6253333 C14.0206148,11.2586667 13.7629343,10.964 13.9646841,10.4766667 C14.1644364,9.99266667 14.5506242,9.968 15.9801849,9.458 Z M12.7342099,9.96733333 C12.3500196,10.8966667 12.6889327,11.606 13.0591403,12.3526667 L12.3373686,13.0753333 C11.6096043,12.7133333 10.8984861,12.358 9.95831857,12.7486667 C9.02880448,13.136 8.76646311,13.8773333 8.50145838,14.6666667 L7.48005823,14.6666667 C7.21505349,13.8766667 6.95337797,13.1353333 6.02652724,12.75 C5.08169881,12.358 4.35726376,12.72 3.64348216,13.0753333 L2.92237632,12.3526667 C3.29324978,11.6073333 3.63216287,10.8993333 3.2466409,9.966 C2.86111894,9.03866667 2.12070371,8.77666667 1.33168208,8.51133333 L1.33168208,7.48933333 C2.12070371,7.224 2.86111894,6.962 3.24597506,6.03333333 C3.63083118,5.104 3.29125225,4.394 2.92104464,3.64733333 L3.64281632,2.92466667 C4.36325633,3.28333333 5.08236465,3.64266667 6.02652724,3.25 C6.95337797,2.86533333 7.21505349,2.12333333 7.48005823,1.33333333 L8.50145838,1.33333333 C8.76646311,2.12333333 9.02880448,2.86466667 9.95565521,3.25 C10.9004836,3.642 11.6242529,3.28 12.3387003,2.92466667 L13.060472,3.64733333 C12.6902644,4.39466667 12.3513513,5.10533333 12.7355415,6.034 C13.1197318,6.96133333 13.8601471,7.22333333 14.6498345,7.48933333 L14.6498345,8.512 C13.8588154,8.77733333 13.1170685,9.03933333 12.7342099,9.96733333 Z M7.99009246,6 C9.09139354,6 9.98761558,6.89733333 9.98761558,8 C9.98761558,9.10266667 9.09139354,10 7.99009246,10 C6.88879139,10 5.99256935,9.10266667 5.99256935,8 C5.99256935,6.89733333 6.88879139,6 7.99009246,6 Z M7.99009246,4.66666667 C6.15103951,4.66666667 4.66088727,6.15866667 4.66088727,8 C4.66088727,9.84133333 6.15103951,11.3333333 7.99009246,11.3333333 C9.82914541,11.3333333 11.3192977,9.84133333 11.3192977,8 C11.3192977,6.15866667 9.82914541,4.66666667 7.99009246,4.66666667 Z" id="Shape"></path>
                            </g>
                            <g id="iconmonstr-gear-small" transform="translate(14.981423, 26.000000)" fill-rule="nonzero">
                                <path d="M7.99009246,4.729 L7.99009246,3.271 C7.27497919,3.01566667 7.08255113,3.00366667 6.98234205,2.76133333 C6.88146713,2.51833333 7.00997445,2.37166667 7.33490488,1.687 L6.30518172,0.656 C5.63068474,0.977 5.47687546,1.11066667 5.23184596,1.009 C4.98981274,0.908333333 4.976163,0.712666667 4.72347633,-8.8817842e-16 L3.26694906,-8.8817842e-16 C3.01259778,0.714666667 3.00061264,0.908333333 2.75791358,1.009 C2.50755735,1.11333333 2.3574102,0.975666667 1.68491075,0.656 L0.655187582,1.687 C0.980450929,2.372 1.10862533,2.518 1.00775041,2.76166667 C0.907208415,3.004 0.714447434,3.01633333 8.8817842e-16,3.271 L8.8817842e-16,4.72933333 C0.712116991,4.98266667 0.907208415,4.996 1.00775041,5.23866667 C1.10895825,5.48333333 0.98078385,5.62766667 0.655187582,6.313 L1.68491075,7.344 C2.35041887,7.02733333 2.50722443,6.88633333 2.75791358,6.991 C3.00027972,7.09166667 3.01226486,7.28433333 3.26694906,8 L4.72314341,8 C4.97549716,7.28966667 4.9891469,7.09233333 5.23484225,6.98966667 C5.48286803,6.887 5.62968598,7.02266667 6.30518172,7.34366667 L7.33490488,6.31266667 C7.01030738,5.62933333 6.88146713,5.482 6.98234205,5.23833333 C7.08221821,4.99633333 7.27531211,4.984 7.99009246,4.729 Z M6.36710493,4.98366667 C6.17500979,5.44833333 6.34446634,5.803 6.52957015,6.17633333 L6.1686843,6.53766667 C5.80480217,6.35666667 5.44924306,6.179 4.97915929,6.37433333 C4.51440224,6.568 4.38323156,6.93866667 4.25072919,7.33333333 L3.74002911,7.33333333 C3.60752675,6.93833333 3.47668898,6.56766667 3.01326362,6.375 C2.5408494,6.179 2.17863188,6.36 1.82174108,6.53766667 L1.46118816,6.17633333 C1.64662489,5.80366667 1.81608143,5.44966667 1.62332045,4.983 C1.43055947,4.51933333 1.06035185,4.38833333 0.665841039,4.25566667 L0.665841039,3.74466667 C1.06035185,3.612 1.43055947,3.481 1.62298753,3.01666667 C1.81541559,2.552 1.64562613,2.197 1.46052232,1.82366667 L1.82140816,1.46233333 C2.18162816,1.64166667 2.54118232,1.82133333 3.01326362,1.625 C3.47668898,1.43266667 3.60752675,1.06166667 3.74002911,0.666666667 L4.25072919,0.666666667 C4.38323156,1.06166667 4.51440224,1.43233333 4.9778276,1.625 C5.45024182,1.821 5.81212643,1.64 6.16935014,1.46233333 L6.53023599,1.82366667 C6.34513218,2.19733333 6.17567563,2.55266667 6.36777077,3.017 C6.55986591,3.48066667 6.93007353,3.61166667 7.32491727,3.74466667 L7.32491727,4.256 C6.92940769,4.38866667 6.55853423,4.51966667 6.36710493,4.98366667 Z M3.99504623,3 C4.54569677,3 4.99380779,3.44866667 4.99380779,4 C4.99380779,4.55133333 4.54569677,5 3.99504623,5 C3.44439569,5 2.99628467,4.55133333 2.99628467,4 C2.99628467,3.44866667 3.44439569,3 3.99504623,3 Z M3.99504623,2.33333333 C3.07551976,2.33333333 2.33044364,3.07933333 2.33044364,4 C2.33044364,4.92066667 3.07551976,5.66666667 3.99504623,5.66666667 C4.91457271,5.66666667 5.65964883,4.92066667 5.65964883,4 C5.65964883,3.07933333 4.91457271,2.33333333 3.99504623,2.33333333 Z" id="Shape"></path>
                            </g>
                        </g>
                    </g>
                </g>
            </g>
        </g>
    </g>
</svg>