<?xml version="1.0" encoding="UTF-8"?>
<svg width="51px" height="52px" viewBox="0 0 51 52" version="1.1" xmlns="http://www.w3.org/2000/svg" xmlns:xlink="http://www.w3.org/1999/xlink">
    <!-- Generator: Sketch 53.2 (72643) - https://sketchapp.com -->
    <title>icon-pathway</title>
    <desc>Created with Sketch.</desc>
    <defs>
        <linearGradient x1="52.7695656%" y1="-19.5136876%" x2="52.7695656%" y2="149.532303%" id="linearGradient-1">
            <stop stop-color="#0C3483" stop-opacity="0.937981205" offset="0%"></stop>
            <stop stop-color="#6B8CCE" offset="49.9452381%"></stop>
            <stop stop-color="#A2B6DF" offset="100%"></stop>
            <stop stop-color="#A1B6DF" offset="100%"></stop>
            <stop stop-color="#A2B6DF" offset="100%"></stop>
        </linearGradient>
    </defs>
    <g id="Landing-Page" stroke="none" stroke-width="1" fill="none" fill-rule="evenodd">
        <g id="landing-page" transform="translate(-549.000000, -1281.000000)">
            <g id="examples" transform="translate(1.000000, 1065.000000)">
                <g id="example-workflows" transform="translate(78.000000, 190.000000)">
                    <g id="pathway-card" transform="translate(444.000000, 0.000000)">
                        <g id="icon-pathway" transform="translate(23.000000, 24.000000)">
                            <path d="M31.9317507,2.83560785 L35.8912901,4.33581956 C34.8606584,15.848155 33.7301967,24.3172406 32.4999049,29.7430761 C31.2696131,35.1689117 29.0370403,42.659079 25.8021866,52.213578 L21.5261098,51.2211272 C25.8496737,41.6003148 28.6796987,34.013938 30.0161848,28.461997 C31.3526709,22.910056 31.9911928,14.3679262 31.9317507,2.83560785 Z" id="Rectangle" fill="#41A36D" transform="translate(28.708700, 27.524593) rotate(-55.000000) translate(-28.708700, -27.524593) "></path>
                            <path d="M23.6566615,3.19281604 L27.8434743,3.09807107 C30.2840653,12.4329543 31.5493182,20.0340756 31.639233,25.901435 C31.7291477,31.7687945 32.2063721,40.7305817 33.0709061,52.7867969 L28.2471534,52.2238185 C28.8903051,40.7753166 29.2010219,32.039521 29.179304,26.0164317 C29.1575861,19.9933425 27.3167053,12.3854706 23.6566615,3.19281604 Z" id="Rectangle" fill="#386DB0" transform="translate(28.363784, 27.942434) rotate(40.000000) translate(-28.363784, -27.942434) "></path>
                            <path d="M2.90893686,40.3279127 C11.674595,32.3338201 17.7638737,28.3500044 21.1767728,28.3764656 C24.5896719,28.4029268 30.1743348,33.6584122 37.9307616,44.1429218 L33.0665182,46.7850197 C28.1857125,36.3782978 24.0658166,31.1619153 20.7068306,31.1358721 C17.3478446,31.1098289 12.2206611,35.324141 5.32528015,43.7788085 L2.90893686,40.3279127 Z" id="Rectangle" fill="#AAC4E4" transform="translate(20.419849, 37.580677) rotate(35.000000) translate(-20.419849, -37.580677) "></path>
                            <path d="M20.6273129,19.7947546 C29.0937994,12.2524514 35.0325811,8.49416227 38.4436578,8.51988719 C41.8547345,8.54561211 47.0565256,13.5225865 54.0490311,23.4508103 L50.165246,25.9729699 C45.3945311,16.2035531 41.3305775,11.3061854 37.9733851,11.2808668 C34.6161927,11.2555483 29.9764768,15.1524965 24.0542376,22.9717114 L20.6273129,19.7947546 Z" id="Rectangle" fill="#41A36D" transform="translate(37.338172, 17.246363) scale(-1, -1) rotate(33.000000) translate(-37.338172, -17.246363) "></path>
                            <path d="M7,16 L10.3704559,12 C21.2062835,17.3131613 26.7466817,22.3451553 26.9916503,27.0959821 C27.236619,31.846809 21.9060688,38.1481483 11,46 L8.72224827,42.6428571 C19.2102383,36.7078373 24.4542334,32.0238715 24.4542334,28.5909598 C24.4542334,25.1580481 18.6361556,20.9610615 7,16 Z" id="Rectangle" fill="#80A6D6"></path>
                            <path d="M35.138137,8.52600085 L39.261767,9.95888752 C35.9623947,18.5706966 34.7862756,25.3596249 35.7334096,30.3256724 C36.6805435,35.2917199 40.4287636,41.7042161 46.9780698,49.5631611 L43.357631,52.2646993 C36.8773466,42.0573002 33.2868586,34.3941609 32.5861669,29.2752813 C31.8854753,24.1564018 32.736132,17.2399749 35.138137,8.52600085 Z" id="Rectangle" fill="#AAC4E4" transform="translate(39.663439, 30.395350) rotate(24.000000) translate(-39.663439, -30.395350) "></path>
                            <ellipse id="Oval" stroke="#386DB0" cx="28.5" cy="28" rx="24.5" ry="25"></ellipse>
                        </g>
                    </g>
                </g>
            </g>
        </g>
    </g>
</svg>