<?xml version="1.0" encoding="UTF-8"?>
<svg width="59px" height="57px" viewBox="0 0 59 57" version="1.1" xmlns="http://www.w3.org/2000/svg" xmlns:xlink="http://www.w3.org/1999/xlink">
    <!-- Generator: Sketch 53.2 (72643) - https://sketchapp.com -->
    <title>noun_adventures_2426585</title>
    <desc>Created with Sketch.</desc>
    <g id="noun_adventures_2426585--Landing-Page" stroke="none" stroke-width="1" fill="none" fill-rule="evenodd">
        <g id="noun_adventures_2426585--landing-page" transform="translate(-101.000000, -1283.000000)" fill-rule="nonzero">
            <g id="noun_adventures_2426585--noun_adventures_2426585" transform="translate(101.000000, 1282.000000)">
                <polygon id="noun_adventures_2426585--Path" fill="#386DB0" points="54.7250364 28.8 58.8 33.6 54.7250364 38.4 31.2 38.4 31.2 28.8"></polygon>
                <polygon id="noun_adventures_2426585--Path" fill="#386DB0" points="54.7250364 14.4 58.8 19.2 54.7250364 24 31.2 24 31.2 14.4"></polygon>
                <path d="M29.4,1.2 C32.3781,1.2 34.8,3.6219 34.8,6.6 C34.8,9.5781 32.3781,12 29.4,12 C26.4219,12 24,9.5781 24,6.6 C24,3.6219 26.4219,1.2 29.4,1.2 Z" id="noun_adventures_2426585--Path" fill="#AAC4E4"></path>
                <polygon id="noun_adventures_2426585--Path" fill="#386DB0" points="4.07496358 27.6 0 22.8 4.07496358 18 27.6 18 27.6 27.6"></polygon>
                <polygon id="noun_adventures_2426585--Path" fill="#386DB0" points="4.07496358 45.6 0 40.8 4.07496358 36 27.6 36 27.6 45.6"></polygon>
                <path d="M27.3677419,46.0932325 L27.3677419,37.699586 L27.3677419,20.9122931 L27.3677419,12.5186466 L27.3677419,10.3258065 C28.1501419,10.3835128 28.9493419,10.420235 29.7677419,10.420235 C30.5861419,10.420235 31.3853419,10.3835128 32.1677419,10.3258065 L32.1677419,12.5186466 L32.1677419,20.9122931 L32.1677419,25.1091163 L32.1677419,33.5027628 L32.1677419,53.5258065 L27.3677419,52.5720784 L27.3677419,46.0932325 Z" id="noun_adventures_2426585--Path" fill="#AAC4E4"></path>
                <polygon id="noun_adventures_2426585--Path" fill="#41A36D" points="24.6 49.2 43.2 57.6 6 57.6"></polygon>
                <polygon id="noun_adventures_2426585--Path" fill="#41A36D" points="36.6561699 49.2 52.8 57.6 43.287041 57.6 32.4 52.7078934"></polygon>
                <rect id="noun_adventures_2426585--Rectangle" fill="#F2F2F2" x="23.2258065" y="39.6774194" width="1.93548387" height="1.93548387"></rect>
                <rect id="noun_adventures_2426585--Rectangle" fill="#F2F2F2" x="19.3548387" y="39.6774194" width="1.93548387" height="1.93548387"></rect>
                <rect id="noun_adventures_2426585--Rectangle" fill="#F2F2F2" x="15.483871" y="39.6774194" width="1.93548387" height="1.93548387"></rect>
                <rect id="noun_adventures_2426585--Rectangle" fill="#F2F2F2" x="22.1419355" y="21.6" width="1.93548387" height="1.93548387"></rect>
                <rect id="noun_adventures_2426585--Rectangle" fill="#F2F2F2" x="18.2709677" y="21.6" width="1.93548387" height="1.93548387"></rect>
                <rect id="noun_adventures_2426585--Rectangle" fill="#F2F2F2" x="14.4" y="21.6" width="1.93548387" height="1.93548387"></rect>
                <rect id="noun_adventures_2426585--Rectangle" fill="#F2F2F2" x="42.5419355" y="18" width="1.93548387" height="1.93548387"></rect>
                <rect id="noun_adventures_2426585--Rectangle" fill="#F2F2F2" x="38.6709677" y="18" width="1.93548387" height="1.93548387"></rect>
                <rect id="noun_adventures_2426585--Rectangle" fill="#F2F2F2" x="34.8" y="18" width="1.93548387" height="1.93548387"></rect>
                <rect id="noun_adventures_2426585--Rectangle" fill="#F2F2F2" x="42.5419355" y="32.4" width="1.93548387" height="1.93548387"></rect>
                <rect id="noun_adventures_2426585--Rectangle" fill="#F2F2F2" x="38.6709677" y="32.4" width="1.93548387" height="1.93548387"></rect>
                <rect id="noun_adventures_2426585--Rectangle" fill="#F2F2F2" x="34.8" y="32.4" width="1.93548387" height="1.93548387"></rect>
            </g>
        </g>
    </g>
</svg>