<?xml version="1.0" encoding="UTF-8"?>
<svg width="429px" height="275px" viewBox="0 0 429 275" version="1.1" xmlns="http://www.w3.org/2000/svg" xmlns:xlink="http://www.w3.org/1999/xlink">
    <!-- Generator: Sketch 53.2 (72643) - https://sketchapp.com -->
    <title>Group</title>
    <desc>Created with Sketch.</desc>
    <g id="Landing-Page" stroke="none" stroke-width="1" fill="none" fill-rule="evenodd" opacity="0.396577381">
        <g id="landing-page" transform="translate(-261.000000, -2702.000000)" fill-rule="nonzero">
            <g id="species-compendia" transform="translate(81.000000, 2661.000000)">
                <g id="network-illustration">
                    <g id="Group" transform="translate(173.804999, 41.000000)">
                        <g id="network-illustration-copy" transform="translate(394.195001, 137.500000) scale(-1, -1) translate(-394.195001, -137.500000) translate(352.195001, 0.000000)">
                            <path d="M18.5,2.27373675e-13 L41.5,15.5" id="Line-10" stroke="#AAC4E4" stroke-width="3" stroke-linecap="square"></path>
                            <path d="M25.5,30.5 L42.5,25.5" id="Line-11" stroke="#AAC4E4" stroke-width="3" opacity="0.739676339" stroke-linecap="square"></path>
                            <path d="M13.5,39.5 L1.5,179.5" id="Line-12" stroke="#AAC4E4" stroke-width="3" stroke-linecap="square"></path>
                            <path d="M21.5,39.5 L58.5,128.5" id="Line-13" stroke="#AAC4E4" stroke-width="3" opacity="0.739676339" stroke-linecap="square"></path>
                            <path d="M11.5,35.5 L1.5,43.5" id="Line-19" stroke="#AAC4E4" stroke-width="3" opacity="0.579910714" stroke-linecap="square"></path>
                            <path d="M14.5,184.5 L58.5,147.5" id="Line-14" stroke="#AAC4E4" stroke-width="3" opacity="0.587555804" stroke-linecap="square"></path>
                            <path d="M13.5,205.5 L64.5,259.5" id="Line-15" stroke="#AAC4E4" stroke-width="3" stroke-linecap="square"></path>
                            <path d="M2,239 L64.5,263.5" id="Line-16" stroke="#AAC4E4" stroke-width="3" opacity="0.587555804" stroke-linecap="square"></path>
                            <path d="M13.5,27.5 L1,18" id="Line-17" stroke="#AAC4E4" stroke-width="3" opacity="0.579910714" stroke-linecap="square"></path>
                            <path d="M11.5,31.5 L1,27.5" id="Line-18" stroke="#AAC4E4" stroke-width="3" stroke-linecap="square"></path>
                            <circle id="Oval-2" fill="#AAC4E4" cx="54" cy="19" r="15"></circle>
                            <circle id="Oval-2" fill="#AAC4E4" cx="69" cy="136" r="15"></circle>
                            <path d="M4,210 C12.2842712,210 19,203.284271 19,195 C19,186.715729 12.2842712,180 4,180 C-0.180069841,180 0.961718376,187.431949 1,195 C1.03758681,202.430691 -0.104201406,210 4,210 Z" id="Oval-2" fill="#AAC4E4"></path>
                            <circle id="Oval-2" fill="#AAC4E4" cx="18.5" cy="32.5" r="8.5"></circle>
                            <circle id="Oval-2" fill="#AAC4E4" cx="71" cy="266" r="9"></circle>
                        </g>
                        <g id="network-illustration-copy-2" transform="translate(179.000000, 244.188496) scale(-1, 1) rotate(-95.000000) translate(-179.000000, -244.188496) translate(137.000000, 68.188496)">
                            <path d="M18.9452559,78.926251 L41.5,92.5" id="Line-10" stroke="#AAC4E4" stroke-width="3" stroke-linecap="square"></path>
                            <path d="M25.5,107.5 L42.5,102.5" id="Line-11" stroke="#AAC4E4" stroke-width="3" opacity="0.739676339" stroke-linecap="square"></path>
                            <path d="M21.5,116.5 L58.5,205.5" id="Line-13" stroke="#AAC4E4" stroke-width="3" opacity="0.739676339" stroke-linecap="square"></path>
                            <path d="M14.5,261.5 L58.5,224.5" id="Line-14" stroke="#AAC4E4" stroke-width="3" opacity="0.587555804" stroke-linecap="square"></path>
                            <path d="M13.5,282.5 L64.5,336.5" id="Line-15" stroke="#AAC4E4" stroke-width="3" stroke-linecap="square"></path>
                            <path d="M0.5,315.5 L64.5,340.5" id="Line-16" stroke="#AAC4E4" stroke-width="3" opacity="0.587555804" stroke-linecap="square"></path>
                            <path d="M23.7720957,23.7552197 L39.5,18.5" id="Line-9" stroke="#AAC4E4" stroke-width="3" opacity="0.8359375" stroke-linecap="square"></path>
                            <circle id="Oval-2" fill="#AAC4E4" cx="54" cy="96" r="15"></circle>
                            <circle id="Oval-2" fill="#AAC4E4" cx="69" cy="213" r="15"></circle>
                            <path d="M4,287 C12.2842712,287 19,280.284271 19,272 C19,263.715729 7.613066,253.386934 4,257 C2.0646479,258.935352 2.46630369,266.693533 1.90630819,273.682314 C1.34161658,280.729704 -0.159431018,287 4,287 Z" id="Oval-2" fill="#AAC4E4"></path>
                            <circle id="Oval-2" fill="#D8D8D8" cx="50.5" cy="12.5" r="12.5"></circle>
                            <circle id="Oval-2" fill="#AAC4E4" cx="50.5" cy="12.5" r="12.5"></circle>
                            <path d="M18.5,118 C23.1944204,118 27,114.19442 27,109.5 C27,104.80558 23.1944204,101 18.5,101 C16.1288105,101 15.7931317,105.97995 15.817356,110.27292 C15.8410904,114.479063 16.1767692,118 18.5,118 Z" id="Oval-2" fill="#AAC4E4"></path>
                            <circle id="Oval-2" fill="#AAC4E4" cx="71" cy="343" r="9"></circle>
                        </g>
                    </g>
                </g>
            </g>
        </g>
    </g>
</svg>