<?xml version="1.0" encoding="UTF-8"?>
<svg width="1489px" height="1977px" viewBox="0 0 1489 1977" version="1.1" xmlns="http://www.w3.org/2000/svg" xmlns:xlink="http://www.w3.org/1999/xlink">
    <!-- Generator: Sketch 51.2 (57519) - http://www.bohemiancoding.com/sketch -->
    <title>network-bottle copy</title>
    <desc>Created with Sketch.</desc>
    <defs></defs>
    <g id="About-Page" stroke="none" stroke-width="1" fill="none" fill-rule="evenodd">
        <g id="Artboard" transform="translate(-2830.000000, -5425.000000)" fill-rule="nonzero">
            <g id="network-bottle-copy" transform="translate(2831.000000, 5426.000000)">
                <ellipse id="Oval" fill="#386DB0" opacity="0.1" cx="782.5" cy="1802" rx="705.5" ry="174"></ellipse>
                <path d="M478.210265,945.227487 L1104.45861,735.416572 C1108.64802,734.013 1113.18203,736.27137 1114.5856,740.460781 C1114.86005,741.279978 1115,742.138223 1115,743.002172 L1115,1745.88491 C1115,1776.81285 1089.92795,1801.88491 1059,1801.88491 L496,1801.88491 C465.072054,1801.88491 440,1776.81285 440,1745.88491 L440,998.32669 C440,974.25401 455.384549,952.874748 478.210265,945.227487 Z" id="solid-bottle" fill="#F3A844"></path>
                <path d="M440,965 C607.777778,997.146119 731.444444,1013.21918 811,1013.21918 C890.555556,1013.21918 992.555556,997.146119 1117,965 L1117,1444.17808 C996.777778,1491.39269 894.777778,1515 811,1515 C727.222222,1515 603.555556,1491.39269 440,1444.17808 L440,965 Z" id="bottle-label" fill="#FDFDFD"></path>
                <g id="tesxt" transform="translate(516.000000, 1156.000000)" fill="#F6BB6D" opacity="0.482366071">
                    <rect id="Rectangle-path" x="0" y="146" width="217" height="22"></rect>
                    <rect id="Rectangle-path" x="0" y="49" width="542" height="22"></rect>
                    <rect id="Rectangle-path" x="0" y="0" width="542" height="22"></rect>
                    <rect id="Rectangle-path" x="0" y="97" width="542" height="22"></rect>
                </g>
                <path d="M542.684811,929.957652 L1104.38354,735.55916 C1108.55884,734.114131 1113.11501,736.327448 1114.56004,740.502741 C1114.8513,741.344326 1115,742.228636 1115,743.119197 L1115,1745.88491 C1115,1776.81285 1089.92795,1801.88491 1059,1801.88491 L505,1801.88491 L505,982.877911 C505,959.009331 520.128892,937.764037 542.684811,929.957652 Z" id="solid-bottle-shadow" fill="#000000" opacity="0.0368861607"></path>
                <g id="network">
                    <path d="M505.403977,830.202223 L452.689162,803.848251" id="Path" stroke="#979797" stroke-width="5" stroke-linecap="round" stroke-linejoin="round"></path>
                    <path d="M449.5,807 L449.5,953" id="Path" stroke="#979797" stroke-width="5" opacity="0.9" stroke-linecap="round" stroke-linejoin="round"></path>
                    <path d="M451.144654,955.975741 L509,832" id="Path" stroke="#AAC4E4" stroke-width="5" stroke-linecap="round" stroke-linejoin="round"></path>
                    <path d="M511.098184,833.656461 L602.472667,905.794211" id="Path" stroke="#979797" stroke-width="5" opacity="0.597902" stroke-linecap="round" stroke-linejoin="round"></path>
                    <path d="M606,905.794211 L738.123912,802.253878" id="Path" stroke="#979797" stroke-width="5" opacity="0.500279018" stroke-linecap="round" stroke-linejoin="round"></path>
                    <path d="M737.291262,800.51155 L514.524668,831.237977" id="Path" stroke="#AAC4E4" stroke-width="5" stroke-linecap="round" stroke-linejoin="round"></path>
                    <path d="M507.5,711.5 L452.620953,797.188337" id="Path" stroke-opacity="0.506453804" stroke="#979797" stroke-width="5" stroke-linecap="round" stroke-linejoin="bevel"></path>
                    <path d="M450.5,796 L450.5,615.5" id="Path" stroke="#979797" stroke-width="5" stroke-linecap="round" stroke-linejoin="bevel"></path>
                    <path d="M452,707.604135 L499.322843,705.208271" id="Path" stroke="#AAC4E4" stroke-width="5" stroke-linecap="round" stroke-linejoin="bevel"></path>
                    <path d="M505.337859,718.108625 L509.801722,825.241329" id="Path" stroke="#979797" stroke-width="5" opacity="0.7" stroke-linecap="round" stroke-linejoin="bevel"></path>
                    <path d="M513.462213,826.166836 L616.639254,711.935112" id="Path" stroke="#979797" stroke-width="5" opacity="0.7" stroke-linecap="round" stroke-linejoin="bevel"></path>
                    <path d="M613.781911,706.513631 L513.913222,712.755424" id="Path" stroke="#979797" stroke-width="5" opacity="0.9" stroke-linecap="round" stroke-linejoin="bevel"></path>
                    <path d="M508.838358,711.067184 L452.502707,617.332235" id="Path" stroke="#AAC4E4" stroke-width="5" stroke-linecap="round" stroke-linejoin="bevel"></path>
                    <path d="M623,707 C660.285262,739.039641 695.506671,770.376431 735.9,800 L623,707 Z" id="Path" stroke="#979797" stroke-width="5" fill="#D8D8D8" opacity="0.9" stroke-linecap="round" stroke-linejoin="bevel"></path>
                    <path d="M738,802 L765.416111,852.309902" id="Path" stroke="#979797" stroke-width="5" stroke-linecap="round" stroke-linejoin="bevel"></path>
                    <path d="M768.219263,851.732375 L815.611609,724.720887" id="Path" stroke="#AAC4E4" stroke-width="5" fill="#D8D8D8" stroke-linecap="round" stroke-linejoin="bevel"></path>
                    <path d="M813.757035,724.201388 L739,801" id="Path" stroke="#80A6D6" stroke-width="5" stroke-linecap="round" stroke-linejoin="bevel"></path>
                    <path d="M737.9,799 L762.9,591.5" id="Path" stroke="#AAC4E4" stroke-width="5" fill="#D8D8D8" stroke-linecap="round" stroke-linejoin="bevel"></path>
                    <path d="M762.9,592.229526 L622.630872,705.229526" id="Path" stroke="#AAC4E4" stroke-width="5" stroke-linecap="round" stroke-linejoin="bevel"></path>
                    <path d="M622.630872,705.229526 L451.535079,616.317386" id="Path" stroke="#AAC4E4" stroke-width="5" opacity="0.9" stroke-linecap="round" stroke-linejoin="bevel"></path>
                    <path d="M450,614 L385,499" id="Path" stroke="#AAC4E4" stroke-width="5" stroke-linecap="round" stroke-linejoin="bevel"></path>
                    <path d="M382.9,499 L382.9,612" id="Path" stroke="#979797" stroke-width="5" opacity="0.9" stroke-linecap="round" stroke-linejoin="bevel"></path>
                    <path d="M387,615 L448,615" id="Path" stroke="#979797" stroke-width="5" opacity="0.9" stroke-linecap="round" stroke-linejoin="bevel"></path>
                    <path d="M450,615.102292 L679.9,657" id="Path" stroke="#80A6D6" stroke-width="5" fill="#D8D8D8" opacity="0.7" stroke-linecap="round" stroke-linejoin="bevel"></path>
                    <path d="M679.9,657 L594.9,573" id="Path" stroke="#979797" stroke-width="5" stroke-linecap="round" stroke-linejoin="bevel"></path>
                    <path d="M593.8,573 L454.9,610" id="Path" stroke="#979797" stroke-width="5" opacity="0.7" stroke-linecap="round" stroke-linejoin="bevel"></path>
                    <path d="M451.427853,615 L489.9,498" id="Path" stroke="#AAC4E4" stroke-width="5" opacity="0.7" stroke-linecap="round" stroke-linejoin="bevel"></path>
                    <path d="M382.150903,497.770384 L192.5,409.5" id="Path" stroke="#80A6D6" stroke-width="5" stroke-linecap="round" stroke-linejoin="bevel"></path>
                    <path d="M197.206617,405.393026 L263.206617,275.393026" id="Path" stroke="#979797" stroke-width="5" stroke-linecap="square"></path>
                    <path d="M264.489556,277.292829 L96.5,247.5" id="Path" stroke="#80A6D6" stroke-width="5" stroke-linecap="square"></path>
                    <path d="M95.4303664,240.026881 L16.4303664,136.026881" id="Path" stroke="#80A6D6" stroke-width="5" stroke-linecap="square"></path>
                    <path d="M19,124.085412 L171.866986,57.0785525" id="Path" stroke="#979797" stroke-width="5" stroke-linecap="square"></path>
                    <path d="M182.794139,59.7762406 L100.794139,242.776241" id="Path" stroke="#80A6D6" stroke-width="5" stroke-linecap="square"></path>
                    <path d="M490.962418,497 L594.568013,573.134226" id="Path" stroke="#AAC4E4" stroke-width="5" stroke-linecap="round" stroke-linejoin="bevel"></path>
                    <path d="M595.568013,573.134226 L763.156558,591.529198" id="Path" stroke="#AAC4E4" stroke-width="5" opacity="0.500279018" stroke-linecap="round" stroke-linejoin="bevel"></path>
                    <path d="M744.421903,788.645298 L836.85389,575" id="Path" stroke="#979797" stroke-width="5" opacity="0.597902" stroke-linecap="round" stroke-linejoin="bevel"></path>
                    <path d="M837.568013,574 L817,718" id="Path" stroke="#979797" stroke-width="5" fill="#D8D8D8" stroke-linecap="round" stroke-linejoin="bevel"></path>
                    <path d="M819,720 L882.5,819.5" id="Path" stroke="#979797" stroke-width="5" fill="#D8D8D8" opacity="0.597902" stroke-linecap="round" stroke-linejoin="bevel"></path>
                    <path d="M1055.5,760.5 L818,719" id="Path" stroke="#80A6D6" stroke-width="5" opacity="0.597902" stroke-linecap="round" stroke-linejoin="bevel"></path>
                    <path d="M818,718 L931,568" id="Path" stroke="#979797" stroke-width="5" opacity="0.7" stroke-linecap="round" stroke-linejoin="bevel"></path>
                    <path d="M838.721661,574 L763.181949,591.057688" id="Path" stroke="#979797" stroke-width="5" fill="#D8D8D8" opacity="0.7" stroke-linecap="round" stroke-linejoin="bevel"></path>
                    <path d="M763.156558,591.057688 L681.299213,531.317342" id="Path" stroke="#386DB0" stroke-width="5" fill="#D8D8D8" opacity="0.697812" stroke-linecap="round" stroke-linejoin="bevel"></path>
                    <path d="M681.590362,530.410222 L595.568013,571.803394" id="Path" stroke="#979797" stroke-width="5" stroke-linecap="round" stroke-linejoin="bevel"></path>
                    <path d="M594.568013,571.803394 L602,494.918237" id="Path" stroke="#979797" stroke-width="5" stroke-linecap="round" stroke-linejoin="bevel"></path>
                    <path d="M603.623353,493.927391 L681,530.290572" id="Path" stroke="#386DB0" stroke-width="5" opacity="0.697812" stroke-linecap="round" stroke-linejoin="bevel"></path>
                    <path d="M681.375018,530.290572 L747.393782,490.645298" id="Path" stroke="#979797" stroke-width="5" stroke-linecap="round" stroke-linejoin="bevel"></path>
                    <path d="M747.956165,492.344998 L763,590" id="Path" stroke="#AAC4E4" stroke-width="5" opacity="0.597902" stroke-linecap="round" stroke-linejoin="bevel"></path>
                    <path d="M765,590 L836.77355,494.516565" id="Path" stroke="#979797" stroke-width="5" stroke-linecap="round" stroke-linejoin="bevel"></path>
                    <path d="M838.068013,494.918237 L838.068013,574" id="Path" stroke="#979797" stroke-width="5" stroke-linecap="round" stroke-linejoin="bevel"></path>
                    <path d="M837.568013,574 L930,563.07749" id="Path" stroke="#AAC4E4" stroke-width="5" fill="#D8D8D8" stroke-linecap="round" stroke-linejoin="bevel"></path>
                    <path d="M825,719 L998.188504,707.759961" id="Path" stroke="#979797" stroke-width="5" stroke-linecap="round" stroke-linejoin="bevel"></path>
                    <path d="M1060.5,760.5 L1000.03056,707.759961" id="Path" stroke="#979797" stroke-width="5" opacity="0.500279018" stroke-linecap="round" stroke-linejoin="bevel"></path>
                    <path d="M825,718 L1032,548" id="Path" stroke="#AAC4E4" stroke-width="5" stroke-linecap="round" stroke-linejoin="bevel"></path>
                    <path d="M1034.9245,542.258282 L930.387873,563.07749" id="Path" stroke="#979797" stroke-width="5" stroke-linecap="round" stroke-linejoin="bevel"></path>
                    <polyline id="Path" stroke="#AAC4E4" stroke-width="5" stroke-linecap="round" stroke-linejoin="bevel" points="838 494 1009.56801 492.303394 930 562 839 495"></polyline>
                    <path d="M1084.44875,493.346571 L1035,544" id="Path" stroke="#979797" stroke-width="5" fill="#D8D8D8" stroke-linecap="round" stroke-linejoin="bevel"></path>
                    <polygon id="Path" stroke="#979797" stroke-width="5" opacity="0.7" stroke-linecap="round" stroke-linejoin="bevel" points="1109.46698 729.199654 1112.56801 729.803394 1112.56801 726.803394 1112.56801 670.803394 1112.56801 666.803394 1109.22626 667.958954 1000.56801 707.803394"></polygon>
                    <path d="M1000.83056,707 L1034.9245,545.27834" id="Path" stroke="#979797" stroke-width="5" stroke-linecap="round" stroke-linejoin="bevel"></path>
                    <path d="M1035.37524,542.258282 L1055.94325,687" id="Path" stroke="#979797" stroke-width="5" opacity="0.7" stroke-linecap="round" stroke-linejoin="bevel"></path>
                    <path d="M1055,688 L1111.75886,615" id="Path" stroke="#AAC4E4" stroke-width="5" stroke-linecap="round" stroke-linejoin="bevel"></path>
                    <path d="M1111.53043,615 L1047.96242,615.5" id="Path" stroke="#979797" stroke-width="5" stroke-linecap="round" stroke-linejoin="bevel"></path>
                    <path d="M1048,615 L1085,493" id="Path" stroke="#979797" stroke-width="5" opacity="0.702109" stroke-linecap="round" stroke-linejoin="bevel"></path>
                    <path d="M1085.96242,493 L1176.49958,492.803394" id="Path" stroke="#AAC4E4" stroke-width="5" stroke-linecap="round" stroke-linejoin="bevel"></path>
                    <path d="M488.5,495.5 L602.537161,492.344998" id="Path" stroke="#AAC4E4" stroke-width="5" stroke-linecap="round" stroke-linejoin="bevel"></path>
                    <path d="M1178.56801,492.803394 L1178.56801,610" id="Path" stroke="#AAC4E4" stroke-width="5" fill="#D8D8D8" stroke-linecap="round" stroke-linejoin="bevel"></path>
                    <path d="M1179,496 L1048,615" id="Path" stroke="#979797" stroke-width="5" fill="#F3E500" opacity="0.9"></path>
                    <path d="M1114.5,613.5 L1176.5,612.5" id="Path" stroke="#AAC4E4" stroke-width="5" fill="#F3E500"></path>
                    <path d="M1112.5,613.5 L1112.5,667.5" id="Line" stroke="#979797" stroke-width="5" stroke-linecap="square"></path>
                    <path d="M1008.5,493.5 L1028.5,542.5" id="Line-2" stroke="#979797" stroke-width="5" stroke-linecap="square"></path>
                    <path d="M1008.5,492.25 L1083.5,492.25" id="Line-3" stroke="#979797" stroke-width="5" stroke-linecap="square"></path>
                    <path d="M748.5,492.5 L834.5,492.5" id="Line-3" stroke="#979797" stroke-width="5" stroke-linecap="square"></path>
                    <path d="M475,102 L608.843467,145.68502" id="Path" stroke="#80A6D6" stroke-width="5" stroke-linecap="square"></path>
                    <path d="M614,151 L642.65214,254.966338" id="Path" stroke="#80A6D6" stroke-width="5" stroke-linecap="square"></path>
                    <path d="M639.5,258.5 L512,403.12647" id="Path" stroke="#80A6D6" stroke-width="5" stroke-linecap="square"></path>
                    <path d="M513,413 L593.800771,487.170965" id="Path" stroke="#80A6D6" stroke-width="5" stroke-linecap="square"></path>
                    <path d="M603,484.809974 L646.250968,260" id="Path" stroke="#979797" stroke-width="5" stroke-linecap="square"></path>
                    <path d="M618.5,148.5 L697.5,14.5" id="Line-6" stroke="#979797" stroke-width="5" stroke-linecap="square"></path>
                    <path d="M1046,258 L892.338119,372.807371" id="Path" stroke="#80A6D6" stroke-width="5" stroke-linecap="square"></path>
                    <path d="M890.669344,374.466973 L861,216" id="Path" stroke="#80A6D6" stroke-width="5" stroke-linecap="square"></path>
                    <path d="M859.205867,211.891757 L1045.69133,253.893816" id="Path" stroke="#80A6D6" stroke-width="5" stroke-linecap="square"></path>
                    <path d="M925,225 L854,131" id="Path" stroke="#80A6D6" stroke-width="5" stroke-linecap="square"></path>
                    <path d="M852.472624,127.772385 L1018.18598,191.706603" id="Path" stroke="#80A6D6" stroke-width="5" stroke-linecap="square"></path>
                    <path d="M1018,193 L926,223.831306" id="Path" stroke="#80A6D6" stroke-width="5" stroke-linecap="square"></path>
                    <circle id="oval-yellow" stroke-opacity="0.682150136" stroke="#FFF770" fill="#F3E500" cx="448.5" cy="616.5" r="20.5"></circle>
                    <circle id="oval-yellow" stroke-opacity="0.682150136" stroke="#FFF770" fill="#F3E500" cx="95.5" cy="240.5" r="20.5"></circle>
                    <circle id="oval-yellow" stroke-opacity="0.682150136" stroke="#FFF770" fill="#F3E500" cx="511.5" cy="834.5" r="20.5"></circle>
                    <circle id="oval-yellow" stroke-opacity="0.682150136" stroke="#FFF770" fill="#F3E500" cx="626.5" cy="710.5" r="20.5"></circle>
                    <circle id="oval-yellow" stroke-opacity="0.682150136" stroke="#FFF770" fill="#F3E500" cx="767.5" cy="593.5" r="20.5"></circle>
                    <circle id="oval-yellow" stroke-opacity="0.682150136" stroke="#FFF770" fill="#F3E500" cx="449.5" cy="711.5" r="12.5"></circle>
                    <circle id="oval-yellow" stroke-opacity="0.682150136" stroke="#FFF770" fill="#F3E500" cx="192.5" cy="407.5" r="16.5"></circle>
                    <circle id="oval-yellow" stroke-opacity="0.682150136" stroke="#FFF770" fill="#F3E500" transform="translate(1046.888584, 257.888584) rotate(19.000000) translate(-1046.888584, -257.888584) " cx="1046.88858" cy="257.888584" r="12.5"></circle>
                    <circle id="oval-yellow" stroke-opacity="0.682150136" stroke="#FFF770" fill="#F3E500" cx="509.5" cy="404.5" r="12.5"></circle>
                    <circle id="oval-yellow" stroke-opacity="0.682150136" stroke="#FFF770" fill="#F3E500" transform="translate(928.668694, 228.668694) rotate(19.000000) translate(-928.668694, -228.668694) " cx="928.668694" cy="228.668694" r="12.5"></circle>
                    <circle id="oval-yellow" stroke-opacity="0.682150136" stroke="#FFF770" fill="#F3E500" cx="489.5" cy="497.5" r="10.5"></circle>
                    <circle id="oval-yellow" stroke-opacity="0.682150136" stroke="#FFF770" fill="#F3E500" cx="679.5" cy="530.5" r="10.5"></circle>
                    <circle id="oval-yellow" stroke-opacity="0.682150136" stroke="#FFF770" fill="#F3E500" cx="1008.5" cy="492.5" r="10.5"></circle>
                    <circle id="oval-yellow" stroke-opacity="0.682150136" stroke="#FFF770" fill="#F3E500" cx="1055.5" cy="682.5" r="12.5"></circle>
                    <circle id="oval-yellow" stroke-opacity="0.682150136" stroke="#FFF770" fill="#F3E500" cx="840.5" cy="577.5" r="12.5"></circle>
                    <circle id="oval-yellow" stroke-opacity="0.682150136" stroke="#FFF770" fill="#F3E500" cx="1178.5" cy="495.5" r="12.5"></circle>
                    <path d="M856.888584,142.388584 C863.792143,142.388584 869.388584,136.792143 869.388584,129.888584 C869.388584,122.985025 863.792143,117.388584 856.888584,117.388584 C849.985025,117.388584 844.388584,122.985025 844.388584,129.888584 C844.388584,136.792143 849.985025,142.388584 856.888584,142.388584 Z M856.888584,142.388584 C863.792143,142.388584 869.388584,136.792143 869.388584,129.888584 C869.388584,122.985025 863.792143,117.388584 856.888584,117.388584 C849.985025,117.388584 844.388584,122.985025 844.388584,129.888584 C844.388584,136.792143 849.985025,142.388584 856.888584,142.388584 Z" id="oval-yellow" stroke-opacity="0.682150136" stroke="#FFF770" fill="#F3E500" transform="translate(856.888584, 129.888584) rotate(19.000000) translate(-856.888584, -129.888584) "></path>
                    <circle id="oval-yellow" stroke-opacity="0.682150136" stroke="#FFF770" fill="#F3E500" cx="1032.5" cy="545.5" r="12.5"></circle>
                    <circle id="oval-yellow" stroke-opacity="0.682150136" stroke="#FFF770" fill="#F3E500" cx="772.5" cy="854.5" r="20.5"></circle>
                    <circle id="oval-yellow" stroke-opacity="0.682150136" stroke="#FFF770" fill="#F3E500" cx="888.5" cy="825.5" r="16.5"></circle>
                    <circle id="oval-yellow" stroke-opacity="0.682150136" stroke="#FFF770" fill="#F3E500" cx="16.5" cy="127.5" r="16.5"></circle>
                    <circle id="oval-yellow" stroke-opacity="0.682150136" stroke="#FFF770" fill="#F3E500" cx="614.5" cy="145.5" r="16.5"></circle>
                    <circle id="oval-yellow" stroke-opacity="0.682150136" stroke="#FFF770" fill="#F3E500" cx="1180.5" cy="613.5" r="14.5"></circle>
                    <circle id="oval-yellow" stroke-opacity="0.682150136" stroke="#FFF770" fill="#F3E500" cx="1113.5" cy="733.5" r="20.5"></circle>
                    <circle id="oval-blue" stroke-opacity="0.645380435" stroke="#4694F6" fill="#386DB0" cx="457.5" cy="954.5" r="18.5"></circle>
                    <circle id="oval-blue" stroke-opacity="0.645380435" stroke="#4694F6" fill="#386DB0" transform="translate(1017.515105, 192.515105) rotate(19.000000) translate(-1017.515105, -192.515105) " cx="1017.5151" cy="192.515105" r="18.5"></circle>
                    <circle id="oval-blue" stroke-opacity="0.645380435" stroke="#4694F6" fill="#386DB0" cx="822.5" cy="718.5" r="20.5"></circle>
                    <circle id="oval-blue" stroke-opacity="0.645380435" stroke="#4694F6" fill="#386DB0" cx="1084.5" cy="493.5" r="16.5"></circle>
                    <circle id="oval-blue" stroke-opacity="0.645380435" stroke="#4694F6" fill="#386DB0" cx="928.5" cy="561.5" r="16.5"></circle>
                    <circle id="oval-blue" stroke-opacity="0.645380435" stroke="#4694F6" fill="#386DB0" cx="598.5" cy="577.5" r="16.5"></circle>
                    <circle id="oval-blue" stroke-opacity="0.645380435" stroke="#4694F6" fill="#386DB0" transform="translate(892.430758, 372.430758) rotate(19.000000) translate(-892.430758, -372.430758) " cx="892.430758" cy="372.430758" r="14.5"></circle>
                    <circle id="oval-blue" stroke-opacity="0.645380435" stroke="#4694F6" fill="#386DB0" cx="612.5" cy="909.5" r="18.5"></circle>
                    <circle id="oval-blue" stroke-opacity="0.645380435" stroke="#4694F6" fill="#386DB0" cx="452.5" cy="801.5" r="13.5"></circle>
                    <circle id="oval-blue" stroke-opacity="0.645380435" stroke="#4694F6" fill="#386DB0" transform="translate(858.159671, 209.159671) rotate(19.000000) translate(-858.159671, -209.159671) " cx="858.159671" cy="209.159671" r="13.5"></circle>
                    <circle id="oval-blue" stroke-opacity="0.645380435" stroke="#4694F6" fill="#386DB0" cx="183.5" cy="56.5" r="13.5"></circle>
                    <circle id="oval-blue" stroke-opacity="0.645380435" stroke="#4694F6" fill="#386DB0" cx="475.5" cy="103.5" r="16.5"></circle>
                    <circle id="oval-blue" stroke-opacity="0.645380435" stroke="#4694F6" fill="#386DB0" cx="385.5" cy="612.5" r="13.5"></circle>
                    <circle id="oval-blue" stroke-opacity="0.645380435" stroke="#4694F6" fill="#386DB0" cx="387.5" cy="502.5" r="13.5"></circle>
                    <circle id="oval-blue" stroke-opacity="0.645380435" stroke="#4694F6" fill="#386DB0" cx="1063" cy="763" r="12"></circle>
                    <circle id="oval-blue" stroke-opacity="0.645380435" stroke="#4694F6" fill="#386DB0" cx="1114" cy="618" r="10"></circle>
                    <circle id="oval-blue" stroke-opacity="0.645380435" stroke="#4694F6" fill="#386DB0" cx="506.5" cy="708.5" r="16.5"></circle>
                    <circle id="oval-blue" stroke-opacity="0.645380435" stroke="#4694F6" fill="#386DB0" cx="263.5" cy="280.5" r="16.5"></circle>
                    <circle id="oval-blue" stroke-opacity="0.645380435" stroke="#4694F6" fill="#386DB0" cx="604.5" cy="495.5" r="10.5"></circle>
                    <circle id="oval-blue" stroke-opacity="0.645380435" stroke="#4694F6" fill="#386DB0" cx="748.5" cy="489.5" r="10.5"></circle>
                    <circle id="oval-blue" stroke-opacity="0.645380435" stroke="#4694F6" fill="#386DB0" cx="1051.5" cy="619.5" r="10.5"></circle>
                    <circle id="oval-blue" stroke-opacity="0.645380435" stroke="#4694F6" fill="#386DB0" cx="1116.5" cy="670.5" r="10.5"></circle>
                    <circle id="oval-blue" stroke-opacity="0.645380435" stroke="#4694F6" fill="#386DB0" cx="739.5" cy="802.5" r="16.5"></circle>
                    <circle id="oval-blue" stroke-opacity="0.645380435" stroke="#4694F6" fill="#386DB0" cx="682.5" cy="662.5" r="16.5"></circle>
                    <circle id="oval-blue" stroke-opacity="0.645380435" stroke="#4694F6" fill="#386DB0" cx="837.5" cy="490.5" r="16.5"></circle>
                    <circle id="oval-blue" stroke-opacity="0.645380435" stroke="#4694F6" fill="#386DB0" cx="642.5" cy="260.5" r="16.5"></circle>
                    <circle id="oval-blue" stroke-opacity="0.645380435" stroke="#4694F6" fill="#386DB0" cx="697.5" cy="16.5" r="16.5"></circle>
                    <circle id="oval-blue" stroke-opacity="0.645380435" stroke="#4694F6" fill="#386DB0" cx="1006.5" cy="710.5" r="16.5"></circle>
                </g>
            </g>
        </g>
    </g>
</svg>