<?xml version="1.0" encoding="UTF-8"?>
<svg width="828px" height="497px" viewBox="0 0 828 497" version="1.1" xmlns="http://www.w3.org/2000/svg" xmlns:xlink="http://www.w3.org/1999/xlink">
    <!-- Generator: Sketch 50.2 (55047) - http://www.bohemiancoding.com/sketch -->
    <title>undraw_charts_jj6t (1)</title>
    <desc>Created with Sketch.</desc>
    <defs></defs>
    <g id="Landing-Page" stroke="none" stroke-width="1" fill="none" fill-rule="evenodd">
        <g id="landing-page" transform="translate(-333.000000, -1308.000000)" fill-rule="nonzero">
            <g id="summary-stats-section" transform="translate(0.000000, 1069.000000)">
                <g id="undraw_charts_jj6t-(1)" transform="translate(333.000000, 239.000000)">
                    <rect id="Rectangle-path" fill="#FFFFFF" x="0" y="0" width="828" height="497"></rect>
                    <rect id="Rectangle-path" fill="#F5F5F5" x="105" y="78" width="59" height="354"></rect>
                    <rect id="Rectangle-path" fill="#F5F5F5" x="258" y="78" width="59" height="354"></rect>
                    <rect id="Rectangle-path" fill="#F5F5F5" x="387" y="81" width="59" height="354"></rect>
                    <rect id="Rectangle-path" fill="#F5F5F5" x="544" y="81" width="59" height="354"></rect>
                    <rect id="Rectangle-path" fill="#2196F3" x="105" y="255" width="59" height="177"></rect>
                    <g id="Group" opacity="0.4" transform="translate(105.000000, 181.000000)" fill="#2196F3">
                        <rect id="Rectangle-path" x="0" y="0" width="59" height="77"></rect>
                    </g>
                    <rect id="Rectangle-path" fill="#69F0AE" x="258.007473" y="292.412237" width="58.5419898" height="138.533461"></rect>
                    <rect id="Rectangle-path" fill="#69F0AE" opacity="0.4" x="258.007473" y="203.080144" width="58.5419898" height="89.9505456"></rect>
                    <rect id="Rectangle-path" fill="#386DB0" x="387" y="232" width="59" height="203"></rect>
                    <rect id="Rectangle-path" fill="#386DB0" opacity="0.4" x="387" y="162" width="59" height="70"></rect>
                    <rect id="Rectangle-path" fill="#FFFF00" x="544" y="303" width="59" height="132"></rect>
                    <rect id="Rectangle-path" fill="#FFFF00" opacity="0.4" x="544" y="261" width="59" height="41"></rect>
                </g>
            </g>
        </g>
    </g>
</svg>