<?xml version="1.0" encoding="UTF-8"?>
<svg width="488px" height="265px" viewBox="0 0 488 265" version="1.1" xmlns="http://www.w3.org/2000/svg" xmlns:xlink="http://www.w3.org/1999/xlink">
    <!-- Generator: Sketch 50.2 (55047) - http://www.bohemiancoding.com/sketch -->
    <title>illustration-spilled-sample</title>
    <desc>Created with Sketch.</desc>
    <defs></defs>
    <g id="Empty-States" stroke="none" stroke-width="1" fill="none" fill-rule="evenodd">
        <g id="500-page" transform="translate(-693.000000, -251.000000)">
            <g id="illustration-spilled-sample" transform="translate(691.000000, 229.000000)">
                <path d="M253.270375,50.6525975 C217.168003,66.3063586 177.387426,50.3029077 141.831453,68.6924773 C138.700409,70.0591201 135.77483,72.3658702 133.222323,75.4805735 C124.719808,86.938057 128.078168,109.297634 135.674459,122.174447 C147.815198,142.744436 166.899213,149.162272 184.823795,151.91865 C272.381044,165.350853 359.951621,116.47656 447.615485,126.761555 C460.649121,128.304304 475.841704,129.970473 484.584102,114.974951 C491.034286,103.928867 491.474071,86.896917 488.28896,72.8681849 C482.438483,47.1145594 466.273042,29.5272194 449.254685,22.1425935 C432.236328,14.7579677 414.205131,15.971597 396.53376,17.1852263 C372.545472,18.8719654 348.357282,18.3988556 324.435629,20.8466843 C298.861449,23.5619227 277.498546,40.2236133 253.270375,50.6525975 Z" id="Shape" fill="#999999" fill-rule="nonzero" opacity="0.1" transform="translate(309.219998, 85.273312) rotate(5.000000) translate(-309.219998, -85.273312) "></path>
                <path d="M198.2294,225.710494 C200.762947,230.114443 199.15069,236.432582 202.738405,240.032233 C205.369397,242.671977 209.736666,242.656979 212.719785,244.884263 C215.040727,246.62222 216.196768,249.46632 217.248722,252.166058 L222.360109,265.289788 C224.687695,271.266709 226.676441,278.960964 221.98805,283.342415 C219.177673,285.967161 214.932209,286.265257 211.094239,285.985909 C183.316019,283.96298 160.972524,260.246526 133.289533,257.184948 C113.723195,255.019532 94.3916086,263.538707 74.7123241,263.068128 C64.3035195,262.818777 54.1405399,260.068418 44.0971508,257.323684 C36.3724891,255.218263 27.7996205,252.449156 24.1166754,245.351093 C22.4711984,242.1789 21.9596167,238.346771 19.514655,235.738899 C17.6410702,233.738467 14.9325663,232.791684 12.6049805,231.342449 C2.4663619,225.022436 1.30367628,210.886305 2.18731735,198.983082 C2.67675263,192.379971 3.50502771,185.619376 6.59002021,179.758693 C9.67501271,173.89801 15.4795822,169.051604 22.1057829,168.860373 C26.2958804,168.73851 30.2999482,170.429596 34.3770991,171.374505 C38.45425,172.319413 43.2356562,172.347535 46.2962876,169.499686 C48.8076886,167.161787 49.5961001,163.406526 52.1075011,161.063003 C54.0630275,159.242554 56.7914631,158.535747 59.4290985,158.102664 C73.613863,155.77414 88.7243467,159.816249 99.8484797,168.912868 C102.552554,171.123279 105.12818,173.673032 108.432422,174.807297 C112.83291,176.316526 117.643106,175.0379 122.296063,175.069772 C138.71097,175.182261 149.843961,190.222055 161.413237,199.703012 C168.176745,205.246851 174.718789,206.44111 182.058104,210.134502 C186.600329,212.421781 195.489891,220.95033 198.2294,225.710494 Z" id="Shape" fill="#CACACA" fill-rule="nonzero" opacity="0.195424107" transform="translate(113.393478, 221.763342) scale(1, -1) rotate(1.000000) translate(-113.393478, -221.763342) "></path>
                <path d="M193.36776,225.05832 C195.786254,228.797464 194.247212,234.161837 197.672002,237.218097 C200.183515,239.459355 204.352456,239.44662 207.200106,241.337681 C209.415649,242.813282 210.519192,245.228046 211.523374,247.520241 L216.402643,258.662856 C218.624528,263.737522 220.522961,270.270278 216.047479,273.99032 C213.364727,276.218843 209.312059,276.471939 205.64838,276.234761 C179.131628,274.517206 157.802798,254.380909 131.376951,251.781496 C112.699162,249.942964 94.2454646,257.176113 75.4598584,256.776571 C65.5237398,256.564861 55.8222828,254.229687 46.2349855,251.899289 C38.8611171,250.111695 30.6775607,247.760603 27.161866,241.73404 C25.5911137,239.040711 25.102764,235.787067 22.7688332,233.57287 C20.9803319,231.874417 18.394827,231.070557 16.1729418,229.840094 C6.49473949,224.474129 5.38485391,212.47194 6.22836695,202.365588 C6.69557593,196.759261 7.48623728,191.019222 10.4311337,186.043249 C13.3760301,181.067275 18.9170017,176.952466 25.2422925,176.790102 C29.2421087,176.686635 33.0643433,178.122441 36.956342,178.924709 C40.8483408,179.726977 45.4126131,179.750854 48.3342548,177.332907 C50.7316076,175.34793 51.4842158,172.15955 53.8815686,170.169797 C55.7482904,168.624157 58.3528219,168.024048 60.8706767,167.656341 C74.4112807,165.679323 88.8355652,169.111249 99.4545276,176.834673 C102.035804,178.711408 104.494465,180.876259 107.648654,181.839299 C111.849307,183.1207 116.441062,182.035091 120.882719,182.062151 C136.552189,182.157659 147.179608,194.927097 158.223498,202.97684 C164.679861,207.683799 170.924817,208.697777 177.930837,211.833628 C182.26679,213.775626 190.752658,221.016735 193.36776,225.05832 Z" id="Shape-Copy" fill="#80A6D6" fill-rule="nonzero" transform="translate(112.384419, 221.707016) scale(1, -1) rotate(1.000000) translate(-112.384419, -221.707016) "></path>
                <path d="M70.0724007,222.912554 C69.8477712,222.912554 69.6507127,223.062357 69.5906221,223.278798 C67.7584247,229.878458 66.843335,234.5215 66.843335,237.176865 C66.843335,239.83223 67.758425,244.475298 69.5906229,251.07501 C69.6507134,251.29146 69.847776,251.441268 70.0724105,251.441268 L72.8508467,251.441256 C72.8861905,251.441256 72.9214347,251.437509 72.9559883,251.430077 C73.2259581,251.372009 73.3977373,251.106083 73.3396671,250.836112 C71.958645,244.415465 71.2674675,239.87 71.2674675,237.176865 C71.2674675,234.48373 71.9586448,229.93829 73.3396663,223.517693 C73.3470984,223.48314 73.3508458,223.447897 73.3508458,223.412554 C73.3508458,223.136418 73.1269932,222.912565 72.850855,222.912565 L70.0723986,222.912554 Z" id="Rectangle-3" stroke="#FDFDFD" transform="translate(70.097197, 237.176911) rotate(125.000000) translate(-70.097197, -237.176911) "></path>
                <g id="Sample-Badge" transform="translate(294.853804, 108.075707) rotate(-115.000000) translate(-294.853804, -108.075707) translate(257.353804, -0.924293)">
                    <path d="M73.0458938,3.08595461 L65.012604,9.90225378 C64.5612311,10.2852479 64.3027099,10.8485199 64.3066184,11.4404716 C64.5538776,48.8878609 64.677509,77.2251884 64.677509,96.4532153 C64.677509,100.596237 64.5508048,133.724379 64.297361,195.846889 C64.297361,209.37613 51.9042323,217.66938 33.826195,217.66938 C17.1180294,217.66938 8.43626442,209.564655 8.43626442,195.015953 L8.43626442,11.3498304 C8.43626442,10.7954772 8.2061793,10.2659905 7.80092186,9.88773941 L0.446102979,3.02304467 C-0.361387577,2.26936517 -0.405010062,1.00378679 0.348669433,0.196296233 C0.726920568,-0.208961202 1.25640719,-0.439046324 1.81076042,-0.439046324 L71.7519185,-0.439046324 C72.856488,-0.439046324 73.7519185,0.456384177 73.7519185,1.56095368 C73.7519185,2.14829636 73.4937438,2.7059498 73.045895,3.08595362 Z" id="Rectangle-2" stroke="#CACACA" stroke-width="2" fill="#FDFDFD"></path>
                    <path d="M12.7988011,26.585072 C12.7988011,32.7962561 39.9952762,216.574702 26.8504211,216.574702 C20.6469266,216.574702 16.6831358,212.9728 13.8548476,209.576563 C10.6901527,205.776366 9.03588899,201.799652 9.03588899,194.711541 L9.03588899,11.0632864 C9.03588899,10.2213207 8.68207386,9.41810801 8.06084542,8.84979336 L0.941248526,2.33666143 C0.533741962,1.96386467 0.505604106,1.33130384 0.878400864,0.923797281 C1.05079867,0.735348112 1.28876762,0.620004005 1.54350042,0.601421958 C9.04703423,0.054060119 12.7988011,8.71527679 12.7988011,26.585072 Z" id="Rectangle-2" fill="#80A6D6"></path>
                </g>
                <path d="M72,204.954655 C72.8197214,202.495491 77.7580874,201.538298 79.9295649,201.782829 C83.9433991,202.234829 84.6873039,203.368742 86.2732169,204.954655 C87.8591299,206.540568 89.4450428,209.712394 87.8591299,214.470133 C86.2732169,219.227872 81.5154779,219.227872 76.757739,217.641959 C72,216.056046 72,214.470133 72,211.298307 C72,208.126481 74.8412183,204.954655 78.3436519,204.954655 C81.5154779,204.954655 83.1013909,206.540568 84.6873039,208.126481 C85.5146488,208.953826 86.3530676,211.38903 84.6873039,212.88422 C83.1600143,214.255116 81.8439312,214.433125 80.2580183,214.433125 C78.6721053,214.433125 77.6738184,214.121083 76.757739,212.847212 C75.8416595,211.573341 78.3436519,208.582226 81.5154779,210.168139" id="Line-3" stroke="#F2F2F2" stroke-width="2" stroke-linecap="round"></path>
                <path d="M97.3746078,223.985611 C98.1943291,221.526447 103.132695,220.569254 105.304173,220.813785 C109.318007,221.265785 110.061912,222.399698 111.647825,223.985611 C113.233738,225.571524 114.819651,228.74335 113.233738,233.501089 C111.647825,238.258828 106.890086,238.258828 102.132347,236.672915 C97.3746078,235.087002 97.3746078,233.501089 97.3746078,230.329263 C97.3746078,227.157437 100.215826,223.985611 103.71826,223.985611 C106.890086,223.985611 108.475999,225.571524 110.061912,227.157437 C110.889257,227.984782 111.727675,230.419986 110.061912,231.915176 C108.534622,233.286071 107.218539,233.464081 105.632626,233.464081 C104.046713,233.464081 103.048426,233.152039 102.132347,231.878168 C101.216267,230.604297 103.71826,227.613181 106.890086,229.199094" id="Line-3" stroke="#F2F2F2" stroke-width="2" stroke-linecap="round"></path>
            </g>
        </g>
    </g>
</svg>