<svg width="24" height="24" xmlns="http://www.w3.org/2000/svg"><g fill="none" fill-rule="evenodd"><circle fill="#386DB0" cx="12" cy="12" r="12"/><path d="M6.935 19.844a.43.43 0 0 1-.148-.39l.51-3.168h-2.68a.638.638 0 0 1-.443-.156.53.53 0 0 1-.174-.416v-.83a.53.53 0 0 1 .174-.416.638.638 0 0 1 .442-.156h2.975l.697-4.624H5.313a.638.638 0 0 1-.442-.156.53.53 0 0 1-.174-.415v-.831a.53.53 0 0 1 .174-.416.638.638 0 0 1 .442-.156H8.61l.482-3.169a.768.768 0 0 1 .215-.39A.555.555 0 0 1 9.709 4h.91c.162 0 .296.052.403.156a.444.444 0 0 1 .134.39l-.483 3.168h4.02l.483-3.169a.768.768 0 0 1 .214-.39.555.555 0 0 1 .402-.155h.912c.16 0 .294.052.402.156a.444.444 0 0 1 .134.39l-.483 3.168h2.653a.59.59 0 0 1 .43.156c.106.104.16.243.16.416v.83a.552.552 0 0 1-.16.416.59.59 0 0 1-.43.156h-2.948l-.697 4.624h2.949a.59.59 0 0 1 .428.156c.108.103.161.242.161.415v.831a.552.552 0 0 1-.16.416.59.59 0 0 1-.43.156h-3.27l-.482 3.169a.768.768 0 0 1-.214.39.555.555 0 0 1-.402.155h-.911c-.161 0-.3-.052-.416-.156a.43.43 0 0 1-.147-.39l.51-3.168H9.36l-.483 3.169a.768.768 0 0 1-.215.39.555.555 0 0 1-.402.155h-.91c-.162 0-.3-.052-.416-.156zm2.747-5.532h3.993l.697-4.624h-3.993l-.697 4.624z" fill="#F2F2F2"/></g></svg>