<?xml version="1.0" encoding="UTF-8"?>
<svg width="16px" height="16px" viewBox="0 0 16 16" version="1.1" xmlns="http://www.w3.org/2000/svg" xmlns:xlink="http://www.w3.org/1999/xlink">
    <!-- Generator: Sketch 50.2 (55047) - http://www.bohemiancoding.com/sketch -->
    <title>iconmonstr-coin-3</title>
    <desc>Created with Sketch.</desc>
    <defs></defs>
    <g id="Symbols" stroke="none" stroke-width="1" fill="none" fill-rule="evenodd">
        <g id="Footer" transform="translate(-866.000000, -21.000000)" fill="#F3E500" fill-rule="nonzero">
            <g transform="translate(0.000000, -5.000000)" id="button-fund-ccdl">
                <g transform="translate(842.000000, 18.000000)">
                    <g id="iconmonstr-coin-3" transform="translate(24.000000, 8.000000)">
                        <path d="M8,1.33333333 C11.676,1.33333333 14.6666667,4.324 14.6666667,8 C14.6666667,11.676 11.676,14.6666667 8,14.6666667 C4.324,14.6666667 1.33333333,11.676 1.33333333,8 C1.33333333,4.324 4.324,1.33333333 8,1.33333333 Z M8,0 C3.582,0 0,3.582 0,8 C0,12.418 3.582,16 8,16 C12.418,16 16,12.418 16,8 C16,3.582 12.418,0 8,0 Z M8,2 C4.686,2 2,4.686 2,8 C2,11.314 4.686,14 8,14 C11.314,14 14,11.314 14,8 C14,4.686 11.314,2 8,2 Z M8.66666667,11.298 L8.66666667,12 L8,12 L8,11.3346667 C7.31,11.3226667 6.596,11.158 6,10.85 L6.30333333,9.754 C6.94066667,10.0013333 7.78933333,10.264 8.45333333,10.114 C9.21933333,9.94066667 9.37666667,9.15266667 8.52933333,8.77333333 C7.90866667,8.484 6.01066667,8.23666667 6.01066667,6.61133333 C6.01066667,5.70266667 6.70333333,4.88933333 8,4.71133333 L8,4 L8.66666667,4 L8.66666667,4.67866667 C9.15,4.69133333 9.69,4.77533333 10.2946667,4.95866667 L10.0533333,6.05733333 C9.54133333,5.87733333 8.976,5.714 8.42533333,5.74733333 C7.43266667,5.80533333 7.34533333,6.66466667 8.038,7.02466667 C9.17866667,7.56066667 10.6666667,7.95866667 10.6666667,9.38866667 C10.668,10.534 9.77066667,11.1433333 8.66666667,11.298 Z" id="Shape"></path>
                    </g>
                </g>
            </g>
        </g>
    </g>
</svg>