<?xml version="1.0" encoding="UTF-8"?>
<svg width="26px" height="26px" viewBox="0 0 26 26" version="1.1" xmlns="http://www.w3.org/2000/svg" xmlns:xlink="http://www.w3.org/1999/xlink">
    <!-- Generator: Sketch 51.1 (57501) - http://www.bohemiancoding.com/sketch -->
    <title>help</title>
    <desc>Created with Sketch.</desc>
    <defs></defs>
    <g id="Symbols" stroke="none" stroke-width="1" fill="none" fill-rule="evenodd">
        <g id="badges/help" transform="translate(1.000000, 1.000000)">
            <g id="help">
                <circle id="Oval-2" stroke="#386DB0" cx="12" cy="12" r="12"></circle>
                <path d="M10.8318777,15.8797814 C10.7532747,15.7996353 10.7139738,15.6927754 10.7139738,15.5591985 L10.7139738,14.7377049 C10.7401748,14.0297475 10.920304,13.4153032 11.2543668,12.8943534 C11.5884296,12.3734036 12.0633157,11.7923529 12.6790393,11.151184 C13.1506574,10.6569496 13.5010906,10.2495462 13.7303493,9.92896175 C13.9596081,9.60837727 14.0938863,9.26108262 14.1331878,8.8870674 C14.1462883,8.83363665 14.1528384,8.74681299 14.1528384,8.62659381 C14.1528384,8.01214022 13.8973825,7.52459197 13.3864629,7.16393443 C12.8755433,6.80327689 12.2794794,6.62295082 11.5982533,6.62295082 C10.8646252,6.62295082 10.2521859,6.81997374 9.76091703,7.2140255 C9.2696482,7.60807726 8.95196579,8.225861 8.80786026,9.06739526 C8.75545825,9.36126437 8.58515428,9.50819672 8.29694323,9.50819672 L7.43231441,9.50819672 C7.31440989,9.50819672 7.21288252,9.46812426 7.12772926,9.38797814 C7.04257599,9.30783202 7,9.20097213 7,9.06739526 C7.026201,8.3327225 7.23253082,7.65483006 7.61899563,7.03369763 C8.00546045,6.4125652 8.54912313,5.91833821 9.25,5.55100182 C9.95087687,5.18366544 10.7532706,5 11.6572052,5 C12.6135419,5 13.4192107,5.16696858 14.0742358,5.50091075 C14.7292609,5.83485291 15.2139722,6.27231059 15.5283843,6.8132969 C15.8427963,7.35428321 16,7.92531576 16,8.52641166 C16,9.20765368 15.8493465,9.79538308 15.5480349,10.2896175 C15.2467234,10.7838519 14.7947628,11.3582238 14.1921397,12.0127505 C13.6943207,12.5604156 13.3209619,13.0245883 13.0720524,13.4052823 C12.8231429,13.7859764 12.6790395,14.2100766 12.639738,14.6775956 C12.613537,15.0516109 12.6004367,15.3321181 12.6004367,15.5191257 C12.5349342,15.8397102 12.3711803,16 12.1091703,16 L11.1462882,16 C11.0152832,16 10.9104807,15.9599275 10.8318777,15.8797814 Z M11.1192661,18.8761905 C11.039755,18.7936504 11,18.6888895 11,18.5619048 L11,17.4571429 C11,17.3301581 11.039755,17.2222227 11.1192661,17.1333333 C11.1987772,17.044444 11.2996936,17 11.4220183,17 L12.559633,17 C12.6819578,17 12.7859323,17.044444 12.8715596,17.1333333 C12.957187,17.2222227 13,17.3301581 13,17.4571429 L13,18.5619048 C13,18.6888895 12.957187,18.7936504 12.8715596,18.8761905 C12.7859323,18.9587306 12.6819578,19 12.559633,19 L11.4220183,19 C11.2996936,19 11.1987772,18.9587306 11.1192661,18.8761905 Z" id="?" fill="#386DB0"></path>
            </g>
        </g>
    </g>
</svg>