<?xml version="1.0" encoding="UTF-8"?>
<svg width="141px" height="58px" viewBox="0 0 141 58" version="1.1" xmlns="http://www.w3.org/2000/svg" xmlns:xlink="http://www.w3.org/1999/xlink">
    <!-- Generator: Sketch 51.3 (57544) - http://www.bohemiancoding.com/sketch -->
    <title>Logo</title>
    <desc>Created with Sketch.</desc>
    <defs></defs>
    <g id="Scratchpad" stroke="none" stroke-width="1" fill="none" fill-rule="evenodd">
        <g id="square-ccdl" transform="translate(-15.000000, -296.000000)">
            <g id="Logo" transform="translate(14.000000, 296.000000)">
                <path d="M32.5750303,34.875 L32.5750303,23.47875 L33.6753939,23.47875 C33.8839606,23.47875 34.0277976,23.5199996 34.1069091,23.6025 C34.1860206,23.6850004 34.2399595,23.827499 34.2687273,24.03 L34.3981818,25.8075 C34.7721635,25.012496 35.2342397,24.3918772 35.7844242,23.945625 C36.3346088,23.4993728 36.9800771,23.27625 37.7208485,23.27625 C38.0229106,23.27625 38.2962008,23.3118746 38.5407273,23.383125 C38.7852537,23.4543754 39.0117969,23.5537494 39.2203636,23.68125 L38.9722424,25.1775 C38.9218987,25.3650009 38.8104251,25.45875 38.6378182,25.45875 C38.5371308,25.45875 38.3825061,25.4231254 38.1739394,25.351875 C37.9653727,25.2806246 37.6741029,25.245 37.3001212,25.245 C36.6312694,25.245 36.0721033,25.447498 35.6226061,25.8525 C35.1731089,26.257502 34.7973348,26.8462461 34.4952727,27.61875 L34.4952727,34.875 L32.5750303,34.875 Z M45.596,23.29875 C46.2504679,23.29875 46.8545831,23.4131239 47.4083636,23.641875 C47.9621442,23.8706261 48.440402,24.2006228 48.8431515,24.631875 C49.245901,25.0631272 49.5605443,25.5956218 49.7870909,26.229375 C50.0136375,26.8631282 50.1269091,27.5849959 50.1269091,28.395 C50.1269091,28.7100016 50.0945458,28.9199995 50.0298182,29.025 C49.9650906,29.1300005 49.8428292,29.1825 49.6630303,29.1825 L42.392,29.1825 C42.4063839,29.9025036 42.4998779,30.5287473 42.6724848,31.06125 C42.8450918,31.5937527 43.0824227,32.0381232 43.3844848,32.394375 C43.686547,32.7506268 44.0461393,33.0168741 44.4632727,33.193125 C44.8804061,33.3693759 45.3478762,33.4575 45.865697,33.4575 C46.347558,33.4575 46.7628871,33.3993756 47.111697,33.283125 C47.4605068,33.1668744 47.7607664,33.0412507 48.0124848,32.90625 C48.2642033,32.7712493 48.4745648,32.6456256 48.6435758,32.529375 C48.8125867,32.4131244 48.9582216,32.355 49.0804848,32.355 C49.2387079,32.355 49.3609693,32.4187494 49.4472727,32.54625 L49.9866667,33.2775 C49.7493321,33.5775015 49.4652542,33.8381239 49.1344242,34.059375 C48.8035943,34.2806261 48.4493958,34.4624993 48.0718182,34.605 C47.6942405,34.7475007 47.3040828,34.8543746 46.9013333,34.925625 C46.4985838,34.9968754 46.0994363,35.0325 45.7038788,35.0325 C44.9487235,35.0325 44.2529123,34.8993763 43.6164242,34.633125 C42.9799362,34.3668737 42.4297599,33.9768776 41.9658788,33.463125 C41.5019977,32.9493724 41.1406074,32.3137538 40.881697,31.55625 C40.6227866,30.7987462 40.4933333,29.9287549 40.4933333,28.94625 C40.4933333,28.151246 40.6102009,27.4087534 40.8439394,26.71875 C41.0776779,26.0287465 41.4138968,25.4306275 41.8526061,24.924375 C42.2913153,24.4181225 42.8271079,24.0206264 43.46,23.731875 C44.0928921,23.4431236 44.8048849,23.29875 45.596,23.29875 Z M45.6391515,24.7725 C44.7113893,24.7725 43.9814168,25.0518722 43.4492121,25.610625 C42.9170074,26.1693778 42.5861825,26.943745 42.4567273,27.93375 L48.4008485,27.93375 C48.4008485,27.4687477 48.3397178,27.0431269 48.2174545,26.656875 C48.0951913,26.2706231 47.9153951,25.9368764 47.6780606,25.655625 C47.4407261,25.3743736 47.1512542,25.1568758 46.8096364,25.003125 C46.4680185,24.8493742 46.0778608,24.7725 45.6391515,24.7725 Z M53.0072727,34.875 L53.0072727,25.18875 L51.7990303,25.0425 C51.6479992,25.0049998 51.5239399,24.9468754 51.4268485,24.868125 C51.3297571,24.7893746 51.2812121,24.6750007 51.2812121,24.525 L51.2812121,23.70375 L53.0072727,23.70375 L53.0072727,23.07375 C53.0072727,22.3762465 53.1115545,21.7368779 53.3201212,21.155625 C53.5286879,20.5743721 53.8415333,20.0737521 54.2586667,19.65375 C54.6758001,19.2337479 55.195411,18.9075012 55.8175152,18.675 C56.4396193,18.4424988 57.1641979,18.32625 57.9912727,18.32625 C58.264567,18.32625 58.5432511,18.3449998 58.8273333,18.3825 C59.1114156,18.4200002 59.3577363,18.4762496 59.566303,18.55125 L59.5015758,19.5975 C59.4871918,19.6950005 59.4440408,19.7568749 59.3721212,19.783125 C59.3002017,19.8093751 59.1959199,19.8225 59.0592727,19.8225 C58.9801612,19.8225 58.897455,19.820625 58.8111515,19.816875 C58.7248481,19.813125 58.6277581,19.81125 58.5198788,19.81125 C57.2469027,19.81125 56.3209524,20.0868722 55.742,20.638125 C55.1630476,21.1893778 54.8735758,22.0199944 54.8735758,23.13 L54.8735758,23.70375 L61.4757576,23.70375 L61.4757576,34.875 L59.5555152,34.875 L59.5555152,25.155 L54.938303,25.155 L54.938303,34.875 L53.0072727,34.875 Z M64.8739394,34.875 L64.8739394,23.47875 L66.0174545,23.47875 C66.2907488,23.47875 66.4633532,23.6174986 66.5352727,23.895 L66.686303,25.1325 C67.1609721,24.5849973 67.6913708,24.1425017 68.2775152,23.805 C68.8636595,23.4674983 69.5414911,23.29875 70.3110303,23.29875 C70.9079626,23.29875 71.4347654,23.401874 71.8914545,23.608125 C72.3481437,23.814376 72.7293116,24.1068731 73.0349697,24.485625 C73.3406278,24.8643769 73.5725649,25.3199973 73.7307879,25.8525 C73.8890109,26.3850027 73.9681212,26.9737468 73.9681212,27.61875 L73.9681212,34.875 L72.0478788,34.875 L72.0478788,27.61875 C72.0478788,26.7562457 71.8590928,26.0868774 71.4815152,25.610625 C71.1039375,25.1343726 70.5267918,24.89625 69.7500606,24.89625 C69.1818961,24.89625 68.6514974,25.0387486 68.1588485,25.32375 C67.6661996,25.6087514 67.2113152,25.9949976 66.7941818,26.4825 L66.7941818,34.875 L64.8739394,34.875 Z M81.196,23.29875 C81.8504679,23.29875 82.4545831,23.4131239 83.0083636,23.641875 C83.5621442,23.8706261 84.040402,24.2006228 84.4431515,24.631875 C84.845901,25.0631272 85.1605443,25.5956218 85.3870909,26.229375 C85.6136375,26.8631282 85.7269091,27.5849959 85.7269091,28.395 C85.7269091,28.7100016 85.6945458,28.9199995 85.6298182,29.025 C85.5650906,29.1300005 85.4428292,29.1825 85.2630303,29.1825 L77.992,29.1825 C78.0063839,29.9025036 78.0998779,30.5287473 78.2724848,31.06125 C78.4450918,31.5937527 78.6824227,32.0381232 78.9844848,32.394375 C79.286547,32.7506268 79.6461393,33.0168741 80.0632727,33.193125 C80.4804061,33.3693759 80.9478762,33.4575 81.465697,33.4575 C81.947558,33.4575 82.3628871,33.3993756 82.711697,33.283125 C83.0605068,33.1668744 83.3607664,33.0412507 83.6124848,32.90625 C83.8642033,32.7712493 84.0745648,32.6456256 84.2435758,32.529375 C84.4125867,32.4131244 84.5582216,32.355 84.6804848,32.355 C84.8387079,32.355 84.9609693,32.4187494 85.0472727,32.54625 L85.5866667,33.2775 C85.3493321,33.5775015 85.0652542,33.8381239 84.7344242,34.059375 C84.4035943,34.2806261 84.0493958,34.4624993 83.6718182,34.605 C83.2942405,34.7475007 82.9040828,34.8543746 82.5013333,34.925625 C82.0985838,34.9968754 81.6994363,35.0325 81.3038788,35.0325 C80.5487235,35.0325 79.8529123,34.8993763 79.2164242,34.633125 C78.5799362,34.3668737 78.0297599,33.9768776 77.5658788,33.463125 C77.1019977,32.9493724 76.7406074,32.3137538 76.481697,31.55625 C76.2227866,30.7987462 76.0933333,29.9287549 76.0933333,28.94625 C76.0933333,28.151246 76.2102009,27.4087534 76.4439394,26.71875 C76.6776779,26.0287465 77.0138968,25.4306275 77.4526061,24.924375 C77.8913153,24.4181225 78.4271079,24.0206264 79.06,23.731875 C79.6928921,23.4431236 80.4048849,23.29875 81.196,23.29875 Z M81.2391515,24.7725 C80.3113893,24.7725 79.5814168,25.0518722 79.0492121,25.610625 C78.5170074,26.1693778 78.1861825,26.943745 78.0567273,27.93375 L84.0008485,27.93375 C84.0008485,27.4687477 83.9397178,27.0431269 83.8174545,26.656875 C83.6951913,26.2706231 83.5153951,25.9368764 83.2780606,25.655625 C83.0407261,25.3743736 82.7512542,25.1568758 82.4096364,25.003125 C82.0680185,24.8493742 81.6778608,24.7725 81.2391515,24.7725 Z M87.5500606,33.6375 C87.5500606,33.442499 87.5842219,33.2587509 87.6525455,33.08625 C87.720869,32.9137491 87.814363,32.7637506 87.9330303,32.63625 C88.0516976,32.5087494 88.1937365,32.4075004 88.3591515,32.3325 C88.5245665,32.2574996 88.7007667,32.22 88.8877576,32.22 C89.0747484,32.22 89.2509487,32.2574996 89.4163636,32.3325 C89.5817786,32.4075004 89.7256156,32.5087494 89.8478788,32.63625 C89.970142,32.7637506 90.065434,32.9137491 90.1337576,33.08625 C90.2020811,33.2587509 90.2362424,33.442499 90.2362424,33.6375 C90.2362424,33.840001 90.2020811,34.0256242 90.1337576,34.194375 C90.065434,34.3631258 89.970142,34.5112494 89.8478788,34.63875 C89.7256156,34.7662506 89.5817786,34.8656246 89.4163636,34.936875 C89.2509487,35.0081254 89.0747484,35.04375 88.8877576,35.04375 C88.7007667,35.04375 88.5245665,35.0081254 88.3591515,34.936875 C88.1937365,34.8656246 88.0516976,34.7662506 87.9330303,34.63875 C87.814363,34.5112494 87.720869,34.3631258 87.6525455,34.194375 C87.5842219,34.0256242 87.5500606,33.840001 87.5500606,33.6375 Z M92.8145455,34.875 L92.8145455,18.30375 L94.7455758,18.30375 L94.7455758,25.12125 C95.1986689,24.5737473 95.7182799,24.1331267 96.3044242,23.799375 C96.8905686,23.4656233 97.5612083,23.29875 98.3163636,23.29875 C98.9492557,23.29875 99.5210075,23.4224988 100.031636,23.67 C100.542265,23.9175012 100.977372,24.2868725 101.33697,24.778125 C101.696567,25.2693775 101.973454,25.8768714 102.167636,26.600625 C102.361819,27.3243786 102.458909,28.1587453 102.458909,29.10375 C102.458909,29.9437542 102.351031,30.7256214 102.135273,31.449375 C101.919514,32.1731286 101.608467,32.7993724 101.202121,33.328125 C100.795776,33.8568776 100.299538,34.2731235 99.7133939,34.576875 C99.1272496,34.8806265 98.4673976,35.0325 97.7338182,35.0325 C97.0290066,35.0325 96.4302853,34.8900014 95.9376364,34.605 C95.4449874,34.3199986 95.0152746,33.9225025 94.6484848,33.4125 L94.5513939,34.4475 C94.4938583,34.7325014 94.3284458,34.875 94.0551515,34.875 L92.8145455,34.875 Z M97.6906667,24.89625 C97.0649666,24.89625 96.5165882,25.0462485 96.0455152,25.34625 C95.5744421,25.6462515 95.1411333,26.0699973 94.7455758,26.6175 L94.7455758,32.13 C95.0907896,32.6250025 95.4737555,32.973749 95.8944848,33.17625 C96.3152142,33.378751 96.7844823,33.48 97.302303,33.48 C98.3235607,33.48 99.107472,33.1012538 99.6540606,32.34375 C100.200649,31.5862462 100.473939,30.506257 100.473939,29.10375 C100.473939,28.3612463 100.411011,27.7237527 100.285152,27.19125 C100.159292,26.6587473 99.9776982,26.2218767 99.7403636,25.880625 C99.5030291,25.5393733 99.2117593,25.2900008 98.8665455,25.1325 C98.5213316,24.9749992 98.1293759,24.89625 97.6906667,24.89625 Z M106.946667,23.47875 L106.946667,34.875 L105.026424,34.875 L105.026424,23.47875 L106.946667,23.47875 Z M107.378182,19.90125 C107.378182,20.096251 107.340425,20.2781242 107.264909,20.446875 C107.189394,20.6156258 107.088708,20.7656243 106.962848,20.896875 C106.836989,21.0281257 106.691354,21.1312496 106.525939,21.20625 C106.360524,21.2812504 106.184324,21.31875 105.997333,21.31875 C105.810342,21.31875 105.63594,21.2812504 105.474121,21.20625 C105.312302,21.1312496 105.168465,21.0281257 105.042606,20.896875 C104.916747,20.7656243 104.817859,20.6156258 104.745939,20.446875 C104.67402,20.2781242 104.638061,20.096251 104.638061,19.90125 C104.638061,19.706249 104.67402,19.5206259 104.745939,19.344375 C104.817859,19.1681241 104.916747,19.0143757 105.042606,18.883125 C105.168465,18.7518743 105.312302,18.6487504 105.474121,18.57375 C105.63594,18.4987496 105.810342,18.46125 105.997333,18.46125 C106.184324,18.46125 106.360524,18.4987496 106.525939,18.57375 C106.691354,18.6487504 106.836989,18.7518743 106.962848,18.883125 C107.088708,19.0143757 107.189394,19.1681241 107.264909,19.344375 C107.340425,19.5206259 107.378182,19.706249 107.378182,19.90125 Z M114.757091,23.29875 C115.555398,23.29875 116.276381,23.4374986 116.920061,23.715 C117.563741,23.9925014 118.110321,24.3862474 118.559818,24.89625 C119.009315,25.4062525 119.354524,26.0231214 119.595455,26.746875 C119.836385,27.4706286 119.956848,28.2787455 119.956848,29.17125 C119.956848,30.0712545 119.836385,30.8812464 119.595455,31.60125 C119.354524,32.3212536 119.009315,32.9362474 118.559818,33.44625 C118.110321,33.9562525 117.563741,34.3481236 116.920061,34.621875 C116.276381,34.8956264 115.555398,35.0325 114.757091,35.0325 C113.958784,35.0325 113.237801,34.8956264 112.594121,34.621875 C111.950441,34.3481236 111.402063,33.9562525 110.94897,33.44625 C110.495877,32.9362474 110.147072,32.3212536 109.902545,31.60125 C109.658019,30.8812464 109.535758,30.0712545 109.535758,29.17125 C109.535758,28.2787455 109.658019,27.4706286 109.902545,26.746875 C110.147072,26.0231214 110.495877,25.4062525 110.94897,24.89625 C111.402063,24.3862474 111.950441,23.9925014 112.594121,23.715 C113.237801,23.4374986 113.958784,23.29875 114.757091,23.29875 Z M114.757091,33.46875 C115.835884,33.46875 116.641371,33.0918788 117.173576,32.338125 C117.70578,31.5843712 117.971879,30.5325067 117.971879,29.1825 C117.971879,27.8249932 117.70578,26.7675038 117.173576,26.01 C116.641371,25.2524962 115.835884,24.87375 114.757091,24.87375 C114.210502,24.87375 113.73584,24.971249 113.333091,25.16625 C112.930341,25.361251 112.594123,25.6424982 112.324424,26.01 C112.054726,26.3775018 111.853354,26.8293723 111.720303,27.365625 C111.587252,27.9018777 111.520727,28.5074966 111.520727,29.1825 C111.520727,29.8575034 111.587252,30.4612473 111.720303,30.99375 C111.853354,31.5262527 112.054726,31.9743732 112.324424,32.338125 C112.594123,32.7018768 112.930341,32.981249 113.333091,33.17625 C113.73584,33.371251 114.210502,33.46875 114.757091,33.46875 Z" id="refine.bio" fill="#002F6C"></path>
                <g id="DNA">
                    <g id="shell" fill="#002F6C" fill-rule="nonzero">
                        <path d="M14.4074863,27.9009985 C11.692538,24.3263996 9.00025837,20.7068887 6.80720285,17.1808501 C4.19156591,12.9753766 1.60257584,6.3822207 1.60257584,1.38294806 C1.60257584,-0.227659203 3.75208119,-0.22754033 3.75208119,1.38294806 C3.75208119,8.7593145 9.9011316,18.2373463 15.7357604,26.1199222 C21.5493996,18.2345337 27.5956018,8.74298742 27.5956018,1.36647059 C27.5956018,-0.2440178 29.5498965,-0.244136673 29.5498965,1.36647059 C29.5498965,10.8655442 23.0906736,19.5456431 16.8899418,27.6652563 C17.1649529,28.0304475 17.4382733,28.3914497 17.7092012,28.7478615 C24.3701188,37.5105683 30.1710501,45.702059 30.1710501,56.0839319 C30.1709451,57.6944203 28.4813803,57.6944203 28.4813803,56.0839319 C28.4813803,47.8667323 23.0424181,39.2561305 16.7161102,30.9337285 C16.3314824,30.427743 15.9445489,29.9200347 15.5567037,29.4110084 C15.4286107,29.5790533 15.3008425,29.746862 15.1734598,29.9144364 C8.84715196,38.2368385 2.99424064,47.8667323 2.99424064,56.0839319 C2.99424064,57.6944203 1.30467582,57.6944203 1.30457086,56.0839319 C1.30457086,45.702059 7.10550215,37.5105683 13.7664198,28.7478615 C13.9788911,28.4683507 14.1926895,28.185998 14.4074863,27.9009985 Z" id="Combined-Shape"></path>
                    </g>
                    <g id="BottomPairs" transform="translate(17.000000, 42.500000) scale(1, -1) translate(-17.000000, -42.500000) translate(5.000000, 31.000000)" stroke="#002F6C">
                        <g id="BasePair" transform="translate(13.669492, 2.000000) scale(-1, 1) translate(-13.669492, -2.000000) translate(4.169492, 0.000000)">
                            <path d="M0.0993716624,1.51904762 L15.8453125,1.51904762" id="Line" stroke-width="2" stroke-linecap="square"></path>
                            <ellipse id="Oval" cx="17.5908985" cy="1.51904762" rx="1.35314604" ry="1.51904762"></ellipse>
                        </g>
                        <g id="BasePair-Copy" transform="translate(-0.000000, 5.000000)">
                            <path d="M0.319396419,2.51904762 L13.3244378,2.51904762" id="Line" stroke-width="2" stroke-linecap="square"></path>
                            <ellipse id="Oval" cx="15.0654748" cy="2.51904762" rx="1.35314604" ry="1.51904762"></ellipse>
                        </g>
                        <g id="BasePair-Copy" transform="translate(5.152542, 16.238095)">
                            <path d="M0.838244206,2.51904762 L4.04359436,2.51904762" id="Line" stroke-width="2" stroke-linecap="square"></path>
                            <ellipse id="Oval" cx="5.7891804" cy="2.51904762" rx="1.35314604" ry="1.51904762"></ellipse>
                        </g>
                        <g id="BasePair" transform="translate(12.567797, 13.000000) scale(-1, 1) translate(-12.567797, -13.000000) translate(6.067797, 11.000000)">
                            <path d="M0.0534463707,1.51904762 L9.44758786,1.51904762" id="Line" stroke-width="2" stroke-linecap="square"></path>
                            <ellipse id="Oval" cx="11.1931739" cy="1.51904762" rx="1.35314604" ry="1.51904762"></ellipse>
                        </g>
                    </g>
                    <g id="TopPairs" transform="translate(5.000000, 2.000000)" stroke="#002F6C">
                        <g id="BasePair" transform="translate(13.500000, 2.000000) scale(-1, 1) translate(-13.500000, -2.000000) translate(4.000000, 0.000000)">
                            <path d="M0.0993716624,1.51904762 L15.8453125,1.51904762" id="Line" stroke-width="2" stroke-linecap="square"></path>
                            <ellipse id="Oval" cx="17.5908985" cy="1.51904762" rx="1.35314604" ry="1.51904762"></ellipse>
                        </g>
                        <g id="BasePair-Copy" transform="translate(0.000000, 5.000000)">
                            <path d="M0.319396419,2.51904762 L13.3244378,2.51904762" id="Line" stroke-width="2" stroke-linecap="square"></path>
                            <ellipse id="Oval" cx="15.0654748" cy="2.51904762" rx="1.35314604" ry="1.51904762"></ellipse>
                        </g>
                        <g id="BasePair-Copy" transform="translate(5.000000, 16.000000)">
                            <path d="M0.838244206,2.51904762 L4.04359436,2.51904762" id="Line" stroke-width="2" stroke-linecap="square"></path>
                            <ellipse id="Oval" cx="5.7891804" cy="2.51904762" rx="1.35314604" ry="1.51904762"></ellipse>
                        </g>
                        <g id="BasePair" transform="translate(12.500000, 13.000000) scale(-1, 1) translate(-12.500000, -13.000000) translate(6.000000, 11.000000)">
                            <path d="M0.0534463707,1.51904762 L9.44758786,1.51904762" id="Line" stroke-width="2" stroke-linecap="square"></path>
                            <ellipse id="Oval" cx="11.1931739" cy="1.51904762" rx="1.35314604" ry="1.51904762"></ellipse>
                        </g>
                    </g>
                </g>
                <path d="M124.395,25 L125.285,17.635 L126.16,17.635 L125.72,21.215 C125.846667,21.0116657 125.983333,20.8258342 126.13,20.6575 C126.276667,20.4891658 126.429999,20.3466672 126.59,20.23 C126.750001,20.1133327 126.916666,20.0225003 127.09,19.9575 C127.263334,19.8924997 127.439999,19.86 127.62,19.86 C128.050002,19.86 128.384999,20.0166651 128.625,20.33 C128.865001,20.6433349 128.985,21.1016636 128.985,21.705 C128.985,21.9783347 128.956667,22.2516653 128.9,22.525 C128.843333,22.7983347 128.762501,23.0591654 128.6575,23.3075 C128.552499,23.5558346 128.425834,23.7874989 128.2775,24.0025 C128.129166,24.2175011 127.964168,24.4041659 127.7825,24.5625 C127.600832,24.7208341 127.403334,24.8449996 127.19,24.935 C126.976666,25.0250005 126.753334,25.07 126.52,25.07 C126.249999,25.07 126.005834,25.0133339 125.7875,24.9 C125.569166,24.7866661 125.390001,24.6250011 125.25,24.415 L125.185,24.74 C125.158333,24.8266671 125.124167,24.8916665 125.0825,24.935 C125.040833,24.9783336 124.97,25 124.87,25 L124.395,25 Z M127.285,20.575 C127.124999,20.575 126.963334,20.6249995 126.8,20.725 C126.636666,20.8250005 126.479167,20.9633324 126.3275,21.14 C126.175833,21.3166675 126.033334,21.5266654 125.9,21.77 C125.766666,22.0133345 125.651667,22.2799986 125.555,22.57 L125.395,23.885 C125.521667,24.0650009 125.673332,24.1924996 125.85,24.2675 C126.026668,24.3425004 126.206666,24.38 126.39,24.38 C126.563334,24.38 126.726666,24.3433337 126.88,24.27 C127.033334,24.1966663 127.173333,24.0975006 127.3,23.9725 C127.426667,23.8474994 127.539999,23.7008342 127.64,23.5325 C127.74,23.3641658 127.824166,23.1841676 127.8925,22.9925 C127.960834,22.8008324 128.013333,22.602501 128.05,22.3975 C128.086667,22.192499 128.105,21.990001 128.105,21.79 C128.105,21.3933314 128.033334,21.0916677 127.89,20.885 C127.746666,20.6783323 127.545001,20.575 127.285,20.575 Z M133.655,21.02 C133.655,21.2400011 133.61,21.4424991 133.52,21.6275 C133.43,21.8125009 133.265001,21.9791659 133.025,22.1275 C132.784999,22.2758341 132.455002,22.4049994 132.035,22.515 C131.614998,22.6250005 131.075003,22.713333 130.415,22.78 C130.411667,22.8166669 130.41,22.8524998 130.41,22.8875 L130.41,22.995 C130.41,23.4416689 130.507499,23.7824988 130.7025,24.0175 C130.897501,24.2525012 131.191665,24.37 131.585,24.37 C131.745001,24.37 131.887499,24.3533335 132.0125,24.32 C132.137501,24.2866665 132.249166,24.2458336 132.3475,24.1975 C132.445834,24.1491664 132.5325,24.0958336 132.6075,24.0375 C132.6825,23.9791664 132.751666,23.9258336 132.815,23.8775 C132.878334,23.8291664 132.936666,23.7883335 132.99,23.755 C133.043334,23.7216665 133.096666,23.705 133.15,23.705 C133.21,23.705 133.265,23.733333 133.315,23.79 L133.535,24.065 C133.364999,24.2416675 133.199167,24.3924994 133.0375,24.5175 C132.875833,24.6425006 132.710001,24.7466663 132.54,24.83 C132.369999,24.9133337 132.192501,24.9741665 132.0075,25.0125 C131.822499,25.0508335 131.623334,25.07 131.41,25.07 C131.119999,25.07 130.860001,25.0216671 130.63,24.925 C130.399999,24.8283328 130.205001,24.6908342 130.045,24.5125 C129.884999,24.3341658 129.761667,24.1183346 129.675,23.865 C129.588333,23.6116654 129.545,23.3283349 129.545,23.015 C129.545,22.7549987 129.5725,22.4958346 129.6275,22.2375 C129.6825,21.9791654 129.762499,21.7333345 129.8675,21.5 C129.972501,21.2666655 130.100833,21.050001 130.2525,20.85 C130.404167,20.649999 130.577499,20.4775007 130.7725,20.3325 C130.967501,20.1874993 131.182499,20.0733337 131.4175,19.99 C131.652501,19.9066663 131.904999,19.865 132.175,19.865 C132.431668,19.865 132.653332,19.9016663 132.84,19.975 C133.026668,20.0483337 133.179999,20.1416661 133.3,20.255 C133.420001,20.3683339 133.509166,20.4933326 133.5675,20.63 C133.625834,20.7666673 133.655,20.8966661 133.655,21.02 Z M132.125,20.505 C131.914999,20.505 131.721668,20.5483329 131.545,20.635 C131.368332,20.7216671 131.211667,20.8408326 131.075,20.9925 C130.938333,21.1441674 130.821667,21.322499 130.725,21.5275 C130.628333,21.732501 130.553334,21.9533322 130.5,22.19 C131.013336,22.1266664 131.424998,22.0541671 131.735,21.9725 C132.045002,21.8908329 132.283333,21.8025005 132.45,21.7075 C132.616668,21.6124995 132.726666,21.5100006 132.78,21.4 C132.833334,21.2899994 132.86,21.1750006 132.86,21.055 C132.86,20.9949997 132.846667,20.9325003 132.82,20.8675 C132.793333,20.8024997 132.750834,20.7433336 132.6925,20.69 C132.634166,20.6366664 132.558334,20.5925002 132.465,20.5575 C132.371666,20.5224998 132.258334,20.505 132.125,20.505 Z M134.655,24.045 C134.655,24.0249999 134.655833,23.9991668 134.6575,23.9675 C134.659167,23.9358332 134.6625,23.8900003 134.6675,23.83 C134.6725,23.7699997 134.68,23.6916672 134.69,23.595 C134.7,23.4983329 134.715,23.3716675 134.735,23.215 L135.05,20.68 L134.485,20.68 C134.441666,20.68 134.405833,20.6675001 134.3775,20.6425 C134.349167,20.6174999 134.335,20.5783336 134.335,20.525 C134.335,20.5149999 134.336667,20.4950001 134.34,20.465 C134.343333,20.4349999 134.3475,20.4008335 134.3525,20.3625 C134.3575,20.3241665 134.3625,20.2850002 134.3675,20.245 C134.3725,20.2049998 134.376667,20.1666668 134.38,20.13 L135.16,20.025 L135.535,18.46 C135.548333,18.4099998 135.573333,18.3691668 135.61,18.3375 C135.646667,18.3058332 135.691666,18.29 135.745,18.29 L136.215,18.29 L135.995,20.035 L137.325,20.035 L137.25,20.68 L135.915,20.68 L135.61,23.17 C135.593333,23.3066673 135.580833,23.4166662 135.5725,23.5 L135.5525,23.7 C135.5475,23.7500002 135.544167,23.7849999 135.5425,23.805 C135.540833,23.8250001 135.54,23.8399999 135.54,23.85 C135.54,24.0200008 135.579166,24.1458329 135.6575,24.2275 C135.735834,24.3091671 135.843333,24.35 135.98,24.35 C136.066667,24.35 136.143333,24.3375001 136.21,24.3125 C136.276667,24.2874999 136.334166,24.2600001 136.3825,24.23 C136.430834,24.1999999 136.471666,24.1725001 136.505,24.1475 C136.538333,24.1224999 136.568333,24.11 136.595,24.11 C136.621667,24.11 136.6425,24.1166666 136.6575,24.13 C136.6725,24.1433334 136.688333,24.1649999 136.705,24.195 L136.89,24.62 C136.729999,24.7633341 136.545834,24.8758329 136.3375,24.9575 C136.129166,25.0391671 135.920001,25.08 135.71,25.08 C135.386665,25.08 135.131668,24.9916675 134.945,24.815 C134.758332,24.6383325 134.661667,24.3816683 134.655,24.045 Z M141.365,25 L140.905,25 C140.788333,25 140.709167,24.9700003 140.6675,24.91 C140.625833,24.8499997 140.605,24.7766671 140.605,24.69 L140.695,23.665 C140.574999,23.8783344 140.445834,24.0716658 140.3075,24.245 C140.169166,24.4183342 140.022501,24.5658327 139.8675,24.6875 C139.712499,24.8091673 139.550001,24.903333 139.38,24.97 C139.209999,25.036667 139.033334,25.07 138.85,25.07 C138.649999,25.07 138.468334,25.0308337 138.305,24.9525 C138.141666,24.8741663 138.002501,24.7591674 137.8875,24.6075 C137.772499,24.4558326 137.683334,24.2691678 137.62,24.0475 C137.556666,23.8258322 137.525,23.5716681 137.525,23.285 C137.525,22.9849985 137.5625,22.6925014 137.6375,22.4075 C137.7125,22.1224986 137.819166,21.8533346 137.9575,21.6 C138.095834,21.3466654 138.261666,21.1141677 138.455,20.9025 C138.648334,20.6908323 138.864165,20.5075008 139.1025,20.3525 C139.340835,20.1974992 139.596665,20.0775004 139.87,19.9925 C140.143335,19.9074996 140.429999,19.865 140.73,19.865 C140.946668,19.865 141.157499,19.8824998 141.3625,19.9175 C141.567501,19.9525002 141.769999,20.0133329 141.97,20.1 L141.365,25 Z M139.185,24.33 C139.348334,24.33 139.508333,24.2791672 139.665,24.1775 C139.821667,24.0758328 139.969999,23.9350009 140.11,23.755 C140.250001,23.5749991 140.380833,23.3608346 140.5025,23.1125 C140.624167,22.8641654 140.731666,22.5916682 140.825,22.295 L141.04,20.555 C140.966666,20.5383333 140.894167,20.5275 140.8225,20.5225 C140.750833,20.5175 140.68,20.515 140.61,20.515 C140.409999,20.515 140.216668,20.5474997 140.03,20.6125 C139.843332,20.6775003 139.668334,20.7683327 139.505,20.885 C139.341666,21.0016673 139.193334,21.1408325 139.06,21.3025 C138.926666,21.4641675 138.8125,21.6416657 138.7175,21.835 C138.6225,22.0283343 138.548334,22.2341656 138.495,22.4525 C138.441666,22.6708344 138.415,22.8949989 138.415,23.125 C138.415,23.9283373 138.671664,24.33 139.185,24.33 Z" id="beta" fill="#002F6C"></path>
            </g>
        </g>
    </g>
</svg>