<?xml version="1.0" encoding="UTF-8"?>
<svg width="24px" height="24px" viewBox="0 0 24 24" version="1.1" xmlns="http://www.w3.org/2000/svg" xmlns:xlink="http://www.w3.org/1999/xlink">
    <!-- Generator: Sketch 49.2 (51160) - http://www.bohemiancoding.com/sketch -->
    <title>badges/rna-seq</title>
    <desc>Created with Sketch.</desc>
    <defs></defs>
    <g id="badges/rna-seq" stroke="none" stroke-width="1" fill="none" fill-rule="evenodd">
        <g id="chip" fill="#386DB0">
            <circle id="Oval-2" cx="12" cy="12" r="12"></circle>
        </g>
        <path d="M7.88,18.87 C7.7999996,18.7833329 7.76,18.673334 7.76,18.54 L7.76,5.48 C7.76,5.3333326 7.7999996,5.2166671 7.88,5.13 C7.9600004,5.0433329 8.066666,5 8.2,5 L13.08,5 C14.6000076,5 15.7899957,5.3566631 16.65,6.07 C17.5100043,6.7833369 17.94,7.8199932 17.94,9.18 C17.94,10.1933384 17.6866692,11.0266634 17.18,11.68 C16.6733308,12.3333366 15.9666712,12.7866654 15.06,13.04 L18.14,18.38 C18.1800002,18.4600004 18.2,18.533333 18.2,18.6 C18.2,18.7066672 18.1600004,18.7999996 18.08,18.88 C17.9999996,18.9600004 17.9066672,19 17.8,19 L16.92,19 C16.719999,19 16.5633339,18.9533338 16.45,18.86 C16.3366661,18.7666662 16.2333338,18.6333342 16.14,18.46 L13.2,13.34 L9.64,13.34 L9.64,18.54 C9.64,18.673334 9.5933338,18.7833329 9.5,18.87 C9.4066662,18.9566671 9.293334,19 9.16,19 L8.2,19 C8.066666,19 7.9600004,18.9566671 7.88,18.87 Z M13,11.7 C15.0133434,11.7 16.02,10.8533418 16.02,9.16 C16.02,7.4666582 15.0133434,6.62 13,6.62 L9.64,6.62 L9.64,11.7 L13,11.7 Z" id="R" fill="#FDFDFD"></path>
    </g>
</svg>