<svg width="13" height="33" xmlns="http://www.w3.org/2000/svg"><g fill-rule="nonzero" fill="none"><path d="M3.088 1.02l.144.15v27.077c0 1.897 1.49 3.431 3.324 3.431 1.834 0 3.324-1.534 3.324-3.431V1.287l.221-.228-7.013-.04zm7.792.672v26.555c0 2.443-1.931 4.431-4.324 4.431s-4.324-1.988-4.324-4.431V1.57L.728.005l11.725.068-1.573 1.62z" fill="#979797"/><path d="M10 14.59v13.7c0 1.996-1.567 3.613-3.5 3.613S3 30.286 3 28.29V14.013c0-.327.257-.593.574-.593.055 0 .109.008.16.024.093.027.396.515 1.028.571.466.042.939-.38 1.537-.335.327.024.554.422.9.344.3-.067.504-.45.945-.466.36-.014.522.255 1.118.262a.76.76 0 0 1 .738.77z" fill="#386DB0"/></g></svg>