<?xml version="1.0" encoding="UTF-8"?>
<svg width="44px" height="48px" viewBox="0 0 44 48" version="1.1" xmlns="http://www.w3.org/2000/svg" xmlns:xlink="http://www.w3.org/1999/xlink">
    <!-- Generator: Sketch 50.2 (55047) - http://www.bohemiancoding.com/sketch -->
    <title>undraw_search_2dfv</title>
    <desc>Created with Sketch.</desc>
    <defs>
        <linearGradient x1="50.0328535%" y1="99.9720746%" x2="50.0328535%" y2="-0.0194486061%" id="linearGradient-1">
            <stop stop-color="#B3B3B3" stop-opacity="0.25" offset="0%"></stop>
            <stop stop-color="#B3B3B3" stop-opacity="0.1" offset="54%"></stop>
            <stop stop-color="#B3B3B3" stop-opacity="0.05" offset="100%"></stop>
        </linearGradient>
        <linearGradient x1="50%" y1="100%" x2="50%" y2="0%" id="linearGradient-2">
            <stop stop-color="#000000" stop-opacity="0.12" offset="0%"></stop>
            <stop stop-color="#000000" stop-opacity="0.09" offset="55%"></stop>
            <stop stop-color="#000000" stop-opacity="0.02" offset="100%"></stop>
        </linearGradient>
        <linearGradient x1="49.9891842%" y1="100.150159%" x2="49.9891842%" y2="0.0138502294%" id="linearGradient-3">
            <stop stop-color="#000000" stop-opacity="0.12" offset="0%"></stop>
            <stop stop-color="#000000" stop-opacity="0.09" offset="55%"></stop>
            <stop stop-color="#000000" stop-opacity="0.02" offset="100%"></stop>
        </linearGradient>
    </defs>
    <g id="Landing-Page" stroke="none" stroke-width="1" fill="none" fill-rule="evenodd">
        <g id="landing-page" transform="translate(-246.000000, -665.000000)" fill-rule="nonzero">
            <g id="undraw_search_2dfv" transform="translate(246.000000, 665.000000)">
                <path d="M29.7656791,7.90399661 C23.4177995,1.21590949 13.0195018,0.699991797 6.05608042,6.72763084 C-0.907341013,12.7552699 -2.01949015,23.234798 3.5202221,30.6224466 C9.05993434,38.0100951 19.3291571,39.7422558 26.9355117,34.5720195 L39.4360399,47.7378201 C39.5907065,47.9012889 39.80336,47.9955925 40.0269124,47.9998494 C40.2504649,48.0041063 40.4664707,47.9179652 40.6270998,47.7605003 L43.7410306,44.7364863 C43.9024977,44.5799023 43.9956465,44.3646125 43.9998513,44.1382887 C44.004056,43.9119649 43.9189697,43.6932812 43.763433,43.5306608 L31.2629048,30.3648601 C36.214148,23.502193 35.582801,14.030944 29.7656791,7.90399661 Z M25.8713987,29.0720941 C20.9464444,33.8647962 13.1164022,33.7084378 8.38195812,28.722847 C3.64751403,23.7372562 3.80127393,15.8101307 8.7254013,11.0165579 C13.6495287,6.22298515 21.4795977,6.37795897 26.2149018,11.3627125 C30.9388835,16.3463837 30.7851957,24.2613323 25.8713987,29.0531941 L25.8713987,29.0720941 Z" id="Shape" fill="url(#linearGradient-1)"></path>
                <path d="M8.8,16.4210526 C7.12380952,16.4210526 7.12380952,18.9473684 8.8,18.9473684 C10.4761905,18.9473684 10.4761905,16.4210526 8.8,16.4210526 Z" id="Shape" fill="url(#linearGradient-2)"></path>
                <path d="M17.9923025,8.84655312 C14.3639467,8.74404915 10.9363352,10.4189856 8.9253591,13.2772051 C8.32845199,14.1633355 10.024726,14.9458459 10.6216331,14.0632886 C12.1327903,11.8158046 15.0228785,10.3901351 18.1396403,10.4651703 C21.3388806,10.5696159 24.2715986,12.1783614 25.9561011,14.7528981 C26.5530083,15.6854789 28.1208339,14.8386527 27.5239268,13.9132181 C25.6236466,10.9475397 21.9061998,8.92873457 17.9923025,8.84655312 Z" id="Shape" fill="url(#linearGradient-3)"></path>
                <path d="M29.7656791,5.37768082 C23.4177995,-1.3104063 13.0195018,-1.82632399 6.05608042,4.20131505 C-0.907341013,10.2289541 -2.01949015,20.7084822 3.5202221,28.0961308 C9.05993434,35.4837793 19.3291571,37.21594 26.9355117,32.0457037 L39.4360399,45.2115044 C39.5907065,45.3749731 39.80336,45.4692767 40.0269124,45.4735336 C40.2504649,45.4777905 40.4664707,45.3916494 40.6270998,45.2341845 L43.7410306,42.2101705 C43.9024977,42.0535865 43.9956465,41.8382968 43.9998513,41.6119729 C44.004056,41.3856491 43.9189697,41.1669654 43.763433,41.004345 L31.2629048,27.8385443 C36.214148,20.9758772 35.582801,11.5046282 29.7656791,5.37768082 Z M25.8713987,26.5457784 C20.9464444,31.3384804 13.1164022,31.182122 8.38195812,26.1965312 C3.64751403,21.2109404 3.80127393,13.2838149 8.7254013,8.49024212 C13.6495287,3.69666936 21.4795977,3.85164318 26.2149018,8.83639676 C30.9488751,13.8219202 30.7950926,21.748516 25.8713987,26.5419983 L25.8713987,26.5457784 Z" id="Shape" fill="#386DB0"></path>
                <path d="M8.8,13.8947368 C7.12380952,13.8947368 7.12380952,16.4210526 8.8,16.4210526 C10.4761905,16.4210526 10.4761905,13.8947368 8.8,13.8947368 Z" id="Shape" fill="#386DB0"></path>
                <path d="M17.9923025,7.58339523 C14.3639467,7.48089125 10.9363352,9.15582771 8.9253591,12.0140472 C8.32845199,12.9001776 10.024726,13.682688 10.6216331,12.8001307 C12.1327903,10.5526467 15.0228785,9.12697722 18.1396403,9.20201245 C21.3388806,9.30645804 24.2715986,10.9152035 25.9561011,13.4897402 C26.5530083,14.422321 28.1208339,13.5754948 27.5239268,12.6500602 C25.6236466,9.68438183 21.9061998,7.66557667 17.9923025,7.58339523 Z" id="Shape" fill="#386DB0"></path>
            </g>
        </g>
    </g>
</svg>