<?xml version="1.0" encoding="UTF-8"?>
<svg width="493px" height="172px" viewBox="0 0 493 172" version="1.1" xmlns="http://www.w3.org/2000/svg" xmlns:xlink="http://www.w3.org/1999/xlink">
    <!-- Generator: Sketch 49.2 (51160) - http://www.bohemiancoding.com/sketch -->
    <title>Illustration</title>
    <desc>Created with Sketch.</desc>
    <defs>
        <linearGradient x1="76062%" y1="69968%" x2="76062%" y2="67768%" id="linearGradient-1">
            <stop stop-color="#808080" stop-opacity="0.25" offset="0%"></stop>
            <stop stop-color="#808080" stop-opacity="0.12" offset="54%"></stop>
            <stop stop-color="#808080" stop-opacity="0.1" offset="100%"></stop>
        </linearGradient>
        <linearGradient x1="60762%" y1="68768%" x2="60762%" y2="56668%" id="linearGradient-2">
            <stop stop-color="#808080" stop-opacity="0.25" offset="0%"></stop>
            <stop stop-color="#808080" stop-opacity="0.12" offset="54%"></stop>
            <stop stop-color="#808080" stop-opacity="0.1" offset="100%"></stop>
        </linearGradient>
        <linearGradient x1="60862%" y1="64868%" x2="60862%" y2="64868%" id="linearGradient-3">
            <stop stop-color="#808080" stop-opacity="0.25" offset="0%"></stop>
            <stop stop-color="#808080" stop-opacity="0.12" offset="54%"></stop>
            <stop stop-color="#808080" stop-opacity="0.1" offset="100%"></stop>
        </linearGradient>
        <linearGradient x1="48212%" y1="64568%" x2="48212%" y2="59068%" id="linearGradient-4">
            <stop stop-color="#808080" stop-opacity="0.25" offset="0%"></stop>
            <stop stop-color="#808080" stop-opacity="0.12" offset="54%"></stop>
            <stop stop-color="#808080" stop-opacity="0.1" offset="100%"></stop>
        </linearGradient>
        <linearGradient x1="45962%" y1="69968%" x2="45962%" y2="67768%" id="linearGradient-5">
            <stop stop-color="#808080" stop-opacity="0.25" offset="0%"></stop>
            <stop stop-color="#808080" stop-opacity="0.12" offset="54%"></stop>
            <stop stop-color="#808080" stop-opacity="0.1" offset="100%"></stop>
        </linearGradient>
        <linearGradient x1="48635%" y1="70879%" x2="60065%" y2="70879%" id="linearGradient-6">
            <stop stop-color="#808080" stop-opacity="0.25" offset="0%"></stop>
            <stop stop-color="#808080" stop-opacity="0.12" offset="54%"></stop>
            <stop stop-color="#808080" stop-opacity="0.1" offset="100%"></stop>
        </linearGradient>
    </defs>
    <g id="Downloads-Itertation" stroke="none" stroke-width="1" fill="none" fill-rule="evenodd" opacity="0.800000012">
        <g id="download-dataset-processing" transform="translate(-429.000000, -504.000000)" fill-rule="nonzero">
            <g id="email-modal" transform="translate(303.000000, 166.000000)">
                <g id="Illustration" transform="translate(126.000000, 338.000000)">
                    <ellipse id="Oval" fill="#F2F2F2" cx="59.5" cy="157" rx="59.5" ry="15"></ellipse>
                    <polygon id="Shape" fill="#FFFFFF" opacity="0.5" points="209.097561 7.95789474 493 7.95789474 493 0 202 0 202 84 209.097561 84"></polygon>
                    <circle id="Oval" fill="url(#linearGradient-1)" cx="405" cy="153" r="10"></circle>
                    <circle id="Oval" fill="#5689C9" cx="404" cy="153" r="7"></circle>
                    <rect id="Rectangle-path" fill="url(#linearGradient-2)" x="117" y="45" width="305" height="107"></rect>
                    <rect id="Rectangle-path" fill="#FFFFFF" x="126" y="49" width="291" height="84"></rect>
                    <path d="M135,117 L404,117" id="Shape" stroke="#5689C9" stroke-width="3" fill="url(#linearGradient-3)"></path>
                    <rect id="Rectangle-path" fill="url(#linearGradient-4)" x="138" y="66" width="40" height="49"></rect>
                    <rect id="Rectangle-path" fill="#EA8A7F" x="141" y="68" width="35" height="45"></rect>
                    <rect id="Rectangle-path" fill="#EA8A7F" x="362" y="101" width="35" height="14"></rect>
                    <rect id="Rectangle-path" fill="#EA8A7F" x="296" y="82" width="35" height="32"></rect>
                    <rect id="Rectangle-path" fill="#EA8A7F" x="218" y="87" width="35" height="26"></rect>
                    <rect id="Rectangle-path" fill="#5689C9" x="126" y="133" width="291" height="12"></rect>
                    <circle id="Oval" fill="url(#linearGradient-5)" cx="139" cy="153" r="10"></circle>
                    <circle id="Oval" fill="#5689C9" cx="138" cy="153" r="7"></circle>
                    <rect id="Rectangle-path" fill="#5689C9" x="119" y="53" width="7" height="93"></rect>
                    <rect id="Rectangle-path" fill="#5689C9" opacity="0.2" x="119" y="53" width="7" height="93"></rect>
                    <path d="M126,62.7618144 C126,62.6648441 126,62.5766892 126,62.4797188 C126,62.3827484 126,62.1888077 126,62.0477599 C126,61.906712 126,61.8626346 125.946991,61.7744797 C125.893982,61.6863248 125.885147,61.5100151 125.840973,61.3865982 C125.796798,61.2631814 125.787964,61.2191039 125.752624,61.1309491 C125.717285,61.0427942 125.646606,60.8841154 125.593597,60.7606985 L125.487579,60.5403113 C125.4169,60.4168945 125.337386,60.2934777 125.257873,60.1788763 L125.14302,60.011382 C125.027147,59.8524429 124.903301,59.6994462 124.771956,59.5529766 C124.067356,58.8036447 123.232145,58.1883173 122.307033,57.736986 C123.03078,56.9611305 123.571156,56.0333591 123.888471,55.0218155 C123.979995,54.7513285 124.050876,54.4743191 124.100507,54.1931596 C124.100507,54.1050047 124.100507,54.0168499 124.100507,53.9375105 C124.124334,53.7679828 124.13908,53.5973075 124.144682,53.4262121 C124.144682,53.3292418 124.144682,53.2410869 124.144682,53.1441165 C124.144682,53.0471461 124.144682,52.8532054 124.144682,52.7121576 C124.144682,52.5711097 124.144682,52.5270323 124.091672,52.4388774 C124.038663,52.3507225 124.029829,52.1744128 123.985654,52.0509959 C123.94148,51.9275791 123.932645,51.8835016 123.897306,51.7953468 C123.861966,51.7071919 123.791288,51.5485131 123.738279,51.4250962 L123.63226,51.204709 C123.561582,51.0812922 123.482068,50.9578754 123.402554,50.843274 L123.287701,50.6757797 C123.171828,50.5168407 123.047983,50.3638439 122.916638,50.2173743 C122.035411,49.2957799 120.965739,48.5742057 119.780266,48.1016571 C119.780266,48.1016571 114.170136,50.1732969 113.799073,52.4476929 C109.682033,53.3292418 85.6865815,58.3099927 69.2095871,57.9132958 L69.0858992,57.5871227 C69.0881136,52.1669695 66.0859055,47.1900865 61.2847271,44.6548011 L61.2847271,39.1186743 C61.2973348,38.8837629 61.2973348,38.6483466 61.2847271,38.4134353 C61.2610393,38.1884283 61.2256522,37.9648012 61.1787089,37.7434581 L61.2847271,37.6817497 L61.7353044,37.434916 L62.3890833,37.038219 L62.8043212,36.7649389 C63.110596,36.5533672 63.405091,36.3300415 63.6878062,36.0949618 L64.0235304,35.8040507 C64.226732,35.6277409 64.4210987,35.4514311 64.6154654,35.2663059 L64.9600245,34.9313173 C65.2015104,34.6844836 65.4312165,34.431773 65.6491428,34.1731853 L65.8876837,33.8734587 C66.0938302,33.614871 66.2911418,33.3504064 66.4796186,33.0800647 L66.7181596,32.7186297 C66.8889666,32.454165 67.0538838,32.1838234 67.2129111,31.9076048 L67.3631036,31.6431401 C67.5574703,31.2905206 67.7341672,30.92027 67.8931945,30.5500195 L68.0257173,30.215031 C68.1494052,29.9153044 68.2613133,29.6214547 68.3614416,29.3334821 L68.4674598,29.007309 C68.5911477,28.6017966 68.6971659,28.1962841 68.7855143,27.7819561 C68.7855143,27.7026167 68.7855143,27.6144619 68.8296886,27.5351225 C68.8944775,27.1825029 68.9474866,26.8269449 68.9887159,26.4684484 C68.9887159,26.3450315 68.9887159,26.2304302 68.9887159,26.1070133 C68.9887159,25.6662389 69.0593947,25.2254645 69.0593947,24.7758746 C69.0591734,22.2708755 68.4109947,19.8083357 67.1775717,17.6265134 C68.1229006,17.3973107 68.6971659,17.2121855 68.6264871,17.1240306 C68.2642582,16.6391787 67.9020294,16.1807733 67.5221309,15.7399989 L67.159902,15.3256709 C66.8948565,15.0259443 66.6386459,14.7438487 66.3736004,14.4441221 L65.9495276,14.0121631 C65.6844822,13.7476985 65.4194367,13.5008648 65.1543912,13.2628466 L64.7391533,12.8925961 C64.403429,12.6105005 64.0677047,12.3372203 63.7319804,12.0727557 L63.5111092,11.8964459 C63.1047061,11.5967193 62.698303,11.3146237 62.2830651,11.0148971 L61.8236529,10.7328014 C61.5586074,10.5653071 61.2847271,10.4066284 61.0108467,10.2655805 L60.4630861,9.98348491 L59.703289,9.62204988 L59.1466935,9.3752162 C58.881648,9.26061485 58.6077677,9.16364448 58.3338873,9.06667411 L57.8303009,8.88154885 C57.4238978,8.74931652 57.0174948,8.62589968 56.6110917,8.52011382 L55.9838174,8.379066 L55.3035339,8.23801819 L54.6232505,8.13223233 L53.9959762,8.06170842 L53.2980231,8 L52.6972533,8 L51.9993002,8 C51.6164567,8 51.2336132,8.01763098 50.8507698,8.05289293 C41.8127187,8.79339396 33.8966935,16.6656252 33.8966935,29.2100653 L33.8966935,39.5594488 L48.0324528,39.5594488 L48.0324528,44.2669196 C42.8446996,46.655111 39.5204973,51.8334938 39.5156578,57.5342298 L39.5156578,97.6535178 L27.5179321,152.65335 L27.3589048,152.65335 L25,163.152597 L41.9275717,165.885399 L42.6608642,166 C44.4278341,165.241868 41.4681596,161.689226 40.1340973,158.947609 C39.9978278,158.661472 39.8797951,158.367037 39.7807033,158.06606 C39.5943569,157.513086 39.4814866,156.938116 39.444979,156.355856 L52.4498775,113.785862 L52.3880336,113.785862 L52.6972533,112.789712 C52.6972533,112.789712 69.2537614,119.842102 73.5121589,134.026223 C76.966585,145.486358 74.8197166,152.944262 73.8832225,155.359705 L73.8213786,155.359705 L73.8213786,155.500753 C73.6358467,155.959159 73.503324,156.214808 73.503324,156.214808 L73.8213786,156.214808 L73.8213786,163.998884 L91.7207838,163.998884 C93.3817355,163.161413 89.8566305,160.719522 88.0984955,158.709591 C87.5229008,158.072528 87.1212894,157.298388 86.9322953,156.461641 L87.2326802,156.461641 L87.3740378,155.826926 C91.952579,134.607715 84.9427616,112.554725 68.9445416,97.8474586 C68.9772198,97.8010168 69.0039328,97.7506696 69.0240553,97.6975953 C70.7134426,92.5390126 71.7550713,87.1912664 72.1250875,81.7768231 C85.8102694,83.0815154 104.018894,82.1470736 117.633397,71.6213803 C118.932934,70.6415462 120.174816,69.5878186 121.352869,68.4654355 C122.527904,68.3772806 124.586424,67.7249344 125.72612,64.4103108 C125.817643,64.1398237 125.888525,63.8628144 125.938156,63.5816549 C125.938156,63.4935 125.938156,63.4053451 125.938156,63.3260057 C125.969875,63.1393194 125.990525,62.9509283 126,62.7618144 Z" id="Shape" fill="url(#linearGradient-6)"></path>
                    <path d="M53.8107867,77.1130192 C53.8107867,77.1130192 95.1180603,90.2062858 118,68.3314857 L113.147056,62 C113.147056,62 68.7571499,71.8616622 58.1793171,64.6344601 C47.6014843,57.407258 53.8107867,77.1130192 53.8107867,77.1130192 Z" id="Shape" fill="#5689C9"></path>
                    <path d="M118.182837,68 L119,69.0748309 C95.9062585,91.3954858 54.2664662,78.031755 54.2664662,78.031755 C54.2664662,78.031755 54.1598797,77.6913919 54,77.1360626 C58.9651544,78.6318689 96.652364,88.8517193 118.182837,68 Z" id="Shape" fill="#FFFFFF" opacity="0.2"></path>
                    <path d="M118.672447,69.9480804 C118.672447,69.9480804 122.122839,70.7621684 123.713254,65.9431416 C125.303669,61.1241147 119.75968,59 119.75968,59 C119.75968,59 113.982071,61.2176881 114.000042,63.5757362 C114.018013,65.9337842 118.672447,69.9480804 118.672447,69.9480804 Z" id="Shape" fill="#985454"></path>
                    <path d="M117.14243,68.278146 C117.14243,68.278146 120.580301,69.0110149 122.164945,64.6727681 C122.662754,63.4583553 122.513001,62.0931447 121.76207,61 C122.949616,62.1520794 123.319751,63.8474012 122.711065,65.3466705 C121.126421,69.6933411 117.68855,68.9520484 117.68855,68.9520484 C116.32194,67.8720738 115.08506,66.6546088 114,65.3213992 C114.958353,66.3874156 116.009468,67.3764212 117.14243,68.278146 Z" id="Shape" fill="#FFFFFF" opacity="0.2"></path>
                    <path d="M75,151 L87.095816,151 C87.0052182,152.14755 87.4217668,153.277393 88.2366021,154.094258 C89.8650525,155.966414 93.1393699,158.228602 91.5980024,159 L75,159 L75,151 Z" id="4635430b-7803-4f1f-9770-b56b2b482545" fill="#5689C9"></path>
                    <path d="M87.1953939,154.094258 C86.3506008,153.277393 85.9187377,152.14755 86.0126663,151 L86.9155118,151 C86.8215831,152.14755 87.2534463,153.277393 88.0982393,154.094258 C89.7865603,155.966414 93.1812593,158.228602 91.5832228,159 L90.6803773,159 C92.2784138,158.228602 88.8837149,155.975081 87.1953939,154.094258 Z" id="Shape" fill="#FFFFFF" opacity="0.2"></path>
                    <path d="M31.2236538,149 L42.6045589,150.941795 C42.2898863,152.353012 42.473221,153.835013 43.1210769,155.117111 C44.3642219,157.852034 47.156921,161.261571 45.4760488,162 L29,159.265077 L31.2236538,149 Z" id="a892faa3-7b18-4010-9d55-72c2aac7ddb8" fill="#5689C9"></path>
                    <path d="M41.2332319,154.14446 C40.5755702,152.862363 40.3894604,151.380361 40.7088959,149.969144 L30,148.145863 L30,148 L41.5531658,149.941795 C41.2337302,151.353012 41.41984,152.835013 42.0775017,154.117111 C43.3394629,156.852034 46.1744321,160.261571 44.4681183,161 L43.7660413,160.881487 C45.0813248,159.988079 42.4418708,156.715288 41.2332319,154.14446 Z" id="Shape" fill="#FFFFFF" opacity="0.2"></path>
                    <path d="M56.5,54 C52.9101491,54 50,51.1298904 50,47.5894309 L50,41.4105691 C50,37.8701096 52.9101491,35 56.5,35 C60.0898509,35 63,37.8701096 63,41.4105691 L63,47.5894309 C63,51.1298904 60.0898509,54 56.5,54 Z" id="Rectangle-path" fill="#985454"></path>
                    <circle id="Oval" fill="#985454" cx="55" cy="28" r="14"></circle>
                    <path d="M60.4451525,47.6830016 L60.4451525,41.618813 C60.4446637,41.1750409 60.3991716,40.7325888 60.3094478,40.2989601 C65.6280027,37.4268511 68.4578271,31.1649663 67.2162958,25.0153663 C65.9747646,18.8657664 60.9695912,14.3526295 55,14 L55.746376,14.0000007 C61.8630137,13.9979781 67.1858454,18.3991537 68.6261759,24.6496443 C70.0665065,30.9001348 67.2498687,37.3748948 61.8106814,40.316796 C61.9004052,40.7504246 61.9458973,41.1928768 61.9463861,41.6366488 L61.9463861,47.7008375 C61.9620022,49.512494 61.2282984,51.2419178 59.9357944,52.440032 C58.6432904,53.6381461 56.9195005,54.1867486 55.2120386,53.9433847 C58.204659,53.5355672 60.4446091,50.8559111 60.4451525,47.6830016 Z" id="Shape" fill="#FFFFFF" opacity="0.2"></path>
                    <path d="M41,96.6643195 C41,96.6643195 67.9086748,99.6696007 68.9,96.6643195 C75.875,75.5036042 68.9,58.8066154 68.9,58.8066154 C68.9,51.1814323 62.6543723,45 54.95,45 C47.2456277,45 41,51.1814323 41,58.8066154 L41,96.6643195 Z" id="Shape" fill="#5689C9"></path>
                    <path d="M42.1395051,97 L30,153 L42.1395051,153 L54.7249876,111.454793 C54.7249876,111.454793 70.4590706,118.229637 74.499626,131.779325 C78.5401813,145.329013 74.499626,153 74.499626,153 L87.5578445,153 L87.6916377,152.390622 C92.0574826,132.083997 85.3281425,110.978252 70.0309323,97" id="Shape" fill="#9B9B9B"></path>
                    <path d="M68.0893706,96.6347239 C75.0864949,75.4752701 68.0893706,58.7792767 68.0893706,58.7792767 C68.0906403,51.5002019 62.3629973,45.4706699 55,45 C55.2956531,45 55.6002655,45 55.8959186,45 C63.6247286,45 69.890167,51.1810638 69.890167,58.8057923 C69.890167,58.8057923 76.8872912,75.5106243 69.890167,96.6612396 C69.5317996,97.7395409 65.840615,98.0400511 61.2535118,97.9958584 C64.9805331,97.9163116 67.7847583,97.5627702 68.0893706,96.6347239 Z" id="Shape" fill="#FFFFFF" opacity="0.2"></path>
                    <g id="Group" opacity="0.2" transform="translate(40.000000, 97.000000)" fill="#FFFFFF">
                        <path d="M14.5974231,15.1440034 L2.29223077,55.5033784 L0.515307692,55.5033784 L13.0515,14.3902027 C13.0515,14.3902027 13.629,14.6385135 14.5974231,15.1440034 Z" id="Shape"></path>
                        <path d="M28.2619615,0.0857263514 L30.0388846,0.0857263514 C45.2761843,13.9186178 51.9791694,34.8048823 47.6304231,54.9003378 L47.4971538,55.5033784 L45.7202308,55.5033784 L45.8535,54.9003378 C50.2022464,34.8048823 43.4992612,13.9186178 28.2619615,0.0857263514 Z" id="Shape"></path>
                    </g>
                    <path d="M51.8107867,68.1130192 C51.8107867,68.1130192 93.1180603,81.2062858 116,59.3314857 L111.147056,53 C111.147056,53 66.7571499,62.8616622 56.1793171,55.6344601 C45.6014843,48.407258 51.8107867,68.1130192 51.8107867,68.1130192 Z" id="Shape" fill="#5689C9"></path>
                    <path d="M116.182837,60 L117,61.0748309 C93.9062585,83.3954858 52.2664662,70.031755 52.2664662,70.031755 C52.2664662,70.031755 52.1598797,69.6913919 52,69.1360626 C56.9651544,70.6318689 94.652364,80.8517193 116.182837,60 Z" id="Shape" fill="#FFFFFF" opacity="0.2"></path>
                    <path d="M115.672447,60.9480804 C115.672447,60.9480804 119.122839,61.7621684 120.713254,56.9431416 C122.303669,52.1241147 116.75968,50 116.75968,50 C116.75968,50 110.982071,52.2176881 111.000042,54.5757362 C111.018013,56.9337842 115.672447,60.9480804 115.672447,60.9480804 Z" id="Shape" fill="#985454"></path>
                    <path d="M115.14243,59.278146 C115.14243,59.278146 118.580301,60.0110149 120.164945,55.6727681 C120.662754,54.4583553 120.513001,53.0931447 119.76207,52 C120.949616,53.1520794 121.319751,54.8474012 120.711065,56.3466705 C119.126421,60.6933411 115.68855,59.9520484 115.68855,59.9520484 C114.32194,58.8720738 113.08506,57.6546088 112,56.3213992 C112.958353,57.3874156 114.009468,58.3764212 115.14243,59.278146 Z" id="Shape" fill="#FFFFFF" opacity="0.2"></path>
                    <path d="M56.5104019,23.3488724 L55.6186452,42 L36,42 L36,32.0971394 C36,12.2114848 57.1078788,4.66221889 68.9949943,20.6400182 C69.289274,21.0752112 56.5104019,23.3488724 56.5104019,23.3488724 Z" id="Shape" fill="#263238"></path>
                    <path d="M52,12.0469347 C57.033883,12.4561538 62.2113348,15.1783511 66.3030471,20.6494337 C66.5991579,21.0408607 53.7407724,23.3182545 53.7407724,23.3182545 L52.843467,42 L55.535383,42 L56.4326884,23.3182545 C56.4326884,23.3182545 69.2910739,21.0408607 68.9949631,20.6494337 C64.1764335,14.1908874 57.8414578,11.6110273 52,12.0469347 Z" id="Shape" fill="#FFFFFF" opacity="0.2"></path>
                </g>
            </g>
        </g>
    </g>
</svg>