<svg height="172" viewBox="0 0 493 172" width="493" xmlns="http://www.w3.org/2000/svg" xmlns:xlink="http://www.w3.org/1999/xlink"><linearGradient id="a"><stop offset="0" stop-color="#808080" stop-opacity=".25"/><stop offset=".54" stop-color="#808080" stop-opacity=".12"/><stop offset="1" stop-color="#808080" stop-opacity=".1"/></linearGradient><linearGradient id="b" x1="76062%" x2="76062%" xlink:href="#a" y1="69968%" y2="67768%"/><linearGradient id="c" x1="60762%" x2="60762%" xlink:href="#a" y1="68768%" y2="56668%"/><linearGradient id="d" x1="60862%" x2="60862%" xlink:href="#a" y1="64868%" y2="64868%"/><linearGradient id="e" x1="48212%" x2="48212%" xlink:href="#a" y1="64568%" y2="59068%"/><linearGradient id="f" x1="45962%" x2="45962%" xlink:href="#a" y1="69968%" y2="67768%"/><linearGradient id="g" x1="48635%" x2="60065%" xlink:href="#a" y1="70879%" y2="70879%"/><g fill="none" opacity=".8" transform=""><ellipse cx="59.5" cy="157" fill="#f2f2f2" rx="59.5" ry="15"/><path d="m209.097561 7.95789474h283.902439v-7.95789474h-291v84h7.097561z" fill="#fff" opacity=".5"/><circle cx="405" cy="153" fill="url(#b)" r="10"/><circle cx="404" cy="153" fill="#5689c9" r="7"/><path d="m117 45h305v107h-305z" fill="url(#c)"/><path d="m126 49h291v84h-291z" fill="#fff"/><path d="m135 117h269" fill="url(#d)" stroke="#5689c9" stroke-width="3"/><path d="m138 66h40v49h-40z" fill="url(#e)"/><g fill="#ea8a7f"><path d="m141 68h35v45h-35z"/><path d="m362 101h35v14h-35z"/><path d="m296 82h35v32h-35z"/><path d="m218 87h35v26h-35z"/></g><path d="m126 133h291v12h-291z" fill="#5689c9"/><circle cx="139" cy="153" fill="url(#f)" r="10"/><circle cx="138" cy="153" fill="#5689c9" r="7"/><path d="m119 53h7v93h-7z" fill="#5689c9"/><path d="m119 53h7v93h-7z" fill="#5689c9" opacity=".2"/><path d="m126 62.7618144c0-.0969703 0-.1851252 0-.2820956s0-.2909111 0-.4319589c0-.1410479 0-.1851253-.053009-.2732802s-.061844-.2644646-.106018-.3878815c-.044175-.1234168-.053009-.1674943-.088349-.2556491-.035339-.0881549-.106018-.2468337-.159027-.3702506l-.106018-.2203872c-.070679-.1234168-.150193-.2468336-.229706-.361435l-.114853-.1674943c-.115873-.1589391-.239719-.3119358-.371064-.4584054-.7046-.7493319-1.539811-1.3646593-2.464923-1.8159906.723747-.7758555 1.264123-1.7036269 1.581438-2.7151705.091524-.270487.162405-.5474964.212036-.8286559 0-.0881549 0-.1763097 0-.2556491.023827-.1695277.038573-.340203.044175-.5112984 0-.0969703 0-.1851252 0-.2820956s0-.2909111 0-.4319589c0-.1410479 0-.1851253-.05301-.2732802-.053009-.0881549-.061843-.2644646-.106018-.3878815-.044174-.1234168-.053009-.1674943-.088348-.2556491-.03534-.0881549-.106018-.2468337-.159027-.3702506l-.106019-.2203872c-.070678-.1234168-.150192-.2468336-.229706-.361435l-.114853-.1674943c-.115873-.158939-.239718-.3119358-.371063-.4584054-.881227-.9215944-1.950899-1.6431686-3.136372-2.1157172 0 0-5.61013 2.0716398-5.981193 4.3460358-4.11704.8815489-28.1124915 5.8622998-44.5894859 5.4656029l-.1236879-.3261731c.0022144-5.4201532-2.9999937-10.3970362-7.8011721-12.9323216v-5.5361268c.0126077-.2349114.0126077-.4703277 0-.705239-.0236878-.225007-.0590749-.4486341-.1060182-.6699772l.1060182-.0617084.4505773-.2468337.6537789-.396697.4152379-.2732801c.3062748-.2115717.6007698-.4348974.883485-.6699771l.3357242-.2909111c.2032016-.1763098.3975683-.3526196.591935-.5377448l.3445591-.3349886c.2414859-.2468337.471192-.4995443.6891183-.758132l.2385409-.2997266c.2061465-.2585877.4034581-.5230523.5919349-.793394l.238541-.361435c.170807-.2644647.3357242-.5348063.4947515-.8110249l.1501925-.2644647c.1943667-.3526195.3710636-.7228701.5300909-1.0931206l.1325228-.3349885c.1236879-.2997266.235596-.5935763.3357243-.8815489l.1060182-.3261731c.1236879-.4055124.2297061-.8110249.3180545-1.2253529 0-.0793394 0-.1674942.0441743-.2468336.0647889-.3526196.117798-.7081776.1590273-1.0666741 0-.1234169 0-.2380182 0-.3614351 0-.4407744.0706788-.8815488.0706788-1.3311387-.0002213-2.5049991-.6484-4.9675389-1.881823-7.1493612.9453289-.2292027 1.5195942-.4143279 1.4489154-.5024828-.3622289-.4848519-.7244577-.9432573-1.1043562-1.3840317l-.3622289-.414328c-.2650455-.2997266-.5212561-.5818222-.7863016-.8815488l-.4240728-.431959c-.2650454-.2644646-.5300909-.5112983-.7951364-.7493165l-.4152379-.3702505c-.3357243-.2820956-.6714486-.5553758-1.0071729-.8198404l-.2208712-.1763098c-.4064031-.2997266-.8128062-.5818222-1.2280441-.8815488l-.4594122-.2820957c-.2650455-.1674943-.5389258-.326173-.8128062-.4672209l-.5477606-.28209559-.7597971-.36143503-.5565955-.24683368c-.2650455-.11460135-.5389258-.21157172-.8128062-.30854209l-.5035864-.18512526c-.4064031-.13223233-.8128061-.25564917-1.2192092-.36143503l-.6272743-.14104782-.6802835-.14104781-.6802834-.10578586-.6272743-.07052391-.6979531-.06170842h-.6007698-.6979531c-.3828435 0-.765687.01763098-1.1485304.05289293-9.0380511.74050103-16.9540763 8.61273227-16.9540763 21.15717237v10.3493835h14.1357593v4.7074708c-5.1877532 2.3881914-8.5119555 7.5665742-8.516795 13.2673102v40.119288l-11.9977257 54.9998322h-.1590273l-2.3589048 10.499247 16.9275717 2.732802.7332925.114601c1.7669699-.758132-1.1927046-4.310774-2.5267669-7.052391-.1362695-.286137-.2543022-.580572-.353394-.881549-.1863464-.552974-.2992167-1.127944-.3357243-1.710204l13.0048985-42.569994h-.0618439l.3092197-.99615s16.5565081 7.05239 20.8149056 21.236511c3.4544261 11.460135 1.3075577 18.918039.3710636 21.333482h-.0618439v.141048c-.1855319.458406-.3180546.714055-.3180546.714055h.3180546v7.784076h17.8994052c1.6609517-.837471-1.8641533-3.279362-3.6222883-5.289293-.5755947-.637063-.9772061-1.411203-1.1662002-2.24795h.3003849l.1413576-.634715c4.5785412-21.219211-2.4312762-43.272201-18.4294962-57.9794674.0326782-.0464418.0593912-.096789.0795137-.1498633 1.6893873-5.1585827 2.731016-10.5063289 3.1010322-15.9207722 13.6851819 1.3046923 31.8938065.3702505 45.5083095-10.1554428 1.299537-.9798341 2.541419-2.0335617 3.719472-3.1559448 1.175035-.0881549 3.233555-.7405011 4.373251-4.0551247.091523-.2704871.162405-.5474964.212036-.8286559 0-.0881549 0-.1763098 0-.2556492.031719-.1866863.052369-.3750774.061844-.5641913z" fill="url(#g)"/><path d="m53.8107867 77.1130192s41.3072736 13.0932666 64.1892133-8.7815335l-4.852944-6.3314857s-44.3899061 9.8616622-54.9677389 2.6344601-4.3685304 12.4785591-4.3685304 12.4785591z" fill="#5689c9"/><path d="m118.182837 68 .817163 1.0748309c-23.0937415 22.3206549-64.7335338 8.9569241-64.7335338 8.9569241s-.1065865-.3403631-.2664662-.8956924c4.9651544 1.4958063 42.652364 11.7156567 64.182837-9.1360626z" fill="#fff" opacity=".2"/><path d="m118.672447 69.9480804s3.450392.814088 5.040807-4.0049388c1.590415-4.8190269-3.953574-6.9431416-3.953574-6.9431416s-5.777609 2.2176881-5.759638 4.5757362c.017971 2.358048 4.672405 6.3723442 4.672405 6.3723442z" fill="#985454"/><path d="m117.14243 68.278146s3.437871.7328689 5.022515-3.6053779c.497809-1.2144128.348056-2.5796234-.402875-3.6727681 1.187546 1.1520794 1.557681 2.8474012.948995 4.3466705-1.584644 4.3466706-5.022515 3.6053779-5.022515 3.6053779-1.36661-1.0799746-2.60349-2.2974396-3.68855-3.6306492.958353 1.0660164 2.009468 2.055022 3.14243 2.9567468z" fill="#fff" opacity=".2"/><path d="m75 151h12.095816c-.0905978 1.14755.3259508 2.277393 1.1407861 3.094258 1.6284504 1.872156 4.9027678 4.134344 3.3614003 4.905742h-16.5980024z" fill="#5689c9"/><path d="m87.1953939 154.094258c-.8447931-.816865-1.2766562-1.946708-1.1827276-3.094258h.9028455c-.0939287 1.14755.3379345 2.277393 1.1827275 3.094258 1.688321 1.872156 5.08302 4.134344 3.4849835 4.905742h-.9028455c1.5980365-.771398-1.7966624-3.024919-3.4849834-4.905742z" fill="#fff" opacity=".2"/><path d="m31.2236538 149 11.3809051 1.941795c-.3146726 1.411217-.1313379 2.893218.516518 4.175316 1.243145 2.734923 4.0358441 6.14446 2.3549719 6.882889l-16.4760488-2.734923z" fill="#5689c9"/><path d="m41.2332319 154.14446c-.6576617-1.282097-.8437715-2.764099-.524336-4.175316l-10.7088959-1.823281v-.145863l11.5531658 1.941795c-.3194356 1.411217-.1333258 2.893218.5243359 4.175316 1.2619612 2.734923 4.0969304 6.14446 2.3906166 6.882889l-.702077-.118513c1.3152835-.893408-1.3241705-4.166199-2.5328094-6.737027z" fill="#fff" opacity=".2"/><path d="m56.5 54c-3.5898509 0-6.5-2.8701096-6.5-6.4105691v-6.1788618c0-3.5404595 2.9101491-6.4105691 6.5-6.4105691s6.5 2.8701096 6.5 6.4105691v6.1788618c0 3.5404595-2.9101491 6.4105691-6.5 6.4105691z" fill="#985454"/><circle cx="55" cy="28" fill="#985454" r="14"/><path d="m60.4451525 47.6830016v-6.0641886c-.0004888-.4437721-.0459809-.8862242-.1357047-1.3198529 5.3185549-2.872109 8.1483793-9.1339938 6.906848-15.2835938-1.2415312-6.1495999-6.2467046-10.6627368-12.2162958-11.0153663l.746376.0000007c6.1166377-.0020226 11.4394694 4.399153 12.8797999 10.6496436 1.4403306 6.2504905-1.3763072 12.7252505-6.8154945 15.6671517.0897238.4336286.1352159.8760808.1357047 1.3198528v6.0641887c.0156161 1.8116565-.7180877 3.5410803-2.0105917 4.7391945-1.292504 1.1981141-3.0162939 1.7467166-4.7237558 1.5033527 2.9926204-.4078175 5.2325705-3.0874736 5.2331139-6.2603831z" fill="#fff" opacity=".2"/><path d="m41 96.6643195s26.9086748 3.0052812 27.9 0c6.975-21.1607153 0-37.8577041 0-37.8577041 0-7.6251831-6.2456277-13.8066154-13.95-13.8066154s-13.95 6.1814323-13.95 13.8066154z" fill="#5689c9"/><path d="m42.1395051 97-12.1395051 56h12.1395051l12.5854825-41.545207s15.734083 6.774844 19.7746384 20.324532c4.0405553 13.549688 0 21.220675 0 21.220675h13.0582185l.1337932-.609378c4.3658449-20.306625-2.3634952-41.41237-17.6607054-55.390622" fill="#9b9b9b"/><path d="m68.0893706 96.6347239c6.9971243-21.1594538 0-37.8554472 0-37.8554472.0012697-7.2790748-5.7263733-13.3086068-13.0893706-13.7792767h.8959186c7.72881 0 13.9942484 6.1810638 13.9942484 13.8057923 0 0 6.9971242 16.704832 0 37.8554473-.3583674 1.0783013-4.049552 1.3788115-8.6366552 1.3346188 3.7270213-.0795468 6.5312465-.4330882 6.8358588-1.3611345z" fill="#fff" opacity=".2"/><g fill="#fff" opacity=".2" transform="translate(40 97)"><path d="m14.5974231 15.1440034-12.30519233 40.359375h-1.77692308l12.53619231-41.1131757s.5775.2483108 1.5459231.7538007z"/><path d="m28.2619615.08572635h1.7769231c15.2372997 13.83289145 21.9402848 34.71915595 17.5915385 54.81461145l-.1332693.6030406h-1.776923l.1332692-.6030406c4.3487464-20.0954555-2.3542388-40.98172-17.5915385-54.81461145z"/></g><path d="m51.8107867 68.1130192s41.3072736 13.0932666 64.1892133-8.7815335l-4.852944-6.3314857s-44.3899061 9.8616622-54.9677389 2.6344601-4.3685304 12.4785591-4.3685304 12.4785591z" fill="#5689c9"/><path d="m116.182837 60 .817163 1.0748309c-23.0937415 22.3206549-64.7335338 8.9569241-64.7335338 8.9569241s-.1065865-.3403631-.2664662-.8956924c4.9651544 1.4958063 42.652364 11.7156567 64.182837-9.1360626z" fill="#fff" opacity=".2"/><path d="m115.672447 60.9480804s3.450392.814088 5.040807-4.0049388c1.590415-4.8190269-3.953574-6.9431416-3.953574-6.9431416s-5.777609 2.2176881-5.759638 4.5757362c.017971 2.358048 4.672405 6.3723442 4.672405 6.3723442z" fill="#985454"/><path d="m115.14243 59.278146s3.437871.7328689 5.022515-3.6053779c.497809-1.2144128.348056-2.5796234-.402875-3.6727681 1.187546 1.1520794 1.557681 2.8474012.948995 4.3466705-1.584644 4.3466706-5.022515 3.6053779-5.022515 3.6053779-1.36661-1.0799746-2.60349-2.2974396-3.68855-3.6306492.958353 1.0660164 2.009468 2.055022 3.14243 2.9567468z" fill="#fff" opacity=".2"/><path d="m56.5104019 23.3488724-.8917567 18.6511276h-19.6186452v-9.9028606c0-19.8856546 21.1078788-27.43492051 32.9949943-11.4571212.2942797.435193-12.4845924 2.7088542-12.4845924 2.7088542z" fill="#263238"/><path d="m52 12.0469347c5.033883.4092191 10.2113348 3.1314164 14.3030471 8.602499.2961108.391427-12.5622747 2.6688208-12.5622747 2.6688208l-.8973054 18.6817455h2.691916l.8973054-18.6817455s12.8583855-2.2773938 12.5622747-2.6688208c-4.8185296-6.4585463-11.1535053-9.0384064-16.9949631-8.602499z" fill="#fff" opacity=".2"/></g></svg>