<?xml version="1.0" encoding="UTF-8"?>
<svg width="292px" height="373px" viewBox="0 0 292 373" version="1.1" xmlns="http://www.w3.org/2000/svg" xmlns:xlink="http://www.w3.org/1999/xlink">
    <!-- Generator: Sketch 53.2 (72643) - https://sketchapp.com -->
    <title>illustration-forms</title>
    <desc>Created with Sketch.</desc>
    <g id="Forms" stroke="none" stroke-width="1" fill="none" fill-rule="evenodd">
        <g id="request-experiment-illustration" transform="translate(-925.000000, -372.000000)">
            <g id="illustration-forms" transform="translate(925.000000, 372.000000)">
                <g id="undraw_choose_80qg-(1)" transform="translate(38.000000, 0.000000)">
                    <polygon id="Path" fill="#F5F5F5" fill-rule="nonzero" points="237 51.3558692 212.507639 44 211 77.2808227 236.774306 85"></polygon>
                    <polygon id="Path" fill="#F5F5F5" fill-rule="nonzero" points="66 0 66 33.5516823 210.511886 77 212 44.0260287"></polygon>
                    <polygon id="Path" fill="#000000" fill-rule="nonzero" opacity="0.1" points="237 51.3558692 212.507639 44 211 77.2808227 236.774306 85"></polygon>
                    <polygon id="Path" fill="#3AD29F" fill-rule="nonzero" points="237 115.355869 212.507639 108 211 141.280823 236.774306 149"></polygon>
                    <polygon id="Path" fill="#3AD29F" fill-rule="nonzero" points="66 63 66 96.5516823 210.511886 140 212 107.026029"></polygon>
                    <polygon id="Path" fill="#000000" fill-rule="nonzero" opacity="0.1" points="237 115.355869 212.507639 108 211 141.280823 236.774306 149"></polygon>
                    <polyline id="Path" stroke="#FFFFFF" stroke-width="7" stroke-linecap="round" points="218 126.002701 221.998499 132 230 122"></polyline>
                    <g id="Group" opacity="0.4" transform="translate(219.000000, 58.000000)" stroke="#FFFFFF" stroke-linecap="round" stroke-width="7">
                        <path d="M0.339130435,0.13125 L8.06521739,13.733125" id="Path"></path>
                        <path d="M9.99565217,2.07375 L0.339130435,11.790625" id="Path"></path>
                    </g>
                    <polygon id="Path" fill="#F5F5F5" fill-rule="nonzero" points="237 174.355869 212.507639 167 211 200.280823 236.774306 208"></polygon>
                    <polygon id="Path" fill="#F5F5F5" fill-rule="nonzero" points="66 123 66 156.551682 210.511886 200 212 167.026029"></polygon>
                    <polygon id="Path" fill="#000000" fill-rule="nonzero" opacity="0.1" points="237 174.355869 212.507639 167 211 200.280823 236.774306 208"></polygon>
                    <g id="Group" opacity="0.4" transform="translate(219.000000, 180.000000)" stroke="#FFFFFF" stroke-linecap="round" stroke-width="7">
                        <path d="M0.339130435,0.28875 L8.06521739,13.890625" id="Path"></path>
                        <path d="M9.99565217,2.23125 L0.339130435,11.948125" id="Path"></path>
                    </g>
                    <ellipse id="Oval" fill="#000000" fill-rule="nonzero" opacity="0.3" cx="166" cy="108.5" rx="5" ry="9.5"></ellipse>
                    <ellipse id="Oval" fill="#386DB0" fill-rule="nonzero" opacity="0.1" cx="166" cy="109.5" rx="42" ry="83.5"></ellipse>
                    <ellipse id="Oval" fill="#FFFFFF" fill-rule="nonzero" opacity="0.1" cx="166" cy="108.5" rx="23" ry="45.5"></ellipse>
                    <path d="M65,98.1081074 C68.58547,102.462187 74.0799557,105.004249 79.8963211,104.999995 C80.5991911,104.999232 81.3014827,104.961638 82,104.887382 L82,100.999997 L65.1658305,97 L65,98.1081074 Z" id="Path" fill="#000000" fill-rule="nonzero" opacity="0.05"></path>
                    <g id="Group" opacity="0.5" transform="translate(0.000000, 50.000000)" fill="#47E6B1" fill-rule="nonzero">
                        <rect id="Rectangle" x="1.53333333" y="0.128888889" width="1" height="3.72888889"></rect>
                        <polygon id="Rectangle" transform="translate(1.864444, 1.991111) rotate(90.000000) translate(-1.864444, -1.991111) " points="1.53555556 0.126666667 2.19333333 0.126666667 2.19333333 3.85555556 1.53555556 3.85555556"></polygon>
                    </g>
                    <g id="Group" opacity="0.5" transform="translate(235.000000, 231.000000)" fill="#47E6B1" fill-rule="nonzero">
                        <rect id="Rectangle" x="1.53333333" y="0.128888889" width="1" height="3.72888889"></rect>
                        <polygon id="Rectangle" transform="translate(1.864444, 1.991111) rotate(90.000000) translate(-1.864444, -1.991111) " points="1.53555556 0.126666667 2.19333333 0.126666667 2.19333333 3.85555556 1.53555556 3.85555556"></polygon>
                    </g>
                    <g id="Group" opacity="0.5" transform="translate(218.000000, 153.000000)" fill="#47E6B1" fill-rule="nonzero">
                        <rect id="Rectangle" x="1.77333333" y="0.106666667" width="1" height="3.72888889"></rect>
                        <polygon id="Rectangle" transform="translate(2.104444, 1.968889) rotate(90.000000) translate(-2.104444, -1.968889) " points="1.77555556 0.104444444 2.43333333 0.104444444 2.43333333 3.83333333 1.77555556 3.83333333"></polygon>
                    </g>
                    <g id="Group" opacity="0.5" transform="translate(191.000000, 229.000000)" fill="#47E6B1" fill-rule="nonzero">
                        <rect id="Rectangle" x="1.70222222" y="0.392" width="1" height="3.356"></rect>
                        <polygon id="Rectangle" transform="translate(2.033333, 2.068000) rotate(90.000000) translate(-2.033333, -2.068000) " points="1.73733333 0.203555556 2.32933333 0.203555556 2.32933333 3.93244444 1.73733333 3.93244444"></polygon>
                    </g>
                    <g id="Group" opacity="0.5" transform="translate(170.000000, 277.000000)" fill="#47E6B1" fill-rule="nonzero">
                        <rect id="Rectangle" x="1.768" y="0.0266666667" width="1" height="3.72888889"></rect>
                        <polygon id="Rectangle" transform="translate(2.062000, 1.893333) rotate(90.000000) translate(-2.062000, -1.893333) " points="1.73311111 0.215333333 2.39088889 0.215333333 2.39088889 3.57133333 1.73311111 3.57133333"></polygon>
                    </g>
                    <g id="Group" opacity="0.5" transform="translate(28.000000, 108.000000)" fill="#47E6B1" fill-rule="nonzero">
                        <rect id="Rectangle" x="1.60888889" y="0.0311111111" width="1" height="3.72888889"></rect>
                        <polygon id="Rectangle" transform="translate(1.935556, 1.897778) rotate(90.000000) translate(-1.935556, -1.897778) " points="1.60666667 0.0333333333 2.26444444 0.0333333333 2.26444444 3.76222222 1.60666667 3.76222222"></polygon>
                    </g>
                    <path d="M39.7571894,48.5181544 C39.3755476,48.3500625 39.1804015,47.9226926 39.3033304,47.5242032 C39.3068198,47.4940465 39.3068198,47.4635881 39.3033304,47.4334314 L39.3033304,47.4334314 C39.3122467,47.2530714 39.2029566,47.0878307 39.0334926,47.0254513 C38.8640286,46.963072 38.6736879,47.0180191 38.5635403,47.161116 L38.5635403,47.161116 C38.545231,47.1864549 38.5299957,47.2138785 38.5181544,47.2428106 C38.3500625,47.6244524 37.9226926,47.8195985 37.5242032,47.6966696 L37.4334314,47.6966696 L37.4334314,47.6966696 C37.2530714,47.6877533 37.0878307,47.7970434 37.0254513,47.9665074 C36.963072,48.1359714 37.0180191,48.3263121 37.161116,48.4364597 L37.161116,48.4364597 C37.1864549,48.454769 37.2138785,48.4700043 37.2428106,48.4818456 C37.6244524,48.6499375 37.8195985,49.0773074 37.6966696,49.4757968 C37.6931802,49.5059535 37.6931802,49.5364119 37.6966696,49.5665686 L37.6966696,49.5665686 C37.6877533,49.7469286 37.7970434,49.9121693 37.9665074,49.9745487 C38.1359714,50.036928 38.3263121,49.9819809 38.4364597,49.838884 L38.4364597,49.838884 C38.454769,49.8135451 38.4700043,49.7861215 38.4818456,49.7571894 C38.6499375,49.3755476 39.0773074,49.1804015 39.4757968,49.3033304 L39.5665686,49.3033304 L39.5665686,49.3033304 C39.7469286,49.3122467 39.9121693,49.2029566 39.9745487,49.0334926 C40.036928,48.8640286 39.9819809,48.6736879 39.838884,48.5635403 L39.838884,48.5635403 C39.8135451,48.545231 39.7861215,48.5299957 39.7571894,48.5181544 L39.7571894,48.5181544 Z" id="Path" fill="#4D8AF0" fill-rule="nonzero" opacity="0.5"></path>
                    <path d="M188.757189,15.5181544 C188.375548,15.3500625 188.180402,14.9226926 188.30333,14.5242032 C188.30682,14.4940465 188.30682,14.4635881 188.30333,14.4334314 L188.30333,14.4334314 C188.312247,14.2530714 188.202957,14.0878307 188.033493,14.0254513 C187.864029,13.963072 187.673688,14.0180191 187.56354,14.161116 L187.56354,14.161116 C187.545231,14.1864549 187.529996,14.2138785 187.518154,14.2428106 C187.350062,14.6244524 186.922693,14.8195985 186.524203,14.6966696 L186.433431,14.6966696 L186.433431,14.6966696 C186.253071,14.6877533 186.087831,14.7970434 186.025451,14.9665074 C185.963072,15.1359714 186.018019,15.3263121 186.161116,15.4364597 L186.161116,15.4364597 C186.186455,15.454769 186.213878,15.4700043 186.242811,15.4818456 C186.624452,15.6499375 186.819598,16.0773074 186.69667,16.4757968 C186.69318,16.5059535 186.69318,16.5364119 186.69667,16.5665686 L186.69667,16.5665686 C186.687753,16.7469286 186.797043,16.9121693 186.966507,16.9745487 C187.135971,17.036928 187.326312,16.9819809 187.43646,16.838884 L187.43646,16.838884 C187.454769,16.8135451 187.470004,16.7861215 187.481846,16.7571894 C187.649938,16.3755476 188.077307,16.1804015 188.475797,16.3033304 L188.566569,16.3033304 L188.566569,16.3033304 C188.746929,16.3122467 188.912169,16.2029566 188.974549,16.0334926 C189.036928,15.8640286 188.981981,15.6736879 188.838884,15.5635403 L188.838884,15.5635403 C188.813545,15.545231 188.786122,15.5299957 188.757189,15.5181544 L188.757189,15.5181544 Z" id="Path" fill="#4D8AF0" fill-rule="nonzero" opacity="0.5"></path>
                    <path d="M5.75718937,133.518154 C5.3755476,133.350062 5.18040153,132.922693 5.30333039,132.524203 C5.3068198,132.494047 5.3068198,132.463588 5.30333039,132.433431 L5.30333039,132.433431 C5.3122467,132.253071 5.20295662,132.087831 5.03349263,132.025451 C4.86402865,131.963072 4.67368786,132.018019 4.56354026,132.161116 L4.56354026,132.161116 C4.54523101,132.186455 4.52999569,132.213878 4.51815436,132.242811 C4.3500625,132.624452 3.92269261,132.819598 3.5242032,132.69667 L3.4334314,132.69667 L3.4334314,132.69667 C3.2530714,132.687753 3.08783073,132.797043 3.02545135,132.966507 C2.96307197,133.135971 3.01801907,133.326312 3.16111601,133.43646 L3.16111601,133.43646 C3.1864549,133.454769 3.21387846,133.470004 3.24281063,133.481846 C3.6244524,133.649938 3.81959847,134.077307 3.69666961,134.475797 C3.6931802,134.505953 3.6931802,134.536412 3.69666961,134.566569 L3.69666961,134.566569 C3.6877533,134.746929 3.79704338,134.912169 3.96650737,134.974549 C4.13597135,135.036928 4.32631214,134.981981 4.43645974,134.838884 L4.43645974,134.838884 C4.45476899,134.813545 4.47000431,134.786122 4.48184564,134.757189 C4.6499375,134.375548 5.07730739,134.180402 5.4757968,134.30333 L5.5665686,134.30333 L5.5665686,134.30333 C5.7469286,134.312247 5.91216927,134.202957 5.97454865,134.033493 C6.03692803,133.864029 5.98198093,133.673688 5.83888399,133.56354 L5.83888399,133.56354 C5.8135451,133.545231 5.78612154,133.529996 5.75718937,133.518154 Z" id="Path" fill="#4D8AF0" fill-rule="nonzero" opacity="0.5"></path>
                    <path d="M12.7571894,217.518154 C12.3755476,217.350062 12.1804015,216.922693 12.3033304,216.524203 C12.3068198,216.494047 12.3068198,216.463588 12.3033304,216.433431 L12.3033304,216.433431 C12.3122467,216.253071 12.2029566,216.087831 12.0334926,216.025451 C11.8640286,215.963072 11.6736879,216.018019 11.5635403,216.161116 L11.5635403,216.161116 C11.545231,216.186455 11.5299957,216.213878 11.5181544,216.242811 C11.3500625,216.624452 10.9226926,216.819598 10.5242032,216.69667 L10.4334314,216.69667 L10.4334314,216.69667 C10.2530714,216.687753 10.0878307,216.797043 10.0254513,216.966507 C9.96307197,217.135971 10.0180191,217.326312 10.161116,217.43646 L10.161116,217.43646 C10.1864549,217.454769 10.2138785,217.470004 10.2428106,217.481846 C10.6244524,217.649938 10.8195985,218.077307 10.6966696,218.475797 C10.6931802,218.505953 10.6931802,218.536412 10.6966696,218.566569 L10.6966696,218.566569 C10.6877533,218.746929 10.7970434,218.912169 10.9665074,218.974549 C11.1359714,219.036928 11.3263121,218.981981 11.4364597,218.838884 L11.4364597,218.838884 C11.454769,218.813545 11.4700043,218.786122 11.4818456,218.757189 C11.6499375,218.375548 12.0773074,218.180402 12.4757968,218.30333 L12.5665686,218.30333 L12.5665686,218.30333 C12.7469286,218.312247 12.9121693,218.202957 12.9745487,218.033493 C13.036928,217.864029 12.9819809,217.673688 12.838884,217.56354 L12.838884,217.56354 C12.8135451,217.545231 12.7861215,217.529996 12.7571894,217.518154 Z" id="Path" fill="#4D8AF0" fill-rule="nonzero" opacity="0.5"></path>
                    <circle id="Oval" fill="#F55F44" fill-rule="nonzero" opacity="0.5" cx="111.5" cy="60.5" r="1.5"></circle>
                    <circle id="Oval" fill="#4D8AF0" fill-rule="nonzero" opacity="0.5" cx="147.5" cy="232.5" r="1.5"></circle>
                    <circle id="Oval" fill="#4D8AF0" fill-rule="nonzero" opacity="0.5" cx="229.5" cy="96.5" r="1.5"></circle>
                    <circle id="Oval" fill="#47E6B1" fill-rule="nonzero" opacity="0.5" cx="252.5" cy="155.5" r="1.5"></circle>
                    <circle id="Oval" fill="#F55F44" fill-rule="nonzero" opacity="0.5" cx="164.5" cy="5.5" r="1.5"></circle>
                </g>
                <g id="hooman-standing" transform="translate(106.000000, 219.000000) scale(-1, 1) translate(-106.000000, -219.000000) translate(0.000000, 71.000000)">
                    <g id="Bottom/Skinny-Jeans-1" transform="translate(110.500000, 207.000000) scale(-1, 1) translate(-110.500000, -207.000000) translate(44.000000, 118.000000)">
                        <polygon id="Leg" fill-opacity="0.875737544" fill="#80A6D6" points="42 1.13686838e-13 69.1912217 94.7547692 89.030218 164.594142 103.5 164.594142 82.4182306 1.13686838e-13"></polygon>
                        <path d="M34.7282566,0 C34.0993263,48.8377069 31.9546856,75.4751193 31.2943345,79.9122373 C30.6339834,84.3493553 20.6491289,112.576657 1.33977099,164.594142 L16.3294851,164.594142 C40.911775,114.692253 54.6342381,86.4649515 57.4968745,79.9122373 C60.3595109,73.3595231 69.1938861,46.7221107 82.5,0 L34.7282566,0 Z" id="Leg" fill="#80A6D6"></path>
                        <g id="Accessories/Shoe/Flat-Simple" transform="translate(0.000000, 148.209205)" fill="#191847">
                            <path d="M0,27.75 L0.748384309,15.75 C5.13006924,17.0245688 10.6182208,16.5245688 17.2128391,14.25 C24.1861193,19.1626625 32.9346476,22.5429914 43.4584242,24.3909869 L43.4584219,24.3910003 C44.5463377,24.5820404 45.2733991,25.6188391 45.082359,26.7067549 C45.0703762,26.7749932 45.0548558,26.8425627 45.0358604,26.9091901 L44.1546742,30 L17.2128391,30 L1.49676862,30 L0,27.75 Z" id="Shoe"></path>
                        </g>
                        <g id="Accessories/Shoe/Flat-Simple" transform="translate(87.000000, 148.209205)" fill="#191847">
                            <path d="M0,27.75 L0.748384309,15.75 C5.13006924,17.0245688 10.6182208,16.5245688 17.2128391,14.25 C24.1861193,19.1626625 32.9346476,22.5429914 43.4584242,24.3909869 L43.4584219,24.3910003 C44.5463377,24.5820404 45.2733991,25.6188391 45.082359,26.7067549 C45.0703762,26.7749932 45.0548558,26.8425627 45.0358604,26.9091901 L44.1546742,30 L17.2128391,30 L1.49676862,30 L0,27.75 Z" id="Shoe"></path>
                        </g>
                    </g>
                    <g id="Body/Long-Sleeve-1" transform="translate(106.000000, 82.000000) scale(-1, 1) translate(-106.000000, -82.000000) ">
                        <path d="M37.348764,98.5692864 C26.4509059,127.289062 20.0600306,142.999323 18.1761379,145.700069 C16.7946595,147.680555 7.90750578,153.054232 1.85453968,155.990873 C-0.575038836,157.1696 0.0688648123,159.192631 0.833253354,159.811299 C7.05061875,164.843408 12.2309643,160.611582 18.5085445,158.744833 C25.3861728,156.699649 23.6490496,164.899436 29.0883336,163.366875 C28.0120413,159.715228 25.2588463,152.817208 27.5998648,148.856841 C28.6403175,147.096678 36.3635295,130.968066 50.7695007,100.471005 L37.348764,98.5692864 Z" id="Skin" fill="#B28B67"></path>
                        <path d="M166.652378,30.9951783 L189.801959,49.7487486 C196.22504,51.8501291 201.557023,54.3144836 205.797908,57.141812 C206.78427,58.1280966 207.939712,60.0779516 203.678502,59.5117043 C199.417291,58.945457 194.911153,58.538982 194.251305,59.9463983 C193.591458,61.3538145 196.096253,63.2228631 194.809274,65.099445 C193.951289,66.3504995 190.351319,62.8888768 184.009365,54.7145768 L160.72229,43.6437133 L166.652378,30.9951783 Z" id="Arm" fill="#B28B67" transform="translate(183.722761, 48.171854) rotate(-52.000000) translate(-183.722761, -48.171854) "></path>
                        <path d="M94.554148,15.0276885 L102.535066,11.6550456 C116.238808,38.307219 135.345184,63.6103407 165.236716,83.8440154 L159.439907,96.1490315 C133.682429,83.9327713 109.522662,74.7867049 98.1634968,54.1956982 C94.3510671,47.284824 95.0872361,23.6243868 94.554148,15.0276885 Z" id="Coat-Back" fill="#C5CFD6" transform="translate(129.895432, 53.902039) rotate(-52.000000) translate(-129.895432, -53.902039) "></path>
                        <path d="M64.8792429,122.570994 C88.7009896,125.035431 107.451317,125.035431 121.130226,122.570994 C122.824951,122.265667 123.092316,119.497142 122.30639,117.618189 C110.067466,88.3580015 101.674816,62.8268429 101.674816,42.5033758 C99.429127,43.6080481 95.4989605,43.7735971 89.884316,43.0000226 C74.7950438,63.9440091 67.8590428,87.9748372 64.8792429,122.570994 Z" id="Shirt" fill="#323337"></path>
                    </g>
                    <g id="Head/Front" transform="translate(144.000000, 102.500000) scale(-1, 1) translate(-144.000000, -102.500000) translate(94.000000, 4.000000)">
                        <g id="Head" transform="translate(68.354779, 2.315789)" fill="#B28B67">
                            <path d="M6.09798339,25.4137776 C2.69710898,21.4283822 0.395326047,16.5442252 0.779955327,11.0713871 C1.88817938,-4.69738358 23.8748806,-1.22845495 28.1517492,6.73026636 C32.4286178,14.6889877 31.9204146,34.8769443 26.392943,36.2993898 C24.188595,36.8666591 19.4926783,35.4770765 14.7133306,32.6010676 L17.7132353,53.7894737 L0,53.7894737 L6.09798339,25.4137776 Z"></path>
                        </g>
                        <path d="M94.1610211,6.32644293 C94.5555838,6.45881899 94.1610211,4.76398508 93.2173839,4.14415731 C90.3236671,2.2434203 81.7096306,-0.569735552 75.819264,0.651030416 C71.8732703,1.46882921 66.9520008,3.52156892 63.8002185,6.13831284 C60.9589715,8.49731363 58.3736734,12.6561172 57.3676635,16.3097797 C56.3113871,20.1461966 55.9121167,25.4843232 57.3676635,28.8314371 C59.101105,32.8175857 65.2402152,37.1136375 65.4025735,37.6842105 C65.5879039,38.3352761 64.8622856,40.8788955 64.3312521,43.5590862 C63.8002185,46.2392769 64.0419001,53.0634278 64.3312521,54.1764661 C64.7936263,55.9550621 67.2732908,56.8295991 68.3547794,56.9582621 C74.3332157,57.6695075 78.6669565,65.0791343 80.4705348,66.9749288 C88.4987614,75.0219474 94.1017487,78.5215325 97.2794967,77.4736842 C98.1158619,77.1978965 96.8622251,67.1990583 96.0258599,62.9134526 C95.1894947,58.6278468 86.9868215,50.9799999 86.4614758,48.4596701 C86.1520576,46.9749812 86.1004087,44.3904561 86.0680147,44.2726166 C85.2943138,38.9479727 85.4275823,38.5151459 84.299121,36.3454167 C83.1706598,34.1756875 82.2957568,34.0483363 82.5669564,33.4163226 C83.8921195,30.3281124 88.1540785,20.8791971 89.1209923,17.7894737 C90.2733821,14.1070147 89.7287857,15.3165506 90.9168235,11.6465734 C91.4428976,10.0214403 92.1123507,5.63911272 94.1610211,6.32644293 Z" id="Hijab" fill="#80A6D6"></path>
                        <path d="M78.9207506,6.73684211 C77.6260659,10.8380692 77.3476078,13.0272893 77.6260659,18.6310273 L76.9909558,18.6310273 C75.8045039,13.342783 76.8604556,8.36445785 78.1224907,6.73684211 L78.9207506,6.73684211 Z M61.5514876,17.3210693 C63.9641574,23.1657505 65.0641993,26.6171209 71.8015859,31.3467424 L71.2813341,31.7104297 C64.5930232,27.9261046 62.645318,23.4120281 61.0440127,17.5645546 L61.5514876,17.3210693 Z M71.4645265,11.3732777 C72.5603549,19.6692079 72.8802806,24.4078497 78.5889302,33.4824698 L77.9815714,33.6678537 C72.1063875,25.7666329 71.1750808,19.3177558 70.8975076,11.4188395 L71.4645265,11.3732777 Z M65.1586132,36.016234 L65.6782527,35.3855823 C72.7689615,37.602911 71.9791253,42.1806916 80.9099262,46.8167156 L80.1636029,47.2681791 C72.3435248,44.0461529 70.5154751,37.1355083 65.1586132,36.016234 Z" id="Shade" fill-opacity="0.2" fill="#000000"></path>
                        <path d="M68.0404233,38.849369 L80,57 C81.4641941,65.4024037 80.5038771,159.428349 94.7606186,196.648779 L17.61976,196.648779 C19.2921519,162.551768 32.484558,121.59293 45.8485861,87.3182148 C34.0315119,97.8693418 23.73196,115.747449 14.9499307,140.952536 L0.5006072,137.333481 C11.2441529,92.1628843 33.3328945,58.9623272 66.7668317,37.7318094 C66.8392298,37.5686174 66.9112892,37.4062001 66.9830054,37.2445629 L67.1459619,37.4918761 C67.4812554,37.2804189 67.8176815,37.0701553 68.1552427,36.8610894 L68.0404233,38.849369 Z" id="Coat-Front" fill="#DDE3E9"></path>
                    </g>
                </g>
                <g id="Plant" transform="translate(212.000000, 223.000000)" fill="#D4E1F1">
                    <path d="M5.33429037,19.4158231 C15.3538041,36.4297445 27.0233527,52.9038981 34.0313306,71.5061228 C33.7489265,69.3134869 33.4494846,67.1231221 33.1143209,64.9358743 C31.3361425,53.3412864 29.126156,41.8313036 26.8038363,30.335431 C25.6211731,24.482291 24.3703649,18.6503627 23.0874763,12.8189332 C22.397499,9.68687039 21.7159815,6.55289923 21.011787,3.42381896 C20.8412157,2.66541247 20.69466,1.34165844 20.4811131,0 C27.2917549,22.6215022 33.8595101,45.260062 38.6635898,68.4253932 C39.2938211,71.4655957 39.8305104,74.5003966 40.2701323,77.5299172 C40.4205214,76.8388101 40.5684427,76.1475859 40.730349,75.4583727 C42.6741689,67.1961369 45.5899615,58.9996616 49.0617232,51.2743106 C50.7214311,47.5798623 52.6278398,43.9663206 54.8724635,40.5992356 C56.2721688,38.5003829 59.5731094,36.0054405 60.8499876,33.8559094 C53.8667956,46.8200192 51.3452946,63.0408087 47.3131968,77.1351184 C46.3290398,80.5745329 45.3387693,84.008364 44.3684789,87.4482442 C50.4490532,75.1052804 59.8831967,64.9640358 73,60.5692684 C57.1226153,71.1878664 47.5992044,89.7836861 41.1817335,108.802545 C41.1605873,109.028098 41.1354457,109.253654 41.1137122,109.479564 C43.0021338,105.851887 45.3808849,102.570664 48.6048457,100.272543 C55.5050092,95.3528269 63.1595451,96.7860239 69.852952,101.006141 C64.5997542,97.6261459 55.1056944,100.703956 50.6856197,104.139306 C47.5213253,106.598483 44.8170774,109.897655 42.4687274,113.116318 C41.9060348,113.887855 41.1383552,114.788062 40.3273469,115.748578 C39.1902799,123.219484 37.3373056,130.639188 34.7138943,138 C35.1468258,135.88722 34.8338075,132.508185 34.9538654,130.933378 C34.9669334,130.762877 34.9775336,130.59226 34.9904844,130.422236 C34.5917096,132.033863 34.2064386,133.62717 33.83549,135.194787 C34.572883,132.203416 34.9736516,129.080673 35.2865039,125.925656 C35.3670802,124.569756 35.4456588,123.213858 35.5287029,121.858076 C35.5023831,119.284921 35.3976776,116.701597 35.2205829,114.114165 C34.5926368,111.599462 33.8895614,109.227484 33.3097389,107.254893 C31.2174334,100.137162 28.1501817,93.3181948 24.3749392,86.9567572 C20.9304429,81.1516137 16.8073824,75.8932664 12.0475676,71.1376953 C9.48159719,68.5748103 6.7961844,66.1338754 4.14859172,63.6590292 C3.1912071,62.7643449 1.47997812,60.5645343 0,59.4178191 C10.7784969,65.4325188 21.8725462,71.9395597 29.735481,81.6305893 C28.8136421,78.0474993 27.8123932,74.5151143 26.7532499,71.0535117 C21.3799541,53.491007 14.5953493,35.2891677 5.33429037,19.4158231 Z" id="Fill-19"></path>
                    <path d="M17,116 C17,134.777681 18.5254112,150 39,150 C59.4745888,150 61,134.777681 61,116" id="Base"></path>
                </g>
            </g>
        </g>
    </g>
</svg>