<?xml version="1.0" encoding="UTF-8"?>
<svg width="247px" height="565px" viewBox="0 0 247 565" version="1.1" xmlns="http://www.w3.org/2000/svg" xmlns:xlink="http://www.w3.org/1999/xlink">
    <!-- Generator: Sketch 53.2 (72643) - https://sketchapp.com -->
    <title>light-missing-sample</title>
    <desc>Created with Sketch.</desc>
    <defs>
        <path d="M71.002995,43.3409008 L68.1329729,46.5170125 C67.6346977,47.0684291 67.358836,47.7851689 67.358836,48.5283637 L67.358836,191.812855 C67.358836,202.247539 59.7871439,208 49.7925104,208 C39.7978768,208 35.2548616,201.60158 35.2548616,191.166895 L35.2548616,48.4479382 C35.2548616,47.7533796 35.0138624,47.0803395 34.5729824,46.5436493 L31.8833568,43.2695259 C31.182217,42.4160174 31.3057362,41.155726 32.1592447,40.4545862 C32.5170382,40.1606661 32.9657316,40 33.4287706,40 L69.5190863,40 C70.6236558,40 71.5190863,40.8954305 71.5190863,42 C71.5190863,42.4954632 71.3351785,42.9732897 71.002995,43.3409008 Z" id="path-1"></path>
        <mask id="mask-2" maskContentUnits="userSpaceOnUse" maskUnits="objectBoundingBox" x="-2" y="-2" width="45" height="172">
            <rect x="29" y="38" width="45" height="172" fill="white"></rect>
            <use xlink:href="#path-1" fill="black"></use>
        </mask>
    </defs>
    <g id="Forms" stroke="none" stroke-width="1" fill="none" fill-rule="evenodd">
        <g id="request-missing-results-illustration" transform="translate(-996.000000, -371.000000)">
            <g id="light-missing-sample" transform="translate(996.000000, 371.000000)">
                <path d="M33.0675289,53.9544086 C35.9563299,29.8390821 190.952802,-16.7060386 219.727357,6.13552209 C248.501912,28.9770828 241.218511,77.0216591 180.917672,87.9989693 C120.616834,98.9762795 30.1787279,78.0697352 33.0675289,53.9544086 Z" id="Background-Shape" fill-opacity="0.61" fill="#E9F0F8"></path>
                <g id="Hanging-Lamp" transform="translate(18.000000, 37.000000)">
                    <g id="Light" transform="translate(78.000000, 90.000000)">
                        <ellipse id="Hanging-Lamp-Light" fill="#AAC4E4" cx="37" cy="26" rx="32" ry="17"></ellipse>
                        <path d="M74,38 C74,17.0131795 57.4345357,0 37,0 C16.5654643,0 0,17.0131795 0,38" id="Hanging-Lamp" fill="#D4E1F1"></path>
                    </g>
                    <path d="M6.27883729,493.763168 C11.8833292,465.027044 68.5941343,481.397604 105.773103,472.513775 C142.952072,463.629945 186.937889,422.256163 216.048477,442.523117 C245.159065,462.790071 214.185734,511.781172 147.418525,522.836834 C80.6513151,533.892497 0.674345411,522.499291 6.27883729,493.763168 Z" id="Background-Shape" fill="#F2F2F2" transform="translate(116.500000, 482.000000) rotate(9.000000) translate(-116.500000, -482.000000) "></path>
                    <path d="M106.476283,133 L122.585673,133 C129.440163,133 135.422685,137.646491 137.119056,144.287752 L224.129182,484.930836 C226.1794,492.957402 221.334613,501.126249 213.308047,503.176466 C212.006109,503.509019 210.665388,503.665121 209.321872,503.640582 L28.4957581,500.337822 C20.2128684,500.186536 13.6209008,493.349286 13.7721865,485.066397 C13.7912086,484.024937 13.9186601,482.988291 14.152478,481.973239 L91.8590759,144.632915 C93.4274794,137.824153 99.489214,133 106.476283,133 Z" id="light" fill-opacity="0.39631" fill="#FBF8C5"></path>
                    <rect id="Wire" fill="#AAC4E4" x="112" y="0" width="5" height="90"></rect>
                </g>
                <g id="Sample-Badge" transform="translate(84.000000, 306.000000)">
                    <use id="Rectangle-2" stroke="#80A6D6" mask="url(#mask-2)" stroke-width="4" fill="#FDFDFD" stroke-dasharray="18,10" xlink:href="#path-1"></use>
                    <g id="!!!" transform="translate(0.302890, 0.000000)" fill="#AAC4E4">
                        <path d="M51.109437,18.6900969 L48,0 L55,0 L51.890563,18.6900969 C51.8573781,18.8895637 51.6556154,19.0263866 51.4399134,18.9956994 C51.269435,18.971446 51.1356644,18.8477439 51.109437,18.6900969 Z" id="Triangle"></path>
                        <path d="M80.4949747,10.4648232 L83,28 L77,28 L79.5050253,10.4648232 C79.5440777,10.1914562 79.7973437,10.0015067 80.0707107,10.0405592 C80.2906995,10.0719861 80.4635478,10.2448345 80.4949747,10.4648232 Z" id="Triangle" transform="translate(80.000000, 17.500000) rotate(223.000000) translate(-80.000000, -17.500000) "></path>
                        <path d="M91.993197,29.9591818 L95,48 L88,48 L91.006803,29.9591818 C91.0522006,29.6867966 91.3098143,29.5027868 91.5821995,29.5481843 C91.792936,29.5833071 91.9580742,29.7484453 91.993197,29.9591818 Z" id="Triangle" transform="translate(91.500000, 37.500000) rotate(239.000000) translate(-91.500000, -37.500000) "></path>
                        <path d="M26.4949747,10.4648232 L29,28 L23,28 L25.5050253,10.4648232 C25.5440777,10.1914562 25.7973437,10.0015067 26.0707107,10.0405592 C26.2906995,10.0719861 26.4635478,10.2448345 26.4949747,10.4648232 Z" id="Triangle" transform="translate(26.000000, 17.500000) scale(-1, 1) rotate(223.000000) translate(-26.000000, -17.500000) "></path>
                        <path d="M11.993197,29.9591818 L15,48 L8,48 L11.006803,29.9591818 C11.0522006,29.6867966 11.3098143,29.5027868 11.5821995,29.5481843 C11.792936,29.5833071 11.9580742,29.7484453 11.993197,29.9591818 Z" id="Triangle" transform="translate(11.500000, 37.500000) scale(-1, 1) rotate(239.000000) translate(-11.500000, -37.500000) "></path>
                    </g>
                </g>
                <g id="Maceta" transform="translate(0.000000, 450.000000)">
                    <path d="M44.1390143,39.5403256 C44.1160396,36.4933476 44.2845204,33.4240409 44.7446025,30.3127562 C45.5310424,24.9833358 46.7322042,19.6816031 47.8609075,14.3883552 C48.6720893,10.5844334 48.6208382,3.75184321 51.6994412,0.720495335 C52.5436123,0.0653705071 52.7468496,1.35061199 52.7468496,1.90838357 C52.7574533,2.02627925 52.7444932,-0.368253357 51.9250641,0.0488472497 C47.0544384,2.56440155 45.4762567,10.4741295 43.916926,14.4343524 C41.6418466,20.2148131 39.7060851,26.1238872 38.9090415,32.1379063 C38.7075715,33.6571528 38.5980001,35.1759528 38.5726691,36.6920733 C38.4071338,36.2865836 38.2516131,35.877968 38.0795978,35.473818 C35.2684432,28.8805917 31.4746806,22.4472391 26.743081,16.51405 C25.578443,15.0541979 10.9341658,0.649489986 9.78778975,2.85422841 C9.90089571,3.17442235 10.1377113,3.44013419 10.4988257,3.65136394 C10.5200331,3.67547897 10.5206222,3.66208173 10.5082512,3.62635577 C11.3683278,5.01564911 13.8136552,7.16143971 14.5753532,8.37880186 C16.4922637,11.4423031 17.9820814,14.6933656 19.4960519,17.8823543 C22.69483,24.6216105 25.6620943,31.428746 28.5386382,38.2501718 C29.2084376,39.839084 29.9065135,41.4190647 30.6187276,42.994133 C23.2768544,32.4045113 13.4825846,22.7906549 0,17.2870705 C4.60494447,19.6298004 7.62404905,24.037491 10.733874,27.4122547 C14.4846328,31.4827815 18.4350943,35.4438975 22.1929222,39.5099586 C26.6252623,44.3066155 31.8405077,49.35782 36.1037779,54.6658048 C40.2333239,63.3356026 44.2462293,72.0147785 46.7233678,81.1284714 C45.7083596,77.9796744 46.6438402,73.6282523 46.4700576,70.3236008 C46.3322097,67.6932768 46.0247028,65.0843884 45.6035009,62.4804124 C46.1242596,63.6549034 46.5731489,64.8302875 46.7763862,65.923502 C46.5908217,64.089867 46.3769808,62.2678429 46.1472343,60.4551969 C46.7369169,58.7582137 47.3159959,57.1746605 47.7071541,55.8702163 C49.7118395,49.1787436 52.0988467,42.6024871 55.349465,36.192803 C58.3573768,30.263633 61.8076979,24.4099342 65.5672931,18.7348651 C67.3210246,16.088911 69.0989091,13.4527816 70.8656007,10.8121864 C72.0219914,9.08349646 73.1230073,6.31562756 74.733,4.65928264 C67.7950486,11.0024272 58.3351876,21.1740551 46.353417,35.1741665 C45.5269187,36.603205 44.7899627,38.0608242 44.1390143,39.5403256 Z" id="Fill-27" fill="#E9F0F8"></path>
                    <path d="M15.4177215,48.4556962 C15.4177215,69.7431274 17.0976047,87 39.6455696,87 C62.1935345,87 63.8734177,69.7431274 63.8734177,48.4556962" id="Base" fill="#D4E1F1"></path>
                </g>
            </g>
        </g>
    </g>
</svg>