<?xml version="1.0" encoding="UTF-8"?>
<svg width="222px" height="174px" viewBox="0 0 222 174" version="1.1" xmlns="http://www.w3.org/2000/svg" xmlns:xlink="http://www.w3.org/1999/xlink">
    <!-- Generator: Sketch 51.2 (57519) - http://www.bohemiancoding.com/sketch -->
    <title>illustration-dataset</title>
    <desc>Created with Sketch.</desc>
    <defs>
        <path d="M30.3674989,0.463991044 L58.8908662,45.3732683 C59.1869659,45.8394694 59.0490715,46.4574362 58.5828705,46.7535359 C58.4225817,46.8553406 58.2366205,46.9094043 58.0467345,46.9094043 L1,46.9094043 C0.44771525,46.9094043 -1.34670053e-13,46.461689 -1.34781075e-13,45.9094043 C-1.34781075e-13,45.7195183 0.054063649,45.5335571 0.15586834,45.3732683 L28.6792356,0.463991044 C28.9753353,-0.00220999812 29.5933022,-0.140104381 30.0595032,0.15599532 C30.183552,0.23478279 30.2887115,0.339942284 30.3674989,0.463991044 Z" id="path-1"></path>
        <filter x="-24.6%" y="-26.6%" width="149.1%" height="161.8%" filterUnits="objectBoundingBox" id="filter-2">
            <feOffset dx="0" dy="2" in="SourceAlpha" result="shadowOffsetOuter1"></feOffset>
            <feGaussianBlur stdDeviation="4.5" in="shadowOffsetOuter1" result="shadowBlurOuter1"></feGaussianBlur>
            <feColorMatrix values="0 0 0 0 0   0 0 0 0 0   0 0 0 0 0  0 0 0 0.278787364 0" type="matrix" in="shadowBlurOuter1"></feColorMatrix>
        </filter>
    </defs>
    <g id="Downloads-Itertation" stroke="none" stroke-width="1" fill="none" fill-rule="evenodd">
        <g id="download-dataset-download-error-smashing" transform="translate(-816.000000, -184.000000)">
            <g id="Message" transform="translate(403.000000, 171.000000)">
                <g id="illustration-dataset" transform="translate(413.000000, 19.000000)">
                    <path d="M66.3766071,166.797318 C104.045605,166.797318 140.423079,172.780767 173.333351,158.055613 C208.469377,142.334583 222,130.045557 222,120.254746 C222,101.293339 211.035466,78 133.14988,78 C93.5674173,78 38.2122969,85.4089085 12.5994655,91.8026919 C-12.1855371,97.9898228 7.24166935,119.744986 7.24166935,129.06996 C7.24166935,148.031366 -11.5089787,166.797318 66.3766071,166.797318 Z" id="Oval" fill="#F2F2F2" fill-rule="nonzero"></path>
                    <g id="undraw_collecting_fjjl-(2)" transform="translate(18.000000, 5.000000)" fill-rule="nonzero">
                        <polygon id="Shape" fill="#535461" points="143.865031 38.3755924 86.9631902 24.6693548 86.9631902 131.927419 143.865031 117.03119"></polygon>
                        <polygon id="Shape" fill="#CACACA" opacity="0.979352679" points="143.865031 38.3755924 86.9631902 24.6693548 86.9631902 131.927419 143.865031 117.03119"></polygon>
                        <polygon id="Shape" fill="#535461" points="30.0613497 38.3755924 86.9631902 24.6693548 86.9631902 131.927419 30.0613497 117.327503"></polygon>
                        <polygon id="Shape" fill="#CACACA" opacity="0.979352679" points="30.0613497 37.2426943 86.9631902 23.5967742 86.9631902 130.854839 30.0613497 116.319173"></polygon>
                        <polygon id="Shape" fill="#E9F0F8" points="86.9631902 24.9058915 117.333716 0 175 14.6007411 144.629475 38.6129032"></polygon>
                        <polygon id="Shape" fill="#535461" opacity="0" points="1.07361963 15.0822653 30.5633397 38.6129032 88.0368098 24.7354911 58.8487626 0"></polygon>
                        <polygon id="Shape" fill="#D4E1F1" opacity="0.892354911" points="1.07361963 14.8970705 31.0341507 38.6129032 88.0368098 24.9058915 58.3754803 0"></polygon>
                        <polygon id="Shape" fill="#D4E1F1" points="30.0613497 38.6129032 30.0613497 118.269729 87.2647251 133 88.0368098 53.943482"></polygon>
                        <polygon id="Shape" fill="#535461" points="143.865031 117.970771 86.9631902 133 86.9631902 53.943482 143.865031 38.6129032"></polygon>
                        <polygon id="Shape" fill="#D4E1F1" points="143.865031 117.970771 86.9631902 133 86.9631902 53.943482 143.865031 38.6129032"></polygon>
                        <polygon id="Shape" fill="#000000" opacity="0.07" points="121.319018 89.9194594 121.319018 115.83871 143.865031 109.582911 143.865031 83.6612903"></polygon>
                        <polygon id="Shape" fill="#000000" opacity="0.1" points="28.9877301 78.7857792 61.129132 86.8790323 86.9631902 65.8933439 86.9631902 53.003294 29.5876328 38.6129032"></polygon>
                        <polygon id="Shape" fill="#000000" opacity="0.101060268" points="144.93865 78.7857792 112.797248 86.8790323 86.9631902 65.8933439 86.9631902 53.003294 144.338748 38.6129032"></polygon>
                        <polygon id="Shape" fill="#E9F0F8" points="29.4897201 38.6129032 0 62.8576053 57.4734701 77.2258065 86.9631902 53.8789681"></polygon>
                        <polygon id="Shape" fill="#535461" points="144.23879 38.6129032 173.92638 62.8576053 116.951402 77.2258065 86.9631902 53.8789681"></polygon>
                        <polygon id="Shape" fill="#D4E1F1" points="173.92638 62.8576053 116.951402 77.2258065 86.9631902 53.8789681 144.23879 38.6129032"></polygon>
                    </g>
                    <g id="warning" transform="translate(75.000000, 0.000000)">
                        <g id="Triangle" fill-rule="nonzero">
                            <use fill="black" fill-opacity="1" filter="url(#filter-2)" xlink:href="#path-1"></use>
                            <use fill="#DACE00" xlink:href="#path-1"></use>
                        </g>
                        <path d="M31.392,16 L31.392,25.152 C31.392,25.6320024 31.3840001,26.101331 31.368,26.56 C31.3519999,27.018669 31.3280002,27.4799977 31.296,27.944 C31.2639998,28.4080023 31.2240002,28.8826642 31.176,29.368 C31.1279998,29.8533358 31.0720003,30.3733306 31.008,30.928 L29.072,30.928 C29.0079997,30.3733306 28.9520002,29.8533358 28.904,29.368 C28.8559998,28.8826642 28.8160002,28.4080023 28.784,27.944 C28.7519998,27.4799977 28.7280001,27.018669 28.712,26.56 C28.6959999,26.101331 28.688,25.6320024 28.688,25.152 L28.688,16 L31.392,16 Z M28,37.168 C28,36.8906653 28.0506662,36.6293346 28.152,36.384 C28.2533338,36.1386654 28.3919991,35.9253342 28.568,35.744 C28.7440009,35.5626658 28.9546654,35.4186672 29.2,35.312 C29.4453346,35.2053328 29.7066653,35.152 29.984,35.152 C30.2613347,35.152 30.5226654,35.2053328 30.768,35.312 C31.0133346,35.4186672 31.2266658,35.5626658 31.408,35.744 C31.5893342,35.9253342 31.7306662,36.1386654 31.832,36.384 C31.9333338,36.6293346 31.984,36.8906653 31.984,37.168 C31.984,37.4560014 31.9333338,37.7199988 31.832,37.96 C31.7306662,38.2000012 31.5893342,38.4106658 31.408,38.592 C31.2266658,38.7733342 31.0133346,38.9146662 30.768,39.016 C30.5226654,39.1173338 30.2613347,39.168 29.984,39.168 C29.7066653,39.168 29.4453346,39.1173338 29.2,39.016 C28.9546654,38.9146662 28.7440009,38.7733342 28.568,38.592 C28.3919991,38.4106658 28.2533338,38.2000012 28.152,37.96 C28.0506662,37.7199988 28,37.4560014 28,37.168 Z" id="!" fill="#000000"></path>
                    </g>
                </g>
            </g>
        </g>
    </g>
</svg>